<svg version="1.1" id="katman_1" xmlns="http://www.w3.org/2000/svg" xmlns:xlink="http://www.w3.org/1999/xlink" x="0px" y="0px"
	 viewBox="0 0 421.8 123" style="enable-background:new 0 0 421.8 123;" xml:space="preserve">
<style type="text/css">
	.st0{fill:#FFFFFF;}
</style>
<g>
	<g>
		<g>
			<circle class="st0" cx="172.4" cy="43.8" r="3.9"/>
			<circle class="st0" cx="183.1" cy="43.8" r="3.9"/>
			<circle class="st0" cx="193.7" cy="43.8" r="3.9"/>
		</g>
		<path class="st0" d="M56.5,66.2H22l-9,19.5H0L39.8,0.2l38.4,85.5H64.9L56.5,66.2z M51.6,54.8L39.7,27.4L27.1,54.8H51.6z"/>
		<path class="st0" d="M99,0.2v73.4h31.4v12.1H86.1V0.2H99z"/>
		<path class="st0" d="M357,14.1l-10.5,6c-2-3.3-3.8-5.4-5.6-6.4c-1.9-1.1-4.2-1.7-7.2-1.7c-3.6,0-6.6,1-9,2.9
			c-2.4,1.9-3.6,4.3-3.6,7.3c0,4,3.1,7.3,9.3,9.7l8.6,3.4c7,2.7,12.1,6,15.3,9.9s4.8,8.7,4.8,14.3c0,7.6-2.6,13.8-7.9,18.8
			c-5.3,5-11.9,7.5-19.7,7.5c-7.5,0-13.6-2.1-18.5-6.4c-4.8-4.2-7.8-10.2-9-17.9l13.1-2.8c0.6,4.8,1.6,8.2,3.1,10
			c2.7,3.6,6.6,5.3,11.7,5.3c4,0,7.4-1.3,10.1-3.9c2.7-2.6,4-5.9,4-9.9c0-1.6-0.2-3.1-0.7-4.4s-1.2-2.6-2.2-3.7s-2.3-2.2-3.8-3.2
			c-1.6-1-3.4-1.9-5.6-2.8l-8.3-3.3c-11.8-4.8-17.6-11.7-17.6-20.9c0-6.2,2.5-11.4,7.4-15.5c4.9-4.2,11.1-6.3,18.4-6.3
			C343.7,0.2,351.4,4.8,357,14.1z"/>
		<path class="st0" d="M369.9,85.7V1.8H383c5.9,0,10.5,0.4,14,1.3c3.5,0.9,6.5,2.3,8.9,4.4c2.5,2.1,4.4,4.8,5.8,8
			c1.5,3.2,2.2,6.5,2.2,9.8c0,6-2.4,11.1-7.2,15.3c4.6,1.5,8.3,4.2,11,8s4.1,8.2,4.1,13.2c0,6.6-2.4,12.1-7.2,16.6
			c-2.9,2.8-6.2,4.7-9.8,5.8c-4,1.1-8.9,1.6-14.9,1.6L369.9,85.7L369.9,85.7z M383.1,37.8h4.1c4.9,0,8.5-1,10.8-3.1s3.4-5.2,3.4-9.2
			s-1.2-6.9-3.5-9c-2.3-2-5.7-3.1-10.2-3.1h-4.6V37.8L383.1,37.8z M383.1,73.8h8.2c6,0,10.3-1.1,13.1-3.4c2.9-2.4,4.4-5.5,4.4-9.2
			c0-3.6-1.4-6.7-4.2-9.1c-2.8-2.4-7.7-3.6-14.8-3.6h-6.7V73.8z"/>
		<path class="st0" d="M262.5,40.1v11.3h20.7c-0.4,4.1-2,7.8-4.8,11.1l0.7,4.4l0.7,4.4l-4.2-1.4l-4.2-1.4c-4,2.3-8.3,3.5-13,3.5
			c-7.2,0-14-2.7-20.2-8c-6.6-5.7-9.9-13.1-9.9-21.9c0-8.6,3-15.8,8.9-21.5c5.9-5.8,13.3-8.7,22.1-8.7c9.8,0,18.1,4.4,24.9,13.1
			l8.9-8.2c-5.2-5.7-10.5-9.8-15.9-12.4c-5.6-2.5-11.7-3.8-18.2-3.8c-12.1,0-22.3,4-30.7,12.1c-2.9,2.7-5.2,5.7-7.1,8.8
			c-2-3.3-4.4-6.3-7.2-9c-2.8-2.6-5.8-4.9-9.1-6.8C198.3,2,190.8,0,183.2,0c-23.8,0-43.1,19.3-43.1,43.1c0,7.5,1.9,14.8,5.6,21.2
			l-5.1,22.5l21.9-5.9c6.3,3.4,13.4,5.3,20.7,5.3c8.2,0,16.2-2.3,23.2-6.5c5.2-3.2,9.5-7.2,13-12.1l0.7-1l-0.6-1.1
			c-1.4-2.5-2.6-5.1-3.6-7.8l-1.5-4.4l-2.2,4.1c-5.6,10.6-17,17.4-29.1,17.4c-6,0-11.8-1.7-16.8-4.8l-2.1-1.3l-8.3,2.2l1.9-8.6
			l-1.3-2c-3.3-5.1-5-11-5-17.1c0-17.4,14.2-31.6,31.6-31.6c7.4,0,14.6,2.5,20.4,6.9c7.6,5.9,12.1,14.7,12.2,24.1l0,0
			c0.1,11.1,4.2,20.6,12.4,28.6c8.3,8,18.2,12.1,29.8,12.1c5.3,0,10.2-0.8,14.6-2.5l21.5,7.8l-3.1-22.4c1.6-2.4,2.8-4.8,3.7-7.4
			c1.5-4.6,2.2-9.9,2.2-15.9v-2.6h-34.3L262.5,40.1L262.5,40.1z"/>
	</g>
	<g>
		<path class="st0" d="M130.2,117.8V115l12.5-17.1h3.8v15.7h2.7v4.2h-2.8l0.1,4.8h-4.8l0.1-4.8L130.2,117.8L130.2,117.8z
			 M141.7,113.6V108c0-0.3,0-0.6,0-1s0-0.7,0-1.1l-5.7,7.7L141.7,113.6z"/>
		<path class="st0" d="M151.5,117.8V115L164,97.9h3.8v15.7h2.7v4.2h-2.8l0.1,4.8H163l0.1-4.8L151.5,117.8L151.5,117.8z M163.1,113.6
			V108c0-0.3,0-0.6,0-1s0-0.7,0-1.1l-5.7,7.7L163.1,113.6z"/>
		<path class="st0" d="M172.8,117.8V115l12.5-17.1h3.8v15.7h2.7v4.2H189l0.1,4.8h-4.8l0.1-4.8L172.8,117.8L172.8,117.8z
			 M184.4,113.6V108c0-0.3,0-0.6,0-1s0-0.7,0-1.1l-5.7,7.7L184.4,113.6z"/>
		<path class="st0" d="M202.7,110.2c0-1.9,0.2-3.6,0.7-5.2c0.5-1.6,1.1-2.9,1.9-4s1.8-2,3-2.6s2.4-0.9,3.8-0.9s2.6,0.3,3.8,0.9
			c1.2,0.6,2.2,1.5,3,2.6s1.5,2.4,2,4s0.7,3.3,0.7,5.2s-0.2,3.6-0.7,5.2c-0.5,1.6-1.1,2.9-1.9,4s-1.8,2-3,2.6s-2.4,1-3.8,1
			s-2.7-0.3-3.8-1c-1.2-0.6-2.1-1.5-3-2.6c-0.8-1.1-1.5-2.5-1.9-4C202.9,113.8,202.7,112.1,202.7,110.2z M207.5,110.2
			c0,1.2,0.1,2.3,0.3,3.3s0.5,1.9,1,2.7c0.4,0.8,0.9,1.4,1.5,1.8c0.6,0.4,1.2,0.7,1.9,0.7c0.7,0,1.3-0.2,1.9-0.7s1-1,1.5-1.8
			c0.4-0.8,0.7-1.7,0.9-2.7c0.2-1,0.3-2.1,0.3-3.3s-0.1-2.3-0.3-3.3c-0.2-1-0.5-1.9-0.9-2.6c-0.4-0.7-0.9-1.3-1.5-1.8
			c-0.6-0.4-1.2-0.6-1.9-0.6c-0.7,0-1.3,0.2-1.9,0.6c-0.6,0.4-1.1,1-1.5,1.8c-0.4,0.7-0.7,1.6-1,2.6S207.5,109,207.5,110.2z"/>
		<path class="st0" d="M232.1,117.8V115l12.5-17.1h3.8v15.7h2.7v4.2h-2.8l0.1,4.8h-4.8l0.1-4.8L232.1,117.8L232.1,117.8z
			 M243.7,113.6V108c0-0.3,0-0.6,0-1s0-0.7,0-1.1l-5.7,7.7L243.7,113.6z"/>
		<path class="st0" d="M258.6,122.6h-5.4l12.4-20.1h-11.9V98h19.7v0.1L258.6,122.6z"/>
		<path class="st0" d="M282.1,112.6c0.8-0.9,1.5-1.8,2.1-2.5c0.6-0.7,1-1.4,1.4-1.9c0.4-0.5,0.6-1.1,0.8-1.6c0.2-0.5,0.2-1,0.2-1.5
			c0-0.9-0.3-1.7-0.9-2.3c-0.6-0.6-1.4-0.9-2.5-0.9c-1.2,0-2.1,0.3-2.8,1c-0.7,0.7-1.1,1.7-1.3,3.1h-4.8c0.3-2.8,1.2-4.9,2.7-6.3
			c1.5-1.4,3.6-2.1,6.3-2.1c1.3,0,2.4,0.2,3.5,0.5c1.1,0.3,1.9,0.8,2.6,1.5c0.7,0.6,1.3,1.4,1.7,2.3c0.4,0.9,0.6,1.9,0.6,3
			c0,0.9-0.1,1.7-0.4,2.5c-0.2,0.8-0.6,1.5-1,2.3c-0.5,0.8-1,1.6-1.7,2.4c-0.7,0.8-1.5,1.7-2.4,2.7l-3.2,3.6c1.3,0,2.8,0,4.4,0
			c1.6,0,3.1,0,4.5,0v4.5h-18.6v-0.1L282.1,112.6z"/>
	</g>
</g>
</svg>
