<svg version="1.1" id="katman_1" xmlns="http://www.w3.org/2000/svg" xmlns:xlink="http://www.w3.org/1999/xlink" x="0px" y="0px"
	 viewBox="0 0 29.2 35" style="enable-background:new 0 0 29.2 35;" xml:space="preserve">
<style type="text/css">
	.st0{fill-rule:evenodd;clip-rule:evenodd;fill:#FFFFFF;}
</style>
<g>
	<path class="st0" d="M12.6,0c-0.2,0.2-0.5,0.1-0.8,0.1C12.1,0,12.4,0,12.6,0L12.6,0z M15.8,0.3L15.8,0.3c0.1,0,0.1,0,0.1,0l0,0
		l0.2,0.1l0,0c0.1,0.1,0.2-0.1,0.1,0.1l0,0l0.1-0.2l-0.1-0.1c0.2,0,0.4,0.4,0.7,0.5c0,0,0,0,0,0.1l0.1-0.1c0.1,0.1,0.3,0.4,0.4,0.5
		l0,0l-0.2-0.1l-0.1,0.2l-0.1-0.2c0,0,0,0-0.1,0c0,0,0,0,0-0.1L17,1.2C17,1,16.7,1,16.6,0.8c-0.1,0-0.1-0.1-0.2-0.1
		c-0.1,0.1-0.1,0.1-0.2,0.1c0,0,0-0.1,0-0.1c0,0,0,0-0.1,0l-0.1,0.1l0-0.2L16,0.6c-0.1-0.3-0.1-0.1-0.3-0.2L15.8,0.3
		c-0.2,0.1-0.4-0.2-0.5-0.2C15.4,0.2,15.6,0.2,15.8,0.3L15.8,0.3z M14.8,0.3c0,0-0.1,0-0.1,0V0.3C14.8,0.3,14.8,0.2,14.8,0.3
		L14.8,0.3z M13,0.5c-0.1-0.1-0.2-0.1-0.3-0.1C13.3,0.3,14,0.6,14.3,1c0.1,0,0.2,0.1,0.3,0.1l-0.1,0.1c0.1,0,0.2,0.1,0.3,0
		c0.1,0.2,0.3,0,0.4,0.1l0.1-0.1C15.1,1.2,14.9,1,14.7,1l0,0c-0.1-0.2-0.4-0.3-0.5-0.5l0,0c0.4,0.2,0.6,0.5,1,0.7
		c0.1,0,0.4,0,0.4,0.2l-0.3,0c0,0.1,0.1,0.1,0.1,0.2l0,0c0,0,0.1,0.1,0.1,0.1l0,0l-0.1-0.1l-0.1,0.1c0.1,0.2,0.3,0.2,0.4,0.2
		c-0.2,0-0.1,0.1-0.1,0.2c0,0.1,0.2,0.1,0.1,0.3L16,2.5l0,0c0,0.1,0.1,0.3,0.2,0.4l0.1-0.1l-0.1-0.1l0.1-0.1l-0.1-0.1
		c0.2,0,0.1,0.1,0.2,0.2l-0.1,0.1l0,0L16.3,3c0.2,0,0,0.3,0.2,0.3c0.1,0.1,0,0.4,0.2,0.4v0.1c0,0-0.1,0-0.1,0c0,0,0,0.1,0,0.1
		c0.1,0,0.2,0,0.3-0.1V3.5c0.2,0.4,0,0.8,0.1,1.2H17c0-0.1,0.1-0.3,0-0.4l0,0c0-0.1-0.1,0-0.1,0l-0.1,0.1l0.1,0.1
		c-0.1,0.2-0.1,0.2-0.3,0.3c0.1,0.1,0,0.2,0,0.3h-0.1c-0.1-0.1,0-0.3-0.2-0.3l0,0l0.1,0.1l-0.1,0.1L16.5,5l-0.1,0.1
		c0.2,0.1-0.1,0.2,0,0.3l-0.1,0l0,0c0,0-0.1,0-0.1,0l0,0l0.1-0.1c-0.2-0.2,0.1-0.1,0.1-0.3c0,0-0.1-0.1-0.1-0.1l0,0.1l0,0
		c0-0.1-0.1,0-0.1,0c-0.1,0.1,0,0.1,0,0.1l-0.2,0.1c0.1,0,0,0.1,0,0.1l-0.3,0.2l0.1,0.1l-0.1,0.1c0.1-0.1-0.2-0.1,0-0.2
		c-0.1-0.1-0.1,0-0.2,0c-0.1,0-0.1-0.2-0.2-0.2l0,0c0,0,0-0.1-0.1-0.1l-0.1,0.1c0.2,0.1,0.2,0.4,0.3,0.5c-0.1,0.3,0.1,0.7,0,1
		l-0.1-0.4c-0.1,0-0.1-0.3-0.2-0.5l-0.4,0l0,0c0,0-0.1-0.1-0.1-0.1l0.1-0.1c-0.1,0-0.2-0.1-0.1-0.2l0.1-0.1c-0.3,0-0.1-0.3-0.2-0.4
		l-0.1,0.1l-0.1-0.1l0,0c0-0.1-0.1-0.1-0.1-0.2l0,0L14,4.8l-0.1,0.1c0-0.1-0.1-0.1-0.1-0.2c0,0-0.1,0-0.1,0c0,0.1,0.1,0.1,0.1,0.1
		c0,0-0.1,0.1-0.1,0.1c0.1-0.2-0.2-0.3-0.1-0.5l-0.1-0.1c0.1-0.1,0.1,0,0.2,0l0,0.1c0.2-0.1,0.3,0.2,0.5,0.2
		c0.3,0.2,0.5,0.5,0.7,0.7l0.2,0c0.1-0.2-0.2-0.2-0.3-0.2l0,0c-0.4-0.6-1.1-0.9-1.8-1.2V3.8c0.1,0,0.3,0.2,0.4,0.1
		c-0.2-0.1-0.1-0.3-0.3-0.4c0,0,0,0-0.1,0l0,0c0.1,0,0.2-0.1,0.1-0.2c0-0.1-0.2-0.1-0.2-0.3c0.1-0.1-0.1-0.1-0.1-0.2
		c-0.3-0.2-0.7-0.2-1-0.5c0,0,0,0,0,0.1L12,2.5l0,0l0,0c0,0.1-0.3,0.1-0.2,0.3c0,0.1,0,0.1,0.1,0.1l0,0L12.1,3l0,0l0.1,0.1l0,0
		c0.2,0,0.2,0.2,0.3,0.3l0,0C12.3,3.3,12,3.3,12,3.1c0-0.1-0.1,0-0.1-0.1l0,0l-0.3-0.2c0,0,0-0.1,0-0.1c0-0.1-0.1,0-0.1,0l0-0.1
		l-0.2-0.1l0,0c-0.2-0.1-0.3-0.5-0.6-0.4L11,2.2l0,0c0.2,0.1,0.3,0.3,0.4,0.5c0,0.2-0.2-0.1-0.2,0.1c0.1,0.1,0.2,0,0.3,0.1l0,0l0,0
		h-0.1l0,0c-0.1-0.1-0.2,0.1-0.3-0.1L11,3c-0.2,0-0.2-0.3-0.4-0.1C10.9,3,10.9,3,11.1,3.2c0,0.1-0.1,0-0.2-0.1
		c-0.2,0.2,0.2,0.3,0.1,0.5l0.1,0.1c-0.2,0.1-0.3-0.3-0.5-0.4c0,0.1,0,0.2,0,0.4l-0.4-0.3c0,0.1,0.2,0.3,0.1,0.4l-0.3-0.3
		c-0.1,0.1,0,0.2,0.1,0.2c0,0-0.1,0.1-0.1,0.1l0.1,0.1c0,0-0.1,0-0.1,0C10,4.1,10,3.9,9.9,3.9C9.8,4,10,4.1,10.1,4.2
		C9.9,4.4,9.8,4,9.6,4.1c0.1,0.1,0.1,0.2,0.3,0.3c0,0.1-0.1,0-0.1,0.1C9.6,4.3,9.5,4.3,9.3,4.2c0,0.2-0.2,0.1-0.3,0.1
		c0.1,0.2-0.1,0.3,0.2,0.4C8.9,4.9,8.6,4.7,8.4,4.9c0.1,0.2,0.1,0,0.2,0.1c0.1,0,0.2,0.1,0.3,0.1c-0.2,0-0.3,0-0.5,0c0,0,0,0,0,0.1
		c0,0.1,0.1,0,0.1,0c0,0,0,0.1,0,0.1c0,0-0.1,0-0.1,0L8.3,5.3l0.1,0.1L7.9,5.4c0.2,0.1,0.4,0.1,0.5,0.2c-0.1,0-0.1,0-0.2,0.1
		l0.1,0.1c0,0,0,0-0.1,0c0-0.3-0.3-0.1-0.4-0.1c-0.1,0-0.1,0-0.1,0.1c0.1,0.2,0.2,0,0.4,0L7.9,5.9l0,0C7.9,6.1,7.7,5.9,7.7,6.1
		l0.2,0c0,0,0,0.1,0,0.1l-0.3,0l0.1,0.1C7.6,6.5,7.4,6.5,7.2,6.6v0.1c0,0-0.1,0-0.1,0c0,0-0.1,0.1-0.1,0.1c0.1,0,0.4,0.1,0.3-0.1
		C7.3,6.7,7.5,6.8,7.5,6.9C7.3,7,7,6.9,6.9,7.1L7,7.2C6.9,7.3,6.7,7.3,6.7,7.4c0.2,0,0.4-0.2,0.6-0.1L7.1,7.3l0.1,0.1L7.1,7.6l0,0
		C7.1,7.6,7,7.7,7,7.7c0,0,0-0.1,0.1-0.1c-0.1-0.1-0.1,0-0.2,0c0,0.2-0.2,0.2-0.3,0.3l0,0c0,0-0.1,0-0.1,0.1c0,0.1,0.1,0,0.1,0
		l0.1-0.1L6.8,8c0-0.1,0.1-0.2,0.2-0.2c0.1,0,0.2,0,0.2,0.1C7.2,8.1,7.1,7.8,7,7.9C7,8,7.1,8,7.1,8.1c0,0-0.1,0-0.1,0
		C7,8,6.9,8,6.9,8c0,0.1-0.1,0.1,0,0.2c0,0.1-0.1,0-0.1,0.1L6.7,8.2c-0.2,0.1,0,0.3-0.2,0.5l0.2,0.1C6.6,8.8,6.6,8.9,6.5,9L6.4,8.9
		C6.3,9.1,6.7,9.1,6.7,9.3c0,0.1-0.1,0-0.1,0.1l0.2,0C6.7,9.5,6.7,9.6,6.7,9.7l0.1,0l-0.3,0.4c0.2,0.1,0.2-0.2,0.3-0.3
		c0.1,0.2-0.3,0.3-0.2,0.5l0.2-0.2c0.1,0.1-0.2,0.4,0,0.4c-0.1,0.1,0.1,0.2-0.1,0.3c0,0.1,0,0.2,0.1,0.3C7,11,6.8,10.8,7,10.7l0,0
		l0,0c0.1,0.1-0.1,0.2,0,0.3c0,0.2-0.1,0.4,0,0.5l0.1,0c-0.2,0.2,0,0.4-0.2,0.6l0,0c-0.1,0.1,0,0.1,0,0.2c0.2,0,0-0.2,0.2-0.3
		c0.1,0,0,0.1,0,0.2L7,12.3c0.1,0,0,0.1,0,0.1l-0.1,0.1c0.1,0.1-0.1,0,0,0.1c-0.1,0.1,0,0.3,0,0.4c0.3,0-0.1-0.3,0.2-0.4
		c0,0,0.1,0.3-0.1,0.3L7,13.3l0.1-0.1c0,0,0,0,0-0.1c0.1,0.2,0.2,0.2,0,0.4L7,13.5l-0.1,0.1c-0.1-0.2,0.1-0.3-0.1-0.5
		c0,0.2-0.2,0.3-0.3,0.3c0,0,0-0.1,0-0.1c-0.1,0-0.1,0.1-0.2,0.1c0.1,0,0.2,0.1,0.2,0.2l-0.1,0.1c0.1,0,0.2,0.1,0.3,0v0.1
		c-0.1,0-0.1-0.1-0.1,0c0,0.2,0.3,0.3,0.3,0.5L7,14.3l0,0.2c0.1,0,0.2-0.2,0.1-0.1c0,0,0.1,0.1,0.1,0.1c-0.1,0.1,0,0.1,0,0.2l0,0
		l-0.1,0.1c0,0,0.1,0.1,0.1,0.1l0-0.1c0.1,0,0,0.1,0,0.1c-0.1,0-0.1,0.1-0.1,0.1c0,0.1,0.1,0,0.1,0.1l-0.1,0.1L7,14.9l0.1-0.1
		c-0.2,0-0.3-0.3-0.5-0.4c0-0.3-0.3-0.4-0.4-0.7c0-0.1,0-0.1-0.1-0.1l0,0C6,13.5,6,13.3,5.9,13.2l0,0c0,0-0.1-0.1-0.1-0.1l0,0
		c-0.1-0.1-0.2,0-0.3,0v0c-0.2-0.1-0.3-0.4-0.4-0.5c0,0,0.1,0,0.1,0c0.1,0.2,0.3,0.2,0.4,0.4c0.1-0.2-0.1-0.3-0.1-0.4l0.1,0
		l-0.1-0.4l-0.1,0.1c0.1,0.1,0.1,0.2,0,0.2c-0.1-0.1-0.1-0.3,0-0.4c0,0,0-0.1,0-0.1C5.6,12,5.8,12,5.8,12.2c0.1-0.1,0-0.2,0-0.3
		c-0.1,0-0.2,0-0.3-0.1c0.2-0.1-0.1-0.2,0-0.3c0-0.2,0.1-0.3,0-0.4L5.6,11c-0.1-0.1-0.1-0.2,0-0.3c0-0.1-0.1,0-0.1-0.1l0,0.4l0,0
		c0,0-0.1,0.1-0.1,0.1c0.3-0.1,0,0.3,0.2,0.4c-0.1,0.1-0.1,0-0.2,0.1l0.1,0.1c0,0-0.1,0.1-0.1,0.1l0,0c0,0-0.1,0.1-0.1,0.1l0,0
		l0.1-0.1c0,0-0.1-0.1-0.1-0.1l0.1-0.1c0,0,0,0-0.1,0l-0.1,0.1c0.1-0.1-0.2-0.3,0-0.4L5,11c0.1-0.1,0-0.2,0.1-0.4
		c0,0-0.1-0.1-0.1-0.1l0.2-0.1l-0.2-0.1c0,0,0.1-0.1,0-0.1h0C5.3,10,5,9.6,5.2,9.3c0,0,0-0.1,0-0.1L5,9.3l0,0l0,0l0,0l0.1-0.1
		c0,0,0,0,0-0.1l0.1,0C4.9,8.9,5.2,8.4,5.3,8c0.2-0.2,0.2-0.5,0.4-0.6l0,0.1c0,0,0,0,0.1,0c0,0,0,0,0,0.1c-0.1,0-0.1,0-0.1-0.1
		c0,0.1-0.1,0.2-0.1,0.3c0.1-0.1,0.1-0.2,0.2-0.2C5.9,7.9,6.1,8,6,8.2c-0.1,0-0.2,0.1-0.3,0.1l0.2,0.1C5.8,8.6,5.6,8.5,5.5,8.6
		c0,0.1,0.1,0,0.1,0c0,0.2-0.1,0-0.1,0.1l0.1,0.1L5.5,9C5.7,9,5.7,8.7,5.8,8.6l0.1-0.1l0,0c-0.1,0-0.1,0.1-0.1,0.2
		c0.1,0.1,0.1-0.1,0.2,0L5.9,8.9c0,0,0-0.1,0-0.1C5.8,9.1,5.3,9,5.5,9.3l0.1-0.2c0,0.1,0,0.3-0.1,0.4l0,0L5.5,9.6
		c0.1,0.1,0,0.2,0,0.3l0,0.4c0.2-0.2,0-0.6,0.3-0.8l-0.1,0c0.1-0.1,0.3-0.1,0.3-0.3C6,9.1,6.1,9,6.2,8.9l0,0
		c0.2-0.1,0.1-0.2,0.1-0.3c-0.1-0.2-0.2,0-0.4,0l0.1-0.1L6,8.4c0.1,0,0.1-0.1,0.2-0.1c0.1-0.4-0.4-0.6-0.3-1C5.6,6.8,5.7,6.4,5.7,6
		c0-0.3,0.3-0.8,0.1-1c0,0,0-0.1,0.1-0.1l0.2,0l0,0c0.1-0.1,0.2-0.1,0.3-0.1c0-0.1,0-0.1,0-0.2c0,0.1,0.2,0.2,0.3,0.1
		c0.1,0,0.3-0.2,0.4,0c0.2-0.1,0.4,0,0.6-0.1c0.1,0,0.2,0,0.4,0V4.3c-0.2,0-0.7,0-0.9,0l0,0C7.2,4.1,7.4,4.1,7.5,4
		C7.4,4,7.2,3.9,7,4.1l0,0.1v0C6.8,4.1,6.7,4.3,6.6,4.4c-0.1,0,0-0.1,0-0.1c0.1,0,0.2-0.1,0.1-0.2l0,0C7.1,4,7.7,3.7,8.2,3.6
		c0,0,0.2,0,0.1-0.1c0.1,0,0.3-0.1,0.4,0.1l0.1-0.2c0,0,0.1,0,0.1,0l0,0c-0.1-0.2-0.3,0-0.4-0.2C8.5,3.3,8.3,3.1,8.2,3.3
		c-0.1,0-0.1,0-0.2-0.1c0.2-0.2,0.4,0,0.5-0.2L8.3,2.9c0.3,0,0.4-0.2,0.7,0l0,0C9,2.6,8.6,2.6,8.5,2.5c0.2-0.1,0.5,0,0.7-0.1
		L8.9,2.2c0.3,0,0.6-0.1,0.9,0.1l0,0c0.1,0.1,0.2,0.1,0.3,0.1l0.1,0.1l0.1-0.1c-0.1-0.2-0.4,0-0.4-0.3c0-0.1-0.1,0-0.2-0.1V1.9
		c0.1,0.1,0.2,0,0.3,0c-0.1,0-0.2-0.1-0.2-0.1c0.3,0,0.5,0,0.7,0.3l-0.1,0.1c0.2,0,0.2,0.3,0.4,0.2c-0.1-0.2,0-0.3-0.3-0.4l0.1-0.1
		c-0.2-0.2-0.6-0.4-1-0.4c-0.3,0.1-0.7,0-1,0c0.1-0.2,0.4,0,0.5-0.1c0.1,0.2,0.3-0.2,0.5,0c0.1-0.1,0.2-0.1,0.3,0
		c0.1,0.2,0.3-0.1,0.4,0.1c0.1,0,0.2,0.2,0.4,0.1l-0.1-0.1c0.1-0.1,0.3,0,0.4,0c0.1,0.1,0.1,0.1,0.2,0.1l0.5,0.5l0,0
		c0.2,0.1,0.2,0.3,0.4,0.1L12,2.1l0,0C12,2,11.7,1.9,11.9,1.8c0.2,0-0.1,0.2,0.2,0.1L12,2c0,0.1,0.1,0,0.1,0
		c0.1,0.2,0.4,0.3,0.3,0.5c0,0.1,0.1,0,0.2,0l0.1-0.1c-0.2-0.4-0.5-0.6-0.7-1c-0.1-0.1-0.1-0.1-0.3-0.1l0,0l0.1,0.2l-0.1,0.1
		c0-0.2-0.2-0.2-0.3-0.4l-0.1,0.1l0-0.3C11.2,1.3,11.2,1,11,1l-0.5-0.1c0.2-0.1,0.4-0.1,0.7-0.2c0,0.1-0.1,0.1-0.1,0.1
		c0,0.1,0.1,0.1,0.2,0.1c0.1-0.3,0.4,0.1,0.5-0.1c-0.2-0.1-0.4-0.2-0.5-0.4c0.4,0,0.8-0.2,1.2,0C12.6,0.5,12.9,0.6,13,0.5L13,0.5z
		 M17.1,0.8C17.1,0.8,17,0.8,17.1,0.8l-0.1,0l0,0l-0.1-0.1l0,0L17.1,0.8L17.1,0.8z M12.9,1c-0.3,0-0.8-0.1-1.1-0.3l-0.3,0
		C12.1,0.5,12.5,0.8,12.9,1L12.9,1z M15.7,0.7L15.7,0.7l-0.2,0V0.7C15.6,0.7,15.7,0.8,15.7,0.7L15.7,0.7z M9.7,0.8
		C9.6,1,9.3,1,9.1,1.1C9.3,0.9,9.5,0.8,9.7,0.8L9.7,0.8z M14.2,1l-0.5,0C13.8,0.8,14,0.8,14.2,1L14.2,1z M12.1,1l-0.3-0.1L12.1,1
		L12.1,1L12.1,1z M16.4,1.2L16.4,1.2c0.3,0.1,0.6,0.4,0.8,0.7l0,0c0,0,0.1,0.1,0.1,0.1l0,0C17.3,2,17.4,2,17.5,2c0.1,0,0-0.1,0-0.1
		h-0.1l0.1-0.1c0-0.1-0.2,0-0.1-0.1l0,0c0,0,0,0-0.1,0c0,0,0-0.1,0-0.1h0.1c0,0,0,0,0,0.1c0,0,0.1,0,0.1,0c0,0.2,0.2,0.3,0.1,0.4
		l-0.1,0.1c0.1,0,0.1,0.1,0.2,0.1c-0.2,0.2,0.2,0.1,0.1,0.3c-0.2-0.1-0.1-0.2-0.3-0.3l0,0c-0.2,0-0.4-0.3-0.7-0.3
		c0.2,0.2,0.4,0.4,0.7,0.5c-0.1,0.3,0.4,0.4,0.3,0.7l0.1,0.1c-0.1,0.1-0.2-0.1-0.3-0.1c0-0.1-0.2-0.2-0.3-0.3
		c-0.1,0.2,0.2,0.3,0.1,0.5c0.1,0.1,0.1,0.2,0.2,0.2c-0.1,0.1-0.2-0.1-0.2,0.1c0.1,0,0.2,0.1,0.2,0.1c-0.1,0-0.2,0.1-0.2,0
		c-0.1,0.1,0,0.2,0,0.3c0,0,0,0-0.1,0c-0.2-0.1-0.2-0.5-0.1-0.6c0,0.1,0.1,0.1,0.1,0.1c0,0,0-0.1,0.1-0.1c-0.2-0.1-0.3-0.5-0.4-0.7
		c-0.1,0-0.2-0.2-0.3-0.3c0-0.1,0.2,0,0.2,0.1c0,0,0.1,0,0.1,0c0,0,0,0.1,0,0.1c0,0,0,0,0.1,0c0.1-0.1,0-0.2,0-0.3
		c-0.2-0.1-0.4-0.3-0.6-0.4c0,0,0-0.1,0-0.1c-0.1-0.2-0.5-0.1-0.6-0.3c-0.1,0-0.2,0-0.2,0.1c0-0.1,0-0.2,0-0.3
		c0.2,0.2,0.4,0,0.6,0.1l0.2-0.1c-0.3,0-0.1-0.4-0.4-0.4c0,0,0-0.1,0-0.1H16C16,0.9,16.3,1.1,16.4,1.2L16.4,1.2z M18.8,1.1
		c-0.1,0.1-0.3,0.1-0.3,0.1c0,0,0-0.1,0-0.1c0,0,0.1,0.1,0.1,0.1c0.1,0,0.1-0.1,0-0.1L18.8,1.1L18.8,1.1z M19.3,1.1
		c0,0.1,0.1,0,0.2,0c-0.1,0-0.2,0.1-0.2,0.2c0,0,0,0,0.1,0l0.1-0.1c0,0.1,0,0.3-0.1,0.4c0.1,0,0.3,0.3,0.5,0.1l-0.2,0
		c0.1-0.1,0.2-0.3,0.4-0.1c0.1-0.2,0.1,0,0.2-0.1l-0.1-0.1l0.1-0.1c-0.2-0.1-0.3,0.2-0.5,0.1l-0.2,0.2c0-0.1,0.1-0.3,0.2-0.4
		l0.1,0.1c0-0.1,0.1-0.2,0.2-0.1c0.3-0.1,0,0.3,0.3,0.1l0,0l-0.1,0.1c0.1,0.1,0.2,0.1,0.3,0.1c-0.1,0-0.1,0.1-0.1,0.2
		c0.2,0,0.3-0.1,0.6-0.1c0.1,0,0.3-0.1,0.3,0c-0.1,0-0.3,0.2-0.5,0.1c-0.1,0.1-0.3,0-0.3,0.2L20.7,2c0.1-0.1,0.4-0.2,0.5-0.1L21.1,2
		l0,0l-0.3,0.3c0.2,0.1,0.4-0.3,0.5,0l0.1-0.1l-0.1-0.1l0,0l0,0.1c0.1-0.1,0.2,0,0.3-0.1l-0.2,0c0.6-0.1,1.3-0.1,1.9,0.2
		c0.1-0.1,0.2,0.1,0.3,0.1c-0.2-0.1-0.6,0-0.9-0.1c-0.5,0-1.1-0.2-1.4,0.3c-0.1,0-0.2,0.2-0.3,0.2c0.1,0.1,0.2-0.3,0.4,0l0.2-0.1
		c0.1,0.1-0.1,0.2-0.2,0.3c-0.2,0.1-0.5,0.2-0.6,0.4l-0.1-0.1c0,0.1-0.2,0.2-0.1,0.3c0.1,0.1,0.2-0.1,0.3-0.2l0,0l-0.3,0.3l0,0
		c0.2-0.1,0.6-0.4,0.5-0.5c0.1,0.1,0.2,0,0.2-0.1c0,0,0.1,0,0.1,0l0,0.1c0.3-0.2,0.6-0.2,1-0.4c0.2,0,0.5,0,0.7-0.1l0.1,0.1
		c0,0,0.1,0,0.1,0l0,0l-0.1,0.1C23.4,2.9,23.5,3,23.7,3V3c0.1,0.1,0.2-0.1,0.3,0c0,0,0,0.2,0.1,0.1c0,0,0-0.2,0.1-0.1l0.1,0.1
		l-0.2,0c0.4,0.3,0.8,0.6,1.1,0.9l0,0L25,4.1l0,0c-0.5-0.6-1.2-1.1-2-1c-0.3,0.1-0.5,0.2-0.7,0.3c0.2,0,0.3,0.1,0.5,0.1
		c0,0,0,0.1,0,0.1c0.2-0.1,0.5-0.1,0.7-0.2c0.1,0.1,0.1,0.2,0.2,0.1l0,0.1c0.2,0.1,0.6,0.3,0.8,0.4c0,0.1,0,0.1,0.1,0.1l0,0l0-0.1
		L24,3.8c-0.1,0.1-0.1,0.2,0,0.2l-0.3,0.1c0,0,0-0.1-0.1-0.1l-0.2,0.1l-0.1-0.2c-0.2,0-0.5,0.2-0.7,0.2c0.1,0.1-0.1,0.1-0.2,0.1l0,0
		c0,0,0,0,0.1,0c0,0,0,0.1,0,0.1c-0.1,0-0.2-0.1-0.3,0l-0.1,0.1l0.1,0.1c0,0-0.1,0-0.1,0.1c0,0.1,0.1,0,0.2,0c0,0,0,0.1,0,0.1
		l0.1-0.1c0.1,0.2,0.2-0.2,0.4,0c0.5,0,1,0.1,1.4,0.3c0.1,0,0.2,0,0.2,0c-0.2-0.1-0.4-0.2-0.6-0.3c0.2-0.3,0.4,0,0.5,0.1
		c0.1,0,0,0.1,0.1,0.1l0,0c0,0.2,0.4,0.2,0.3,0.4c0.2,0,0.2,0.3,0.4,0.3v0.2c0,0-0.1,0-0.1,0c0,0.1,0.1,0.1,0,0.1
		c0.3,0.2,0.2,0.6,0.5,0.8l-0.3,0c0,0.2,0.3,0,0.3,0.3c0,0.1,0.2,0.1,0.1,0.2l-0.1,0.1c0.2,0.1,0.2,0.3,0.1,0.5l0,0l0.1,0.1
		c-0.2,0.3,0.2,0.7,0,1c0,0.1,0.1,0.2,0,0.2c0.2,0.2,0,0.5,0.1,0.7c0.2,0.5-0.6,0.7,0,1.1c0.2,0.2,0,0.5,0.2,0.7c0,0-0.1,0-0.1,0
		c-0.2-0.2-0.1-0.6-0.3-0.8c-0.1-0.1-0.3,0-0.4,0c0.1,0.1,0.1,0.2,0.2,0.1l-0.1,0.2c0.2,0,0.1,0.3,0.1,0.5c0,0.1-0.2,0.2-0.1,0.3
		l0.4-0.3l0.3,0.2c0,0.4-0.3,0.9-0.2,1.3C26,13.2,26,13.3,26,13.4l0.1,0.1L26,13.6c0.1,0.2,0,0.4,0,0.6c0.1,0.1-0.1,0.4,0.1,0.5
		C26,14.9,26,15.1,26,15.3c0.1,0,0,0.1,0,0.2L26,15.6c0.2,0.1,0,0.2,0,0.3c-0.2,0.1,0,0.3-0.1,0.4c-0.2,0.1-0.1,0.2-0.2,0.3
		c-0.1,0,0-0.1,0-0.1l0.1-0.1l-0.2-0.1l0,0l-0.1-0.1c0,0,0.1-0.1,0.1-0.1l0,0.1c0.1,0,0-0.1,0.1-0.2l0,0l0.1-0.1
		c-0.3,0-0.1-0.2-0.1-0.4l0.1-0.1c0,0-0.1,0-0.1-0.1c-0.1,0.2-0.1,0.5-0.4,0.6l0.1,0c0,0.1-0.1,0.1-0.2,0.2c0.2,0,0.1,0.2,0,0.3
		c0,0.2,0.2,0.3,0.1,0.5c0,0.1-0.1,0-0.2,0c0,0.1-0.1,0.3,0.1,0.4c-0.1-0.1-0.1,0.1-0.2,0.2c0,0.1,0,0.2-0.1,0.2
		c0,0.2-0.3,0.4,0,0.5c0,0.1-0.1,0.2-0.2,0.3l0,0c-0.1,0.1-0.2,0.3-0.4,0.3l-0.2-0.1c0,0.3-0.3,0.6-0.1,1c-0.3,0,0,0.3-0.1,0.4
		c-0.6,0.6-0.2,1.4-0.8,2c-0.2,0.5,0.4,0.7,0.6,1l0.5,0.4l0,0c0.1,0.1,0.2,0,0.1,0.1c0.2,0,0.2,0.1,0.3,0.2l0,0
		c0.2,0,0.1,0.3,0.3,0.2l0,0l0.1,0l-0.1,0.1l0.1,0.1l0,0l0.2,0.2c-0.1,0.1-0.4,0.2-0.5,0.4c0,0.1,0.1,0,0.2,0c0,0.1,0.1,0.1,0.1,0.1
		l-0.2,0.2c0,0,0.1,0.1,0.1,0.1c0,0-0.1,0-0.1,0c0-0.1-0.1-0.2,0-0.3l-0.1-0.1c-0.1,0.1-0.1,0.1,0,0.2c0,0,0,0.1,0,0.1
		c0,0-0.1-0.1-0.1-0.1l0,0c-0.1,0-0.2-0.1-0.3-0.1c0,0.1,0,0.2,0.1,0.4c0.1,0,0.1,0,0.1-0.1c0.1,0.1,0.2,0.2,0.3,0.2l-0.2,0.1l0,0
		c-0.1,0-0.1,0.1-0.1,0.2c0.1,0,0.2,0,0.3,0c-0.1,0.1-0.4-0.1-0.4,0.1c0.1,0.2,0.3-0.2,0.4,0.1l0.1-0.1c0,0,0,0.1,0,0.1
		c-0.1-0.1-0.3,0.1-0.3,0c0,0,0,0-0.1,0l-0.1-0.1c0,0-0.1,0.1-0.1,0.1c0.1,0,0.3,0.1,0.4,0.1l-0.2,0.1c0,0,0,0,0.1,0
		c0,0,0,0.1,0,0.1c0.1-0.1-0.2-0.1-0.2-0.2c-0.2,0.1,0,0.2,0.1,0.3c-0.1-0.1-0.2,0-0.3,0c0,0.1-0.1,0.1,0.1,0.2c0,0,0,0,0.1,0
		L24.4,27c0,0,0,0-0.1,0l0,0l0.1,0.1l0,0l0.1,0.1c-0.1,0.1-0.2,0.3-0.4,0.4l0.2,0c-0.1,0,0,0.1-0.1,0.1c0.5,0,1-0.2,1.6-0.3
		c0.2-0.1,0.2-0.3,0.4-0.4c0,0.3,0.2,0.1,0.4,0.1c0.3,0,0.5-0.2,0.8,0c0,0.1,0,0.2-0.1,0.2c-0.4-0.2-0.8,0-1.1,0.1
		c-0.4,0.6-0.6,1.2-0.9,1.8c0.4,0,0.6-0.4,0.8-0.7c0-0.2,0.2-0.4,0.1-0.5c-0.2,0-0.2,0.1-0.4,0.3c-0.1-0.1,0.1-0.2,0.1-0.3
		c0.1-0.1,0.2-0.2,0.4-0.2c0.3,0.1,0.2,0.4,0.1,0.6c-0.2,0.3-0.5,0.8-0.9,1c1.3,0.7,2.9,1.1,3.6,2.7c0,0-0.1,0.1-0.1,0.1
		c0.1,0.1-0.1,0.3-0.1,0.5c-1.3,1.5-3.4,1.3-5.2,1.7c-2.4,0.4-5,0.3-7.5,0.5c-0.5-0.1-1.3,0-1.8-0.2c-0.1-0.1-0.2-0.1-0.1-0.2
		c0.6-0.4,1.3-0.2,1.9-0.3c0.3,0,0.7-0.1,0.9,0.1l-0.1,0.1c-0.6,0-1.2-0.1-1.7,0.1c1,0.2,2.1,0,3.2,0.1c1.5-0.1,3-0.1,4.5-0.3
		c1.8-0.4,3.8-0.3,5.3-1.4c0.1-0.4,0.3-0.8,0.1-1.2c-0.1-0.4-0.5-0.9-1-1c-0.8-0.5-1.5-1.2-2.5-1.1c-0.1,0.2-0.2,0.6-0.4,0.7l-0.3,0
		c-0.1-0.3,0.5-0.6,0-0.8c0-0.1,0.1-0.3,0.3-0.3c0.3,0.1,0.2-0.3,0.4-0.4c0-0.3,0.4-0.5,0.3-0.7c-0.3,0.3-0.6,0.4-0.8,0.7l-1.4,1.3
		c-0.1,0-0.2-0.1-0.3-0.1c0.2-0.1,0.3-0.3,0.3-0.5l0,0c0,0.2-0.3,0.3-0.4,0.5c-0.2,0-0.1,0.2-0.1,0.2c0,0,0.1,0,0.1,0
		c-0.1,0-0.3,0.2-0.5,0.1c-0.1,0-0.2,0.2-0.3,0.1l-0.1-0.3c-0.2,0.2-0.4,0.4-0.7,0.4c-0.2-0.1-0.1-0.4-0.1-0.5
		c-0.4,0.3-0.7,0.9-1.1,0.7c0-0.1-0.1-0.2-0.1-0.3l0.1-0.1l0,0c0.2-0.7,0.8-1.2,1.2-1.8c0,0-0.1,0-0.1,0L19.8,30
		c0,0.1,0,0.1,0.1,0.1c-0.1,0.1-0.1,0-0.2,0c-0.5,0.4-0.7,0.9-1.3,1.2c-0.1,0-0.2,0-0.2-0.1c0-0.1,0-0.2,0-0.3
		c-0.3,0.3-0.6,0.5-1,0.7v0.1c-0.5,0,0-0.4-0.1-0.6c0,0,0.1-0.1,0-0.1c-0.1,0.1-0.3,0.2-0.4,0.3c0,0.2,0.1,0,0.1,0.1h-0.1
		c0-0.1-0.1,0-0.1-0.1c-0.3,0.1-0.5,0.4-0.8,0.5c-0.2,0.1-0.5,0.4-0.8,0.2c0.2-0.8,0.7-1.5,1.2-2.1h-0.2c-0.6,0.5-1.1,1.1-1.7,1.6
		c0,0.1-0.1,0.1-0.1,0.1c-0.4,0.5-1,0.6-1.2,1.2c-0.1,0.1-0.2,0.3-0.3,0.3c0.2-0.3,0.7-0.6,0.5-1c0.2-1,1.2-1.8,1.7-2.7
		c-0.6-0.3-0.4,0.6-0.8,0.9c-1,1.2-2.1,2.3-3.4,3c-0.1,0-0.1,0-0.2,0.1c-0.1-0.1-0.5,0-0.5-0.3c-0.2-0.3,0-0.7,0-1
		c-0.4,0.3-0.5,0.8-0.7,1.2c-0.1,0.1,0,0.3-0.2,0.3c-0.1-0.7,0.5-1.2,0.8-1.8c0,0-0.1,0-0.1,0c0.1-0.1,0.1-0.3,0.3-0.3l-0.1,0.1
		l0.1,0.1c0.7-0.7,1.3-1.6,2.2-2.1c0.1,0,0.2-0.2,0.3-0.1c-0.3,0.2-0.8,0.5-1.1,0.9l0,0c0.6-0.4,1.3-0.7,2-1.1h0v-0.1h0v0
		c0.3,0.1,0.8-0.4,1.1,0.1c0.2-0.1,0.5-0.2,0.6-0.3c0.1,0,0.2-0.1,0.3-0.1c0-0.1,0.1-0.2,0.1-0.2c0,0,0,0,0,0.1l-0.1,0.1
		c0.1,0,0.2,0.1,0.3,0.2c0.3,0.1,0.7-0.1,1-0.4c0,0-0.1-0.1-0.1-0.1l0.1,0.1c0.1-0.1,0-0.5,0.3-0.4c0.1-0.1,0.1-0.4,0.3-0.2l0.2-0.1
		c0,0-0.1,0-0.1-0.1l-0.1,0.1l0,0c0,0,0.1-0.1,0.1-0.1c-0.1-0.1-0.1,0-0.2,0c0-0.2,0.2,0,0.2-0.1c0.1-0.1,0.2,0,0.2-0.1
		c-0.1-0.1-0.2,0.2-0.3,0c0.2,0,0.2,0,0.4-0.1c0-0.2,0-0.3,0.3-0.5c0,0,0-0.2-0.1-0.1l0,0c0.1-0.2,0.2,0.2,0.3-0.1
		c-0.1-0.1-0.2,0-0.2-0.1l0.1-0.1l-0.3,0l-0.3,0.2c-0.4,0.1-0.2-0.7-0.5-0.3l0.1,0.1c0,0,0,0,0.1,0c-0.1,0.2-0.2,0-0.3,0.1
		c-0.1,0-0.2-0.1-0.3-0.1c0,0,0,0,0,0.1c-0.1-0.2-0.3,0-0.4-0.1c-0.2,0.1-0.5,0.2-0.7,0c-0.1,0.1-0.2,0-0.3,0c0,0.1,0,0.3-0.2,0.2
		l-0.1-0.1l-0.3,0.3c0.1-0.2-0.3-0.4-0.1-0.6c-0.3-0.3,0.5-0.3,0.1-0.7l0,0l0.2,0.3l0.2-0.1c0,0-0.1-0.1-0.1-0.1
		c0.1,0.2,0.2,0.1,0.3,0.1l0-0.1c0,0,0,0,0.1,0c0,0.2-0.4,0.1-0.5,0.2c0,0.1,0,0.1,0.1,0.2l0.1,0l0-0.1l0.2,0.2l0.1-0.1l0,0
		l-0.1,0.1l0,0l-0.1,0.1l0.1,0.1l0.1-0.1l0.1,0.1c-0.1-0.4,0.3-0.1,0.5-0.3c0,0-0.1-0.1-0.1-0.1c0,0,0.2-0.1,0.3-0.1
		c0,0.1,0,0.1-0.1,0.1c0.1,0.2,0.2-0.1,0.3,0c0.1,0,0.1,0.2,0,0.2c0.2,0.1,0.1-0.2,0.3-0.3l0,0h0.2c0,0,0,0.1-0.1,0.2
		c0.1,0,0.1,0.1,0.2,0c0-0.1,0-0.2,0-0.2h0.1c0,0,0,0.1,0,0.1L17,25.9c0.1,0,0.1,0.1,0.2,0l0.1,0.1c0.1-0.1-0.2-0.3,0-0.4
		c-0.1-0.1-0.3,0-0.1-0.2l-0.2-0.1c0,0.1,0.3-0.2,0.3,0.1c0.1,0,0.1-0.1,0.1-0.1c-0.1-0.1-0.2-0.2-0.1-0.3c-0.2,0.1-0.3-0.2-0.4-0.1
		c0,0,0,0,0,0.1l0,0c0-0.2-0.2-0.1-0.3-0.2c-0.2,0-0.5,0-0.7-0.1c0.1-0.1,0.3,0.1,0.3-0.1c0.2,0,0.6,0,0.8-0.2
		c0.3,0.1,0.1-0.3,0.3-0.2c0,0,0.1-0.1,0.1-0.1c0.1,0,0.1,0,0.1,0.1c0-0.1,0.3-0.3,0.1-0.4c-0.3-0.2-0.2,0.3-0.5,0.1
		c-0.1-0.2-0.3,0-0.4,0c0,0,0,0,0,0.1c-0.1,0-0.2,0-0.2-0.1l0.1,0.1c0.1-0.1-0.1-0.1-0.1-0.3c-0.3,0.1-0.5-0.3-0.7-0.1
		c-0.3,0.1-0.5,0-0.5,0.3l0,0L15,24l0,0c0,0.1-0.2,0-0.2,0.1c-0.3,0.1,0-0.2-0.3-0.1c0-0.1,0.1-0.2,0.2-0.3c0.1,0.1,0.2-0.1,0.2-0.2
		c-0.1,0-0.1-0.1-0.2-0.1l0,0l0.1,0.1l0.1-0.1c0,0,0.1,0.1,0.1,0.1l0.1-0.1c0.1,0.1,0.3,0.1,0.4,0l0.1-0.1l-0.1-0.1
		c0.2,0.1,0.1-0.3,0.4-0.3c0-0.1,0-0.2,0.1-0.4c0.1-0.3,0.3-0.6,0.1-0.9c0.2-0.2,0-0.4,0-0.7c0-0.3-0.1-0.5-0.2-0.6
		c0-0.1,0.1-0.1,0-0.2c0.2-0.7-0.4-1.5-0.5-2.2c0,0,0.1,0,0.1,0c-0.1-0.3,0.2-0.5-0.1-0.8c0.1-0.1-0.1-0.1,0-0.2
		c-0.3-0.2-0.6-0.4-0.7-0.7l0,0c0,0,0.1,0.1,0.1,0.1c0.1-0.2,0.2-0.3,0.3-0.5c-0.2-0.1,0-0.2,0-0.3c0,0,0,0,0.1,0v-0.1
		c0.2,0.1,0.1,0.2,0.1,0.3c0.2,0.1,0.1,0.3,0.2,0.4l0,0l0.1,0.2c0.4-0.3,0-0.8,0.4-1.1c-0.1-0.1-0.1-0.2-0.2-0.3
		c0.1,0,0-0.2,0.1-0.1l0,0c0,0,0-0.1,0-0.1h0.1c-0.2,0.2,0.1,0.3,0.2,0.4c0.2,0,0.3-0.2,0.3-0.3c0.2,0.1,0-0.1,0.1-0.2
		c0,0,0.1,0.1,0.1,0.1c0-0.3,0.3-0.1,0.5-0.3l0.1,0.1c0,0,0-0.1,0-0.1c0.2,0,0.3-0.1,0.3-0.2l0,0c0.2-0.1,0-0.2,0-0.3l-0.1-0.1
		c0.3-0.1-0.1-0.3,0-0.5c0,0.1,0.1,0.1,0.1,0.1l0,0c-0.2-0.1,0-0.4-0.3-0.3c0,0-0.1,0-0.1,0l0.2-0.1c0,0-0.1-0.1-0.1-0.1
		c0.1,0,0.2,0.2,0.3,0c0-0.3-0.3,0-0.1-0.2L18,13l0-0.1l0.2,0.1l0,0c-0.1,0-0.1-0.1-0.1-0.2l0,0l0.1,0.1l0.2-0.1
		c0-0.1-0.1-0.2-0.1-0.3c-0.1,0-0.1,0.1-0.1,0c0-0.1,0-0.1,0.1-0.1c-0.1-0.1-0.2,0.1-0.3,0c0,0,0,0.1,0.1,0.2
		c-0.2,0-0.2-0.2-0.3-0.2c0,0.1,0.1-0.3-0.1-0.1c0,0-0.1,0.1-0.1,0.1l0.1,0.1l0,0c-0.1-0.2-0.3,0-0.5,0c-0.1-0.2-0.2,0.1-0.3,0
		l0.1-0.1c0,0-0.2,0-0.1-0.1l0,0c0,0-0.1-0.1-0.1-0.1l0,0l-0.1-0.1l0,0V12c0.1-0.1,0.1,0.2,0.2,0c0,0.1,0.1,0.3,0.3,0.2l0.1-0.1
		c-0.1-0.1-0.1-0.2,0-0.3c0,0,0.1-0.1,0.1-0.1l0.1,0.1c0,0,0-0.1,0-0.1l-0.1-0.1l0,0c0.1,0,0.1,0.2,0.2,0.1l0.1-0.1c0,0,0,0,0,0.1
		c0.2,0,0.3,0,0.4-0.2l0,0c0.2,0,0.1-0.3,0.3-0.3l-0.1-0.1c0,0-0.1,0-0.1,0l0,0c0.1-0.1,0.2-0.2,0.3,0c0,0,0,0,0.1,0
		c0.1-0.1-0.1-0.2-0.1-0.1c0,0,0.1-0.1,0.1-0.1l0,0l-0.1,0.2l0,0l0.1-0.1c-0.2,0-0.1-0.2-0.3-0.2l0,0c-0.2,0,0-0.2-0.2-0.2
		c0,0,0-0.1,0-0.1c0,0,0,0,0,0.1l0.1-0.1c0,0-0.1-0.1-0.1-0.1l0.1,0.1l-0.1,0.2c0.1,0.1,0.2,0.1,0.3,0.1c0.3-0.2-0.2-0.3-0.2-0.5
		c0.1,0.1,0.2-0.1,0.3-0.1l0.1,0.1l-0.2,0c0,0,0.1,0,0.1,0c-0.1,0.1,0,0.1,0,0.2c0,0,0.1,0,0.1,0c0-0.1,0.2-0.2,0.3-0.3l-0.1,0.1
		c0.1,0,0.2,0.2,0.3,0.1c0-0.1-0.1-0.1-0.1-0.1c0.1,0,0-0.1,0-0.1c-0.1-0.1-0.2,0.1-0.3,0.1c0-0.1,0.1-0.1,0.2-0.1c0,0-0.1,0-0.1,0
		c0-0.2-0.1-0.2-0.1-0.3c0.1,0,0.1,0.1,0.2,0.1l0.1-0.1l-0.1-0.1l0,0l0.1,0.1c0,0,0.1-0.1,0.1-0.1c0,0.1,0.1,0.2,0.1,0.3
		c0.3-0.2,0.2,0.3,0.4,0.3l0,0c0,0-0.1-0.1-0.1-0.1l0,0l0.1,0.1L19,10.5c0,0,0,0.1,0.1,0.1l0.1-0.1c0,0.1,0,0.1,0,0.3l0.2,0.1
		c0.1-0.1,0.1-0.1,0.3-0.1c0,0,0,0.1,0,0.1c0,0.1-0.2,0-0.1,0.1c0.2,0.1,0.2,0,0.4,0.1c0,0.1-0.2,0-0.1,0.1c0,0.1,0.1,0.1,0.2,0.1
		l0.1-0.1l0.1,0.1l0.1-0.1c-0.1-0.1-0.2-0.2,0-0.3c0-0.1-0.1,0-0.2,0c0-0.2,0.2-0.3,0-0.4l0,0L20,10.4c0,0.2-0.2,0-0.3,0.1
		c0.1,0,0.2-0.1,0.1-0.2c0.1,0,0.1,0.1,0.3,0c-0.1-0.1,0.1-0.2,0.1-0.3c-0.2-0.1,0-0.2,0-0.3c0-0.1-0.1,0-0.1-0.1l-0.1,0.1l-0.1-0.1
		c-0.1-0.3-0.1-0.7-0.1-1l0.1,0.1c-0.1-0.1,0.1-0.2,0.2-0.3l0.1,0.3l0,0c0,0.1,0.1,0.2,0.2,0.3c0,0,0.1,0,0.1,0L20.4,9h0.2
		c-0.1,0.1,0,0.1,0,0.2h0.2l0,0.1c0.1,0,0.1,0,0.2-0.1c0,0.1,0,0.2-0.1,0.2H21c-0.2,0.2,0.3,0.1,0.2,0.4c0-0.1-0.1,0-0.1,0
		c0,0.1,0.1,0.2,0.1,0.1c0,0,0,0.1,0,0.1c0.1,0,0.2,0.3,0.4,0.1c-0.1,0-0.1-0.2,0-0.2c-0.2-0.1-0.1-0.3-0.3-0.4c0.1-0.1,0-0.1,0-0.2
		C21,9.3,21.1,9.1,21,9l0,0L21,9c-0.1,0-0.2-0.1-0.3-0.1l0.1-0.1c0,0-0.1-0.1,0-0.1C21,8.6,21,8.8,21,8.9l0,0c0.1,0,0.3,0.4,0.5,0.3
		c0.1,0.1,0.1,0,0.2,0c0,0,0,0.1,0.1,0.2c0,0,0.1-0.1,0.1-0.1l0,0l0.1-0.1l0,0L22.1,9c-0.3,0-0.1-0.4-0.4-0.3l0.2-0.1
		c0.1-0.1-0.1-0.2-0.2-0.2h0c0,0,0.1,0,0.1-0.1l0,0c0,0,0.1-0.1,0.1-0.1l0.1,0.1c-0.1,0-0.1,0.1,0,0.2c0,0,0.1,0,0.1,0l0.1-0.1
		l0.1,0.1c0.1,0,0-0.1,0-0.1c-0.1,0-0.2-0.1-0.2-0.2c0-0.1-0.1-0.1-0.1-0.1c-0.2,0.1,0-0.2-0.2-0.2c0-0.1,0.1-0.2,0-0.3l-0.1,0
		c0-0.1,0.2-0.2,0.2-0.4c0.1,0,0,0.1,0.1,0.1c-0.1,0.1,0,0.2,0,0.4l0,0l0.1-0.1l0,0l0,0c0.1,0,0,0.1,0,0.2l0.4,0.4
		c0.1,0,0-0.1,0-0.2L22.2,8l0.1-0.1c0.1,0,0.1,0.2,0.2,0.1l0,0c0.1-0.2-0.3-0.1-0.4-0.3c0.2-0.2,0.4,0.2,0.6,0.1c0,0,0,0.2,0.1,0.1
		l0,0c0.1,0.1,0.3,0.2,0.5,0.2l0,0C23.4,7.9,23.2,8,23,7.9l0.3,0c0,0,0-0.1,0.1-0.1c0,0.1,0,0.2,0,0.2c0.2,0-0.1-0.1,0.1-0.2
		l0.2,0.2c0,0,0-0.1,0-0.1c0,0,0.1,0,0.1,0c-0.3-0.1-0.5-0.3-0.8-0.4c0.1-0.1,0.4,0,0.6,0c0.1,0.1,0.2,0,0.3,0l0,0
		c-0.2-0.1-0.5-0.1-0.6-0.3v0.1c0-0.1,0-0.1-0.1-0.2c0.3-0.1,0.7,0.1,1,0.3c0,0-0.1,0.1-0.1,0.1l-0.1-0.1l-0.1,0.1
		c0.2,0,0.4,0.4,0.7,0.3c0.1,0.2,0.2,0.1,0.4,0.2l0.1-0.1c-0.2,0-0.2-0.3-0.4-0.3c0,0,0.1-0.1,0.1-0.1c0-0.1-0.1,0.1-0.1-0.1l0,0
		c-0.2,0-0.3-0.2-0.5-0.2l-0.2-0.2c0,0,0,0,0-0.1c-0.4-0.1-0.8-0.4-1.1-0.1c0-0.2,0.2-0.2,0-0.4c0.2,0,0.5,0.1,0.7-0.1
		c0.1,0.1,0.4,0,0.5,0.2l-0.1,0.1c0.1,0.2,0.3,0.2,0.4,0.1l0,0L24,6.5c0.1-0.1,0.2,0,0.3,0c0.2,0.2,0.4,0.3,0.7,0.4
		C25,7,25,7.1,25.2,7.1l0,0c-0.1-0.3-0.4-0.3-0.6-0.6c0,0,0,0,0-0.1c-0.2,0.1-0.5-0.2-0.8-0.2c-0.2-0.4-0.9,0.1-1-0.4l-0.1,0
		C23.1,5.6,23.4,6,23.7,6c0,0,0.1,0,0.1,0c-0.2-0.2-0.6-0.3-0.6-0.5l0,0l0.1,0.1c0.1-0.2,0.2,0,0.3,0l0,0l-0.1,0.1
		c0,0.1,0.1,0,0.2,0c0,0,0-0.2,0.1-0.1c0,0.1,0.1,0.2,0.2,0.2c0.2,0,0.4,0.1,0.6,0.3c-0.2,0.2,0.2,0.2,0.2,0.4
		c0.1,0.1,0.3,0.2,0.3,0c0,0,0-0.2-0.1-0.1c-0.1,0.2-0.2,0-0.3,0l-0.1-0.1L24.8,6c-0.2-0.1-0.3-0.3-0.4-0.4c-0.1-0.1-0.1,0-0.2,0
		c-0.1-0.3-0.3-0.1-0.5-0.3c-0.2,0.1-0.7-0.2-0.8,0.1c-0.1,0-0.2,0.1-0.2,0.2l-0.3,0c0.1,0,0.3-0.2,0.4-0.2
		c-0.2-0.2-0.4,0.2-0.7,0.1c-0.1,0.1-0.2,0.2-0.4,0.1c0-0.1,0.1-0.2,0.2-0.2c-0.1-0.1-0.2,0-0.3,0l0,0l-0.1-0.1c0,0,0,0.1-0.1,0.1
		c0.1-0.2-0.2,0-0.3-0.2c0.3,0,0.6-0.1,0.8-0.2c-0.3-0.1-0.6,0.3-0.8,0.1c0,0,0.1-0.1,0.1-0.1l0,0l0.1-0.1c0,0-0.1,0-0.1,0
		c0.1-0.1,0.4-0.2,0.4-0.4c0.2,0,0.4-0.1,0.5-0.2l0,0l0.1-0.1c-0.1-0.1-0.2,0-0.3,0.1c-0.1,0-0.3,0.1-0.4,0.2l-0.1-0.1
		c0,0.1-0.1,0.1-0.2,0.1c0-0.1,0.1-0.1,0.1-0.2c0-0.1-0.1,0-0.2,0c0-0.1,0.2-0.2,0-0.3c-0.2,0.2-0.5,0.3-0.7,0.5l-0.1,0
		c0.1-0.2,0.4-0.3,0.5-0.5c-0.1-0.1-0.1,0.1-0.2,0.1c0,0,0-0.1,0-0.1c-0.1,0.1-0.2,0.2-0.3,0.3l0-0.1c-0.1,0-0.1,0.1-0.2,0
		c0.1-0.1,0.1-0.1,0.2-0.1l0.1,0.1c0,0,0-0.1,0-0.1c0-0.1-0.2,0-0.2-0.1l0.1-0.1l-0.1-0.1c0,0.2-0.2,0.1-0.3,0.1
		c-0.1-0.1,0.1-0.1,0.1-0.2c0,0,0.1,0,0.1,0c-0.3,0-0.1-0.3-0.1-0.4l-0.1,0.1c-0.1,0,0.1-0.2,0.2-0.2c0,0,0-0.1,0-0.1
		C19.9,2.7,20,3,19.8,2.9c-0.1-0.1,0.1-0.2-0.1-0.2c-0.1-0.3,0.3-0.6,0.3-0.9c-0.2,0.1-0.3,0.4-0.5,0.5c0.2-0.1-0.1-0.2-0.1-0.4
		l-0.1-0.1c0,0,0,0.1-0.1,0.1c0-0.2-0.1-0.4,0-0.6l0,0c-0.1,0.1-0.2,0.2-0.2,0.3c-0.2-0.3,0.1-0.3,0.1-0.5c-0.1,0-0.1,0.2-0.3,0.1
		l0.2-0.2L18.9,1c0.2-0.1,0.4-0.1,0.5,0L19.3,1.1L19.3,1.1z M10,1.1c0,0-0.1,0.1-0.1,0.1l0,0C9.8,1.1,9.9,1,10,1.1L10,1.1z
		 M14.4,1.3h-0.3l0,0l-0.1-0.1l0.1-0.1C14.1,1.2,14.4,1.2,14.4,1.3L14.4,1.3z M21.2,1.3c-0.1,0.1-0.2,0-0.4,0.1
		C20.9,1.3,21.1,1.2,21.2,1.3L21.2,1.3z M12.3,1.4c0-0.1,0.1,0,0.2,0c-0.1-0.1-0.3,0.2-0.4-0.1C12.2,1.3,12.2,1.3,12.3,1.4L12.3,1.4
		z M22.2,1.4c-0.1,0.2-0.2,0-0.4,0l-0.1-0.1C21.9,1.3,22.1,1.4,22.2,1.4L22.2,1.4z M11.5,1.4L11.5,1.4l0.1,0L11.5,1.4L11.5,1.4z
		 M13.9,1.4c-0.1,0.1-0.1-0.1-0.2,0L13.9,1.4L13.9,1.4z M14.8,1.4c0.1,0.1,0.3,0.1,0.4,0.1c-0.1,0-0.1,0-0.1,0.1
		c-0.1-0.1-0.2-0.1-0.3-0.1L14.8,1.4c-0.1,0.1-0.1,0.1-0.1,0.1l-0.1-0.1l-0.1,0.1c0.2,0.2,0.4,0,0.6,0.3l0.2,0c-0.1,0-0.1,0-0.1,0.1
		c0.2,0,0.1,0.3,0.3,0.2c0.1,0.1,0.2,0.2,0.3,0.4c0.1,0.2,0.3,0.5,0.4,0.8c0,0,0-0.2-0.1-0.2c-0.1,0.1,0,0.2,0,0.3c0,0,0,0-0.1,0
		c0,0-0.1,0.1-0.1,0.1c0.1-0.2-0.4-0.4-0.3-0.7C15.4,2.5,15.3,2.1,15,2c0,0,0,0.1,0,0.1l-0.5-0.5C14.6,1.4,14.8,1.5,14.8,1.4
		C14.8,1.4,14.8,1.4,14.8,1.4L14.8,1.4z M14,1.8c0.2,0.4,0.2,1,0.6,1.4c0.1-0.2,0-0.3,0-0.4l-0.1-0.5c0.1,0.1,0.1,0.4,0.3,0.5
		c0,0.2,0.2,0.3,0.2,0.6c0,0-0.1,0-0.1,0c-0.2,0.1,0.1,0.2,0,0.3l0.1,0.1c-0.2,0.1,0.1,0.3,0,0.5L14.8,4l0.1-0.1
		c-0.1-0.1-0.3,0-0.4-0.1c-0.2-0.4-0.3-0.8-0.7-1.1c-0.1,0.1,0,0.1,0,0.2c0.1,0.2,0.3,0.5,0.4,0.7c0,0,0,0-0.1,0
		C14,3.4,13.8,3,13.5,2.7c0,0.1-0.1,0.3,0.1,0.4l0,0c-0.4-0.3-0.7-0.5-0.8-0.9h-0.1c0,0,0-0.1,0-0.1c0.1,0,0.1,0,0.1-0.1l-0.2-0.2
		l0,0c-0.1-0.1-0.1-0.2-0.3-0.3V1.5c0.2,0,0.4,0.2,0.5,0c0.1,0,0.5,0.3,0.6-0.1l-0.1-0.1C13.6,1.4,13.8,1.6,14,1.8L14,1.8z
		 M14.4,1.8c-0.1,0-0.3-0.2-0.4-0.3c0.1,0,0-0.1,0-0.1C14.2,1.5,14.1,1.7,14.4,1.8L14.4,1.8z M22.5,1.6c0,0.1-0.1,0-0.1,0l0.1-0.1
		C22.5,1.5,22.5,1.6,22.5,1.6L22.5,1.6z M6.6,1.6C6.3,1.7,6.1,1.8,5.9,1.9v0C6,1.7,6.3,1.7,6.6,1.6L6.6,1.6L6.6,1.6z M9.3,1.6
		C9.1,1.9,8.8,1.8,8.6,1.9L8.5,2l0.1,0.1C8.3,2.3,8,2.4,7.8,2.6C7.6,2.4,7.7,2.9,7.5,2.7C7.4,2.9,7.3,2.9,7.1,3
		C6.8,3.1,6.6,3.5,6.3,3.5C6.2,3.9,5.7,4,5.5,4.4c0.2,0.1,0.2-0.2,0.4-0.2C5.6,4.5,5.5,4.8,5.2,5c0,0.1-0.1,0.2-0.1,0.1L4.5,5.8
		C4.3,5.7,4.6,5.7,4.4,5.6l0,0l0.1,0.1c0,0,0.1-0.1,0-0.1c-0.1,0,0.2-0.1,0-0.2l0,0c0.1,0-0.1,0.1,0.1,0.1l0-0.2l0,0
		c0.1-0.1,0.2-0.4,0.4-0.5l0-0.1c0,0,0.1,0,0.1,0l0,0L5.2,4.5C5.5,4.4,5.6,4,5.8,3.9l0,0c0.2,0,0.2-0.3,0.4-0.4
		c0-0.2,0.3-0.1,0.3-0.4c0.1,0,0.1-0.1,0.2-0.1c0,0-0.1,0-0.1-0.1l0.1-0.1c0,0,0,0,0-0.1l0,0c0,0,0,0,0,0.1L6.7,2.7
		c0.1,0.1,0.1,0,0.2,0L6.8,2.6c0,0,0.1-0.1,0.1-0.1C7.2,2.4,7.7,2,8.1,1.8C8.4,1.7,8.9,1.5,9.3,1.6L9.3,1.6z M16.8,1.7
		c-0.1,0.1-0.1,0-0.2,0l0-0.1C16.6,1.6,16.7,1.6,16.8,1.7L16.8,1.7z M15,2c0-0.1-0.2-0.1-0.1-0.2C15,1.8,15,1.9,15,2L15,2z
		 M10.8,1.9L10.8,1.9c-0.1-0.1-0.1-0.1-0.1-0.1h-0.1c0.1,0,0.2,0,0.2,0C10.7,1.9,10.8,1.9,10.8,1.9L10.8,1.9z M11.2,1.9L11.3,2
		L11.2,1.9L11.2,1.9z M13.1,2l-0.1-0.1h0.1V2L13.1,2z M8.7,2c0,0-0.1,0.1-0.1,0.1V2H8.7L8.7,2z M14.9,2.5c-0.2-0.1-0.3-0.3-0.3-0.5
		C14.8,2.2,14.8,2.3,14.9,2.5L14.9,2.5z M24.2,2.6L24.2,2.6l-0.5-0.3C23.9,2.1,24,2.5,24.2,2.6L24.2,2.6z M7.5,2.4
		c0,0-0.1,0.1-0.1,0.1V2.4H7.5L7.5,2.4z M14.3,2.9c-0.2-0.1-0.5-0.2-0.7-0.4l0.1-0.1C13.8,2.6,14.1,2.7,14.3,2.9L14.3,2.9z
		 M22.6,2.6L22.6,2.6c-0.1-0.1-0.2,0-0.3,0c-0.1,0-0.3,0-0.5,0C22,2.5,22.4,2.3,22.6,2.6L22.6,2.6z M22.9,2.6c0,0.1-0.1,0-0.2,0
		C22.7,2.4,22.8,2.5,22.9,2.6L22.9,2.6z M20,2.5c-0.1,0-0.1,0-0.1,0.1C19.9,2.7,19.9,2.5,20,2.5L20,2.5z M12.3,2.8l-0.1,0.1V2.7
		C12.2,2.8,12.3,2.7,12.3,2.8L12.3,2.8z M19.3,3.1L19.3,3.1C19.1,3.1,19,2.9,19,2.7C19.1,2.9,19.2,2.9,19.3,3.1L19.3,3.1z M18.2,3
		c0,0-0.1-0.1,0-0.1C18.2,2.9,18.3,2.9,18.2,3L18.2,3z M20.7,3.1L21,2.8L20.7,3.1L20.7,3.1L20.7,3.1z M6.4,2.9L6.4,2.9h0.1H6.4
		L6.4,2.9z M24.7,3c-0.1,0.1-0.2-0.1-0.3-0.2C24.5,2.9,24.7,2.9,24.7,3L24.7,3z M16.9,3.2c-0.1,0-0.1-0.2-0.1-0.3
		C16.8,3,17,3.1,16.9,3.2L16.9,3.2z M22.9,2.9c-0.1,0.1-0.3,0.2-0.5,0.3c-0.2,0-0.3,0.1-0.5,0.1l0,0c-0.1,0-0.1,0-0.1,0.1
		c0,0,0-0.1,0-0.1c0.1,0,0.2-0.1,0.2-0.1c0.1,0,0.3,0,0.4-0.2c-0.2-0.1-0.4,0.1-0.7,0.1C22.1,3.1,22.5,2.9,22.9,2.9L22.9,2.9z
		 M8.7,3L8.6,2.9L8.7,3L8.7,3L8.7,3z M15.9,2.9c0,0.1,0,0.1-0.1,0.1h0C15.8,3,15.8,2.9,15.9,2.9L15.9,2.9z M14.7,3.1
		c0.1,0.1-0.2,0.1-0.4,0V3C14.6,3,14.6,3.3,14.7,3.1L14.7,3.1z M18.3,3.1l0.1,0.1C18.3,3.3,18.2,3.2,18.3,3.1l0-0.1L18.3,3.1
		L18.3,3.1L18.3,3.1z M20.2,3.3L20.3,3l0,0.1L20.2,3.3L20.2,3.3z M21.1,3.1c0,0-0.1,0-0.1,0.1l0,0C21,3.2,21.1,3.1,21.1,3.1
		L21.1,3.1z M13.8,3.5l-0.2,0.1c0.2,0.1,0.4,0.3,0.5,0.5c0.1,0,0.1,0.1,0.1,0l0,0c0-0.1-0.1-0.1-0.1-0.2l0.3,0.3
		c-0.1,0-0.1,0-0.1,0.1c0.1,0.2,0.3,0.2,0.3,0.4l-0.3-0.3c0,0,0,0,0-0.1l-0.1-0.1l-0.1,0.1c0-0.1,0-0.1-0.1-0.1
		C13.9,4.4,14,4,13.8,3.9l0,0c-0.1,0-0.1-0.3-0.3-0.5l-0.1-0.3C13.5,3.2,13.8,3.3,13.8,3.5L13.8,3.5z M7.6,3.4L7.5,3.5V3.3
		C7.6,3.3,7.6,3.3,7.6,3.4L7.6,3.4z M24.9,3.3L25,3.4L24.9,3.3L24.9,3.3z M12.7,3.7l-0.1-0.1l0,0L12.7,3.7L12.7,3.7L12.7,3.7z
		 M16,3.9c0,0-0.1-0.1-0.1-0.1L16,3.9C16,3.8,16,3.8,16,3.7L16,3.7c0,0,0,0-0.1,0c0-0.1,0-0.1,0.1-0.1C16,3.6,16.2,3.9,16,3.9
		L16,3.9z M8.8,3.8L8.8,3.8c-0.2,0.1-0.3-0.2-0.4,0l0,0C8.3,3.6,8.1,4,7.9,3.8c0.2,0,0.5-0.3,0.6,0C8.6,3.8,8.7,3.8,8.8,3.8L8.8,3.8
		z M23.1,3.7h0.1H23.1L23.1,3.7z M13,3.9c-0.1,0-0.1,0-0.1-0.1l0.1-0.1C13,3.8,13,3.9,13,3.9L13,3.9z M15.6,4.5L15.6,4.5l0-0.1
		c-0.1,0,0.2,0.3,0,0.4l0.1,0.1c0,0-0.2,0.2-0.3,0.1c0.2,0.1,0.2-0.1,0.3-0.2c0.1-0.1-0.1-0.2-0.2-0.2C15.5,4.6,15.6,4.6,15.6,4.5
		c-0.1,0-0.1,0-0.1,0c0.1-0.2-0.2-0.2-0.2-0.3l0,0c-0.2-0.1-0.1-0.2-0.2-0.3C15.3,4,15.4,4.3,15.6,4.5L15.6,4.5z M7.6,3.9l0.2-0.1
		C7.9,4,7.7,3.8,7.6,3.9L7.6,3.9z M9.8,3.9L9.7,3.8L9.8,3.9L9.8,3.9L9.8,3.9z M17.4,3.9V3.8l0.1,0.1H17.4L17.4,3.9z M6.3,3.9
		c0,0-0.1,0.1-0.1,0.1l0,0C6.2,3.9,6.3,3.8,6.3,3.9L6.3,3.9z M23,3.9c-0.1,0-0.2,0-0.3,0.1c0,0-0.1-0.1,0-0.1
		C22.8,3.9,22.9,3.9,23,3.9L23,3.9z M16.2,4.6L16.2,4.6v0.1l0,0l-0.1-0.1L16.2,4.6c-0.1,0-0.2,0-0.3,0l0,0C16,4.7,16,4.7,16,4.8l0,0
		l-0.2-0.1c0.3-0.2,0.2-0.5,0.2-0.7C16.1,4.1,16.1,4.4,16.2,4.6L16.2,4.6z M16.6,3.9L16.6,3.9l0,0.2h0V3.9L16.6,3.9z M16.8,4.1
		l0.1-0.1L16.8,4.1L16.8,4.1L16.8,4.1z M22.3,4C22.3,4,22.4,4,22.3,4L22.3,4L22.3,4L22.3,4L22.3,4z M17.3,4.3c-0.1,0-0.1-0.2,0-0.2
		h0.1L17.3,4.3L17.3,4.3z M17.6,4.1L17.6,4.1L17.6,4.1C17.6,4.1,17.6,4.1,17.6,4.1L17.6,4.1z M9.2,4.2L8.9,4.1L9.2,4.2L9.2,4.2
		L9.2,4.2z M24.8,4.5c0,0.1,0.1,0.1,0.1,0.1l-0.1,0.1c-0.2-0.2-0.4-0.2-0.6-0.4c0,0,0.1-0.1,0.1-0.1l0,0l-0.1,0.1L24,4.2
		c0.1-0.1,0.3,0,0.4,0C24.5,4.4,24.6,4.5,24.8,4.5L24.8,4.5z M23.8,4.4l-0.1,0.1c0,0-0.1-0.1-0.1-0.1l0,0c-0.2-0.2-0.6,0-0.9-0.1
		C23,4.1,23.5,4.4,23.8,4.4L23.8,4.4z M8.5,4.4l-0.3,0L8.5,4.4L8.5,4.4L8.5,4.4z M21.1,4.4c-0.1,0-0.1,0-0.2,0.1l0,0
		C21,4.4,21,4.3,21.1,4.4L21.1,4.4z M9.4,4.5L9.4,4.5l0-0.1C9.4,4.4,9.4,4.5,9.4,4.5L9.4,4.5z M17.3,4.5L17.3,4.5l0-0.1
		C17.3,4.4,17.3,4.5,17.3,4.5L17.3,4.5z M15.1,4.8c0,0-0.2-0.1-0.1-0.2L15.1,4.8L15.1,4.8z M6.2,5C6.2,4.9,6.3,4.9,6.3,4.8
		c0.2,0,0.5-0.1,0.7-0.1C6.9,4.8,6.5,4.9,6.2,5L6.2,5z M16.2,4.9C16.1,4.9,16,5.1,16,5L16.2,4.9C16.2,4.9,16.2,4.9,16.2,4.9
		L16.2,4.9z M13.9,5.1L13.9,5.1C13.9,5,13.7,5,13.6,5C13.8,4.9,13.8,5,13.9,5.1L13.9,5.1z M14.4,5.2L14.4,5.2l0-0.1L14.3,5
		C14.4,5,14.3,5.1,14.4,5.2L14.4,5.2z M5.8,5c0,0-0.1,0.1-0.1,0.1L5.8,5L5.8,5L5.8,5z M15,5.1L15,5L15,5.1L15,5.1L15,5.1z M15.4,5.2
		l0.1,0.1l0.1-0.1l0,0l0.1-0.1c0,0-0.1,0.2,0.1,0.2c-0.1,0.1-0.2-0.1-0.3,0c0.1,0.1-0.2,0.2,0,0.3h-0.1c0-0.2,0-0.1,0-0.3l-0.2,0.1
		c0,0,0,0,0-0.1c-0.1,0,0-0.2,0-0.3L15.4,5.2L15.4,5.2L15.4,5.2z M6.7,5C6.5,5.2,6.4,5.4,6.1,5.3c0,0,0-0.1,0-0.1c0,0.1,0.2,0,0.3,0
		C6.5,5.1,6.6,5,6.7,5L6.7,5z M13.2,5.3c0-0.1-0.1-0.2,0-0.2C13.2,5.1,13.3,5.2,13.2,5.3L13.2,5.3z M16.7,5.2l-0.1,0L16.7,5.2
		l-0.1-0.1C16.7,4.9,16.6,5.2,16.7,5.2L16.7,5.2z M22.6,5.1c-0.1,0.2-0.2,0-0.3,0V5.1L22.6,5.1L22.6,5.1z M5.5,5.2
		c0,0.1-0.1,0.2-0.1,0.2C5.3,5.4,5.3,5.2,5.5,5.2L5.5,5.2z M16.9,5.3L16.9,5.3l0,0.1C17,5.3,16.8,5.3,16.9,5.3L17,5.2L16.9,5.3
		L16.9,5.3z M6.7,5.4C6.5,5.5,6.3,5.6,6.1,5.5c0.1,0,0-0.1,0.1-0.1c0.1,0.2,0.1-0.1,0.3,0H6.7L6.7,5.4z M5.3,5.5
		C5.3,5.5,5.3,5.5,5.3,5.5c-0.1,0.1-0.1,0.1-0.1,0L5.3,5.5C5.2,5.5,5.2,5.5,5.3,5.5L5.3,5.5z M16.9,5.5c0,0-0.2,0-0.1-0.1
		C16.9,5.4,16.9,5.5,16.9,5.5L16.9,5.5z M22.4,5.6c0,0-0.1,0-0.1,0c0,0.1,0.1,0.1,0.1,0.2L22.2,6c0.2,0,0.4-0.1,0.6,0
		c-0.1,0.1-0.4,0.1-0.5,0.1c0-0.1,0-0.1-0.1-0.1l-0.4,0.3c0,0,0,0,0-0.1l0.1-0.1c0,0,0,0,0-0.1c0.2-0.1,0.3-0.1,0.4-0.3l-0.1-0.1
		c0,0,0.2,0,0.1-0.1L22.4,5.6L22.4,5.6z M6.3,5.7L6.3,5.7c0.1,0,0,0.1,0,0.2c0-0.2-0.5,0-0.3-0.3C5.9,5.8,6.2,5.7,6.3,5.7L6.3,5.7z
		 M5.4,5.7c0,0.1-0.3,0.1-0.3,0.3c0,0,0.1,0,0.1,0L5.1,6.2L5.1,6.1L4.9,6.3l0,0C5,6.1,5.1,5.8,5.4,5.7L5.4,5.7L5.4,5.7z M21.7,5.7
		c0,0.1-0.2-0.1-0.2,0.1c0,0-0.1-0.1,0-0.1C21.5,5.8,21.7,5.6,21.7,5.7L21.7,5.7z M15.5,5.9L15.5,5.9c-0.1,0-0.2-0.1-0.1-0.1
		C15.4,5.8,15.5,5.8,15.5,5.9L15.5,5.9z M6,5.9L6,5.9V6l0.1-0.1c0.1,0,0,0.2-0.1,0.2c0,0.1,0.1,0.2,0.2,0.3l0.1-0.1L6.2,6.4
		c0.1,0.1,0.1,0,0.2,0l0.1-0.1l0,0c0.1-0.2,0.2,0,0.3-0.1C6.5,6.3,6.3,6.5,6.1,6.7l0,0H5.9c0.1-0.1-0.1-0.3,0-0.4L5.8,6.3
		C6,6.2,5.8,5.9,6,5.9C6,5.8,6,5.9,6,5.9L6,5.9z M6.3,6l0.2-0.1L6.4,6H6.3L6.3,6z M15.7,5.9L15.7,5.9l0,0.1h0V5.9L15.7,5.9z M25.5,6
		c0,0-0.1-0.1,0-0.1C25.4,5.9,25.5,6,25.5,6L25.5,6z M4.9,6.1c0,0-0.1,0.1-0.1,0.1L4.9,6.1L4.9,6.1L4.9,6.1z M7.3,6.2l0.2-0.1
		L7.3,6.2L7.3,6.2L7.3,6.2z M15,6.2c0,0,0,0.1,0,0.1C14.9,6.3,14.8,6.2,15,6.2C14.9,6.2,14.9,6.2,15,6.2L15,6.2z M22.3,6.2
		c-0.1,0.2-0.3,0-0.4,0.2c-0.1-0.1-0.3,0-0.4-0.1v0c0,0,0.1,0,0.2,0.1C21.9,6.3,22.1,6.2,22.3,6.2L22.3,6.2z M4.7,6.3
		c0,0.1,0,0.1-0.1,0.1h0C4.6,6.4,4.7,6.3,4.7,6.3L4.7,6.3z M22.9,6.4H23H22.9L22.9,6.4z M6.1,6.6L6.1,6.6l0.1-0.1l0,0L6.1,6.6
		L6.1,6.6z M22.5,6.5c-0.3,0-0.6,0.3-0.8,0c0.2,0,0.5,0,0.7,0L22.5,6.5L22.5,6.5L22.5,6.5z M23.8,6.5l-0.3,0L23.8,6.5L23.8,6.5
		L23.8,6.5z M22.6,6.7c0,0-0.1,0-0.1,0l0,0c0,0,0.2,0,0.1-0.1C22.7,6.5,22.6,6.6,22.6,6.7L22.6,6.7z M24.7,6.9l-0.4-0.3
		C24.5,6.7,24.6,6.9,24.7,6.9L24.7,6.9z M5.5,7.2c0,0,0,0.2-0.1,0.2l0.1,0.1L5.2,7.8l0,0C5,7.9,5.2,8.2,5,8.3c0,0,0,0,0,0.1l0,0
		c0-0.2-0.1-0.5,0.1-0.7l0,0l0.2-0.1c0,0,0,0-0.1,0C5.3,7.4,5.4,7.3,5.5,7.2L5.5,7.2z M24.2,7.5L24.2,7.5h0.1H24.2L24.2,7.5z
		 M21.9,7.6c0,0-0.1-0.1,0-0.1C21.9,7.5,22,7.6,21.9,7.6L21.9,7.6z M22.9,7.6C22.9,7.6,22.9,7.7,22.9,7.6c-0.1,0.1,0,0.1,0,0.1l0,0
		l-0.1-0.1c0,0-0.1,0-0.1,0c-0.1,0,0-0.2,0-0.3L22.9,7.6L22.9,7.6z M4.4,8.5L4.4,8.5L4.3,8.7c0-0.3,0.1-0.6,0.3-0.8
		C4.6,8.1,4.5,8.3,4.4,8.5L4.4,8.5z M20,8.3c0.1,0.1-0.1-0.1-0.1,0L20,8.3L20,8.3L20,8.3z M23.8,8.4L23.8,8.4l0,0.1
		c0.1,0,0,0.1-0.1,0l-0.1-0.1L23.8,8.4l-0.1-0.1C23.8,8.3,23.9,8.3,23.8,8.4L23.8,8.4z M22.3,8.3l0.2,0.2L22.3,8.3L22.3,8.3z
		 M25.6,8.3l0,0.3L25.6,8.3L25.6,8.3z M23.4,8.3l0.2,0.1L23.4,8.3L23.4,8.3z M20.8,8.4c-0.1,0-0.2,0-0.2,0.1l0,0l-0.1,0.1
		c0,0,0-0.1,0.1-0.1l0,0C20.6,8.4,20.7,8.4,20.8,8.4L20.8,8.4z M23.3,8.6c0.2,0.1,0.5,0,0.6,0.1c0,0.1-0.1,0-0.1,0.1l0.1,0.1
		c-0.1,0-0.2,0-0.3,0.1c-0.1-0.2-0.4-0.3-0.5-0.4c0-0.1-0.2-0.1-0.2-0.2C23.1,8.5,23.2,8.5,23.3,8.6L23.3,8.6z M4.8,9
		c0.2,0,0,0.2,0.1,0.3c-0.1,0.1,0,0.2-0.1,0.3C4.5,9.3,4.9,9.1,4.8,9V8.7l0.1,0.1L4.8,9L4.8,9z M21.4,8.8l0.1-0.1l0,0L21.4,8.8
		L21.4,8.8z M7.1,8.9C7,8.8,6.9,9,6.8,9v0.1C6.7,9.3,6.7,9.1,6.7,9C6.8,9.1,6.9,8.7,7.1,8.9L7.1,8.9z M18.9,8.9c0,0,0,0.1,0,0.2
		L18.9,8.9L18.9,8.9L18.9,8.9z M17.8,8.9L17.8,8.9l0,0.1h0V8.9L17.8,8.9z M4.3,9.1L4.3,9.1l0-0.1C4.3,9,4.3,9.1,4.3,9.1L4.3,9.1z
		 M21.8,9.1L21.8,9.1C21.6,9.1,21.7,9,21.8,9.1C21.8,9,21.8,9,21.8,9.1L21.8,9.1z M23.7,9.1c0.2,0.1,0.5,0.2,0.7,0.3
		c-0.2-0.1-0.4-0.1-0.7-0.1v0.1c-0.1,0-0.1-0.1-0.2-0.1l0,0l-0.1-0.1C23.5,9,23.6,9.2,23.7,9.1L23.7,9.1z M6,9.3l0.1-0.2L6,9.3
		L6,9.3L6,9.3z M18.4,9.2c0,0-0.1,0.1-0.1,0.1C18.3,9.3,18.4,9.2,18.4,9.2L18.4,9.2z M22.1,9.2c0,0-0.1,0.1-0.1,0
		C22,9.3,22.1,9.1,22.1,9.2L22.1,9.2z M18,9.3c0.1-0.1,0,0.1-0.1,0L18,9.3L18,9.3L18,9.3z M19.9,9.3L20,9.4L19.9,9.3L19.9,9.3z
		 M21.7,9.3c0.1,0.1-0.1-0.1-0.1,0h-0.1C21.6,9.4,21.6,9.1,21.7,9.3L21.7,9.3z M18.1,9.4L18.1,9.4l-0.1-0.1
		C18.1,9.4,18.1,9.4,18.1,9.4L18.1,9.4z M22.4,9.7c0-0.2-0.3-0.1-0.2-0.3C22.4,9.4,22.3,9.6,22.4,9.7L22.4,9.7z M6,9.5
		C5.9,9.5,5.9,9.5,6,9.5l0-0.1L6,9.5L6,9.5z M4.3,9.5L4.3,9.5L4.3,9.5L4.3,9.5c0.1,0,0-0.1,0-0.1L4.3,9.5L4.3,9.5L4.3,9.5z
		 M24.1,9.6c-0.1-0.1-0.3-0.1-0.3,0.1C23.7,9.4,24,9.5,24.1,9.6L24.1,9.6z M4.6,9.6L4.6,9.6l0-0.1C4.6,9.5,4.6,9.6,4.6,9.6L4.6,9.6z
		 M20.3,9.7L20.3,9.7c0,0.1,0,0.2-0.1,0.1l0,0C20.3,9.8,20.3,9.8,20.3,9.7L20.3,9.7L20.3,9.7L20.3,9.7L20.3,9.7z M4.7,9.9L4.7,9.9
		c0,0.1,0,0.1,0,0.1c0-0.1,0-0.2,0-0.3C4.8,9.7,4.7,9.8,4.7,9.9L4.7,9.9z M19.8,10.2L19.6,10c-0.1,0.1,0.2,0.4,0.1,0.4l-0.3-0.3
		c0.1,0,0-0.2,0.1-0.1l0.1,0.1c0.2-0.1-0.1-0.2,0-0.3C19.6,9.8,19.8,10,19.8,10.2L19.8,10.2z M20.6,9.8c0,0-0.1,0.1-0.1,0.1
		c0,0.1,0.1,0,0.2,0c-0.1,0,0,0.1-0.1,0.2l0.2,0c0.1,0.1-0.1,0.2-0.1,0.3c0.1,0,0.2,0.2,0.4,0.1c0,0,0.1-0.1,0.1-0.1L21,10.5
		l0.4,0.1c-0.1,0.1-0.4,0.1-0.6,0c0-0.1-0.1-0.1-0.2-0.1c0,0,0,0,0,0.1l-0.1-0.1c0.2,0.1,0.3-0.1,0.4-0.2c0,0-0.1,0-0.1,0l0,0
		c-0.1-0.2-0.3,0.2-0.4,0l0.1-0.1l0.1,0.1c0.1-0.1,0.2-0.1,0.2-0.3c0,0-0.1-0.1-0.1-0.1l-0.1,0.1l-0.1-0.1
		C20.4,9.9,20.5,9.8,20.6,9.8L20.6,9.8z M4.3,10C4.2,10.1,4.4,9.9,4.3,10l0-0.1L4.3,10L4.3,10z M6.1,10.2c0,0-0.1-0.2,0.1-0.2l0,0
		l0.1-0.1L6.1,10.2L6.1,10.2z M17.8,10c-0.1,0-0.2,0.1-0.3,0C17.5,10,17.7,10.1,17.8,10C17.8,9.9,17.8,9.9,17.8,10L17.8,10z
		 M23.3,10.5c-0.2-0.1-0.3-0.3-0.4-0.5L23.3,10.5L23.3,10.5z M24.1,10.1L24,10C24,10.1,24.1,10,24.1,10.1L24.1,10.1z M4.6,10.3
		L4.6,10.3l0.1-0.1l0,0C4.7,10.2,4.8,10.3,4.6,10.3L4.6,10.3z M17.6,10.2L17.6,10.2c-0.1,0.1,0,0.1,0,0.1h-0.1
		C17.6,10.3,17.5,10.3,17.6,10.2C17.6,10.2,17.6,10.2,17.6,10.2L17.6,10.2z M21.4,10.3L21.4,10.3L21.4,10.3L21.4,10.3L21.4,10.3
		C21.5,10.3,21.4,10.3,21.4,10.3h-0.2C21.2,10.1,21.4,10.2,21.4,10.3L21.4,10.3z M24.1,10.3L24,10.2L24.1,10.3L24.1,10.3L24.1,10.3z
		 M18,10.4c0,0,0,0.1-0.1,0.1L18,10.4L18,10.4L18,10.4z M18.3,10.5l0.1,0L18.3,10.5L18.3,10.5z M18.5,10.6l0-0.1h0.1L18.5,10.6
		L18.5,10.6z M21.7,10.6l0.1-0.1L21.7,10.6L21.7,10.6L21.7,10.6z M6.7,10.6l-0.1,0.1L6.7,10.6L6.7,10.6z M20.4,10.8l-0.1-0.2
		l0.1,0.1V10.8L20.4,10.8z M4.1,10.7L4.1,10.7l0.1,0.1L4.1,10.7L4.1,10.7z M20.7,10.8c0,0-0.1,0-0.1,0c-0.1,0.1,0,0.1-0.1,0.1
		c-0.1-0.2,0.2,0,0.3-0.2L20.7,10.8L20.7,10.8z M23.4,11l-0.2-0.3C23.3,10.8,23.4,10.9,23.4,11L23.4,11z M21.4,11.1
		c0,0,0-0.2,0.1-0.2v0c0-0.1,0.1,0,0.2-0.1C21.6,10.8,21.4,10.9,21.4,11.1L21.4,11.1z M21.3,10.9L21.3,10.9l0.1-0.1L21.3,10.9
		L21.3,10.9z M22.8,10.9c0,0.1-0.1,0-0.1,0l0-0.1C22.7,10.9,22.7,10.9,22.8,10.9L22.8,10.9z M23.3,11.5c0.1,0.3,0.2,0.5,0.4,0.8
		l-0.1,0.1c0.2,0.3-0.2,0.2-0.2,0.5l-0.1-0.1c0,0,0,0,0,0.1c0,0-0.2-0.2,0-0.2l-0.1-0.1c0.1,0,0.1,0,0.1,0.1c0.1-0.1-0.1-0.3,0-0.5
		L23.2,12l-0.1,0.2c0,0,0-0.1,0-0.1H23l0.1-0.1L23,11.8L22.8,12l0-0.2c0.1,0,0.1,0,0.1-0.1c0-0.1,0-0.2-0.1-0.4
		c-0.1,0.1-0.2,0-0.3,0.1c0-0.2,0.2-0.3,0.3-0.4C23.1,11,23,11.4,23.3,11.5L23.3,11.5z M19.3,11.1c0.1,0.1,0.4,0.2,0.3,0.4
		c-0.1,0,0-0.2-0.2-0.1l-0.1,0.1c0.1,0.1,0.1,0.1,0.1,0.2c-0.4-0.1,0.1-0.1-0.3-0.2l-0.1,0.1c0,0,0-0.2-0.1-0.3l-0.2,0
		c0,0,0-0.1,0-0.1C19,11.2,19.1,11.1,19.3,11.1L19.3,11.1z M18.9,11.4L18.9,11.4l0.1,0c-0.1,0-0.1,0.1-0.1,0.3l0.1,0.1h-0.1
		c0-0.1,0-0.1-0.1-0.1l-0.1,0.1c0-0.1-0.2-0.1-0.1-0.2c0,0-0.1-0.1-0.1-0.1l-0.1,0.1l0,0l-0.1,0.1c0-0.1,0.2-0.1,0.1-0.3
		c0,0,0.1-0.1,0.2,0l0.1-0.1C18.8,11.3,18.8,11.4,18.9,11.4L18.9,11.4z M16.9,11.4c0,0-0.1,0-0.1,0.1l0,0
		C16.8,11.4,16.9,11.3,16.9,11.4L16.9,11.4z M5.5,11.8c-0.1,0-0.1-0.2,0-0.2C5.6,11.7,5.4,11.7,5.5,11.8L5.5,11.8z M15.9,11.7
		c0,0.2-0.1,0-0.2,0.1h-0.3C15.6,11.8,15.8,11.6,15.9,11.7L15.9,11.7z M5.9,11.7c0,0,0,0.1-0.1,0.1L5.9,11.7L5.9,11.7L5.9,11.7z
		 M15.1,12.2c0,0.2-0.3,0.1-0.3,0.3c-0.1-0.2-0.2,0.1-0.4,0l-0.1,0.1c-0.1-0.1,0.2-0.3,0.1-0.4c0.1,0,0.2-0.1,0.3-0.1L14.8,12
		C14.9,12,15,12.1,15.1,12.2L15.1,12.2z M23,12.4l-0.2-0.1c0.2-0.1-0.1-0.2,0-0.3C22.9,12.2,22.9,12.4,23,12.4L23,12.4z M16.5,12.3
		c0,0-0.1,0-0.1,0l-0.1-0.1c-0.1,0-0.1,0.2-0.3,0.2c0-0.1,0.2-0.1,0.3-0.3L16.5,12.3L16.5,12.3z M6.1,12.7c-0.2,0.1,0,0.2-0.1,0.3
		c-0.1-0.2,0-0.3-0.1-0.5C5.8,12.5,5.9,12.7,6.1,12.7L6.1,12.7z M7.1,12.7c-0.1,0,0-0.1,0-0.2C7.2,12.5,7.2,12.6,7.1,12.7L7.1,12.7z
		 M22.9,12.6l0.1,0L22.9,12.6l-0.1-0.1C22.8,12.6,22.8,12.6,22.9,12.6L22.9,12.6z M26.1,12.7c-0.2,0.1-0.1,0.4-0.2,0.5
		c0,0.3-0.2,0.6,0,0.9l0,0c0-0.1-0.1-0.2,0-0.3c-0.1-0.2-0.3,0.2-0.3-0.1c0.1,0,0.1-0.1,0.2-0.1c0.1-0.4,0.2-0.6,0.3-0.9
		C26,12.7,26.1,12.6,26.1,12.7L26.1,12.7z M5.2,12.8c0,0.2-0.2,0.4,0,0.5l0,0C5.1,13.3,4.9,13.1,5,13C5.1,12.9,5.1,12.8,5.2,12.8
		L5.2,12.8z M23.5,13.6c-0.1-0.1,0-0.2,0-0.4c0.1-0.1,0-0.1,0-0.2C23.6,13.1,23.6,13.5,23.5,13.6L23.5,13.6z M14.6,13.5l-0.1,0.1
		l0,0l-0.1-0.1L14.6,13.5c-0.1-0.1-0.1-0.1-0.2-0.1v-0.2C14.5,13.3,14.4,13.4,14.6,13.5L14.6,13.5z M19.2,13.3c-0.1,0-0.2,0.1-0.3,0
		C19,13.2,19.2,13.4,19.2,13.3L19.2,13.3z M19,13.9L19,13.9h0.1l0,0C19.1,14,19,14,19,14.2l-0.1-0.1l0,0.1c0-0.1-0.2-0.2-0.1-0.3
		c0,0.1,0,0.1,0.1,0.1C18.9,14,19,14,19,13.9L19,13.9c0-0.1,0-0.2,0-0.3l0.1-0.1C19.3,13.6,19,13.6,19,13.9L19,13.9z M5.8,13.9
		c0,0.1,0,0.2,0.1,0.3H6c-0.1,0.3,0.2,0.5,0.4,0.7c0.1,0,0-0.1,0.1-0.1l0,0c-0.1,0.1-0.1,0.1-0.1,0.3l0,0c0.1-0.1,0.1-0.2,0.2-0.2
		C6.8,14.9,6.9,15,7,15.1l-0.2,0c0.1,0.1,0.2,0.3,0.3,0.4L7,15.6l0.3,0.3l0,0c0,0.1,0.2,0.2,0.2,0c0,0,0.1,0,0.1,0l-0.1,0.1
		c0.1,0.2,0.4,0.1,0.5,0.4c0,0,0-0.1,0-0.1l-0.1-0.1l0.2,0c0.2-0.1-0.1-0.2,0-0.4c-0.1,0-0.1,0-0.1,0.1c0,0-0.1-0.1-0.1-0.1L8,15.9
		l0.1-0.1c0.1,0.1,0.1,0.2,0.2,0.2l0,0l-0.1-0.1c0.3-0.2,0.1,0.5,0.4,0.3c0-0.2-0.2-0.4-0.3-0.4c-0.1-0.1-0.1-0.3-0.3-0.2
		c-0.1-0.1,0-0.2-0.1-0.3l0,0l0.1,0.1l0,0c0,0,0.1,0,0.1,0c0.1-0.1-0.1-0.1,0-0.2l0.2,0.2c0,0,0.1-0.1,0.1-0.1l0,0.2
		c0.1,0,0.1-0.1,0.1,0c0,0.1,0,0.3,0.2,0.4c0.1-0.2-0.2-0.3,0-0.5l0.2,0.1l0,0c0,0.1,0.1,0,0.2,0l0.1-0.1l0.1,0.1
		c-0.1,0.2-0.4-0.1-0.3,0.2c0,0.1,0.1,0,0.2,0l0,0l0,0C9.4,15.9,9.6,16,9.8,16l-0.2-0.1l0.1-0.1c0.1,0,0.2,0.1,0.4,0.1
		c0.4-0.3,0.8-0.4,1.8-0.5c0.1-0.1,0.4,0,0.4-0.3l0,0c0-0.2,0.4,0,0.2-0.3c0.1,0,0.1-0.2,0.2-0.1c0,0,0.1,0.1,0.1,0.1L12.7,15
		c0.2-0.1,0.1,0.3,0.2,0.3l0.1-0.1c0.2,0.3-0.1,0.5,0.1,0.7c0.1,0.1,0.3,0.1,0.4,0l-0.1-0.1l0.1-0.2l0,0.1l0.3-0.1
		c-0.2,0.2,0.1,0.4-0.1,0.5c0,0,0.1,0,0.1,0c0,0,0,0.1,0,0.1c0.1,0,0.1-0.1,0.1-0.1c0.1,0,0.2,0,0.3-0.1c0,0,0,0,0-0.1l0.3-0.1
		c-0.1,0.2,0.3,0.1,0.1,0.3c0.2,0,0.2,0.1,0.3,0.2c-0.1,0-0.3,0.1-0.4,0.1c-0.2-0.1-0.5,0.1-0.7-0.1c-0.2,0.1-0.3-0.1-0.4-0.2
		c0-0.1,0-0.3-0.1-0.3l0,0l0.1,0.1h0c0,0.3,0,0.5,0.1,0.8c-0.1,0.1,0,0.2,0,0.3l0.1-0.1c0,0.1-0.1,0.3-0.1,0.5
		c-0.1,0,0.1-0.1-0.1-0.1l-0.1,0.1c0,0.2,0,0,0,0c0.1-0.1,0.2-0.2,0.1-0.3c-0.1-0.1-0.3-0.4-0.5-0.3c0,0.1,0.1,0.1,0.1,0.1
		c0.1,0.1,0.2,0.3,0.4,0.3c-0.1,0.1-0.2,0.1-0.3,0l0,0c0,0.1-0.1,0.1-0.1,0.2c0.1,0.2,0.4,0.3,0.4,0.5c-0.1,0-0.3,0-0.4,0.1l0.1,0.1
		l-0.1,0.1l0,0c-0.1,0-0.3,0-0.2,0.1c-0.2-0.1-0.1-0.1-0.1-0.3c0.1,0,0,0.2,0.1,0.1c-0.1-0.2,0.2-0.3,0.1-0.5
		c-0.4,0.2-0.8,0.3-1.2,0.4c-0.2,0-0.3-0.2-0.2-0.4c0.1-0.1,0.5,0,0.5-0.3c-0.1-0.1-0.2,0-0.3-0.1c0.1,0,0.2-0.3,0.3-0.1
		c0.1-0.1,0.2-0.3,0.4-0.3l0.1-0.1c-0.1-0.1-0.2-0.2-0.3-0.2c0,0.4-0.4,0.5-0.7,0.6c-0.1,0-0.4,0-0.8-0.4c0-0.1-0.1,0-0.2,0
		c0,0.1-0.1,0.1-0.1,0.2c0.1,0.1,0.2,0.2,0.2,0.3c0,0.1-0.1,0-0.2,0c-0.1-0.1-0.3-0.2-0.4-0.1l-0.1,0.1c0-0.2-0.1,0.1-0.2-0.1
		c-0.2-0.1-0.3,0.1-0.4-0.1c0.1-0.3,0.8-0.2,0.4-0.5c-0.1,0-0.3,0-0.4,0v0.1c-0.2,0-0.5,0-0.5,0.2c-0.2-0.1-0.5,0-0.5-0.2l0,0
		c-0.2-0.1-0.3-0.2-0.5-0.3l-0.1,0.1l0-0.1c-0.1,0-0.1,0.1-0.1,0.1l0.1,0.1l0,0c0.1,0.1,0.2,0,0.1,0.1l-0.1,0.1
		c0.1,0.1,0.1,0.1,0.2,0h0v0.1c-0.1,0-0.1,0-0.1,0.1l0.1,0.2c0.2-0.4,0,0,0.2,0.3l0,0c0,0.3,0.6,2.8,0.6,3c0.1,0.1,0.2,0.2,0.3,0.3
		c0,0.1-0.2,0-0.2,0.1h0.2l-0.1,0.1c0,0.1,0.1,0,0.1,0.1l0,0c0.3,0.1-0.1,0.2,0,0.3L9,21.4c-0.1,0.1-0.3,0.1-0.3,0.3l0.1,0.1l0,0
		l-0.1-0.1c0,0,0,0.1,0,0.1L8.8,22l0,0C9,21.9,8.8,22.3,9,22.2L9,22.3c0-0.1-0.2-0.2-0.3-0.3c0,0-0.1,0-0.1,0
		c-0.1,0.3,0.5,0.3,0.3,0.6c-0.1,0.1,0,0.2-0.1,0.3c0.1,0.3,0.3,0.6,0.3,1c0,0,0.1,0.1,0.1,0.1c0,0-0.1,0-0.1,0
		c-0.4-0.6-0.5-1.2-0.8-1.8c0.2-0.2-0.2-0.4-0.2-0.7H8c0.1-0.1-0.5-2-0.8-2.5c-0.2,0,0.1-0.2-0.1-0.2l0-0.1L7,18.7
		c-0.1,0,0-0.1,0.1-0.2c0.1,0,0.1-0.1,0.1-0.2l-0.1,0c0.1-0.2,0.1-0.3,0-0.5c-0.1,0.1,0,0.5-0.2,0.3C6,17.3,6.5,16.5,6,15.9l0,0l0,0
		l0,0l0.1,0.1c0,0,0-0.1,0-0.1l0.1,0.1c0-0.2,0.1-0.4-0.1-0.5L6,15.8l0-0.3h0c-0.1-0.1,0.2-0.3,0-0.3l-0.2,0.2
		c-0.2-0.1,0-0.2-0.1-0.4c0-0.2-0.1-0.3-0.1-0.5c0,0-0.1-0.1-0.1-0.1l0,0c0,0-0.1,0-0.1-0.1c0,0-0.1,0.1-0.1,0.1l0,0
		c0.2,0,0.1-0.2,0.2-0.3c0-0.1-0.1,0-0.1,0c-0.1-0.1,0.1-0.2-0.1-0.3l0,0l0.1,0.1l0-0.2C5.5,13.5,5.7,13.7,5.8,13.9L5.8,13.9z
		 M14.5,13.9c-0.1,0-0.1,0-0.2-0.1l0.2-0.1V13.9L14.5,13.9z M20.8,14l-0.1-0.1c0-0.1,0.1,0,0.2,0L20.8,14L20.8,14z M7.3,14
		C7.3,14,7.3,14.1,7.3,14v0.1V14L7.3,14L7.3,14z M14.4,14.1c0,0-0.1,0-0.1,0v-0.1C14.4,14.1,14.4,14.1,14.4,14.1L14.4,14.1z
		 M12.7,14.3C12.7,14.4,12.7,14.2,12.7,14.3l0-0.1l0,0V14.3L12.7,14.3L12.7,14.3z M21,14.6c0,0-0.1-0.4,0.1-0.5
		C21.1,14.3,21.2,14.5,21,14.6L21,14.6z M12.5,14.2L12.5,14.2L12.5,14.2L12.5,14.2L12.5,14.2z M7.3,14.4L7.3,14.4l0-0.2
		C7.3,14.3,7.4,14.3,7.3,14.4L7.3,14.4z M14.4,14.6c0-0.1,0-0.2,0-0.3L14.4,14.6L14.4,14.6z M20.3,14.5l0.1-0.1L20.3,14.5L20.3,14.5
		L20.3,14.5z M12.5,14.4L12.5,14.4l0.3,0L12.5,14.4L12.5,14.4z M19,14.4c-0.1,0-0.1,0.2-0.1,0.2c0.2,0.1,0.3-0.2,0.5-0.1
		c0,0,0.1-0.1,0.1-0.1c0,0.1,0.1,0.1,0.2,0c-0.1,0-0.1,0.2-0.1,0.3c-0.3-0.2-0.5,0.2-0.8,0l-0.1,0.1l-0.1-0.1l0,0l-0.4,0.3l0,0
		c0.2,0,0.2-0.4,0.5-0.3c0.1,0,0.1-0.1,0.1-0.2l0,0C18.9,14.6,18.9,14.3,19,14.4L19,14.4z M7.1,14.7C7,14.8,7,14.7,7,14.6
		C7.1,14.6,7.2,14.6,7.1,14.7L7.1,14.7z M14.4,14.8c0,0.1-0.1,0-0.1,0l0,0l0.1-0.1C14.4,14.7,14.5,14.8,14.4,14.8L14.4,14.8z
		 M6.2,15v-0.3l0.1,0.1L6.2,15L6.2,15z M22.4,15C22.4,15,22.4,15,22.4,15l-0.2-0.1C22.3,14.8,22.4,14.9,22.4,15L22.4,15z M6.8,15
		c-0.1,0-0.1-0.1-0.1,0c0,0.1,0,0.1,0.1,0.2c-0.1,0.2,0.1,0,0.1,0.1l-0.1,0.2c0-0.1,0-0.1,0-0.2H6.6c0,0,0-0.1,0-0.1
		c-0.1,0-0.1-0.2,0-0.3C6.7,14.9,6.7,15,6.8,15L6.8,15z M14.5,15.2c0,0-0.1,0-0.1,0l0-0.3h-0.1c0,0,0.1-0.1,0.1-0.1
		C14.5,15,14.4,15.1,14.5,15.2L14.5,15.2z M18.1,15c-0.1,0.1-0.1,0-0.2,0.1c0,0,0,0.1,0,0.1c-0.1-0.1-0.2,0-0.2,0.1l-0.5,0
		c0.1-0.3,0.3,0,0.4-0.3C17.7,15.2,17.9,14.9,18.1,15L18.1,15z M25.9,15c-0.1,0-0.1,0.1-0.2,0.1C25.7,15.2,25.8,15,25.9,15L25.9,15z
		 M12.6,15.1L12.6,15.1C12.4,15.3,12.7,15.1,12.6,15.1C12.6,15.1,12.6,15.1,12.6,15.1L12.6,15.1z M7.5,15.1c0,0-0.1,0.1-0.1,0.1l0,0
		C7.4,15.2,7.5,15.1,7.5,15.1L7.5,15.1z M19.6,15.1c0.1,0.1-0.1-0.1-0.1,0.1C19.5,15.2,19.6,15.1,19.6,15.1L19.6,15.1z M7.2,15.4
		L7,15.2l0,0L7.2,15.4L7.2,15.4L7.2,15.4z M22.7,15.2c0.1,0.2-0.2,0.3-0.4,0.4C22.4,15.5,22.5,15.3,22.7,15.2L22.7,15.2z M7.5,15.3
		c0,0,0,0.1,0,0.1l-0.1-0.1H7.5L7.5,15.3z M7.7,15.4L7.7,15.4l-0.1-0.1C7.6,15.3,7.7,15.4,7.7,15.4L7.7,15.4z M14.4,15.6
		c-0.1-0.1,0-0.2,0-0.3l0,0l0.1-0.1C14.4,15.3,14.5,15.5,14.4,15.6L14.4,15.6z M5.8,15.5L5.8,15.5l0-0.1C5.8,15.4,5.8,15.5,5.8,15.5
		L5.8,15.5z M9.3,15.5l0-0.1h0.1L9.3,15.5L9.3,15.5z M7.4,15.7l-0.2-0.2l0,0C7.3,15.6,7.5,15.6,7.4,15.7L7.4,15.7z M22.7,15.6
		c0,0,0.1,0.1,0.1,0.1c0,0-0.1,0-0.1,0.1l0.1,0.1c-0.1,0-0.2,0-0.2-0.1c0.2,0,0.1-0.2,0.3-0.3C22.8,15.5,22.7,15.5,22.7,15.6
		L22.7,15.6z M7.9,15.6C8,15.6,7.9,15.7,7.9,15.6L7.9,15.6L7.9,15.6L7.9,15.6z M6.8,15.7L6.8,15.7l0,0.2h0V15.7L6.8,15.7z
		 M14.8,15.9C14.8,15.9,14.8,16,14.8,15.9l-0.1,0l0.1-0.1C14.8,15.8,14.9,15.9,14.8,15.9L14.8,15.9z M12.9,15.9L12.9,15.9l0,0.1h0
		V15.9L12.9,15.9z M6.9,16.2L6.9,16.2c-0.2,0,0,0.1-0.1,0.2c0,0,0.1,0,0.1,0c-0.1,0-0.1,0.1,0,0.2H6.8c0-0.2-0.1-0.6,0.1-0.7
		C7.1,15.9,6.9,16.2,6.9,16.2L6.9,16.2z M18.8,16.2c-0.1,0-0.2-0.1-0.3,0c-0.1,0.2,0.2,0.3,0.2,0.5c-0.1,0-0.1,0-0.1,0.1
		c0.2,0.1,0.5-0.1,0.7,0.2c-0.2,0.1-0.5,0.1-0.7,0.2c0.1,0.2,0.5,0.1,0.5,0.4h0.1c-0.1,0.1,0,0.3-0.2,0.2l-0.1-0.1
		c0,0-0.1,0.1-0.1,0.1l0,0c-0.1,0-0.2-0.1-0.3-0.2L18.3,18c0.1,0.1,0.1,0.2,0.2,0.4l0.1-0.1l0,0c0,0,0.1,0,0.1,0
		c0,0.1,0,0.1,0.1,0.1c0.1-0.1,0.1-0.2,0.3-0.2c-0.1,0,0,0.1,0,0.1c0,0.1,0.2,0.1,0.2,0.2c0-0.2,0.2-0.1,0.2-0.3c0,0,0,0,0-0.1
		c0.2,0.1-0.2,0.2,0,0.4c-0.1,0.1-0.1,0.2-0.2,0.2c0,0,0.1,0,0.1,0c-0.1,0.1,0.1,0.1,0.1,0.2c0.1,0,0.1,0,0.2,0
		c0,0.1-0.1,0.1-0.1,0.2l0.1,0.1c0-0.1,0.1,0,0.1,0c-0.1,0.2-0.2,0.2-0.3,0.4l0.1,0.1l-0.2,0.2l0.1,0.1l0,0c0,0,0,0.2,0.1,0.2h0.1
		c0,0,0,0.1-0.1,0.1l0.1,0.1l0,0c-0.2,0-0.1,0.3-0.3,0.2l-0.1-0.1c-0.1,0.1,0,0.1,0,0.2c0,0-0.1,0-0.1,0c-0.1,0.2,0.3,0.2,0.1,0.4
		v0.1c-0.7-0.5-0.9-0.9-1.3-1.6c0-0.1-0.1-0.3-0.2-0.5c0-0.1-0.2-0.3,0-0.3c0.1-0.1-0.1-0.2-0.2-0.3c0,0-0.1,0-0.1,0l0-0.2
		c0.1,0,0.2,0.2,0.4,0l-0.1-0.1c0.1,0,0.2-0.2,0.1-0.3v0c0.1,0,0.1,0.1,0.2,0.1l0.2-0.2c-0.1-0.1-0.3-0.1-0.4-0.1
		c-0.1-0.1-0.2-0.4-0.4-0.4v0.1l-0.2-0.5c0.2-0.2,0.5-0.1,0.7-0.1c0.1,0,0.1-0.2,0.2-0.1l0.1-0.1l-0.1-0.1c0,0,0,0-0.1,0
		C17.8,16.1,18.9,15.8,18.8,16.2L18.8,16.2z M15.2,16.3c0-0.1,0-0.1,0.1-0.1l0,0l0.1,0C15.3,16.1,15.3,16.3,15.2,16.3L15.2,16.3z
		 M19.4,16.4l-0.3,0v-0.1C19.2,16.4,19.2,16.4,19.4,16.4L19.4,16.4z M10.4,16.5c-0.1,0.1-0.3,0.1-0.5,0.1c-0.1,0-0.2,0-0.2-0.1H9.4
		C9.7,16.5,10.1,16.4,10.4,16.5L10.4,16.5z M10.5,16.5l0.1,0l0,0H10.5L10.5,16.5z M25.6,16.6L25.6,16.6l0,0.1h0V16.6L25.6,16.6z
		 M25.5,17.1c-0.1-0.1,0-0.2,0.1-0.2C25.6,16.9,25.6,17,25.5,17.1L25.5,17.1z M6.7,17.2l0-0.2l0.1,0.1L6.7,17.2L6.7,17.2z
		 M21.6,17.6c-0.1,0.2-0.2,0-0.3,0.1c0,0,0.1,0.1,0.1,0.1c0,0,0,0,0,0.1c-0.1,0-0.2-0.2-0.3-0.1l0.1,0.2c-0.2-0.2-0.2,0.3-0.4,0
		c-0.2,0-0.1,0.3-0.3,0.3c0,0,0-0.1-0.1-0.1l-0.1,0.1c0-0.1,0-0.1-0.1-0.2l0.1-0.1l0,0c0.2-0.1,0.1-0.2,0.1-0.3c0,0,0,0,0.1,0
		c0,0,0.1-0.1,0.1-0.1l-0.1-0.1c0.1-0.1,0.2,0.1,0.3,0.1l0-0.2c0,0,0,0,0.1,0c0.1,0,0-0.1,0-0.1c0.1,0,0.2,0.1,0.3-0.1
		C21.4,17.3,21.6,17.3,21.6,17.6L21.6,17.6z M21.3,17.5c-0.1,0-0.2,0.1-0.2,0.2C20.9,17.5,21.2,17.4,21.3,17.5L21.3,17.5z
		 M17.4,17.5c0,0.1,0,0.1,0.1,0.1h-0.1c0-0.1-0.1-0.1-0.1-0.1H17.4L17.4,17.5z M21,17.9L21,17.9c-0.1,0-0.3-0.2-0.2-0.3
		C20.8,17.7,21.1,17.7,21,17.9L21,17.9z M17.6,17.7l0.1-0.1L17.6,17.7L17.6,17.7L17.6,17.7z M19.4,17.9l0.1-0.2L19.4,17.9L19.4,17.9
		L19.4,17.9z M18.4,17.8L18.4,17.8L18.4,17.8C18.4,17.8,18.4,17.8,18.4,17.8L18.4,17.8z M19.6,17.8L19.6,17.8l0.1-0.1
		C19.7,17.8,19.7,17.8,19.6,17.8L19.6,17.8z M17.4,18L17.4,18l-0.1,0c0,0.1,0,0.1,0.1,0.2c-0.1,0-0.1,0-0.1,0.1
		c-0.1-0.2,0-0.3,0-0.5C17.3,17.8,17.3,17.9,17.4,18L17.4,18z M19.9,17.8L19.9,17.8l0,0.1h0V17.8L19.9,17.8z M20.7,17.9
		c0,0.1-0.1,0.1-0.1,0.2l0,0C20.5,18,20.6,17.9,20.7,17.9L20.7,17.9z M20.2,18c0,0,0,0.1,0,0.1h-0.1C20.2,18,20.1,17.9,20.2,18
		L20.2,18z M18.5,18l0.1,0.1L18.5,18L18.5,18z M19.2,18.3c0,0,0-0.1-0.1-0.1l0,0L19,18C19.3,18,19.1,18.2,19.2,18.3L19.2,18.3z
		 M13.3,18.2L13.3,18.2c0,0-0.2-0.1-0.1-0.1C13.2,18.1,13.3,18.2,13.3,18.2L13.3,18.2z M20.2,18.4c-0.1,0-0.1,0.3-0.1,0.3
		c0-0.2-0.2,0-0.1-0.2l0.1-0.1C20,18.4,20.1,18.3,20.2,18.4L20.2,18.4z M20.3,18.4l-0.1-0.1h0.1V18.4L20.3,18.4z M17.8,18.5
		L17.8,18.5l-0.1,0v-0.1C17.7,18.5,17.7,18.5,17.8,18.5L17.8,18.5z M19.7,18.6l0-0.1h0.1L19.7,18.6L19.7,18.6z M22.6,18.5L22.6,18.5
		L22.6,18.5L22.6,18.5L22.6,18.5L22.6,18.5z M12,18.8l0-0.2l0.1,0.1L12,18.8L12,18.8z M19.2,18.6c0,0-0.1,0.1-0.1,0.1l0,0
		C19.1,18.6,19.2,18.5,19.2,18.6L19.2,18.6z M19.3,19L19.3,19l0.1,0l-0.1,0.1L19.3,19l-0.1,0.1c0-0.1,0-0.1-0.1-0.2
		C19.2,18.8,19.1,19.1,19.3,19L19.3,19z M9.6,19.7c0,0-0.1-0.1,0-0.2C9.6,19.6,9.6,19.6,9.6,19.7L9.6,19.7z M23,19.7L23,19.7
		L23,19.7v0.1c-0.2,0,0.1-0.2-0.1-0.3C23.1,19.5,22.9,19.7,23,19.7L23,19.7z M10,20.1c0,0.1-0.1,0.1-0.1,0.2l-0.1-0.1
		C9.8,20.1,9.9,20.1,10,20.1L10,20.1z M22.9,20.6c-0.1-0.2-0.2,0.1,0-0.1l-0.1-0.1C22.9,20.4,22.8,20.4,22.9,20.6L22.9,20.6z
		 M22.6,20.5c0,0-0.1,0.1-0.1,0.1c0,0,0.1,0.1,0.1,0.1l0,0l0,0.1c0.2-0.1,0.1,0.2,0.3,0.3c-0.1,0.1,0,0.2,0,0.3c0,0-0.3,0.2-0.1,0.3
		v0h-0.1c0-0.2-0.1-0.3-0.1-0.5l-0.1,0.1c-0.2,0.1,0.2-0.1,0-0.2l-0.1,0.1L22.5,21c0.1,0,0.2-0.1,0.2-0.2c0-0.2-0.2-0.2-0.1-0.4
		C22.6,20.5,22.6,20.4,22.6,20.5L22.6,20.5z M10.2,20.6c0.1-0.1,0.1,0.1,0.2,0.1c0,0.1-0.1,0.1-0.1,0.1c0.1,0.1,0.1-0.1,0.3,0
		c0.1,0-0.1-0.2,0.1-0.1l0,0l0,0c-0.1,0.1-0.1,0.1,0,0.3c0.1,0,0-0.1,0.1-0.1c0,0.1,0.1,0.2,0,0.2c0,0,0.1,0,0.1,0l0.1-0.1l0,0
		c-0.2,0.1-0.2,0.3-0.4,0.4c-0.1,0,0-0.1-0.1-0.1l-0.1,0.1l-0.1-0.1c-0.1,0-0.1,0.1-0.1,0.2l0.1,0c0,0,0,0-0.1,0l-0.1-0.1
		c0,0,0,0.1-0.1,0.1l0.1,0l-0.1,0.1c0.2,0.1,0.1-0.1,0.3-0.2l0,0c0.1-0.1,0.1,0.1,0.2,0.1c-0.1-0.1-0.2,0.1-0.3,0.2l0,0l-0.1,0.1
		c0.1,0,0.1,0.1,0.2,0.1c0.1,0.2-0.7,0.4-0.2,0.4c-0.1,0.1,0,0.3-0.1,0.2c0-0.1,0-0.2,0-0.2c-0.1,0,0,0.1-0.1,0.1
		c-0.1,0-0.1,0-0.2,0l0.1-0.1c0,0-0.1,0-0.1-0.1l0.1-0.1c0,0,0,0,0-0.1c0.2-0.1-0.1-0.2,0-0.3l-0.1,0.1C9.5,22,9.7,22,9.7,21.9
		l-0.1,0c0.1-0.2,0.2-0.4,0.4-0.6c0-0.1-0.1-0.1,0-0.1L10,21l0.1,0.1c0.2-0.1,0-0.2,0.2-0.3c0-0.1-0.1,0-0.2,0L10,20.9
		c0,0,0-0.1,0-0.1C10,20.7,10,20.3,10.2,20.6L10.2,20.6z M18,21c0,0,0.1,0.1,0.1,0.1L18,21.1c0.3,0,0,0.2,0.1,0.4
		c-0.1,0-0.1,0-0.1,0.1c0.1,0.1,0,0.1,0,0.2l-0.1-0.1c-0.3,0.1,0,0.5-0.3,0.5c-0.1-0.1,0-0.3-0.1-0.4c0.1,0,0.1,0.2,0.2,0.2
		c0.1-0.1,0.1-0.2,0.1-0.4c-0.3-0.1,0.1-0.3-0.2-0.4h-0.1c0.1,0,0.1-0.1,0.1-0.1l0-0.2c0,0,0,0,0.1,0c0-0.2-0.1,0-0.1-0.1l0.1-0.1
		l0,0C17.9,20.4,17.8,20.8,18,21L18,21z M9,20.8L9,20.8l0-0.1l-0.1-0.1C8.9,20.7,9.1,20.7,9,20.8L9,20.8z M12.8,20.8
		c-0.2,0.4-0.3,0.8-0.4,1.2c-0.2,0.2-0.5,0.5-0.6,0.8c-0.1,0.2-0.3-0.1-0.4,0.1c-0.2,0.1-0.1,0.4-0.3,0.4c0,0.1,0,0.1,0.1,0.2l0,0
		c-0.1,0-0.1-0.2-0.2-0.3c0.1-0.1,0.1-0.2,0-0.3C11,23,10.9,22.9,11,22.8c0,0,0.2,0,0.1-0.1l0,0c0.2,0.1,0.1-0.2,0.3-0.3l0.1,0.2
		c0.1,0,0-0.1,0.1-0.2c-0.2,0.1,0-0.2-0.1-0.2l0.2,0l-0.1-0.1l0.1-0.1l-0.1-0.1l0,0l-0.1-0.1c0,0,0.2,0,0.1-0.1
		c-0.1,0-0.1,0-0.1-0.1l0,0c0,0,0.1,0.1,0.1,0.1c0-0.3,0.3-0.3,0.5-0.5l0,0c0,0,0,0,0-0.1l-0.1-0.1c0.2-0.1,0.3-0.1,0.5-0.2
		L12.8,20.8L12.8,20.8z M12.7,20.8l-0.2,0C12.4,20.9,12.6,20.7,12.7,20.8L12.7,20.8z M22.8,21.1c0,0-0.1-0.1,0-0.1
		C22.8,21,22.9,21.1,22.8,21.1L22.8,21.1z M9.1,21.2c0,0,0,0.1,0,0.1L9.1,21.2L9.1,21.2L9.1,21.2z M9.4,21.4c0,0-0.2,0.1-0.2-0.1
		L9.4,21.4L9.4,21.4z M8.5,21.7c0-0.2-0.4-0.1-0.3-0.3L8.5,21.7L8.5,21.7z M11.8,21.6c0-0.1,0-0.1-0.1-0.1c0-0.1,0.1,0,0.1,0
		L11.8,21.6L11.8,21.6z M17.8,21.5L17.8,21.5l0.1-0.1L17.8,21.5L17.8,21.5z M10.8,21.8c-0.1,0.1-0.2,0-0.3,0
		C10.6,21.7,10.7,21.8,10.8,21.8L10.8,21.8z M10.1,21.9C10.1,21.9,10,21.9,10.1,21.9l-0.1,0C10,21.8,10.1,21.8,10.1,21.9L10.1,21.9z
		 M17.2,22l0,0.1L17.2,22L17.2,22z M9.7,22.7l-0.1,0.1C9.6,22.8,9.6,22.5,9.7,22.7L9.7,22.7z M14,23c-0.1,0.1-0.4-0.1-0.5-0.2
		l0.1-0.1C13.9,22.7,13.8,23.1,14,23L14,23z M9.1,23C9,23,9,22.9,9,22.9h0V23L9.1,23z M22.9,23.5c-0.1-0.1-0.2,0.1-0.2,0.2
		c-0.1-0.1,0.1-0.2,0.1-0.4C22.8,23.4,22.9,23.4,22.9,23.5L22.9,23.5z M15.4,23.7c0,0.1-0.1,0-0.2,0.1
		C15.3,23.7,15.4,23.6,15.4,23.7L15.4,23.7z M11.4,23.9L11.4,23.9L11.3,24c0.3,0,0.2,0.2,0.5,0.3l0.1-0.1c0,0.1,0,0.2-0.1,0.3
		c0,0,0.1,0.1,0.1,0.1l0-0.1c0,0,0,0.1,0,0.1c0.1,0,0-0.2,0.2-0.1c0.1-0.3,0.5-0.1,0.6-0.2c0.1,0.1,0.2,0.1,0.3,0.2
		c-0.3,0.1-0.7,0.6-1.1,0.2l0,0.2l-0.1-0.1c0,0.1-0.1,0.2,0.1,0.3l-0.1,0.1l0.1,0.1c-0.1,0.1-0.2,0-0.2,0.1l-0.1-0.1l0,0
		c-0.3-0.2,0-0.4-0.2-0.6c0-0.1,0-0.1-0.1-0.1c0.2-0.2-0.4-0.5,0-0.6L11.4,23.9L11.4,23.9L11.4,23.9z M22.6,23.9
		c-0.2,0-0.1,0.2-0.2,0.3c-0.3,0.2-0.3,0.6-0.6,0.8c0.1,0.1,0.1,0.1,0.2,0.1c-0.1,0-0.1,0.1-0.1,0.1l0.2,0.2
		c0.2-0.1,0.2-0.5,0.5-0.3l0.1-0.1l-0.1-0.1c-0.1-0.1,0.1,0,0.1,0.1c0,0,0.1,0.1,0.1,0.1c0.1-0.1,0-0.2-0.1-0.3v0
		c0.2,0,0.1,0.2,0.3,0.2c-0.1,0.1-0.1,0.1,0,0.3c0.1,0.1,0.2-0.1,0.3-0.1c0,0.1,0,0.2,0.1,0.3l0,0c-0.1-0.1-0.1-0.2-0.2-0.3L23,25.2
		c0.2,0.1,0.2,0.3,0.3,0.5c0,0.6,0.1,1.4-0.1,1.9c0,0.1-0.1,0.2-0.1,0.4c-0.5,0.2-1,0.2-1.5,0.4c0.2-0.3,0.5-0.5,0.6-0.8
		c0-0.1-0.2,0-0.3,0l-1.3,1.1c-0.7,0.2-1.3,0.3-2,0.5c-0.5,0.1-1.1,0.2-1.6,0.4c1.3-0.6,2.6-1.6,3.5-2.9l0,0
		c0.4-0.6,0.8-1.4,1.4-1.8c0,0,0-0.1,0-0.1c0.2,0,0.1-0.2,0.2-0.2C22.3,24.2,22.4,24,22.6,23.9L22.6,23.9L22.6,23.9z M20.3,24.2
		c-0.1,0.2,0.1,0.4-0.1,0.5c0,0,0,0,0.1,0c0,0.1-0.3,0.1-0.1,0.3v0.1c-0.1,0-0.1,0-0.1,0.1l0.1,0.1c0,0-0.1,0-0.1,0
		c-0.1,0-0.1,0.1-0.1,0.2c-0.1,0-0.1,0-0.1,0.1c0,0.1,0.1,0.2,0.1,0.3c-0.1-0.1,0-0.4-0.2-0.4c0.2-0.1-0.2-0.2,0-0.4
		c0,0-0.1,0-0.2,0.1v0.2c0,0-0.1,0-0.1,0c0-0.3-0.4-0.2-0.5-0.4c-0.3,0.2,0.1,0.3,0.1,0.4c0,0,0.1,0,0.1,0L19,25.4l0.1,0.1l-0.1,0.1
		l0,0c0,0.1-0.2,0.1-0.2,0.2l0,0.2h0l0,0c-0.2,0-0.2-0.5-0.4-0.2c0,0.1,0,0.2,0.1,0.3c0,0,0.1,0,0.1,0c-0.1,0.1,0,0.3-0.1,0.3
		c0-0.1,0-0.1-0.1-0.2h-0.1c0-0.1,0.2-0.2,0-0.3c-0.2,0.2-0.4,0.2-0.4,0.4L17.5,26l0.1-0.1c0,0.1,0.1,0.1,0.1,0.2
		c0.1-0.1,0.4-0.1,0.4-0.4c0.2,0.1,0.3-0.2,0.3-0.3l0-0.2c0,0-0.1,0.1-0.1,0.1c-0.2-0.2,0.2-0.3,0.1-0.6c0.4,0,0.8,0.2,1.1-0.2
		c0-0.2-0.1-0.6,0.1-0.6C19.8,24.2,20.2,23.9,20.3,24.2L20.3,24.2z M9.3,24.4c-0.2,0.1-0.1-0.2-0.2-0.3l0-0.1
		C9.2,24.1,9.2,24.3,9.3,24.4L9.3,24.4z M24.9,24.6c0,0,0,0.1,0,0.1c0-0.1-0.3-0.1-0.3-0.3C24.6,24.5,24.7,24.6,24.9,24.6L24.9,24.6
		z M9.4,24.7c0.2,0.6,0.7,1.1,1,1.5l0.1-0.1c0,0,0,0,0-0.1c0.2-0.1,0,0.2,0.3,0.2c0,0,0.1-0.1,0.1-0.1l0,0l0,0
		c0.1,0.2-0.1,0.5,0.1,0.7c0.1-0.1-0.1-0.3,0.1-0.2L11,26.6c0.1,0.1-0.1,0.2,0,0.3v0.1c-0.2,0-0.2-0.2-0.3-0.3c0,0,0,0,0-0.1
		l-0.1-0.1l0,0l-0.2-0.2c-0.1,0.1,0.1,0.2-0.1,0.1L10,25.9c-0.2,0.1,0,0.3-0.1,0.4c0.1,0.4-0.1,0.7-0.1,1.1l0.1,0.1
		c-0.1,0.1,0.1,0.2,0,0.3c0,0.3,0,0.5,0,0.7c0.1,0.5,0.1,0.8,0.1,1.3l0.1,0.1L10,29.9c0,0,0,0,0.1,0L9.9,30l0.1,0.1
		c0,0.1,0.1,0.2,0,0.4l0,0c-0.1,0-0.1,0.1-0.1,0.2l0,0c0,0-0.1,0-0.1,0.1c0.2,0.1,0.2,0.3,0.1,0.4H9.9l0.1-0.1c0,0-0.1,0-0.1,0
		c0-0.1,0-0.1,0.1-0.1c0-0.1-0.1,0-0.1,0c0-0.1,0-0.2,0.1-0.2c0,0,0,0-0.1,0c0-0.1,0-0.2,0.1-0.2c-0.1-0.1-0.2-0.1-0.3-0.1
		c0-0.1,0.1,0,0.1-0.1c-0.1-0.1,0-0.3-0.2-0.4l0.1-0.1c0-0.1-0.2,0-0.1-0.2c0-0.1,0.2,0,0.1-0.1c-0.5,0,0.1-0.4-0.3-0.5
		c0,0,0,0.1-0.1,0.1H9.3l0.1-0.1l-0.2-0.2c0,0,0.1,0,0.1,0L9.3,29l0.1-0.1c0-0.1-0.1,0-0.1-0.1l0.1-0.1c0,0-0.1,0-0.1,0
		c0.1-0.2-0.2-0.3-0.2-0.5c0,0,0.1,0,0.1,0c0-0.1-0.1,0-0.1,0c0-0.1-0.1-0.1-0.2-0.2L9,27.9l-0.2-0.1L9,27.5c0,0-0.1,0-0.1-0.1
		c0.2-0.1,0-0.2,0-0.3l-0.1,0.1c0,0,0,0,0,0.1c0,0-0.1,0-0.1,0c0-0.1-0.1-0.2-0.1-0.3c-0.1,0,0.2,0,0.1,0.1c0-0.2-0.2-0.4-0.1-0.5
		c0,0-0.1,0-0.1,0c0.1,0,0-0.1,0-0.2c0,0-0.1,0-0.1,0c0-0.1,0-0.1-0.1-0.2h0c-0.1,0.1,0.1-0.1,0-0.2c0.1-0.1,0.4-0.1,0.2-0.3l0,0
		c-0.1,0.2-0.3,0.2-0.3,0.4c-0.1,0-0.1,0-0.1,0.1c0,0.1,0,0.1,0.1,0.1l0,0l0-0.1c-0.1-0.1-0.1,0.1-0.2,0C8.1,26.1,8,26,8.1,25.9l0,0
		l-0.5,0.5c0.1,0.2-0.2,0.2-0.3,0.3c-0.2,0.2-0.3,0.3-0.5,0.4l-0.1,0.1l-0.1-0.1l0.3-0.3c0,0-0.1,0-0.1,0l0.1-0.1
		c0-0.1-0.2,0.1-0.1-0.1c0.1,0,0.1,0,0.2,0.1l0,0c0.2-0.1-0.1-0.4,0.2-0.4l-0.2,0l0.1-0.1c0.4-0.2,0.8-0.4,1.1-0.7
		c0.1,0,0.1,0.1,0.1,0l0.1-0.1l0,0c0.1-0.2,0.3-0.3,0.5-0.4C8.8,24.9,9,24.9,9,24.8c0.2,0,0-0.3,0.3-0.3C9.3,24.5,9.3,24.7,9.4,24.7
		L9.4,24.7z M25.6,24.5C25.6,24.6,25.6,24.6,25.6,24.5l-0.1,0.1v-0.1C25.5,24.5,25.6,24.5,25.6,24.5L25.6,24.5z M23,24.7
		c0,0-0.2-0.1-0.1-0.1L23,24.7L23,24.7z M15.5,24.8c-0.2,0.2-0.6,0-1,0c-0.1-0.1-0.3-0.1-0.4-0.1c0.5,0.1,0.8-0.1,1.2,0.1
		C15.4,24.7,15.5,24.8,15.5,24.8L15.5,24.8z M26,24.9l-0.1,0.1c-0.1-0.1-0.1-0.2-0.3-0.2C25.8,24.5,26,24.8,26,24.9L26,24.9z
		 M22.2,24.9c0,0,0,0.1,0,0.1l-0.1-0.1H22.2L22.2,24.9z M26.2,25c0,0-0.1,0.1-0.1,0.1l0,0l0.1-0.1C26.1,24.9,26.2,25,26.2,25
		L26.2,25z M17,25c0,0,0,0.1,0,0.1h0L17,25C17,25,17,25,17,25L17,25z M18.5,25.2C18.6,25.2,18.5,25.2,18.5,25.2l-0.1-0.1
		C18.5,25.1,18.5,25.2,18.5,25.2L18.5,25.2z M19.4,25.3l-0.1-0.1l0,0L19.4,25.3L19.4,25.3L19.4,25.3z M16.4,25.3
		c-0.1,0-0.3,0-0.3,0.1c-0.1,0-0.1,0-0.1,0.1l0-0.1c0-0.1,0,0.1,0.1,0l0.1-0.1c0,0,0,0-0.1,0C16.1,25.1,16.3,25.2,16.4,25.3
		L16.4,25.3L16.4,25.3z M8.7,25.4l0.2-0.2h0.1L8.7,25.4L8.7,25.4z M15.9,25.4l-0.1,0.1c-0.1,0-0.1,0-0.1-0.1
		C15.7,25.4,15.8,25.5,15.9,25.4C15.8,25.3,15.9,25.4,15.9,25.4L15.9,25.4z M17,25.5l-0.1,0.1l-0.1-0.1l0,0l-0.1-0.1
		c0,0,0,0.1,0,0.1l0.1,0.1c-0.1,0-0.1,0.2-0.2,0.1l0.1-0.1c-0.1-0.1-0.2,0.1-0.3,0c0.2,0.1,0.1-0.3,0.3-0.1
		C16.6,25.4,16.9,25.4,17,25.5C17,25.5,17,25.5,17,25.5L17,25.5z M17.4,25.7c-0.1-0.1-0.2-0.2,0-0.3L17.4,25.7L17.4,25.7z M9,25.5
		c-0.1,0.1-0.2-0.1-0.3,0v0L9,25.5L9,25.5z M18.7,25.6C18.7,25.6,18.7,25.6,18.7,25.6l0.1-0.1C18.8,25.6,18.8,25.6,18.7,25.6
		L18.7,25.6z M24.8,25.6c0,0.1-0.1,0-0.2,0.1l0.1-0.2C24.7,25.5,24.7,25.6,24.8,25.6L24.8,25.6z M24.3,25.7c0,0.2,0.2,0.2,0.1,0.4
		C24.5,26,24.3,25.8,24.3,25.7L24.3,25.7L24.3,25.7z M24.5,25.8h0.1H24.5L24.5,25.8z M24.2,26L24,26.2c0.1,0.1,0.2,0,0.3,0
		c-0.1,0-0.2,0.1-0.3,0c-0.1,0,0-0.1,0-0.2L24,26l-0.1-0.1C24,26,24.2,25.8,24.2,26L24.2,26z M8.6,26l-0.1-0.1L8.6,26L8.6,26L8.6,26
		z M16.4,26l-0.1,0.1L16.2,26C16.3,26,16.3,26,16.4,26L16.4,26z M6.7,26.4c-0.5,0.3-1.1,0.7-1.6,0.8c0.5-0.3,1-0.5,1.5-0.8H6.7
		L6.7,26.4z M8.2,26.8L8.2,26.8l-0.2-0.1c0.1-0.1,0.4,0,0.4,0L8.2,26.8L8.2,26.8z M7.8,26.7c0,0.1,0,0.1-0.1,0.1l0,0
		C7.7,26.7,7.8,26.7,7.8,26.7L7.8,26.7z M8.2,26.9C8.2,27,8.1,27,8.2,26.9l0.1,0.1c0,0.1-0.1,0.1-0.1,0.1l-0.1-0.1l0.1-0.1l-0.1-0.1
		L8,27c-0.1,0,0-0.1,0-0.1C8.2,26.8,8,27,8.2,26.9L8.2,26.9z M18.1,27c0,0,0,0.1,0,0.1L18.1,27L18.1,27L18.1,27z M6.3,27.1
		c-0.1,0.1-0.1,0.4-0.2,0.5c0.1,0,0,0.1,0,0.1c0-0.1,0-0.2,0.1-0.3C6.2,27.4,6.1,27.1,6.3,27.1C6.3,27,6.3,27.1,6.3,27.1L6.3,27.1z
		 M18.2,27.4L18.2,27.4H18l0,0c0,0.1-0.1,0-0.2,0c0.1,0,0.1,0,0.1-0.1c0,0,0-0.1-0.1-0.1c0.1,0,0.1-0.1,0.2,0V27.4L18.2,27.4z
		 M6.6,27.3c0,0-0.1,0.1-0.1,0.1v-0.1C6.5,27.3,6.6,27.2,6.6,27.3L6.6,27.3z M7.4,27.5l-0.1-0.1L7.4,27.5L7.4,27.5L7.4,27.5z
		 M8.6,27.5L8.6,27.5l-0.2-0.1C8.6,27.2,8.4,27.5,8.6,27.5L8.6,27.5z M23.9,27.5L23.9,27.5C23.9,27.5,23.9,27.5,23.9,27.5l-0.2,0.1
		c0.1,0.1,0.2,0,0.3,0.1c0,0-0.1,0-0.1,0.1c0,0-0.2,0-0.2,0h-0.1c0-0.1,0.2-0.2,0-0.3v-0.1c0,0,0.1,0,0.1,0l-0.1-0.1
		C23.8,27.4,23.8,27.4,23.9,27.5L23.9,27.5z M6.3,27.4c0,0,0,0.1,0,0.1L6.3,27.4L6.3,27.4L6.3,27.4z M8.2,27.5
		c-0.1,0-0.1,0.2-0.2,0.1c0-0.1-0.2-0.1-0.1-0.2C8,27.5,8.1,27.5,8.2,27.5L8.2,27.5z M7.4,27.7L7.4,27.7c-0.1,0-0.1,0-0.1,0l0,0
		l-0.1-0.1C7.2,27.7,7.4,27.5,7.4,27.7L7.4,27.7z M25.5,27.7c-0.6,0.7-1.3,1.3-2,1.9c0-0.3-0.3-0.3-0.4-0.5c0-0.1,0.1-0.1,0.1-0.2
		l0,0c0.1,0,0.3-0.2,0.2-0.4l-0.1-0.1c0.4,0.1-0.1-0.4,0.3-0.1l0.1-0.1l0,0c0.1-0.2,0.2,0.2,0.3,0v0.1c0,0,0.1,0,0.2-0.1l-0.1-0.1
		c0.3-0.2,0.7-0.2,1.1-0.3C25.3,27.7,25.4,27.6,25.5,27.7L25.5,27.7z M12,28c0,0-0.1,0-0.1,0c0-0.1,0.1-0.1,0.1-0.1
		C12.1,27.9,12,27.9,12,28L12,28z M17.8,27.8C17.6,27.8,17.8,27.9,17.8,27.8L17.8,27.8L17.8,27.8z M7.8,27.9c0,0.1-0.1,0-0.1,0
		C7.7,27.9,7.8,27.8,7.8,27.9L7.8,27.9z M8.4,27.9c0,0.1-0.1,0-0.1,0l0.1-0.1C8.3,27.9,8.4,27.9,8.4,27.9L8.4,27.9z M8.1,27.9
		L8.1,27.9c0.1,0,0,0.3,0.2,0.2c-0.1,0.1-0.3,0.1-0.4,0.3c0-0.1,0.1-0.3,0.2-0.3c-0.1-0.2-0.1,0-0.3,0v-0.1C7.8,27.9,8,28,8.1,27.9
		L8.1,27.9z M8.6,28.2C8.7,28.2,8.7,28.2,8.6,28.2L8.6,28.2L8.6,28.2C8.6,28.2,8.5,28.1,8.6,28.2L8.6,28.2L8.6,28.2L8.6,28.2z
		 M16.9,28.3c-0.1-0.1,0-0.1,0-0.2C17.1,28.2,17,28.3,16.9,28.3L16.9,28.3z M7.4,33.7c-0.7,0.7-1.6,1-2.6,0.8
		c-0.2-0.1-0.5-0.3-0.4-0.6c0.1-0.1,0.2-0.3,0.4-0.4l0.1,0.1c-0.2,0.1-0.3,0.4-0.2,0.5c0.8,0.5,1.8,0.1,2.4-0.4
		c0.4-0.4,0.3-1,0.2-1.6c-0.2-0.7-0.9-1.1-1.5-1.3c-0.8,0-1.4,0.2-2.2,0.4c-0.1,0.2-0.5,0-0.7,0.1c-0.5,0.2-1,0.5-1.4,0.8
		c-0.4,0.2-0.7,0.5-1.1,0.7c-0.1,0-0.2,0.2-0.3,0.2C0,33.1,0,33.1,0,33c0.7-0.5,1.5-1,2.2-1.5c-0.2-0.1-0.4-0.1-0.5-0.3
		c0.2-0.5,0.8-0.6,1.2-0.7c1.2,0.2,1.8-1,2.7-1.5c0.4-0.2,0.8-0.5,1.2-0.8l0,0c0.1,0.2-0.3,0.3-0.4,0.5c-0.4,0.2-0.6,0.5-1,0.7
		c-0.5,0.4-0.9,0.6-1.3,1l1.4,0.2c0.7-0.2,1.3-0.6,1.9-0.9l-0.1-0.1l0,0c0.2,0.3,0.5-0.1,0.7-0.2c0.3,0,0.4-0.6,0.7-0.3
		c-0.2,0.4-0.7,0.4-1,0.7c-0.7,0.3-1.3,0.6-1.9,1 M8.5,28.4l-0.2,0.1l0,0l-0.1,0.1c0,0,0-0.1,0.1-0.1l-0.1-0.1
		C8.3,28.3,8.5,28.3,8.5,28.4L8.5,28.4z M22.6,29.3c0,0.2,0.1,0.1,0.2,0.1l0,0.1c0,0.1,0-0.3-0.2,0c0,0,0-0.1-0.1-0.1h-0.2
		c-0.4,0.2-0.5,0.8-1,0.9c0.1-0.3,0.4-0.5,0.2-0.8h-0.1l-1.1,1v-0.1c0.3-0.6,0.7-1.1,1-1.7c0.5-0.2,1.1-0.3,1.6-0.4
		C23.1,28.8,22.1,28.9,22.6,29.3L22.6,29.3z M7.3,28.7L7.3,28.7v-0.2C7.3,28.6,7.4,28.6,7.3,28.7L7.3,28.7z M9.1,28.6L9.1,28.6
		l-0.2,0L9,28.5C9,28.5,8.9,28.7,9.1,28.6L9.1,28.6z M8.6,28.7c0,0.1-0.1,0-0.1,0.1c-0.1,0,0-0.1,0-0.1C8.5,28.6,8.5,28.6,8.6,28.7
		L8.6,28.7z M7.5,28.8l-0.2-0.1L7.5,28.8L7.5,28.8L7.5,28.8z M8.7,28.9c0,0-0.1-0.1-0.1-0.1l0,0l0,0l0.1-0.1L8.7,28.9L8.7,28.9z
		 M22.4,29c-0.1,0.1-0.2,0.2-0.3,0.1c-0.2-0.1,0-0.2,0-0.3C22.2,29,22.5,28.8,22.4,29L22.4,29z M7.5,29L7.5,29
		c0-0.1,0.1-0.1,0.1-0.1L7.5,29L7.5,29z M20.4,29c-0.5,0.6-1.1,1.2-1.7,1.8c0-0.2,0.3-0.5,0.4-0.7c0,0,0-0.1-0.1-0.1
		c-0.2,0-0.2,0.2-0.4,0.3c-0.1-0.1-0.2-0.2-0.4-0.1c-0.1,0.1-0.1,0.1-0.2,0.1c0-0.1,0-0.1-0.1-0.2h-0.1c-0.4,0.4-0.8,0.8-1.3,1.1
		l-0.4-0.4c0.2-0.3,0.4-0.7,0.7-0.8c0.8-0.1,1.5-0.5,2.3-0.5C19.5,29.1,20,29.1,20.4,29L20.4,29z M13.5,29.1L13.5,29.1l-0.1,0v-0.1
		C13.4,29.1,13.5,29.1,13.5,29.1L13.5,29.1z M9,29.2c0,0.1-0.1,0-0.2,0v-0.1C8.8,29.2,8.9,29.2,9,29.2L9,29.2z M23,29.3
		C22.9,29.3,22.9,29.3,23,29.3l0.1-0.1C23.1,29.2,23,29.3,23,29.3L23,29.3z M14.3,29.4c0,0.8-0.9,1.3-1.3,1.9
		c-0.7,0.7-1.5,1.4-2.3,1.8c-0.1,0-0.2,0-0.3-0.1c0-0.6,0.2-1.2,0.5-1.7l0.3-0.4C12.2,30.2,13.1,29.5,14.3,29.4L14.3,29.4L14.3,29.4
		z M16.4,29.4c-0.1,0.2-0.3,0.3-0.4,0.4c-0.4,0.1-0.9,0.1-1,0.5c0,0,0.1,0.1,0.1,0.1c0.1-0.3,0.4-0.2,0.7-0.3
		c-0.2,0.2-0.5,0.2-0.5,0.5L14,31.6c0.3-0.8,0.7-1.6,1.4-2.1C15.7,29.5,16.1,29.5,16.4,29.4L16.4,29.4z M22.7,29.7
		c-0.1,0-0.1,0.2-0.1,0.2v-0.2H22.7L22.7,29.7z M22.3,30.1L22.3,30.1c0-0.1,0-0.1,0.1-0.1L22.3,30.1L22.3,30.1z M17.4,31.3
		c0.1-0.4,0.5-0.9,0.9-1.1C18.2,30.7,17.8,31,17.4,31.3L17.4,31.3z M19.7,30.4c0,0-0.1,0-0.1,0l0.1-0.1V30.4L19.7,30.4z M22.7,30.6
		c-0.1,0-0.1,0.1-0.2,0.1C22.5,30.5,22.6,30.6,22.7,30.6L22.7,30.6z M19.3,30.8l0.1-0.2v0.1L19.3,30.8L19.3,30.8z M3.3,30.7
		c-0.4,0.2-0.8,0.8-1.4,0.5C2,31,2.2,30.9,2.3,30.8C2.6,30.7,3,30.7,3.3,30.7L3.3,30.7z M4.8,30.8c-0.5,0.2-1,0.1-1.5,0.3
		c0.2-0.1,0.3-0.2,0.5-0.4L4.8,30.8L4.8,30.8z M22.4,30.9L22.4,30.9l-0.2-0.1l0.1-0.1C22.3,30.8,22.3,30.8,22.4,30.9L22.4,30.9z
		 M16.5,31.2l-0.9,0.6c0.2-0.3,0.3-0.7,0.5-1C16.1,31,16.4,31,16.5,31.2L16.5,31.2z M19.1,30.9l-0.1,0.2L19.1,30.9L19.1,30.9z
		 M22.3,31.2c0,0.1-0.1,0-0.1,0l0.1-0.1C22.3,31.1,22.3,31.2,22.3,31.2L22.3,31.2z M22.2,31.4L22.2,31.4c-0.1,0-0.2,0-0.1-0.1
		C22.1,31.4,22.2,31.4,22.2,31.4L22.2,31.4z M8.9,31.6l-0.1-0.1L8.9,31.6L8.9,31.6L8.9,31.6z M10.1,31.6l-0.1,0.2L10.1,31.6
		L10.1,31.6z M22.1,31.7c0,0.1-0.1,0-0.2,0.1c0,0,0,0,0,0.1c0,0,0,0-0.1,0c0.1,0,0-0.1,0.1-0.1H22.1L22.1,31.7z M17.3,31.9
		c0,0-0.1,0-0.1,0v-0.1C17.2,31.8,17.3,31.8,17.3,31.9L17.3,31.9z M17.7,32.4L17.7,32.4c-0.1,0-0.2-0.1-0.3-0.1l0,0
		c0-0.1-0.2,0-0.2-0.2C17.6,32,17.6,32.3,17.7,32.4L17.7,32.4z M9.3,32.4l0-0.1L9.3,32.4L9.3,32.4L9.3,32.4z M18.4,33.2
		c0.2,0,0,0.2,0.2,0.2v0.1c-0.1,0-0.1,0-0.1-0.1l0,0c-0.3-0.2-0.6-0.5-0.8-0.8l0,0C18.1,32.7,18.3,33,18.4,33.2L18.4,33.2z
		 M9.3,32.8H9.1v-0.1C9.2,32.7,9.3,32.7,9.3,32.8L9.3,32.8z M14,33.1c0.2,0.2,0.2,0.6,0.3,0.8c0,0,0.1,0.1,0.1,0.1
		c-0.1,0.1,0,0.3-0.1,0.4c-0.1-0.1-0.1-0.3-0.1-0.5h-0.1c0-0.1,0.1-0.3-0.1-0.3l0.1-0.1l-0.1-0.1l0-0.8C14,32.9,14.1,33.1,14,33.1
		L14,33.1z"/>
</g>
</svg>
