<svg version="1.1" id="katman_1" xmlns="http://www.w3.org/2000/svg" xmlns:xlink="http://www.w3.org/1999/xlink" x="0px" y="0px"
	 viewBox="0 0 123.1 66.8" style="enable-background:new 0 0 123.1 66.8;" xml:space="preserve">
<style type="text/css">
	.st0{clip-path:url(#SVGID_00000162339050733210726000000012838563421061404584_);}
	.st1{fill:#FFFFFF;}
</style>
<g>
	<defs>
		<rect id="SVGID_1_" width="123.1" height="66.8"/>
	</defs>
	<clipPath id="SVGID_00000177446719396843855830000009214211348008780422_">
		<use xlink:href="#SVGID_1_"  style="overflow:visible;"/>
	</clipPath>
	<g style="clip-path:url(#SVGID_00000177446719396843855830000009214211348008780422_);">
		<path class="st1" d="M31,33.4c0,1.3,1.1,2.4,2.4,2.4c1.3,0,2.4-1.1,2.4-2.4c0-1.3-1-2.4-2.4-2.4C32.1,31,31,32.1,31,33.4z"/>
		<path class="st1" d="M33.3,7.9C19.2,7.9,7.8,19.3,7.8,33.4s11.5,25.5,25.6,25.5s25.5-11.4,25.5-25.5S47.5,7.8,33.3,7.9z
			 M33.4,24.5c-4.9,0-8.8,4-8.8,8.8c0,1.2,0.2,2.4,0.7,3.5l-2.7,4l4.7-1.2c1.5,1.3,3.9,2.5,6.1,2.5c2.4,0,4.5-0.9,6.1-2.5l6.8,7
			c-3.4,3.3-8,5.3-13,5.3c-10.2,0-18.5-8.2-18.5-18.5s8.3-18.6,18.5-18.7c5.1,0,9.7,2,13,5.3l-5.7,5.9L39.5,27
			C38,25.5,35.8,24.5,33.4,24.5z M37.5,33.4c0,2.3-1.9,4.1-4.1,4.1c-2.3,0-4.1-1.9-4.1-4.1c0-2.3,1.9-4.1,4.1-4.1
			C35.6,29.3,37.4,31.1,37.5,33.4z"/>
		<path class="st1" d="M32.7,3.3l0.7,2.1l0.7-2.1h2.1L34.5,2l0.6-2l-1.7,1.3L31.6,0l0.7,2.1l-1.8,1.2H32.7z"/>
		<path class="st1" d="M19.2,6.7l2.1-0.8l1.4,1.6l-0.2-2.2l2-0.8L22.4,4l-0.2-2.2l-1.1,1.9L19,3.2l1.4,1.7L19.2,6.7z"/>
		<path class="st1" d="M10.1,14.2l1.6-1.6l1.9,1l-1-2l1.6-1.5L12,10.4l-1-1.9l-0.3,2.2L8.5,11l2,1L10.1,14.2z"/>
		<path class="st1" d="M6.7,19.2l-1.9,1.2l-1.6-1.5l0.5,2.2l-1.9,1.1L4,22.4l0.5,2.1l0.9-2l2.2,0.2l-1.7-1.5L6.7,19.2z"/>
		<path class="st1" d="M2.1,34.4l1.2,1.8V34l2.1-0.7l-2.1-0.6v-2.2L2,32.3l-2-0.7l1.3,1.8L0,35.1L2.1,34.4z"/>
		<path class="st1" d="M5.3,44.2l-0.8-2L4,44.3l-2.2,0.2l1.9,1.1l-0.5,2.2l1.7-1.5l1.8,1.2l-0.8-2L7.5,44L5.3,44.2z"/>
		<path class="st1" d="M13.6,53.1l-2,1l-1.5-1.5l0.3,2.1l-1.9,1l2.2,0.4l0.3,2.1l1-1.9l2.2,0.3L12.6,55L13.6,53.1z"/>
		<path class="st1" d="M22.7,59.2l-1.5,1.6l-2-0.8l1.2,1.9l-1.5,1.6l2.2-0.5l1.1,1.9l0.2-2.2l2.1-0.5l-2-0.9L22.7,59.2z"/>
		<path class="st1" d="M34,63.4l-0.7-2.1l-0.6,2.1h-2.2l1.8,1.3l-0.7,2.1l1.8-1.3l1.7,1.2l-0.7-2l1.8-1.3H34z"/>
		<path class="st1" d="M47.5,60l-2,0.8L44,59.2l0.2,2.2l-2,0.8l2.1,0.5l0.2,2.2l1.1-1.9l2.2,0.5l-1.5-1.6L47.5,60z"/>
		<path class="st1" d="M56.6,52.6L55,54.1l-1.9-1l1,2l-1.5,1.5l2.1-0.3l1,1.9l0.4-2.1l2.1-0.4l-1.9-1L56.6,52.6z"/>
		<path class="st1" d="M62.7,44.3l-0.5-2.1l-0.9,2l-2.1-0.1l1.6,1.4l-0.8,2l1.9-1.1l1.6,1.4L63,45.6l1.9-1.1L62.7,44.3z"/>
		<path class="st1" d="M66.7,31.6l-2,0.7l-1.3-1.8v2.2l-2.1,0.7l2.1,0.7v2.1l1.3-1.7l2.1,0.6l-1.3-1.7L66.7,31.6z"/>
		<path class="st1" d="M61.4,22.5l0.8,2l0.5-2.1l2.2-0.2L63,21.1l0.5-2.1l-1.6,1.4L60,19.2l0.8,2.1l-1.6,1.4L61.4,22.5z"/>
		<path class="st1" d="M53.1,13.6l2-1l1.5,1.6L56.3,12l1.9-1l-2.1-0.3l-0.4-2.2l-1,2l-2.1-0.4l1.5,1.6L53.1,13.6z"/>
		<path class="st1" d="M44.1,7.6l1.4-1.7l2,0.8l-1.1-1.9l1.4-1.6l-2.2,0.5l-1.1-1.9L44.3,4l-2.1,0.5l2,0.9L44.1,7.6z"/>
		<path class="st1" d="M76,42.1h-0.2c-0.2,0.6-0.4,0.8-0.8,0.8c-0.5,0-0.8-0.6-0.8-1.3c0-0.7,0.3-1.2,0.8-1.2c0.4,0,0.6,0.2,0.7,0.7
			h0.1v-0.6c-0.2-0.1-0.5-0.2-0.8-0.4c-0.8,0-1.4,0.6-1.4,1.5c0,0.9,0.5,1.4,1.4,1.4c0.4,0,0.7-0.1,0.9-0.2L76,42.1z"/>
		<path class="st1" d="M78.9,42.1v-1.4c0-0.2,0-0.3,0.3-0.3v-0.1h-0.9v0.2c0.3,0.1,0.4,0.1,0.4,0.3v1.3c0,0.6-0.3,0.8-0.7,0.8
			s-0.6-0.3-0.6-0.8v-1.4c0-0.2,0-0.3,0.3-0.3v-0.1h-1.2v0.1c0.3,0.1,0.3,0.1,0.3,0.3v1.4c0,0.7,0.4,1,1.1,1
			C78.4,43.1,78.9,42.8,78.9,42.1z"/>
		<path class="st1" d="M80.2,42.7l0.2-1.7l0.8,2.1h0.2l0.8-2.1l0.2,1.5v0.1c0,0.2-0.1,0.3-0.4,0.3V43h1.3v-0.1c-0.2,0-0.3,0-0.3-0.2
			l-0.2-2c0-0.2,0-0.3,0.3-0.3v-0.1h-0.9c0,0.1-0.1,0.1-0.1,0.2l-0.6,1.7l-0.6-1.7c-0.1,0-0.1-0.1-0.1-0.2h-0.9v0.2
			c0.2,0,0.3,0.1,0.3,0.3l-0.2,2c0,0.1-0.1,0.2-0.3,0.2v0.1h0.9V43C80.3,42.9,80.2,42.9,80.2,42.7z"/>
		<path class="st1" d="M85.6,42.9L85.6,42.9l1.2,0.1v-0.1c-0.3-0.1-0.3-0.1-0.3-0.3v-1.9c0-0.2,0-0.3,0.3-0.3v-0.1h-1.2v0.2
			c0.3,0.1,0.3,0.1,0.3,0.3v0.8h-1.2v-0.9c0-0.2,0-0.3,0.3-0.3v-0.1h-1.2v0.1c0.3,0.1,0.3,0.1,0.3,0.3v1.9c0,0.2,0,0.3-0.3,0.3V43
			H85v-0.1c-0.3-0.1-0.3-0.1-0.3-0.3v-0.9h1.2v0.9C85.9,42.8,85.9,42.9,85.6,42.9z"/>
		<path class="st1" d="M89.1,40.5c0.3,0.1,0.4,0.1,0.4,0.3v1.3c0,0.6-0.3,0.8-0.7,0.8c-0.4,0-0.6-0.3-0.6-0.8v-1.4
			c0-0.2,0-0.3,0.3-0.3v-0.1h-1.2v0.1c0.3,0.1,0.3,0.1,0.3,0.3v1.4c0,0.7,0.4,1,1.1,1c0.5,0,1-0.3,1-1v-1.4c0-0.2,0-0.3,0.3-0.3
			v-0.1h-0.9V40.5L89.1,40.5z"/>
		<path class="st1" d="M91.8,41.8h-0.2v-1.2h0.2c0.4,0,0.6,0.2,0.6,0.6S92.2,41.8,91.8,41.8H92l0.5,0.8c0.1,0.2,0.2,0.3,0.3,0.4h0.7
			v-0.1c-0.2,0-0.3-0.1-0.5-0.3l-0.6-0.8c0.3,0,0.6-0.3,0.6-0.7c0-0.5-0.3-0.8-1-0.8h-1.3v0.2c0.3,0.1,0.3,0.1,0.3,0.3v1.9
			c0,0.2,0,0.3-0.3,0.3v0.1h1.2V43c-0.3-0.1-0.3-0.1-0.3-0.3h0.2V41.8L91.8,41.8z"/>
		<path class="st1" d="M96.3,42.3c0-0.4-0.4-0.7-0.9-0.7c0.3,0,0.7-0.2,0.7-0.6c0-0.5-0.3-0.7-0.9-0.7h-1.3v0.2
			c0.3,0.1,0.3,0.1,0.3,0.3v1.9c0,0.2,0,0.3-0.3,0.3h1.4C95.9,43,96.3,42.8,96.3,42.3z M94.8,40.5H95c0.4,0,0.6,0.2,0.6,0.5
			c0,0.4-0.2,0.6-0.6,0.6h-0.2V40.5z M95.1,42.9c-0.2,0-0.3-0.1-0.3-0.3v-0.9H95c0.4,0,0.6,0.3,0.6,0.6
			C95.6,42.7,95.5,42.9,95.1,42.9z"/>
		<path class="st1" d="M99.4,42.9l-1-2.5h-0.6l0.1,0.3L97,42.9c0,0.1-0.1,0.1-0.2,0.1v0.1h0.7V43c-0.2,0-0.3-0.1-0.3-0.2
			c0-0.1,0-0.1,0-0.2l0.2-0.4h1.1l0.2,0.4c0,0.1,0,0.2,0,0.2c0,0.2-0.1,0.2-0.3,0.2v0.1h1.2V43C99.5,43,99.4,43,99.4,42.9z M97.5,42
			l0.4-1.2l0.5,1.2H97.5z"/>
		<path class="st1" d="M101,43.6c0.2,0,0.3-0.1,0.3-0.3c0-0.2-0.2-0.3-0.4-0.3l-0.2,0.4C100.9,43.5,101,43.5,101,43.6z"/>
		<path class="st1" d="M100.6,43.8c0.3,0,0.4-0.1,0.4-0.2C100.9,43.7,100.7,43.7,100.6,43.8z"/>
		<path class="st1" d="M101.2,41.2c-0.5-0.1-0.6-0.2-0.6-0.5c0-0.2,0.1-0.4,0.4-0.4c0.4,0,0.6,0.3,0.7,0.7h0.1v-0.6
			c-0.2-0.1-0.5-0.2-0.8-0.2c-0.5,0-0.9,0.3-0.9,0.8c0,0.4,0.3,0.6,0.8,0.8c0.4,0.2,0.6,0.3,0.6,0.6c0,0.2-0.2,0.4-0.5,0.4
			c-0.4,0-0.6-0.3-0.7-0.8h-0.2v0.7c0.2,0.2,0.5,0.3,0.8,0.3l0.1-0.1c0.5,0,1-0.3,1-0.8S101.7,41.4,101.2,41.2z"/>
		<path class="st1" d="M103.8,40.4v-0.1h-1.2v0.2c0.3,0.1,0.3,0.1,0.3,0.3v1.9c0,0.2,0,0.3-0.3,0.3v0.1h1.2V43
			c-0.3-0.1-0.3-0.1-0.3-0.3v-2C103.5,40.5,103.5,40.4,103.8,40.4z"/>
		<path class="st1" d="M104.7,40.4c0,0.1,0,0.1-0.1,0.2l-1,1l0.7,1c0.1,0.2,0.2,0.3,0.3,0.4h0.7v-0.1c-0.2,0-0.2-0.1-0.4-0.3
			l-0.8-1.2l0.8-0.8c0.2-0.1,0.2-0.2,0.4-0.2v-0.1h-0.9C104.6,40.3,104.7,40.3,104.7,40.4z"/>
		<path class="st1" d="M108.4,42.9l-1-2.5h-0.6l0.1,0.3l-0.9,2.2c0,0.1-0.1,0.1-0.2,0.1v0.1h0.7V43c-0.2,0-0.3-0.1-0.3-0.2
			c0-0.1,0-0.1,0-0.2l0.2-0.4h1.1l0.2,0.4c0,0.1,0,0.2,0,0.2c0,0.2-0.1,0.2-0.3,0.2v0.1h1.2V43C108.5,43,108.4,43,108.4,42.9z
			 M106.5,42l0.4-1.2l0.5,1.2H106.5z"/>
		<path class="st1" d="M111.8,40.3h-0.9v0.1c0.3,0.1,0.4,0.1,0.4,0.3v1.4l-1.4-1.8h-0.8v0.2c0.1,0,0.2,0,0.3,0.2v2
			c0,0.2,0,0.3-0.3,0.3v0.1h0.9V43c-0.3-0.1-0.4-0.1-0.4-0.3v-1.8l1.7,2.2h0.2v-2.4C111.5,40.5,111.5,40.4,111.8,40.3z"/>
		<path class="st1" d="M114.5,42.2c-0.3,0.5-0.4,0.7-0.7,0.7h-0.2c-0.2,0-0.3-0.1-0.3-0.3v-1.9c0-0.2,0-0.3,0.3-0.3v-0.1h-1.2v0.2
			c0.3,0.1,0.3,0.1,0.3,0.3v1.9c0,0.2,0,0.3-0.3,0.3v0.1h2.1l0.1-0.9H114.5L114.5,42.2z"/>
		<path class="st1" d="M115.2,40.5c0.3,0.1,0.3,0.1,0.3,0.3v1.9c0,0.2,0,0.3-0.3,0.3v0.1h1.2V43c-0.3-0.1-0.3-0.1-0.3-0.3v-2
			c0-0.2,0-0.3,0.3-0.3v-0.1h-1.2V40.5z"/>
		<path class="st1" d="M118.6,41.9c0.3,0.1,0.3,0.1,0.3,0.3h0.1v0.6c-0.1,0.1-0.2,0.1-0.4,0.1c-0.5,0-0.8-0.6-0.8-1.3
			s0.2-1.2,0.8-1.2c0.4,0,0.6,0.2,0.7,0.7h0.1v-0.6c-0.3-0.1-0.6-0.2-0.9-0.2c-0.8,0-1.4,0.6-1.4,1.5c0,0.8,0.5,1.4,1.4,1.4
			c0.4,0,0.7-0.1,1-0.3v-0.7c0-0.2,0-0.3,0.3-0.3v-0.1h-1.2V41.9L118.6,41.9z"/>
		<path class="st1" d="M118,39.5c-0.1,0.4,0.1,0.6,0.3,0.6c0.4,0,0.6-0.2,0.6-0.6h-0.1c0,0.2-0.2,0.3-0.4,0.3
			C118.2,39.8,118,39.7,118,39.5z"/>
		<path class="st1" d="M120.3,40.5c0.3,0.1,0.3,0.1,0.3,0.3v1.9c0,0.2,0,0.3-0.3,0.3v0.1h1.2V43c-0.3-0.1-0.3-0.1-0.3-0.3v-2
			c0-0.2,0-0.3,0.3-0.3v-0.1h-1.2V40.5z"/>
		<path class="st1" d="M73.6,45c0.3,0.1,0.3,0.1,0.3,0.3v1.9c0,0.2,0,0.3-0.3,0.3v0.1h1.2v-0.1c-0.3-0.1-0.3-0.1-0.3-0.3v-1.9
			c0-0.2,0-0.3,0.3-0.3v-0.1L73.6,45z"/>
		<path class="st1" d="M74.2,44.7c0.2,0,0.3-0.1,0.3-0.3s-0.1-0.3-0.3-0.3c-0.2,0-0.3,0.1-0.3,0.3S74,44.7,74.2,44.7z"/>
		<path class="st1" d="M76.8,47.5h-0.2c-0.2,0-0.3-0.1-0.3-0.3v-1.9c0-0.2,0-0.3,0.3-0.3v-0.1h-1.2V45c0.3,0.1,0.3,0.1,0.3,0.3v2
			c0,0.2,0,0.3-0.3,0.3v0.1h2.1l0.1-0.9h-0.1C77.2,47.3,77.1,47.5,76.8,47.5z"/>
		<path class="st1" d="M79.7,47.5h-0.2c-0.2,0-0.3-0.1-0.3-0.3v-0.9h0.5c0.2,0,0.3,0.1,0.3,0.4h0.1v-0.9H80
			c-0.1,0.3-0.1,0.4-0.3,0.4h-0.5v-1.1h0.5c0.3,0,0.4,0.1,0.6,0.5h0.1v-0.7h-2.2V45c0.3,0.1,0.3,0.1,0.3,0.3v1.9
			c0,0.2,0,0.3-0.3,0.3v0.2h2.2l0.1-0.8h-0.1C80.1,47.3,80,47.5,79.7,47.5z"/>
		<path class="st1" d="M83.5,45h-0.6c0.3,0,0.3,0.2,0.6,0.8h0.1L83.5,45L83.5,45z"/>
		<path class="st1" d="M82.7,47.3V45h-1.6L81,45.9h0.1c0.3-0.6,0.4-0.8,0.7-0.8h0.4v2.2c0,0.3-0.1,0.3-0.4,0.3v0.1h1.3v-0.1
			C82.8,47.5,82.7,47.5,82.7,47.3z"/>
		<path class="st1" d="M84.7,44.7c0.2,0,0.3-0.1,0.3-0.3s-0.1-0.3-0.3-0.3s-0.3,0.1-0.3,0.3S84.5,44.7,84.7,44.7z"/>
		<path class="st1" d="M84.1,45c0.3,0.1,0.3,0.1,0.3,0.3v1.9c0,0.2,0,0.3-0.3,0.3v0.1h1.2v-0.1C85,47.4,85,47.4,85,47.2v-1.9
			c0-0.2,0-0.3,0.3-0.3v-0.1L84.1,45z"/>
		<path class="st1" d="M87.1,45.8c-0.5-0.1-0.6-0.2-0.6-0.5c0-0.2,0.1-0.4,0.4-0.4c0.4,0,0.6,0.3,0.7,0.7h0.1V45
			c-0.2-0.1-0.5-0.2-0.8-0.2c-0.5,0-0.9,0.3-0.9,0.8c0,0.4,0.3,0.6,0.8,0.8c0.4,0.2,0.6,0.3,0.6,0.6c0,0.2-0.2,0.4-0.5,0.4
			c-0.4,0-0.6-0.3-0.7-0.8H86v0.7c0.2,0.2,0.5,0.3,0.8,0.3l0.1-0.1c0.5,0,1-0.3,1-0.8S87.6,46,87.1,45.8z"/>
		<path class="st1" d="M86.5,48.4c0.3,0,0.4-0.1,0.4-0.2C86.8,48.3,86.6,48.3,86.5,48.4z"/>
		<path class="st1" d="M86.9,48.2c0.2,0,0.3-0.1,0.3-0.3c0-0.2-0.2-0.3-0.4-0.3L86.6,48C86.8,48.1,86.9,48.1,86.9,48.2z"/>
		<path class="st1" d="M88.5,45c0.3,0.1,0.3,0.1,0.3,0.3v1.9c0,0.2,0,0.3-0.3,0.3v0.1h1.2v-0.1c-0.3-0.1-0.3-0.1-0.3-0.3v-1.9
			c0-0.2,0-0.3,0.3-0.3v-0.1L88.5,45z"/>
		<path class="st1" d="M89.1,44.7c0.2,0,0.3-0.1,0.3-0.3s-0.1-0.3-0.3-0.3s-0.3,0.1-0.3,0.3S88.9,44.7,89.1,44.7z"/>
		<path class="st1" d="M93.6,47.3l-0.2-2c0-0.2,0-0.3,0.3-0.3v-0.1h-0.9c0,0.1-0.1,0.1-0.1,0.2l-0.6,1.7l-0.6-1.7
			c-0.1,0-0.1-0.1-0.1-0.2h-0.9V45c0.2,0,0.3,0.1,0.3,0.3l-0.2,2c0,0.1-0.1,0.2-0.3,0.2v0.1h0.9v-0.1c-0.3-0.1-0.4-0.1-0.4-0.3v-0.1
			l0.2-1.6l0.8,2.1h0.1l0.8-2.1l0.3,1.6v0.1c0,0.2-0.1,0.3-0.4,0.3v0.1h1.3v-0.1C93.7,47.5,93.6,47.5,93.6,47.3z"/>
		<path class="st1" d="M98.7,47.3l-0.2-2c0-0.2,0-0.3,0.3-0.3v-0.1h-0.9c0,0.1-0.1,0.1-0.1,0.2l-0.6,1.7l-0.6-1.7
			c-0.1,0-0.1-0.1-0.1-0.2h-0.9V45c0.2,0,0.3,0.1,0.3,0.3l-0.2,2c0,0.1-0.1,0.2-0.3,0.2v0.1h0.9v-0.1c-0.3-0.1-0.4-0.1-0.4-0.3v-0.1
			l0.2-1.6l0.8,2.1h0.2l0.8-2.1l0.3,1.6v0.1c0,0.2-0.1,0.3-0.4,0.3v0.1H99v-0.1C98.8,47.5,98.7,47.5,98.7,47.3z"/>
		<path class="st1" d="M101.1,47.5h-0.2c-0.2,0-0.3-0.1-0.3-0.3v-0.9h0.5c0.2,0,0.3,0.1,0.3,0.4h0.1v-0.9h-0.1
			c-0.1,0.3-0.1,0.4-0.3,0.4h-0.5v-1.1h0.5c0.3,0,0.4,0.1,0.6,0.5h0.1v-0.7h-2.2V45c0.3,0.1,0.3,0.1,0.3,0.3v1.9
			c0,0.2,0,0.3-0.3,0.3v0.2h2.2l0.1-0.8h-0.1C101.5,47.3,101.4,47.5,101.1,47.5z"/>
		<path class="st1" d="M104.2,46.4c0.3,0,0.6-0.3,0.6-0.7c0-0.5-0.3-0.8-1-0.8h-1.3V45c0.3,0.1,0.3,0.1,0.3,0.3v1.9
			c0,0.2,0,0.3-0.3,0.3v0.1h1.2v-0.1c-0.3-0.1-0.3-0.1-0.3-0.3h0.2v-0.8h0.2l0.5,0.8c0.1,0.2,0.2,0.3,0.3,0.4h0.7v-0.1
			c-0.2,0-0.3-0.1-0.5-0.3L104.2,46.4z M103.6,46.3h-0.2v-1.2h0.2c0.4,0,0.6,0.2,0.6,0.6S104,46.3,103.6,46.3z"/>
		<path class="st1" d="M106.6,47.2v-1.9c0-0.2,0-0.3,0.3-0.3v-0.1h-1.2V45c0.3,0.1,0.3,0.1,0.3,0.3v1.9c0,0.2,0,0.3-0.3,0.3v0.1h1.2
			v-0.1C106.6,47.4,106.6,47.4,106.6,47.2z"/>
		<path class="st1" d="M107.5,44.9c0.2,0,0.3,0,0.3,0.1s0,0.1-0.1,0.2l-1,1l0.7,1c0.1,0.2,0.2,0.3,0.3,0.4h0.7v-0.1
			c-0.2,0-0.2-0.1-0.4-0.3l-0.8-1.3l0.8-0.8c0.2-0.1,0.2-0.2,0.4-0.2v-0.1h-0.9V44.9z"/>
		<path class="st1" d="M108.9,45c0.3,0.1,0.3,0.1,0.3,0.3v1.9c0,0.2,0,0.3-0.3,0.3h-0.1v0.2h2.2l0.1-0.8H111
			c-0.3,0.4-0.4,0.6-0.7,0.6h-0.2c-0.2,0-0.3-0.1-0.3-0.3v-0.9h0.5c0.2,0,0.3,0.1,0.3,0.4h0.1v-0.9h-0.1c-0.1,0.3-0.1,0.4-0.3,0.4
			h-0.5v-1.1h0.6c0.3,0,0.4,0.1,0.6,0.5h0.1v-0.7L108.9,45L108.9,45L108.9,45z"/>
		<path class="st1" d="M111.9,45.6c0.3-0.4,0.4-0.6,0.7-0.6h0.7l-1.5,2.5v0.1h2l0.1-0.8h-0.1c-0.3,0.5-0.4,0.7-0.7,0.7v-0.1h-0.7
			l1.5-2.5v-0.1h-2V45.6z"/>
		<path class="st1" d="M115.2,44.7c0.2,0,0.3-0.1,0.3-0.3s-0.1-0.3-0.3-0.3s-0.3,0.1-0.3,0.3S115,44.7,115.2,44.7z"/>
		<path class="st1" d="M114.6,45c0.3,0.1,0.3,0.1,0.3,0.3v1.9c0,0.2,0,0.3-0.3,0.3v0.1h1.2v-0.1c-0.3-0.1-0.3-0.1-0.3-0.3v-1.9
			c0-0.2,0-0.3,0.3-0.3v-0.1L114.6,45z"/>
		<path class="st1" d="M75.1,21.8c0.4,0,0.7-0.1,0.9-0.2l0.1-0.7h-0.2C75.7,21.5,75.5,21.7,75.1,21.8c-0.5-0.1-0.8-0.7-0.8-1.4
			c0-0.7,0.3-1.2,0.8-1.2c0.4,0,0.6,0.2,0.7,0.7h0.1v-0.6c-0.2-0.2-0.5-0.3-0.8-0.4c-0.8,0-1.4,0.6-1.4,1.5
			C73.7,21.3,74.2,21.8,75.1,21.8z"/>
		<path class="st1" d="M76.8,19.5v1.4c0,0.7,0.4,1,1.1,1c0.5,0,1-0.3,1-1v-1.4c0-0.2,0-0.3,0.3-0.3v-0.1h-0.9v0.1
			c0.3,0.1,0.4,0.1,0.4,0.3v1.3c0,0.6-0.3,0.8-0.7,0.8s-0.6-0.3-0.6-0.8v-1.3c0-0.2,0-0.3,0.3-0.3v-0.1h-1.2v0.1
			C76.8,19.3,76.8,19.3,76.8,19.5z"/>
		<path class="st1" d="M80.6,21.7c-0.3-0.1-0.4-0.1-0.4-0.3v-0.1l0.2-1.6l0.8,2.1h0.2l0.8-2.1l0.2,1.6v0.1c0,0.2-0.1,0.3-0.4,0.3
			v0.1h1.3v-0.1c-0.2,0-0.3,0-0.3-0.2l-0.2-2c0-0.2,0-0.3,0.3-0.3v-0.1h-0.9c0,0.1-0.1,0.1-0.1,0.2L81.5,21l-0.6-1.7
			c-0.1,0-0.1-0.1-0.1-0.2h-0.9v0.1c0.2,0,0.3,0.1,0.3,0.3l-0.2,2c0,0.1-0.1,0.2-0.3,0.2v0.1L80.6,21.7z"/>
		<path class="st1" d="M85.1,21.7c-0.3-0.1-0.3-0.1-0.3-0.3v-0.9H86v0.9c0,0.2,0,0.3-0.3,0.3v0.1h1.2v-0.1c-0.3-0.1-0.3-0.1-0.3-0.3
			v-1.9c0-0.2,0-0.3,0.3-0.3v-0.1h-1.2v0.1c0.3,0.1,0.3,0.1,0.3,0.3v0.8h-1.2v-0.8c0-0.2,0-0.3,0.3-0.3v-0.1h-1.2v0.1
			c0.3,0.1,0.3,0.1,0.3,0.3v1.9c0,0.2,0,0.3-0.3,0.3v0.1L85.1,21.7z"/>
		<path class="st1" d="M87.7,19.5v1.4c0,0.7,0.4,1,1.1,1c0.5,0,1-0.3,1-1v-1.4c0-0.2,0-0.3,0.3-0.3v-0.1h-0.9v0.1
			c0.3,0.1,0.4,0.1,0.4,0.3v1.3c0,0.6-0.3,0.8-0.7,0.8s-0.6-0.3-0.6-0.8v-1.3c0-0.2,0-0.3,0.3-0.3v-0.1h-1.2v0.1
			C87.7,19.3,87.7,19.3,87.7,19.5z"/>
		<path class="st1" d="M91.9,21.7c-0.3-0.1-0.3-0.1-0.3-0.3h0.2v-0.8H92l0.5,0.8c0.1,0.2,0.2,0.3,0.3,0.4h0.7v-0.1
			c-0.2,0-0.3-0.1-0.5-0.3l-0.6-0.8c0.3,0,0.6-0.3,0.6-0.7c0-0.5-0.3-0.8-1-0.8h-1.3v0.1c0.3,0.1,0.3,0.1,0.3,0.3v1.9
			c0,0.2,0,0.3-0.3,0.3v0.1L91.9,21.7z M91.6,19.3h0.2c0.4,0,0.6,0.2,0.6,0.6s-0.2,0.6-0.6,0.6h-0.2V19.3z"/>
		<path class="st1" d="M96.3,21.1c0-0.4-0.4-0.7-0.9-0.7c0.3,0,0.7-0.2,0.7-0.6c0-0.5-0.3-0.7-0.9-0.7h-1.3v0.1
			c0.3,0.1,0.3,0.1,0.3,0.3v1.9c0,0.2,0,0.3-0.3,0.3v0.1h1.4C95.9,21.8,96.3,21.6,96.3,21.1z M94.8,19.2H95c0.4,0,0.6,0.2,0.6,0.5
			c0,0.4-0.2,0.6-0.6,0.6h-0.2V19.2z M94.8,21.4v-0.9H95c0.4,0,0.6,0.3,0.6,0.6c0,0.4-0.1,0.6-0.5,0.6
			C94.9,21.7,94.8,21.6,94.8,21.4z"/>
		<path class="st1" d="M97.5,21.7c-0.2,0-0.3-0.1-0.3-0.2s0-0.1,0-0.2l0.2-0.4h1.1l0.2,0.4c0,0.1,0,0.2,0,0.2c0,0.2-0.1,0.2-0.3,0.2
			v0.1h1.2v-0.1c-0.1,0-0.2,0-0.2-0.1l-1-2.5h-0.6l0.1,0.3L97,21.6c0,0.1-0.1,0.1-0.2,0.1v0.1L97.5,21.7z M97.9,19.5l0.5,1.2h-0.9
			L97.9,19.5z"/>
		<path class="st1" d="M101.1,21.7c0.5,0,1-0.3,1-0.8s-0.3-0.7-0.8-0.9c-0.5-0.1-0.6-0.2-0.6-0.5c0-0.2,0.1-0.4,0.4-0.4
			c0.4,0,0.6,0.3,0.7,0.7h0.1v-0.6c-0.2-0.1-0.5-0.2-0.8-0.2c-0.5,0-0.9,0.3-0.9,0.8c0,0.4,0.3,0.6,0.8,0.8c0.4,0.2,0.6,0.3,0.6,0.6
			C101.6,21.4,101.4,21.6,101.1,21.7c-0.4-0.1-0.6-0.4-0.7-0.9h-0.2v0.7c0.2,0.2,0.5,0.3,0.8,0.3L101.1,21.7z"/>
		<path class="st1" d="M101.1,22.4c0.2,0,0.3-0.1,0.3-0.3s-0.2-0.3-0.4-0.3l-0.2,0.4C101,22.3,101.1,22.3,101.1,22.4z"/>
		<path class="st1" d="M100.7,22.6c0.3,0,0.4-0.1,0.4-0.2C101,22.5,100.8,22.5,100.7,22.6z"/>
		<path class="st1" d="M103.9,21.7c-0.3-0.1-0.3-0.1-0.3-0.3v-1.9c0-0.2,0-0.3,0.3-0.3v-0.1h-1.2v0.1c0.3,0.1,0.3,0.1,0.3,0.3v1.9
			c0,0.2,0,0.3-0.3,0.3v0.1L103.9,21.7z"/>
		<path class="st1" d="M104.8,19.2c0,0.1,0,0.1-0.1,0.2l-1,1l0.7,1c0.1,0.2,0.2,0.3,0.3,0.4h0.7v-0.1c-0.2,0-0.2-0.1-0.4-0.3
			l-0.8-1.3l0.8-0.8c0.2-0.1,0.2-0.2,0.4-0.2V19h-0.9v0.1C104.7,19.1,104.8,19.1,104.8,19.2z"/>
		<path class="st1" d="M106.5,21.7c-0.2,0-0.3-0.1-0.3-0.2s0-0.1,0-0.2l0.2-0.4h1.1l0.2,0.4c0,0.1,0,0.2,0,0.2
			c0,0.2-0.1,0.2-0.3,0.2v0.1h1.2v-0.1c-0.1,0-0.2,0-0.2-0.1l-1-2.5h-0.6l0.1,0.3l-0.9,2.2c0,0.1-0.1,0.1-0.2,0.1v0.1L106.5,21.7z
			 M106.9,19.5l0.5,1.2h-0.9L106.9,19.5z"/>
		<path class="st1" d="M110.1,21.8c-0.3-0.1-0.4-0.1-0.4-0.3v-1.8l1.7,2.2h0.2v-2.4c0-0.2,0-0.3,0.3-0.3v-0.1H111v0.1
			c0.3,0.1,0.4,0.1,0.4,0.3V21l-1.4-1.8h-0.8v0.1c0.1,0,0.2,0,0.3,0.2v2c0,0.2,0,0.3-0.3,0.3v0.1L110.1,21.8z"/>
		<path class="st1" d="M114.7,21c-0.4,0.5-0.5,0.7-0.8,0.7h-0.2c-0.2,0-0.3-0.1-0.3-0.3v-1.8c0-0.2,0-0.3,0.3-0.3v-0.1h-1.2v0.1
			c0.3,0.1,0.3,0.1,0.3,0.3v1.9c0,0.2,0,0.3-0.3,0.3v0.1h2.1L114.7,21z"/>
		<path class="st1" d="M115.3,19.2c0.3,0.1,0.3,0.1,0.3,0.3v1.9c0,0.2,0,0.3-0.3,0.3v0.1h1.2v-0.1c-0.3-0.1-0.3-0.1-0.3-0.3v-1.9
			c0-0.2,0-0.3,0.3-0.3v-0.1L115.3,19.2z"/>
		<path class="st1" d="M118.4,18.9c0.4,0,0.6-0.2,0.6-0.6h-0.1c0,0.2-0.2,0.3-0.4,0.3s-0.4-0.1-0.4-0.3H118
			C118,18.7,118.2,18.9,118.4,18.9z"/>
		<path class="st1" d="M118.5,21.9c0.4,0,0.7-0.1,1-0.3v-0.7c0-0.2,0-0.3,0.3-0.3v-0.1h-1.2v0.1c0.3,0.1,0.3,0.1,0.3,0.3h0.1v0.6
			c-0.1,0.1-0.2,0.1-0.4,0.1c-0.5,0-0.8-0.6-0.8-1.3c0-0.7,0.2-1.2,0.8-1.2c0.4,0,0.6,0.2,0.7,0.7h0.1v-0.6
			c-0.3-0.1-0.6-0.2-0.9-0.2c-0.8,0-1.4,0.6-1.4,1.5C117.1,21.3,117.6,21.9,118.5,21.9z"/>
		<path class="st1" d="M120.3,19.2c0.3,0.1,0.3,0.1,0.3,0.3v1.9c0,0.2,0,0.3-0.3,0.3v0.1h1.2v-0.1c-0.3-0.1-0.3-0.1-0.3-0.3v-1.9
			c0-0.2,0-0.3,0.3-0.3v-0.1L120.3,19.2z"/>
		<path class="st1" d="M74.8,26.3c-0.3-0.1-0.3-0.1-0.3-0.3v-1.9c0-0.2,0-0.3,0.3-0.3v-0.1h-1.2v0.1c0.3,0.1,0.3,0.1,0.3,0.3V26
			c0,0.2,0,0.3-0.3,0.3v0.1L74.8,26.3L74.8,26.3z"/>
		<path class="st1" d="M74.2,23.5c0.2,0,0.3-0.1,0.3-0.3c0-0.2-0.1-0.3-0.3-0.3c-0.2,0-0.3,0.1-0.3,0.3C73.9,23.4,74,23.5,74.2,23.5
			z"/>
		<path class="st1" d="M75.4,26.3v0.2h2.1l0.1-0.9h-0.1c-0.3,0.5-0.4,0.7-0.7,0.7h-0.2c-0.2,0-0.3-0.1-0.3-0.3v-1.9
			c0-0.2,0-0.3,0.3-0.3v-0.1h-1.2v0.1c0.3,0.1,0.3,0.1,0.3,0.3V26C75.7,26.2,75.7,26.3,75.4,26.3z"/>
		<path class="st1" d="M78.2,26.3v0.2h2.2l0.1-0.8h-0.1c-0.3,0.4-0.4,0.6-0.7,0.6h-0.2c-0.2,0-0.3-0.1-0.3-0.3v-0.9h0.5
			c0.2,0,0.3,0.1,0.3,0.4h0.1v-0.9H80c-0.1,0.3-0.1,0.4-0.3,0.4h-0.5v-1.1h0.5c0.3,0,0.4,0.1,0.6,0.5h0.1v-0.7h-2.2v0.1
			c0.3,0.1,0.3,0.1,0.3,0.3V26C78.5,26.2,78.5,26.3,78.2,26.3z"/>
		<path class="st1" d="M81,24.6L81,24.6c0.4-0.6,0.5-0.8,0.8-0.8h0.5V26c0,0.3-0.1,0.3-0.4,0.3v0.1h1.3v-0.1
			c-0.3-0.1-0.4-0.1-0.4-0.3v-2.2H83c0.3,0,0.3,0.2,0.6,0.8h0.1l-0.1-0.9h-2.5L81,24.6z"/>
		<path class="st1" d="M84.7,23.5c0.2,0,0.3-0.1,0.3-0.3c0-0.2-0.1-0.3-0.3-0.3s-0.3,0.1-0.3,0.3C84.4,23.4,84.5,23.5,84.7,23.5z"/>
		<path class="st1" d="M85.4,23.8l-1.2-0.1v0.1c0.3,0.1,0.3,0.1,0.3,0.3V26c0,0.2,0,0.3-0.3,0.3v0.1h1.2v-0.1
			c-0.3-0.1-0.3-0.1-0.3-0.3v-1.9C85.1,23.9,85.1,23.8,85.4,23.8z"/>
		<path class="st1" d="M86.9,26.2c-0.4,0-0.6-0.3-0.7-0.8H86v0.7c0.2,0.2,0.5,0.3,0.8,0.3L86.9,26.2c0.5,0.1,1-0.2,1-0.7
			s-0.3-0.7-0.8-0.9c-0.5-0.1-0.6-0.2-0.6-0.5c0-0.2,0.1-0.4,0.4-0.4c0.4,0,0.6,0.3,0.7,0.7h0.1v-0.6c-0.2-0.1-0.5-0.2-0.8-0.2
			c-0.5,0-0.9,0.3-0.9,0.8c0,0.4,0.3,0.6,0.8,0.8c0.4,0.2,0.6,0.3,0.6,0.6C87.4,26,87.2,26.2,86.9,26.2z"/>
		<path class="st1" d="M86.5,27.2c0.3,0,0.4-0.1,0.4-0.2C86.8,27,86.7,27.1,86.5,27.2L86.5,27.2z"/>
		<path class="st1" d="M86.9,27c0.2,0,0.3-0.1,0.3-0.3c0-0.2-0.2-0.3-0.4-0.3l-0.2,0.4C86.8,26.9,86.9,26.9,86.9,27z"/>
		<path class="st1" d="M88.5,26.3L88.5,26.3l1.2,0.1v-0.1c-0.3-0.1-0.3-0.1-0.3-0.3v-1.9c0-0.2,0-0.3,0.3-0.3v-0.1h-1.2v0.1
			c0.3,0.1,0.3,0.1,0.3,0.3V26C88.8,26.2,88.8,26.3,88.5,26.3z"/>
		<path class="st1" d="M89.1,23.5c0.2,0,0.3-0.1,0.3-0.3c0-0.2-0.1-0.3-0.3-0.3s-0.3,0.1-0.3,0.3C88.8,23.4,88.9,23.5,89.1,23.5z"/>
		<path class="st1" d="M91.2,26.3c-0.3-0.1-0.4-0.1-0.4-0.3v-0.1l0.2-1.6l0.8,2.1H92l0.8-2.1l0.2,1.6V26c0,0.2-0.1,0.3-0.4,0.3v0.1
			h1.3v-0.1c-0.2,0-0.3,0-0.3-0.2l-0.2-2c0-0.2,0-0.3,0.3-0.3v-0.1h-0.9c0,0.1-0.1,0.1-0.1,0.2l-0.6,1.7l-0.6-1.7
			c-0.1,0-0.1-0.1-0.1-0.2h-0.9v0.1c0.2,0,0.3,0.1,0.3,0.3l-0.2,2c0,0.1-0.1,0.2-0.3,0.2v0.1L91.2,26.3z"/>
		<path class="st1" d="M98,25.7c0-0.4-0.4-0.7-0.9-0.7c0.3,0,0.7-0.2,0.7-0.6c0-0.5-0.3-0.7-0.9-0.7h-1.3v0.1
			c0.3,0.1,0.3,0.1,0.3,0.3V26c0,0.2,0,0.3-0.3,0.3v0.1H97C97.6,26.4,98,26.2,98,25.7z M96.5,23.8h0.2c0.4,0,0.6,0.2,0.6,0.5
			c0,0.4-0.2,0.6-0.6,0.6h-0.2V23.8z M96.5,26v-0.9h0.2c0.4,0,0.6,0.3,0.6,0.6c0,0.4-0.1,0.6-0.5,0.6C96.6,26.3,96.5,26.2,96.5,26z"
			/>
		<path class="st1" d="M99.4,24l-0.9,2.2c0,0.1-0.1,0.1-0.2,0.1v0.1h0.8v-0.1c-0.2,0-0.3-0.1-0.3-0.2c0-0.1,0-0.1,0-0.2l0.2-0.4h1.1
			l0.1,0.4c0,0.1,0,0.2,0,0.2c0,0.2-0.1,0.2-0.3,0.2v0.1h1.2v-0.1c-0.1,0-0.2,0-0.2-0.1l-1-2.5h-0.6L99.4,24z M100.1,25.3h-0.9
			l0.4-1.2L100.1,25.3z"/>
		<path class="st1" d="M102.3,27.2c0.3,0,0.4-0.1,0.4-0.2C102.6,27,102.5,27.1,102.3,27.2L102.3,27.2z"/>
		<path class="st1" d="M102.7,26.2c-0.4,0-0.6-0.3-0.7-0.8h-0.2v0.7c0.2,0.2,0.5,0.3,0.8,0.3L102.7,26.2c0.5,0.1,1-0.2,1-0.7
			s-0.3-0.7-0.8-0.9c-0.5-0.1-0.6-0.2-0.6-0.5c0-0.2,0.1-0.4,0.4-0.4c0.4,0,0.6,0.3,0.7,0.7h0.1v-0.6c-0.2-0.1-0.5-0.2-0.8-0.2
			c-0.5,0-0.9,0.3-0.9,0.8c0,0.4,0.3,0.6,0.8,0.8c0.4,0.2,0.6,0.3,0.6,0.6C103.2,26,103,26.2,102.7,26.2z"/>
		<path class="st1" d="M102.7,27c0.2,0,0.3-0.1,0.3-0.3c0-0.2-0.2-0.3-0.4-0.3l-0.2,0.4C102.6,26.9,102.7,26.9,102.7,27z"/>
		<path class="st1" d="M107,23.7l-0.9-0.1v0.1c0.2,0,0.3,0,0.3,0.1s0,0.1-0.1,0.2l-1,1l0.7,1c0.1,0.2,0.2,0.3,0.3,0.4h0.7v-0.1
			c-0.2,0-0.2-0.1-0.4-0.3l-0.8-1.3l0.8-0.8C106.8,23.8,106.8,23.7,107,23.7z"/>
		<path class="st1" d="M104.3,23.8c0.3,0.1,0.3,0.1,0.3,0.3V26c0,0.2,0,0.3-0.3,0.3v0.1h1.2v-0.1c-0.3-0.1-0.3-0.1-0.3-0.3v-1.9
			c0-0.2,0-0.3,0.3-0.3v-0.1L104.3,23.8z"/>
		<path class="st1" d="M108.5,24l-0.9,2.2c0,0.1-0.1,0.1-0.2,0.1v0.1h0.8v-0.1c-0.2,0-0.3-0.1-0.3-0.2c0-0.1,0-0.1,0-0.2l0.2-0.4
			h1.1l0.1,0.4c0,0.1,0,0.2,0,0.2c0,0.2-0.1,0.2-0.3,0.2v0.1h1.2v-0.1c-0.1,0-0.2,0-0.2-0.1l-1-2.5h-0.6L108.5,24z M109.1,25.3h-0.9
			l0.4-1.2L109.1,25.3z"/>
		<path class="st1" d="M113,26.5h0.2v-2.4c0-0.2,0-0.3,0.3-0.3v-0.1h-0.9v0.1c0.3,0.1,0.4,0.1,0.4,0.3v1.4l-1.4-1.8h-0.8v0.1
			c0.1,0,0.2,0,0.3,0.2v2c0,0.2,0,0.3-0.3,0.3v0.2h0.9v-0.1c-0.3-0.1-0.4-0.1-0.4-0.3v-1.8L113,26.5z"/>
		<path class="st1" d="M115.3,23.8L115.3,23.8l-1.2-0.1v0.1c0.3,0.1,0.3,0.1,0.3,0.3V26c0,0.2,0,0.3-0.3,0.3v0.2h2.1l0.1-0.9h-0.1
			c-0.3,0.5-0.4,0.7-0.7,0.7h-0.2c-0.2,0-0.3-0.1-0.3-0.3v-1.9C115,23.9,115,23.8,115.3,23.8z"/>
		<path class="st1" d="M118.1,26.3c-0.3-0.1-0.3-0.1-0.3-0.3v-1.9c0-0.2,0-0.3,0.3-0.3v-0.1h-1.2v0.1c0.3,0.1,0.3,0.1,0.3,0.3V26
			c0,0.2,0,0.3-0.3,0.3v0.1L118.1,26.3z"/>
		<path class="st1" d="M119.6,22.9c0,0.4,0.2,0.6,0.4,0.6c0.4,0,0.6-0.2,0.6-0.6h-0.1c0,0.2-0.2,0.3-0.4,0.3
			C119.9,23.2,119.7,23.1,119.6,22.9z"/>
		<path class="st1" d="M121.1,25.5c0-0.2,0-0.3,0.3-0.3v-0.1h-1.2v0.1c0.3,0.1,0.3,0.1,0.3,0.3h0.1v0.6c-0.1,0.1-0.2,0.1-0.4,0.1
			c-0.5,0-0.8-0.6-0.8-1.3s0.2-1.2,0.8-1.2c0.4,0,0.6,0.2,0.7,0.7h0.1v-0.6c-0.3-0.1-0.6-0.2-0.9-0.2c-0.8,0-1.4,0.6-1.4,1.5
			c0,0.8,0.5,1.4,1.4,1.4c0.4,0,0.7-0.1,1-0.3V25.5L121.1,25.5z"/>
		<path class="st1" d="M123.1,23.8L123.1,23.8l-1.2-0.1v0.1c0.3,0.1,0.3,0.1,0.3,0.3V26c0,0.2,0,0.3-0.3,0.3v0.1h1.2v-0.1
			c-0.3-0.1-0.3-0.1-0.3-0.3v-1.9C122.8,23.9,122.8,23.8,123.1,23.8z"/>
		<path class="st1" d="M77.3,37.1c1,0,1.9-0.2,2.5-0.6l0.2-2h-0.4c-0.4,1.6-1.1,2.2-2.1,2.2c-1.5,0-2.3-1.5-2.3-3.5
			c0-1.8,0.7-3.3,2.2-3.3c1,0,1.6,0.7,1.9,1.9h0.4v-1.7c-0.6-0.4-1.4-0.6-2.4-0.7c-2.1,0-3.8,1.5-3.8,4C73.5,35.6,75,37.1,77.3,37.1
			z"/>
		<path class="st1" d="M84.9,30v-0.4h-3.3V30c0.8,0,0.9,0.1,0.9,0.7V36c0,0.6-0.2,0.6-0.9,0.7v0.4h3.3v-0.4c-0.8,0-0.9-0.1-0.9-0.7
			v-5.3C84,30.1,84.2,30.1,84.9,30z"/>
		<path class="st1" d="M96.3,36.9c-0.6,0-0.8-0.1-0.9-0.6L94.7,31c0-0.6,0.2-0.8,0.9-0.8v-0.4h-2.4c-0.1,0.2-0.1,0.4-0.2,0.6
			l-1.6,4.7l-1.7-4.7c-0.1-0.3-0.2-0.5-0.2-0.7h-2.4v0.4c0.7,0.1,0.9,0.2,0.9,0.8l-0.7,5.3c-0.1,0.5-0.3,0.6-0.9,0.6v0.4h2.5v-0.4
			c-0.8-0.1-1-0.2-1-0.7c0-0.1,0-0.2,0-0.3l0.5-4.4l2.2,5.7h0.5l2-5.7l0.7,4.5c0,0.1,0,0.3,0,0.3c0,0.5-0.3,0.6-1,0.7v0.4h3.5V36.9z
			"/>
		<path class="st1" d="M103.6,34.9c-0.7,1.3-1,1.7-1.9,1.7H101c-0.6,0-0.9-0.1-0.9-0.7v-2.5h1.4c0.4,0,0.6,0.3,0.7,1h0.4V32h-0.4
			c-0.1,0.7-0.2,1-0.7,1h-1.4v-3h1.5c0.9,0,1.2,0.3,1.7,1.5h0.3l-0.1-1.9h-5.9V30c0.8,0,0.9,0.1,0.9,0.7V36c0,0.6-0.2,0.6-0.9,0.7
			h0.1V37h6l0.3-2.1H103.6z"/>
		<path class="st1" d="M107.9,36v-2h0.6l1.5,2.2c0.3,0.4,0.6,0.8,0.9,1h2v-0.4c-0.6,0-0.8-0.2-1.3-0.9l-1.6-2.2
			c0.8-0.2,1.7-0.8,1.7-2c0-1.3-1-2.1-2.8-2.1h-3.4V30c0.8,0,0.9,0.1,0.9,0.7V36c0,0.6-0.2,0.6-0.9,0.7v0.4h3.3v-0.4
			C108,36.7,107.9,36.6,107.9,36z M107.9,30h0.5c1.1,0,1.7,0.7,1.7,1.7c0,1.2-0.6,1.8-1.7,1.8h-0.5V30z"/>
		<path class="st1" d="M84.2,28.1c0-0.4-0.4-0.8-0.9-0.8c-0.6,0-0.9,0.3-0.9,0.8s0.3,0.9,0.9,0.8C83.8,28.9,84.2,28.5,84.2,28.1z"/>
	</g>
</g>
</svg>
