<svg version="1.1" id="katman_1" xmlns="http://www.w3.org/2000/svg" xmlns:xlink="http://www.w3.org/1999/xlink" x="0px" y="0px"
	 viewBox="0 0 196 64" style="enable-background:new 0 0 196 64;" xml:space="preserve">
<style type="text/css">
	.st0{clip-path:url(#SVGID_00000113346223479494396140000012679861330280081838_);}
	.st1{fill:#FFFFFF;}
	.st2{fill-rule:evenodd;clip-rule:evenodd;fill:#FFFFFF;}
</style>
<g>
	<defs>
		<rect id="SVGID_1_" width="196" height="64"/>
	</defs>
	<clipPath id="SVGID_00000039130457469359093750000006537270553425222794_">
		<use xlink:href="#SVGID_1_"  style="overflow:visible;"/>
	</clipPath>
	<g style="clip-path:url(#SVGID_00000039130457469359093750000006537270553425222794_);">
		<path class="st1" d="M75.1,20h-2.9v-2h8.3v2h-2.9v8.7h-2.4V20z"/>
		<path class="st1" d="M80.8,27.4c0-0.8,0.6-1.5,1.4-1.5c0.8,0,1.4,0.6,1.4,1.5c0,0.8-0.6,1.4-1.4,1.4
			C81.4,28.8,80.8,28.2,80.8,27.4z"/>
		<path class="st1" d="M94,28.3c-0.4,0.3-1.4,0.4-2.8,0.4c-3.7,0-5.6-2.3-5.6-5.4c0-3.6,2.6-5.7,5.8-5.7c1.3,0,2.2,0.3,2.6,0.5
			L93.5,20c-0.5-0.2-1.2-0.4-2-0.4c-1.9,0-3.5,1.2-3.5,3.6c0,2.1,1.3,3.5,3.5,3.5c0.8,0,1.5-0.2,2-0.3L94,28.3z"/>
		<path class="st1" d="M95.9,27.4c0-0.8,0.6-1.5,1.4-1.5c0.8,0,1.4,0.6,1.4,1.5c0,0.8-0.6,1.4-1.4,1.4
			C96.5,28.8,95.9,28.2,95.9,27.4z"/>
		<path class="st1" d="M113.9,28.2c-0.8,0.3-2.2,0.6-3.5,0.6c-1.9,0-3.4-0.5-4.4-1.4c-1-0.9-1.5-2.4-1.5-3.9c0-3.6,2.6-5.6,6.2-5.6
			c1.3,0,2.4,0.3,2.9,0.5l-0.5,1.9c-0.6-0.3-1.3-0.4-2.5-0.4c-2,0-3.5,1.2-3.5,3.5c0,2.2,1.3,3.6,3.4,3.6c0.6,0,1-0.1,1.2-0.2v-2.3
			h-1.7v-1.9h4L113.9,28.2L113.9,28.2z"/>
		<path class="st1" d="M123.2,24.1h-4v2.5h4.4v2h-6.8V17.9h6.6v2h-4.2v2.2h4L123.2,24.1L123.2,24.1z"/>
		<path class="st1" d="M126.4,28.7V17.9h2.9l2.2,4c0.7,1.1,1.3,2.5,1.8,3.7h0.1c-0.2-1.4-0.2-2.9-0.2-4.5V18h2.2v10.7h-2.5l-2.3-4.1
			c-0.7-1.2-1.3-2.5-1.9-3.8h-0.1c0.1,1.4,0.1,3,0.1,4.6v3.2H126.4z"/>
		<path class="st1" d="M146.1,28.3c-0.4,0.2-1.3,0.4-2.5,0.4l-0.3,0.5c0.6,0.2,1.2,0.6,1.2,1.3c0,1.1-1,1.4-1.9,1.4
			c-0.5,0-1-0.1-1.3-0.3l0.3-1c0.3,0.2,0.6,0.3,0.9,0.3c0.3,0,0.6-0.1,0.6-0.4c0-0.3-0.3-0.5-1.3-0.6l0.4-1.1
			c-3-0.4-4.6-2.5-4.6-5.3c0-3.6,2.6-5.7,5.8-5.7c1.3,0,2.2,0.3,2.6,0.5l-0.5,1.9c-0.5-0.2-1.2-0.4-2-0.4c-1.9,0-3.5,1.2-3.5,3.6
			c0,2.1,1.3,3.5,3.5,3.5c0.8,0,1.5-0.2,2-0.3L146.1,28.3z"/>
		<path class="st1" d="M148.6,17.9h2.4v8.7h4.3v2h-6.7L148.6,17.9L148.6,17.9z"/>
		<path class="st1" d="M159.9,17.9v10.7h-2.4V17.9H159.9z M157.6,16.2c0-0.6,0.5-1.1,1.1-1.1s1.1,0.5,1.1,1.1c0,0.6-0.4,1.1-1.1,1.1
			C158.1,17.2,157.6,16.7,157.6,16.2z"/>
		<path class="st1" d="M163,17.9h2.4v4.7h0.1c0.3-0.4,0.5-0.8,0.8-1.2l2.4-3.6h2.9l-3.5,4.6l3.7,6.2h-2.9l-2.6-4.6l-0.9,1.1v3.5H163
			V17.9z"/>
		<path class="st1" d="M180.5,28.7L177,17.9h2.6l1.3,4.6c0.3,1.3,0.7,2.5,0.9,3.8h0.1c0.3-1.3,0.6-2.5,1-3.8l1.3-4.6h2.6l-3.6,10.7
			H180.5z"/>
		<path class="st1" d="M195.4,24.1h-4v2.5h4.4v2H189V17.9h6.6v2h-4.2v2.2h4L195.4,24.1L195.4,24.1z"/>
		<path class="st1" d="M73.1,43.5c0.7,0.3,1.7,0.7,2.7,0.7c1.1,0,1.7-0.4,1.7-1.2c0-0.7-0.5-1-1.8-1.5c-1.8-0.6-2.9-1.6-2.9-3.2
			c0-1.9,1.5-3.2,4-3.2c1.2,0,2.1,0.3,2.7,0.5L79,37.5c-0.4-0.2-1.2-0.5-2.3-0.5c-1,0-1.5,0.5-1.5,1c0,0.7,0.6,1,2,1.5
			c1.9,0.7,2.8,1.7,2.8,3.2c0,1.8-1.3,3.3-4.3,3.3c-1.3,0-2.4-0.3-3-0.7L73.1,43.5z"/>
		<path class="st1" d="M81.8,35.4c0.8-0.2,1.8-0.3,3.3-0.3c1.5,0,2.5,0.3,3.3,0.8c0.7,0.5,1.2,1.4,1.2,2.5s-0.3,1.9-1,2.5
			c-0.8,0.8-2,1.1-3.5,1.1c-0.3,0-0.6,0-0.8-0.1v3.8h-2.4L81.8,35.4L81.8,35.4z M84.3,40.3c0.2,0.1,0.4,0.1,0.8,0.1
			c1.3,0,2.1-0.7,2.1-1.8c0-1-0.7-1.6-1.9-1.6c-0.5,0-0.8,0.1-1,0.1L84.3,40.3L84.3,40.3z"/>
		<path class="st1" d="M101.1,40.6c0,3.6-2.1,5.7-5.2,5.7c-3.2,0-5.1-2.4-5.1-5.5c0-3.2,2-5.7,5.2-5.7
			C99.3,35.1,101.1,37.6,101.1,40.6z M93.4,40.7c0,2.1,1,3.6,2.6,3.6c1.6,0,2.6-1.5,2.6-3.6c0-1.9-0.9-3.6-2.6-3.6
			C94.4,37,93.4,38.6,93.4,40.7z"/>
		<path class="st1" d="M103.1,35.4c0.8-0.2,1.9-0.3,3.2-0.3c1.6,0,2.7,0.3,3.5,0.8c0.7,0.5,1,1.3,1,2.3c0,1.4-1,2.3-1.9,2.6V41
			c0.8,0.3,1.2,1,1.4,2c0.3,1.2,0.7,2.6,0.8,3h-2.4c-0.2-0.3-0.4-1.2-0.8-2.5c-0.3-1.4-0.8-1.7-1.8-1.7h-0.8v4.2h-2.4V35.4z
			 M105.5,40.1h0.9c1.2,0,1.9-0.6,1.9-1.5c0-1-0.7-1.5-1.8-1.5c-0.6,0-0.9,0.1-1.1,0.1V40.1z"/>
		<path class="st1" d="M116.5,35.4c0.7-0.2,1.9-0.3,3.1-0.3c1.5,0,2.4,0.2,3.2,0.6c0.8,0.4,1.3,1.1,1.3,2.1c0,0.9-0.6,1.9-1.8,2.3
			c1.3,0.3,2.1,1.3,2.1,2.6c0,1-0.4,1.8-1.1,2.3c-0.8,0.6-2.1,1-4.2,1c-1.2,0-2.1-0.1-2.6-0.2V35.4z M118.9,39.6h0.8
			c1.3,0,1.9-0.5,1.9-1.4c0-0.8-0.6-1.3-1.7-1.3c-0.5,0-0.8,0-1,0.1V39.6z M118.9,44.3c0.3,0,0.5,0,0.9,0c1.1,0,2.1-0.4,2.1-1.5
			c0-1.1-0.9-1.5-2.2-1.5h-0.8V44.3z"/>
		<path class="st1" d="M128.7,43.3l-0.8,2.8h-2.5l3.3-10.7h3.2l3.3,10.7h-2.6l-0.8-2.8H128.7z M131.4,41.4l-0.7-2.3
			c-0.2-0.7-0.4-1.4-0.5-2.1c-0.2,0.7-0.3,1.4-0.5,2.1l-0.7,2.3H131.4z"/>
		<path class="st1" d="M136.8,35.3h2.4V40h0.1c0.3-0.4,0.5-0.8,0.8-1.2l2.4-3.6h2.9l-3.5,4.6l3.7,6.2h-2.9l-2.6-4.7l-0.9,1.1v3.5
			h-2.4V35.3z"/>
		<path class="st1" d="M149.7,43.3l-0.8,2.8h-2.5l3.3-10.7h3.2l3.3,10.7h-2.6l-0.8-2.8H149.7z M152.5,41.4l-0.7-2.3
			c-0.2-0.7-0.4-1.4-0.5-2.1c-0.2,0.7-0.3,1.4-0.5,2.1l-0.7,2.3H152.5z"/>
		<path class="st1" d="M157.8,46.1V35.3h2.9l2.2,4c0.7,1.1,1.3,2.5,1.8,3.7h0.1c-0.2-1.4-0.2-2.9-0.2-4.5v-3.1h2.2v10.7h-2.5
			l-2.3-4.1c-0.7-1.2-1.3-2.5-1.9-3.8H160c0.1,1.4,0.1,3,0.1,4.6V46L157.8,46.1L157.8,46.1z"/>
		<path class="st1" d="M169.1,35.3h2.4V44h4.3v2h-6.7L169.1,35.3L169.1,35.3z"/>
		<path class="st1" d="M179.8,35.3V46h-2.4V35.3H179.8z"/>
		<path class="st1" d="M191.2,45.6c-0.8,0.3-2.2,0.6-3.5,0.6c-1.9,0-3.4-0.5-4.4-1.4c-1-0.9-1.5-2.4-1.5-3.9c0-3.6,2.6-5.6,6.2-5.6
			c1.3,0,2.4,0.3,2.9,0.5l-0.5,1.9c-0.6-0.3-1.3-0.4-2.5-0.4c-2,0-3.5,1.2-3.5,3.5c0,2.2,1.3,3.6,3.4,3.6c0.6,0,1-0.1,1.2-0.2v-2.3
			h-1.7V40h4L191.2,45.6L191.2,45.6z M186.2,32.6c0.1,0.3,0.3,0.8,0.9,0.8s0.9-0.3,1-0.8h1.3c0,1.2-0.7,2-2.2,2
			c-1.6,0-2.2-0.8-2.2-2H186.2z"/>
		<path class="st1" d="M195.9,35.3V46h-2.4V35.3H195.9z"/>
		<path class="st1" d="M54.1,54.3h-1.2c-0.3,0-0.3-0.3-0.2-0.4l0.3-0.3c0.3-0.3,0.6-0.3,1-0.3h1.2c0.3,0,0.3,0.3,0.2,0.4l-0.3,0.3
			C54.9,54.1,54.5,54.3,54.1,54.3z"/>
		<path class="st1" d="M55.6,52.7l-1.2,0.1c-0.3,0-0.3-0.3-0.2-0.4l0.3-0.3c0.3-0.3,0.6-0.4,0.9-0.4l1.2-0.1c0.3,0,0.3,0.3,0.2,0.4
			l-0.3,0.3C56.3,52.5,56,52.6,55.6,52.7z"/>
		<path class="st1" d="M57,51L56,51.2c-0.3,0-0.3-0.3-0.2-0.4l0.3-0.3c0.3-0.3,0.6-0.4,0.9-0.5l1.1-0.2c0.3,0,0.3,0.3,0.2,0.4
			L58,50.5C57.7,50.7,57.4,50.9,57,51z"/>
		<path class="st1" d="M58.2,49.1l-1.1,0.3c-0.3,0.1-0.3-0.3-0.3-0.4l0.3-0.3c0.3-0.3,0.5-0.5,0.9-0.6l1.1-0.3
			c0.3-0.1,0.3,0.3,0.3,0.4l-0.3,0.3C58.9,48.9,58.6,49,58.2,49.1z"/>
		<path class="st1" d="M59.4,47.3l-1.1,0.3c-0.3,0.1-0.4-0.2-0.3-0.4l0.3-0.3c0.2-0.3,0.5-0.5,0.8-0.6l1.1-0.3
			c0.3-0.1,0.4,0.2,0.3,0.4l-0.3,0.3C60,46.9,59.7,47.2,59.4,47.3z"/>
		<path class="st1" d="M60.4,45.3l-1.1,0.3c-0.2,0.1-0.4-0.2-0.3-0.3l0.2-0.3c0.2-0.3,0.4-0.6,0.8-0.7l1.1-0.4
			c0.2-0.1,0.4,0.2,0.3,0.3l-0.3,0.3C61,44.9,60.8,45.1,60.4,45.3z"/>
		<path class="st1" d="M61.3,43.3l-1,0.5c-0.2,0.1-0.4-0.2-0.3-0.3l0.2-0.4c0.2-0.3,0.4-0.6,0.8-0.8l1-0.5c0.2-0.1,0.4,0.2,0.3,0.3
			L62,42.5C61.8,42.9,61.6,43.1,61.3,43.3z"/>
		<path class="st1" d="M61.9,41.2l-1,0.5c-0.2,0.1-0.4-0.1-0.3-0.3l0.2-0.4c0.2-0.3,0.4-0.6,0.7-0.8l1-0.5c0.2-0.1,0.4,0.1,0.3,0.3
			l-0.2,0.4C62.5,40.8,62.3,41,61.9,41.2z"/>
		<path class="st1" d="M62.5,39.1l-1,0.6c-0.2,0.1-0.4-0.1-0.3-0.3l0.2-0.4c0.1-0.3,0.3-0.7,0.7-0.8l0.9-0.6
			c0.2-0.1,0.4,0.1,0.3,0.3l-0.2,0.4C63,38.6,62.8,38.9,62.5,39.1z"/>
		<path class="st1" d="M62.9,36.9L62,37.5c-0.2,0.2-0.4-0.1-0.3-0.3l0.1-0.4c0.1-0.3,0.3-0.7,0.6-0.8l0.9-0.7
			c0.2-0.2,0.4,0.1,0.3,0.3L63.5,36C63.5,36.4,63.2,36.7,62.9,36.9z"/>
		<path class="st1" d="M63.2,34.7l-0.8,0.8c-0.2,0.2-0.4,0-0.4-0.3l0.1-0.4c0.1-0.3,0.3-0.7,0.5-0.9l0.8-0.8c0.2-0.2,0.4,0,0.4,0.3
			l-0.1,0.4C63.6,34.2,63.5,34.5,63.2,34.7z"/>
		<path class="st1" d="M63.3,32.5l-0.8,0.8c-0.2,0.2-0.4,0-0.4-0.3v-0.4c0-0.3,0.2-0.7,0.4-0.9l0.8-0.8c0.2-0.2,0.4,0,0.4,0.3v0.4
			C63.7,32,63.5,32.3,63.3,32.5z"/>
		<path class="st1" d="M63.3,30.4l-0.8,0.8c-0.2,0.2-0.4,0-0.4-0.2v-0.4c0-0.3,0.2-0.7,0.4-1l0.8-0.8c0.2-0.2,0.4,0,0.4,0.2v0.4
			C63.6,29.7,63.5,30,63.3,30.4z"/>
		<path class="st1" d="M63.1,28.2L62.4,29c-0.2,0.2-0.4,0.1-0.4-0.2v-0.4c0-0.3,0.1-0.8,0.3-1l0.7-0.9c0.2-0.2,0.4-0.1,0.4,0.2v0.4
			C63.4,27.5,63.3,27.8,63.1,28.2z"/>
		<path class="st1" d="M62.7,26L62,26.9c-0.1,0.2-0.4,0.1-0.4-0.1l-0.1-0.4c-0.1-0.3,0-0.8,0.3-1l0.7-0.9c0.1-0.2,0.4-0.1,0.4,0.1
			l0.1,0.4C63,25.3,62.9,25.7,62.7,26z"/>
		<path class="st1" d="M62.3,23.8l-0.6,1c-0.1,0.2-0.4,0.1-0.4-0.1l-0.1-0.4c-0.1-0.3,0-0.8,0.2-1l0.6-1c0.1-0.2,0.4-0.1,0.4,0.1
			l0.1,0.4C62.4,23.2,62.4,23.5,62.3,23.8z"/>
		<path class="st1" d="M61.6,21.7l-0.5,1c-0.1,0.2-0.4,0.2-0.4-0.1l-0.1-0.4c-0.1-0.3-0.1-0.8,0.1-1l0.5-1c0.1-0.2,0.4-0.2,0.4,0.1
			l0.1,0.4C61.8,21.1,61.8,21.4,61.6,21.7z"/>
		<path class="st1" d="M60.8,19.7l-0.4,1.1c-0.1,0.2-0.4,0.2-0.5,0l-0.2-0.5c-0.1-0.3-0.1-0.8,0-1.1l0.4-1.1c0.1-0.2,0.4-0.2,0.5,0
			l0.2,0.4C60.9,18.9,60.9,19.4,60.8,19.7z"/>
		<path class="st1" d="M59.9,17.7l-0.3,1.1c-0.1,0.2-0.3,0.2-0.5,0l-0.2-0.4c-0.2-0.3-0.2-0.7-0.1-1l0.3-1.1c0.1-0.2,0.3-0.2,0.5,0
			l0.2,0.4C60,17,60,17.3,59.9,17.7z"/>
		<path class="st1" d="M58.8,15.7l-0.3,1.1c-0.1,0.3-0.3,0.3-0.5,0l-0.2-0.4c-0.2-0.3-0.2-0.7-0.1-1l0.3-1.1c0.1-0.3,0.3-0.3,0.5,0
			l0.2,0.4C58.8,15,58.9,15.4,58.8,15.7z"/>
		<path class="st1" d="M57.6,13.9L57.5,15c0,0.3-0.3,0.3-0.4,0.1l-0.3-0.3c-0.2-0.3-0.3-0.7-0.2-1l0.2-1.1c0-0.3,0.3-0.3,0.4-0.1
			l0.3,0.3C57.6,13.2,57.6,13.5,57.6,13.9z"/>
		<path class="st1" d="M56.3,12.2l-0.1,1.1c0,0.3-0.3,0.3-0.4,0.1L55.5,13c-0.3-0.3-0.3-0.7-0.3-1l0.1-1.1c0-0.3,0.3-0.3,0.4-0.1
			l0.3,0.3C56.2,11.4,56.3,11.8,56.3,12.2z"/>
		<path class="st1" d="M54.9,10.5v1.2c0,0.3-0.3,0.3-0.4,0.2l-0.3-0.3c-0.3-0.3-0.3-0.7-0.3-1V9.3c0-0.3,0.3-0.3,0.4-0.2l0.3,0.3
			C54.8,9.8,54.9,10.1,54.9,10.5z"/>
		<path class="st1" d="M53.3,9v1.2c0,0.3-0.3,0.3-0.4,0.2L52.6,10c-0.3-0.3-0.4-0.6-0.4-1V7.8c0-0.3,0.3-0.3,0.4-0.2l0.3,0.3
			C53.2,8.2,53.3,8.6,53.3,9z"/>
		<path class="st1" d="M51.7,7.5l0.1,1.1c0,0.3-0.3,0.3-0.4,0.2L51,8.5c-0.3-0.2-0.4-0.5-0.4-0.8l-0.1-1.1c0-0.3,0.3-0.3,0.4-0.2
			l0.3,0.3C51.4,6.8,51.6,7.1,51.7,7.5z"/>
		<path class="st1" d="M49.9,6.2l0.2,1.1c0,0.3-0.3,0.3-0.4,0.3l-0.3-0.3C49,7,48.8,6.7,48.8,6.3l-0.2-1.1C48.6,5,48.9,4.9,49,5
			l0.3,0.3C49.6,5.5,49.8,5.8,49.9,6.2z"/>
		<path class="st1" d="M48,5l0.3,1.1c0.1,0.3-0.2,0.3-0.4,0.3l-0.3-0.3c-0.3-0.3-0.5-0.5-0.6-0.8l-0.3-1.1c-0.1-0.3,0.3-0.3,0.4-0.3
			l0.3,0.3C47.8,4.3,47.9,4.7,48,5z"/>
		<path class="st1" d="M46.1,3.9L46.4,5c0.1,0.2-0.2,0.4-0.3,0.3l-0.3-0.2c-0.3-0.2-0.6-0.5-0.7-0.8l-0.3-1.1
			c-0.1-0.2,0.2-0.4,0.3-0.3l0.4,0.3C45.8,3.3,46,3.6,46.1,3.9z"/>
		<path class="st1" d="M44.2,3l0.4,1.1c0.1,0.2-0.2,0.4-0.3,0.3l-0.4-0.3c-0.3-0.2-0.6-0.4-0.8-0.8l-0.4-1.1
			c-0.1-0.2,0.2-0.4,0.3-0.3l0.4,0.2C43.7,2.4,44,2.6,44.2,3z"/>
		<path class="st1" d="M42.1,2.2l0.5,1c0.1,0.2-0.2,0.4-0.3,0.3l-0.4-0.2c-0.3-0.2-0.6-0.4-0.8-0.8l-0.5-1c-0.1-0.2,0.2-0.4,0.3-0.3
			l0.3,0.3C41.6,1.6,42,1.9,42.1,2.2z"/>
		<path class="st1" d="M40,1.6l0.5,0.9c0.1,0.2-0.1,0.4-0.3,0.3l-0.4-0.2c-0.3-0.1-0.7-0.3-0.8-0.7l-0.6-1c-0.1-0.2,0.1-0.4,0.3-0.3
			l0.4,0.2C39.5,1,39.9,1.3,40,1.6z"/>
		<path class="st1" d="M37.8,1.1L38.5,2c0.1,0.2-0.1,0.4-0.3,0.3l-0.4-0.1c-0.3-0.1-0.7-0.3-0.8-0.6l-0.7-0.9
			c-0.1-0.2,0.1-0.4,0.3-0.3L37,0.5C37.3,0.6,37.7,0.8,37.8,1.1z"/>
		<path class="st1" d="M35.7,0.8l0.7,0.9c0.2,0.2,0,0.4-0.3,0.4L35.7,2c-0.3-0.2-0.7-0.3-0.9-0.7l-0.7-0.9C34,0.3,34.1,0,34.4,0
			l0.4,0.1C35.1,0.3,35.5,0.4,35.7,0.8z"/>
		<path class="st1" d="M33.5,0.5l0.8,0.8c0.2,0.2,0,0.4-0.3,0.4l-0.4-0.1c-0.3-0.1-0.7-0.3-0.9-0.5l-0.8-0.8c-0.2-0.2,0-0.4,0.3-0.4
			L32.6,0C32.9,0.1,33.3,0.3,33.5,0.5z"/>
		<path class="st1" d="M31.3,0.5l0.8,0.8c0.2,0.2,0,0.4-0.2,0.4h-0.4c-0.3,0-0.7-0.2-1-0.4l-0.8-0.8c-0.2-0.2,0-0.4,0.2-0.4h0.4
			C30.8,0.1,31.1,0.3,31.3,0.5z"/>
		<path class="st1" d="M29.2,0.6L30,1.4c0.2,0.2,0.1,0.4-0.2,0.4h-0.4c-0.3,0-0.8-0.1-1-0.3l-0.8-0.8c-0.2-0.2-0.1-0.4,0.2-0.4h0.4
			C28.5,0.3,28.8,0.4,29.2,0.6z"/>
		<path class="st1" d="M27,0.9l0.9,0.7C28.1,1.8,28,2,27.7,2h-0.4c-0.3,0-0.8-0.1-1-0.3l-0.9-0.7c-0.2-0.2-0.1-0.4,0.2-0.4H26
			C26.3,0.6,26.6,0.7,27,0.9z"/>
		<path class="st1" d="M24.8,1.4l1,0.6C26,2,25.9,2.4,25.7,2.4l-0.4,0.1c-0.3,0.1-0.8,0-1-0.2l-0.9-0.6c-0.2-0.1-0.1-0.4,0.1-0.4
			l0.4-0.1C24.1,1,24.5,1.1,24.8,1.4z"/>
		<path class="st1" d="M22.7,1.9l1,0.5c0.2,0.2,0.2,0.5-0.1,0.5L23.2,3c-0.3,0.1-0.8,0-1-0.2l-1-0.5C21,2.2,21,1.9,21.2,1.9l0.4-0.1
			C22,1.7,22.3,1.7,22.7,1.9z"/>
		<path class="st1" d="M20.6,2.6l1,0.4c0.2,0.1,0.2,0.4-0.1,0.5l-0.4,0.1c-0.3,0.1-0.8,0.1-1.1-0.1L19,3c-0.2-0.1-0.2-0.4,0.1-0.5
			h0.4C19.9,2.5,20.3,2.5,20.6,2.6z"/>
		<path class="st1" d="M18.6,3.5l1.1,0.4c0.2,0.1,0.2,0.4,0,0.5l-0.4,0.2c-0.3,0.2-0.8,0.2-1.1,0l-1.1-0.4c-0.2-0.1-0.2-0.4,0-0.5
			l0.4-0.2C17.9,3.4,18.3,3.4,18.6,3.5z"/>
		<path class="st1" d="M16.6,4.5l1.1,0.3c0.2,0.1,0.3,0.3,0,0.5l-0.4,0.2c-0.3,0.2-0.7,0.2-1,0.1l-1.1-0.3c-0.2-0.1-0.3-0.3,0-0.5
			l0.4-0.2C15.9,4.4,16.3,4.4,16.6,4.5z"/>
		<path class="st1" d="M14.7,5.6l1.1,0.3c0.3,0.1,0.3,0.3,0.1,0.5l-0.3,0.2c-0.3,0.2-0.7,0.3-1,0.2l-1.1-0.3
			c-0.3-0.1-0.3-0.3-0.1-0.5l0.4-0.2C14.1,5.6,14.4,5.5,14.7,5.6z"/>
		<path class="st1" d="M13,6.8L14.1,7c0.3,0,0.3,0.3,0.1,0.4l-0.3,0.3c-0.3,0.2-0.7,0.3-1,0.3l-1.1-0.2c-0.3,0-0.3-0.3-0.1-0.4
			L12,7.1C12.2,6.9,12.6,6.8,13,6.8z"/>
		<path class="st1" d="M11.3,8.3l1.2,0.1c0.3,0,0.3,0.3,0.1,0.4L12.2,9c-0.3,0.3-0.7,0.3-1,0.3L10,9.3C9.8,9.3,9.7,9,9.9,8.9
			l0.3-0.3C10.5,8.4,10.9,8.2,11.3,8.3z"/>
		<path class="st1" d="M9.7,9.7h1.2c0.3,0,0.3,0.3,0.2,0.4l-0.3,0.3c-0.3,0.3-0.6,0.3-1,0.3H8.5c-0.3,0-0.3-0.3-0.2-0.4l0.3-0.3
			C8.9,9.9,9.3,9.7,9.7,9.7z"/>
		<path class="st1" d="M8.2,11.3l1.2-0.1c0.3,0,0.3,0.3,0.2,0.4L9.2,12c-0.3,0.3-0.6,0.4-0.9,0.4l-1.2,0.1c-0.3,0-0.3-0.3-0.2-0.4
			l0.3-0.3C7.5,11.6,7.8,11.4,8.2,11.3z"/>
		<path class="st1" d="M6.8,13.1l1.1-0.2c0.3,0,0.3,0.3,0.2,0.4l-0.3,0.3c-0.3,0.3-0.6,0.4-0.9,0.5l-1.1,0.2c-0.3,0-0.3-0.3-0.2-0.4
			l0.3-0.3C6.2,13.3,6.4,13.1,6.8,13.1z"/>
		<path class="st1" d="M5.6,14.9l1.1-0.3C6.9,14.5,7,14.9,6.9,15l-0.3,0.3c-0.3,0.3-0.5,0.5-0.9,0.6l-1.1,0.3
			c-0.3,0.1-0.3-0.3-0.3-0.4l0.3-0.3C4.9,15.1,5.2,15,5.6,14.9z"/>
		<path class="st1" d="M4.4,16.7l1.1-0.3c0.2-0.1,0.4,0.2,0.3,0.4l-0.3,0.3c-0.2,0.3-0.5,0.5-0.8,0.7l-1.1,0.3
			c-0.2,0-0.3-0.3-0.3-0.4l0.3-0.3C3.8,17.1,4,16.8,4.4,16.7z"/>
		<path class="st1" d="M3.5,18.7l1.1-0.4c0.2-0.1,0.4,0.2,0.3,0.3l-0.3,0.3c-0.2,0.3-0.4,0.6-0.8,0.7L2.6,20
			c-0.2,0.1-0.4-0.2-0.3-0.3l0.3-0.3C2.8,19.1,3.1,18.9,3.5,18.7z"/>
		<path class="st1" d="M2.5,20.7l1.1-0.4C3.8,20.2,4,20.5,4,20.6l-0.2,0.4c-0.2,0.3-0.4,0.6-0.8,0.8l-1,0.5
			c-0.2,0.1-0.4-0.2-0.3-0.3l0.2-0.4C1.9,21.1,2.3,20.9,2.5,20.7z"/>
		<path class="st1" d="M1.9,22.8l1-0.5c0.2-0.1,0.4,0.1,0.3,0.3L3,23.1c-0.2,0.3-0.3,0.6-0.7,0.8l-1,0.5C1.2,24.4,0.9,24.3,1,24
			l0.2-0.4C1.3,23.3,1.5,23,1.9,22.8z"/>
		<path class="st1" d="M1.3,24.9l0.9-0.6c0.2-0.1,0.4,0.1,0.3,0.3l-0.2,0.4C2.3,25.4,2,25.8,1.7,26l-0.8,0.6
			c-0.2,0.1-0.4-0.1-0.3-0.3l0.2-0.4C0.8,25.4,1,25.1,1.3,24.9z"/>
		<path class="st1" d="M0.8,27.1l0.9-0.7c0.2-0.2,0.4,0.1,0.3,0.3L2,27.1c-0.1,0.3-0.3,0.7-0.6,0.8l-0.9,0.7
			c-0.2,0.2-0.4-0.1-0.3-0.3L0.3,28C0.3,27.6,0.6,27.3,0.8,27.1z"/>
		<path class="st1" d="M0.6,29.3l0.8-0.8c0.2-0.2,0.4,0,0.4,0.3l-0.1,0.4c-0.1,0.3-0.3,0.7-0.5,0.9l-0.8,0.8C0.3,31,0,30.9,0,30.6
			l0.1-0.4C0.2,29.8,0.3,29.5,0.6,29.3z"/>
		<path class="st1" d="M0.5,31.5l0.8-0.8c0.2-0.2,0.4,0,0.4,0.3v0.4c0,0.3-0.2,0.7-0.4,0.9l-0.8,0.8c-0.2,0.2-0.4,0-0.4-0.3v-0.4
			C0.1,32,0.3,31.7,0.5,31.5z"/>
		<path class="st1" d="M0.5,33.6l0.8-0.8c0.2-0.2,0.4,0,0.4,0.2v0.4c0,0.3-0.2,0.7-0.4,1l-0.8,0.8c-0.2,0.2-0.4,0-0.4-0.2v-0.4
			C0.2,34.3,0.3,34,0.5,33.6z"/>
		<path class="st1" d="M0.8,35.8l0.7-0.9c0.2-0.2,0.4-0.1,0.4,0.2v0.4c0,0.3-0.1,0.8-0.3,1l-0.7,0.9c-0.2,0.2-0.4,0.1-0.4-0.2v-0.4
			C0.4,36.5,0.5,36.2,0.8,35.8z"/>
		<path class="st1" d="M1.1,38l0.6-0.9c0.1-0.2,0.4-0.1,0.4,0.1l0.1,0.4c0.1,0.3,0,0.8-0.3,1l-0.7,0.9c-0.1,0.3-0.3,0.2-0.4-0.1
			v-0.4C0.8,38.7,0.8,38.4,1.1,38z"/>
		<path class="st1" d="M1.6,40.2l0.6-1c0.1-0.2,0.4-0.1,0.4,0.1l0.1,0.5c0.1,0.3,0,0.8-0.2,1l-0.6,1c-0.1,0.2-0.4,0.1-0.4-0.1
			l-0.1-0.4C1.3,40.8,1.3,40.5,1.6,40.2z"/>
		<path class="st1" d="M2.2,42.3l0.5-1c0.1-0.2,0.4-0.2,0.4,0.1l0.1,0.4c0.2,0.3,0.2,0.7,0,1l-0.5,1C2.6,44,2.3,44,2.3,43.7
			l-0.1-0.4C2,42.9,2,42.6,2.2,42.3z"/>
		<path class="st1" d="M3,44.4l0.4-1.1c0.1-0.2,0.4-0.2,0.5,0l0.2,0.4c0.1,0.3,0.1,0.8,0,1.1l-0.4,1.1c-0.1,0.2-0.4,0.2-0.5,0
			L3,45.5C2.9,45.1,2.9,44.6,3,44.4z"/>
		<path class="st1" d="M4,46.3l0.3-1.1c0.1-0.2,0.3-0.2,0.5,0l0.1,0.4c0.2,0.3,0.2,0.7,0.1,1l-0.3,1.1c-0.1,0.2-0.4,0.2-0.5,0
			L4,47.3C3.8,47.1,3.8,46.7,4,46.3z"/>
		<path class="st1" d="M5,48.3l0.3-1.1c0.1-0.3,0.3-0.3,0.5,0l0.2,0.3c0.2,0.3,0.2,0.7,0.1,1l-0.3,1.1c-0.1,0.3-0.3,0.3-0.5,0
			l-0.2-0.4C5,49,4.9,48.6,5,48.3z"/>
		<path class="st1" d="M6.2,50.1L6.3,49c0-0.3,0.3-0.3,0.4-0.1L7,49.3c0.2,0.3,0.3,0.7,0.2,1L7,51.4c0,0.3-0.3,0.3-0.4,0.1l-0.3-0.3
			C6.2,50.8,6.2,50.5,6.2,50.1z"/>
		<path class="st1" d="M7.5,51.8l0.2-1.1c0-0.3,0.3-0.3,0.4-0.1L8.3,51c0.3,0.3,0.3,0.7,0.3,1l-0.1,1.1c0,0.3-0.3,0.3-0.4,0.1
			l-0.3-0.3C7.6,52.6,7.5,52.2,7.5,51.8z"/>
		<path class="st1" d="M8.9,53.5v-1.2c0-0.3,0.3-0.3,0.4-0.2l0.3,0.3c0.3,0.3,0.3,0.7,0.3,1v1.2c0,0.3-0.3,0.3-0.4,0.2l-0.3-0.3
			C9,54.2,8.9,53.9,8.9,53.5z"/>
		<path class="st1" d="M10.5,55v-1.2c0-0.3,0.3-0.3,0.4-0.2l0.3,0.3c0.3,0.3,0.4,0.6,0.4,1v1.2c0,0.3-0.3,0.3-0.4,0.2L11,56.1
			C10.6,55.8,10.5,55.5,10.5,55z"/>
		<path class="st1" d="M12.1,56.5l-0.1-1.1c0-0.3,0.3-0.3,0.4-0.2l0.3,0.3c0.3,0.3,0.4,0.6,0.5,0.9l0.1,1.1c0,0.3-0.3,0.3-0.4,0.2
			l-0.3-0.3C12.4,57.2,12.2,56.9,12.1,56.5z"/>
		<path class="st1" d="M13.9,57.8l-0.2-1.1c0-0.3,0.3-0.3,0.4-0.3l0.3,0.3c0.3,0.3,0.5,0.6,0.5,0.9l0.2,1.1c0,0.3-0.3,0.3-0.4,0.3
			l-0.3-0.3C14.2,58.5,14,58.2,13.9,57.8z"/>
		<path class="st1" d="M15.8,59l-0.3-1.1c-0.1-0.3,0.3-0.3,0.4-0.3l0.3,0.3c0.3,0.3,0.5,0.5,0.6,0.8l0.3,1.1
			c0.1,0.3-0.3,0.3-0.4,0.3l-0.3-0.3C16,59.7,15.8,59.4,15.8,59z"/>
		<path class="st1" d="M17.7,60.1L17.4,59c-0.1-0.2,0.2-0.4,0.3-0.3L18,59c0.3,0.2,0.6,0.5,0.7,0.8L19,61c0.1,0.2-0.2,0.4-0.3,0.3
			L18.4,61C18,60.7,17.8,60.4,17.7,60.1z"/>
		<path class="st1" d="M19.6,61l-0.4-1.1c-0.1-0.2,0.2-0.4,0.3-0.3l0.4,0.2c0.3,0.2,0.6,0.4,0.8,0.8l0.4,1.1
			c0.1,0.2-0.2,0.4-0.3,0.3l-0.4-0.2C20.1,61.6,19.8,61.4,19.6,61z"/>
		<path class="st1" d="M21.7,61.8l-0.5-1c-0.1-0.2,0.1-0.4,0.3-0.3l0.4,0.2c0.3,0.2,0.6,0.4,0.8,0.8l0.5,1c0.1,0.2-0.2,0.4-0.3,0.3
			l-0.4-0.2C22.2,62.4,21.8,62.1,21.7,61.8z"/>
		<path class="st1" d="M23.8,62.5l-0.6-1c-0.1-0.2,0.1-0.4,0.3-0.3l0.4,0.2c0.3,0.1,0.7,0.3,0.8,0.7l0.6,1c0.1,0.2-0.1,0.4-0.3,0.3
			l-0.4-0.2C24.3,63,24,62.7,23.8,62.5z"/>
		<path class="st1" d="M26,62.9L25.3,62c-0.1-0.2,0.1-0.4,0.3-0.3l0.4,0.1c0.3,0.1,0.7,0.3,0.8,0.6l0.7,0.9c0.1,0.2-0.1,0.4-0.3,0.3
			l-0.4-0.1C26.5,63.4,26.1,63.2,26,62.9z"/>
		<path class="st1" d="M28.1,63.2l-0.7-0.9c-0.2-0.2,0-0.4,0.3-0.4l0.4,0.1c0.3,0.1,0.7,0.3,0.9,0.5l0.7,0.9c0.2,0.2,0,0.4-0.3,0.4
			l-0.4-0.1C28.6,63.7,28.3,63.6,28.1,63.2z"/>
		<path class="st1" d="M30.3,63.5l-0.8-0.8c-0.2-0.2,0-0.4,0.3-0.4l0.4,0.1c0.3,0.1,0.7,0.3,0.9,0.5l0.8,0.8c0.2,0.2,0,0.4-0.3,0.4
			L31.2,64C30.8,63.9,30.5,63.7,30.3,63.5z"/>
		<path class="st1" d="M32.4,63.5l-0.8-0.8c-0.2-0.2,0-0.4,0.2-0.4h0.4c0.3,0,0.7,0.2,1,0.4l0.8,0.8c0.2,0.2,0,0.4-0.2,0.4h-0.4
			C33.1,63.9,32.8,63.7,32.4,63.5z"/>
		<path class="st1" d="M34.6,63.4l-0.8-0.8c-0.2-0.2-0.1-0.4,0.2-0.4h0.4c0.3,0,0.8,0.1,1,0.3l0.8,0.8c0.2,0.2,0.1,0.4-0.2,0.4h-0.4
			C35.3,63.7,35,63.6,34.6,63.4z"/>
		<path class="st1" d="M36.8,63.2l-0.9-0.7c-0.2-0.2-0.1-0.4,0.2-0.4h0.4c0.3,0,0.8,0.1,1,0.3l0.9,0.7c0.2,0.2,0.1,0.4-0.2,0.4h-0.4
			C37.5,63.4,37.2,63.3,36.8,63.2z"/>
		<path class="st1" d="M39,62.7l-0.9-0.6c-0.2-0.1-0.1-0.4,0.1-0.4l0.4-0.1c0.3-0.1,0.8,0,1,0.2l0.9,0.6c0.2,0.1,0.1,0.4-0.1,0.4
			L40,62.9C39.7,63,39.3,62.9,39,62.7z"/>
		<path class="st1" d="M41.1,62.1l-1-0.5c-0.2-0.1-0.2-0.4,0.1-0.4l0.4-0.1c0.3-0.1,0.8,0,1,0.2l1,0.5c0.2,0.1,0.2,0.4-0.1,0.4h-0.4
			C41.8,62.3,41.5,62.3,41.1,62.1z"/>
		<path class="st1" d="M43.2,61.4L42.1,61c-0.2-0.1-0.2-0.4,0.1-0.5l0.4-0.1c0.3-0.1,0.8-0.1,1.1,0.1l1,0.5c0.2,0.1,0.2,0.4-0.1,0.5
			l-0.4,0.1C43.9,61.5,43.5,61.5,43.2,61.4z"/>
		<path class="st1" d="M45.2,60.5l-1.1-0.4c-0.2-0.1-0.2-0.4,0-0.5l0.4-0.2c0.3-0.2,0.8-0.2,1.1,0l1.1,0.4c0.2,0.1,0.2,0.4,0,0.5
			l-0.4,0.2C45.9,60.7,45.5,60.7,45.2,60.5z"/>
		<path class="st1" d="M47.2,59.5l-1.1-0.3c-0.2-0.1-0.3-0.3,0-0.5l0.4-0.2c0.3-0.2,0.7-0.2,1-0.1l1.1,0.3c0.2,0.1,0.3,0.3,0,0.5
			l-0.4,0.2C47.9,59.6,47.5,59.6,47.2,59.5z"/>
		<path class="st1" d="M49,58.4l-1.1-0.3c-0.3-0.1-0.3-0.3-0.1-0.5l0.4-0.2c0.3-0.2,0.7-0.3,1-0.2l1.1,0.3c0.3,0.1,0.3,0.3,0.1,0.5
			l-0.4,0.2C49.7,58.4,49.4,58.5,49,58.4z"/>
		<path class="st1" d="M50.8,57.2L49.7,57c-0.3,0-0.3-0.3-0.1-0.4l0.3-0.3c0.3-0.2,0.7-0.3,1-0.3l1.1,0.2c0.3,0,0.3,0.3,0.1,0.4
			l-0.3,0.3C51.6,57.2,51.1,57.2,50.8,57.2z"/>
		<path class="st1" d="M52.5,55.8l-1.1-0.1c-0.3,0-0.3-0.3-0.1-0.4l0.3-0.3c0.3-0.3,0.7-0.3,1-0.3l1.2,0.1c0.3,0,0.3,0.3,0.1,0.4
			l-0.3,0.3C53.3,55.7,52.9,55.8,52.5,55.8z"/>
		<path class="st2" d="M29,7.2l1.8-1.3l-0.7-2.2l1.8,1.4l1.9-1.4L33,5.8l1.8,1.4h-2.2l-0.7,2.1l-0.7-2.1H29z"/>
		<path class="st2" d="M19.7,10.2l1.2-1.9l-1.4-1.7l2.1,0.5l1.2-1.9l0.2,2.3l2.2,0.5l-2,0.8l0.2,2.3l-1.4-1.7L19.7,10.2z"/>
		<path class="st2" d="M12.3,16.6l0.4-2.2l-2-1.1l2.2-0.3l0.3-2.2l1,2l2.3-0.4L14.9,14l1,2l-2-1L12.3,16.6z"/>
		<path class="st2" d="M7.9,25.3l-0.5-2.2l-2.3-0.2l1.9-1.2l-0.5-2.2L8.3,21l1.9-1.2l-0.9,2.1l1.8,1.4l-2.3-0.2L7.9,25.3z"/>
		<path class="st2" d="M7.2,34.9l-1.3-1.8l-2.2,0.7L5.1,32l-1.3-1.9l2.1,0.7l1.3-1.8v2.2L9.3,32l-2.1,0.7V34.9z"/>
		<path class="st2" d="M10.2,44.2L8.3,43l-1.7,1.4l0.5-2.1l-1.9-1.2L7.4,41l0.5-2.2l0.8,2l2.3-0.2l-1.7,1.4L10.2,44.2z"/>
		<path class="st2" d="M16.5,51.7l-2.2-0.4l-1.1,2l-0.3-2.2l-2.2-0.3l2-1l-0.4-2.3l1.6,1.6l2-1l-1,2L16.5,51.7z"/>
		<path class="st2" d="M25.2,56.1L23,56.6l-0.2,2.3l-1.2-1.9l-2.2,0.5l1.4-1.7l-1.2-1.9l2.1,0.9l1.4-1.8l-0.2,2.3L25.2,56.1z"/>
		<path class="st2" d="M34.8,56.8L33,58.1l0.7,2.2l-1.8-1.4l-1.9,1.4l0.7-2.1L29,56.8h2.2l0.8-2.1l0.7,2.1H34.8z"/>
		<path class="st2" d="M44.1,53.8l-1.2,1.9l1.4,1.7l-2.1-0.5L41,58.8l-0.2-2.3l-2.2-0.5l2-0.8l-0.2-2.3l1.4,1.8L44.1,53.8z"/>
		<path class="st2" d="M51.5,47.4l-0.4,2.3l2,1l-2.2,0.3l-0.3,2.2l-1-2l-2.3,0.4l1.6-1.6l-1-2l2,1L51.5,47.4z"/>
		<path class="st2" d="M55.9,38.8l0.5,2.1l2.3,0.3l-1.9,1.1l0.5,2.2L55.5,43l-1.9,1.2l0.9-2l-1.8-1.5l2.3,0.2L55.9,38.8z"/>
		<path class="st2" d="M56.6,29.1l1.3,1.8l2.2-0.7L58.7,32l1.3,1.9L58,33.1l-1.3,1.8v-2.2L54.5,32l2.1-0.7V29.1z"/>
		<path class="st2" d="M53.6,19.8l1.9,1.2l1.7-1.4l-0.5,2.1l1.9,1.2L56.4,23l-0.5,2.2l-0.8-2l-2.3,0.2l1.8-1.4L53.6,19.8z"/>
		<path class="st2" d="M47.3,12.3l2.3,0.4l1-2l0.3,2.2l2.2,0.3l-2,1l0.4,2.3L49.9,15l-2,1l1-2L47.3,12.3z"/>
		<path class="st2" d="M38.7,7.9l2.1-0.5L41,5.2l1.1,1.9l2.2-0.5l-1.4,1.7l1.2,1.9l-2-0.9l-1.5,1.8l0.2-2.3L38.7,7.9z"/>
		<path class="st1" d="M31.9,53.3c-11.7,0-21.3-9.6-21.3-21.4c0-11.8,9.5-21.4,21.3-21.4S53.3,20.1,53.3,32S43.6,53.3,31.9,53.3z
			 M31.9,11.2c-11.4,0-20.7,9.3-20.7,20.8c0,11.4,9.3,20.8,20.7,20.8c11.4,0,20.7-9.3,20.7-20.8C52.6,20.5,43.3,11.2,31.9,11.2z"/>
		<path class="st1" d="M31.9,53.3c-11.7,0-21.3-9.6-21.3-21.4c0-11.8,9.5-21.4,21.3-21.4S53.3,20.1,53.3,32S43.6,53.3,31.9,53.3z
			 M31.9,11.2c-11.4,0-20.7,9.3-20.7,20.8c0,11.4,9.3,20.8,20.7,20.8c11.4,0,20.7-9.3,20.7-20.8C52.6,20.5,43.3,11.2,31.9,11.2z"/>
		<path class="st2" d="M31,14c1.9,0,3.6,1,4.5,2.5c-0.8-0.9-1.9-1.5-3.2-1.5c-2.3,0-4.1,1.9-4.1,4.1s1.9,4.1,4.1,4.1
			c1.3,0,2.4-0.6,3.2-1.5c-0.9,1.5-2.6,2.5-4.5,2.5c-2.9,0-5.2-2.4-5.2-5.2C25.9,16.3,28.1,14,31,14z"/>
		<path class="st2" d="M37.2,16.7l1.2,1.5l1.8-0.6L39,19.2l1.1,1.5l-1.8-0.5l-1.1,1.5v-1.9l-1.9-0.5l1.9-0.6L37.2,16.7z"/>
		<path class="st2" d="M19.4,29.9c-0.1-1.9,1.3-3.6,3.3-3.6c1.9-0.1,3.5,1.4,3.6,3.3c0.1,1.9-1.3,3.6-3.3,3.6
			C21.2,33.3,19.5,31.9,19.4,29.9z M35.1,24.7c0.9,2.3,1.8,4.4,0.8,6.5c0,0-0.6,1.5-2.8,2.5c-0.3,0.2-0.7,0.3-1,0.6
			c-0.8-0.3-1.3-0.6-1.5-1.2c2.4-0.5,4.4-1.4,4-3.6c-0.3-0.9-0.4-1.4-1.1-2.5L35.1,24.7z M30.1,35.9c-1.3,1.4-2.3,3.4-1.3,6
			c1.8,4.5,4.8,7.1,5.1,7.4c0,0-9-5.7-11-10.3c-1.3-3,0.8-4.9,3.5-5.2c0.4-0.1,0.9-0.1,1.4-0.2c0.2,0.3,0.3,0.6,0.5,0.8
			C28.5,34.6,29,35.3,30.1,35.9z"/>
		<path class="st2" d="M37.5,30.9c0-1.9,1.5-3.5,3.5-3.5c1.9,0,3.5,1.5,3.5,3.5s-1.5,3.5-3.5,3.5C39.1,34.3,37.5,32.8,37.5,30.9z"/>
		<path class="st2" d="M38.6,35.1c-2.8,0.1-8.8,0.8-8.6-2.7c0.1-1.6,1.6-4.2,3.2-6.7C32.5,26,31.8,26,31.1,26
			c-0.8,0-1.6-0.2-2.4-0.4c-0.8,2.5-1.4,6.3,0.2,8.5c0,0,0.8,1.4,3.1,2.1c2.3,0.7,6.6,2.7,5.6,7.4c-1,4.6-3.6,7.7-3.9,8
			c0,0,8-7,9.2-11.9C43.7,36.6,41.4,35,38.6,35.1z"/>
	</g>
</g>
</svg>
