<svg version="1.1" id="katman_1" xmlns="http://www.w3.org/2000/svg" xmlns:xlink="http://www.w3.org/1999/xlink" x="0px" y="0px"
	 viewBox="0 0 61.3 76" style="enable-background:new 0 0 61.3 76;" xml:space="preserve">
<style type="text/css">
	.st0{fill:none;}
	.st1{fill:#FFFFFF;fill-opacity:0.8;}
</style>
<rect class="st0" width="61.2" height="76"/>
<g>
	<path class="st1" d="M5.9,26c2.8,0,4.2,1.4,4.2,1.4l-0.9,1.2c0,0-1.3-1.2-3.2-1.2c-2.7,0-4.3,1.9-4.3,4.4c0,2.6,1.9,4.5,4.3,4.5
		c2,0,3.2-1.5,3.2-1.5v-1.6H7.3v-1.4h3.3v5.8H9.2V37c0-0.2,0-0.5,0-0.5S8,37.9,5.6,37.9c-3.1,0-5.6-2.5-5.6-6C0,28.6,2.5,26,5.9,26z
		"/>
	<path class="st1" d="M13.7,29.5h1.5v4.9c0,1.2,0.2,2,1.5,2c1.7,0,2.6-1.5,2.6-3.1v-3.9H21v8.2h-1.5v-1.1c0-0.3,0-0.6,0-0.6
		c-0.3,0.9-1.4,1.9-3,1.9c-1.9,0-2.8-1-2.8-3.2L13.7,29.5L13.7,29.5z M15.4,26.2h1.3v1.6h-1.3V26.2z M18.1,26.2h1.3v1.6h-1.3V26.2z"
		/>
	<path class="st1" d="M23.3,29.5h1.7l2,5.6c0.2,0.5,0.2,1.2,0.3,1.2c0,0,0.2-0.7,0.3-1.2l2-5.6h1.6l-3,8.2h-1.9L23.3,29.5z"/>
	<path class="st1" d="M37.2,29.2c2.3,0,3.6,1.7,3.6,3.9c0,0.2-0.1,0.7-0.1,0.7h-6c0.1,1.8,1.4,2.7,2.9,2.7c1.4,0,2.5-0.9,2.5-0.9
		l0.6,1.2c0,0-1.2,1.2-3.2,1.2c-2.6,0-4.3-1.9-4.3-4.3C33,30.9,34.8,29.2,37.2,29.2z M39.1,32.6c-0.1-1.4-0.9-2.1-2-2.1
		c-1.2,0-2.2,0.8-2.4,2.1H39.1z"/>
	<path class="st1" d="M43.6,29.5h1.5v1.1c0,0.3,0,0.6,0,0.6c0.3-0.7,1.3-1.9,3.1-1.9c1.9,0,2.9,1.1,2.9,3.2v5.3h-1.5v-4.9
		c0-1.2-0.2-2.1-1.5-2.1c-1.2,0-2.2,0.9-2.6,2c-0.1,0.3-0.2,0.7-0.2,1.1v3.9h-1.5L43.6,29.5L43.6,29.5z"/>
	<path class="st1" d="M54.3,26.2h1.5v9c0,1,0.4,1.2,0.8,1.2c0.2,0,0.3,0,0.3,0v1.4c0,0-0.2,0-0.5,0c-0.9,0-2.2-0.2-2.2-2.3
		L54.3,26.2L54.3,26.2z"/>
	<path class="st1" d="M59.7,26.2h1.6v1.6h-1.6V26.2z M59.7,29.5h1.5v8.2h-1.5V29.5z"/>
	<path class="st1" d="M12.4,43.8h3l1.5,7.3c0.2,0.7,0.2,1.2,0.2,1.2s0-0.5,0.2-1.2l1.8-7.3h2.3l1.7,7.3c0.2,0.7,0.2,1.2,0.2,1.2
		s0-0.5,0.2-1.2l1.6-7.3H28l-2.9,11.6h-3.2l-1.5-5.9c-0.2-0.8-0.2-1.4-0.2-1.4s-0.1,0.6-0.2,1.4l-1.5,5.9h-3.2L12.4,43.8z"/>
	<path class="st1" d="M33.7,46.9c2.5,0,3.9,1.7,3.9,4c0,0.3-0.1,0.9-0.1,0.9h-5.3c0.2,1,1.1,1.5,1.9,1.5c1.2,0,2.3-0.8,2.3-0.8
		l1,1.9c0,0-1.3,1.2-3.6,1.2c-3,0-4.6-2.2-4.6-4.4C29.4,48.9,31,46.9,33.7,46.9z M34.7,50.3c0-0.6-0.5-1.2-1.1-1.2
		c-0.9,0-1.2,0.6-1.3,1.2H34.7z"/>
	<path class="st1" d="M40,43.8h2.8v3.2c0,0.4,0,0.7,0,0.7s0.8-0.9,2.2-0.9c2.2,0,3.8,1.8,3.8,4.4c0,2.6-1.7,4.4-3.9,4.4
		c-1.5,0-2.3-0.9-2.3-0.9s0,0.2,0,0.5v0.3H40V43.8z M44.5,53.3c0.9,0,1.6-0.7,1.6-2c0-1.2-0.7-2.1-1.6-2.1c-0.9,0-1.6,0.6-1.6,2.1
		C42.8,52.3,43.4,53.3,44.5,53.3z"/>
	<path class="st1" d="M61.1,17.9c-0.9-1.6-2.7-4.9-5.9-8c0,0-0.2-0.2-0.5-0.5l-0.1-0.1c-1-0.9-3-2.8-4.3-3.5C44.8,1.9,38.2,0,30.6,0
		h-0.1C10.7,0,2.3,13.7,0.2,17.9c-0.3,0.6-0.2,1.4,0.2,1.9c0.4,0.5,1.1,0.9,1.8,0.8c1.9-0.2,3-0.9,4-1.6c1.2-0.8,2.2-1.4,4.5-1.4
		c0.2,0,0.3,0,0.5,0c1.9,0.1,2.9,0.7,3.9,1.4c1.2,0.8,2.6,1.5,5,1.7c0.2,0,0.4,0,0.5,0c1.7,0,3.3-0.5,5.6-1.7c1-0.5,1.9-1.2,3.4-1.3
		h2.1c1.5,0.2,2.4,0.7,3.4,1.3c0.7,0.5,2.2,1.5,5.6,1.7c0.2,0,0.5,0,0.8,0c0.1,0,0.2,0,0.2,0c1.1-0.1,1.9-0.3,2.7-0.6
		c0.8-0.3,1.3-0.7,1.9-1c1.2-0.7,2.1-1.3,3.9-1.4c0.2,0,0.3,0,0.5,0c2.2,0,3.2,0.6,4.5,1.4c1,0.6,2.2,1.3,4,1.6
		c0.7,0.1,1.4-0.2,1.8-0.8C61.3,19.2,61.4,18.5,61.1,17.9z"/>
	<path class="st1" d="M26.1,76c-3.3,0-6-2.7-6-6v-2.3c0-0.8,0.7-1.5,1.5-1.5c0.9,0,1.5,0.7,1.5,1.5V70c0,1.6,1.3,2.9,2.9,2.9
		c1.6,0,2.9-1.3,2.9-2.9v-8.9c0-0.9,0.7-1.5,1.5-1.5s1.5,0.7,1.5,1.5V70C32.1,73.3,29.4,76,26.1,76z"/>
</g>
</svg>
