<svg version="1.1" id="katman_1" xmlns="http://www.w3.org/2000/svg" xmlns:xlink="http://www.w3.org/1999/xlink" x="0px" y="0px"
	 viewBox="0 0 97.5 32" style="enable-background:new 0 0 97.5 32;" xml:space="preserve">
<style type="text/css">
	.st0{fill:none;}
	.st1{fill:#FFFFFF;fill-opacity:0.8;}
</style>
<rect x="0.1" class="st0" width="97.5" height="32"/>
<g>
	<path class="st1" d="M4.6,3.8c2.4,0,3.2,1.5,3.2,1.5h0.1c0,0,0-0.1,0-0.3c0-0.4,0.3-0.9,1.2-0.9h2.4v2.2h-0.8
		c-0.3,0-0.4,0.1-0.4,0.4v7.1c0,3.6-2.8,4.9-5.4,4.9c-1.3,0-2.7-0.4-3.7-0.9l0.8-2c0,0,1.3,0.7,2.8,0.7c1.6,0,2.9-0.7,2.9-2.5v-0.5
		c0-0.2,0-0.6,0-0.6H7.5C7,13.8,6,14.3,4.6,14.3c-3,0-4.6-2.4-4.6-5.2C0,6.2,1.7,3.8,4.6,3.8z M7.7,9c0-2.3-1.2-3-2.6-3
		C3.5,6,2.7,7.2,2.7,8.9c0,1.8,0.9,3.1,2.6,3.1C6.5,12,7.7,11.3,7.7,9z"/>
	<path class="st1" d="M14.7,6.7c0-0.3-0.1-0.4-0.4-0.4h-0.8V4.1H16c0.9,0,1.4,0.4,1.4,1.4v4.8c0,1.2,0.3,2.1,1.6,2.1
		c1.9,0,2.9-1.7,2.9-3.5V4.1h2.6v7.8c0,0.3,0.1,0.4,0.4,0.4h0.8v2.2h-2.4c-0.9,0-1.4-0.4-1.4-1.2V13c0-0.2,0-0.4,0-0.4h-0.1
		c-0.5,1.1-1.8,2.2-3.6,2.2c-2.2,0-3.6-1.1-3.6-3.9V6.7z M16.8,0h1.8v2.3h-1.8V0z M20.4,0h1.8v2.3h-1.8V0z"/>
	<path class="st1" d="M28.3,6.6c-0.1-0.3-0.3-0.4-0.6-0.4h-0.2V4.1H29c0.9,0,1.2,0.3,1.5,0.9l2,5.4c0.2,0.6,0.4,1.5,0.4,1.5h0.1
		c0,0,0.1-0.9,0.4-1.5l2-5.4c0.3-0.7,0.7-0.9,1.5-0.9h1.4v2.2h-0.2c-0.3,0-0.4,0.1-0.6,0.4l-3,7.8h-3L28.3,6.6z"/>
	<path class="st1" d="M45.3,3.8c3,0,4.6,2.2,4.6,4.9c0,0.3-0.1,0.9-0.1,0.9h-7.2c0.2,1.8,1.5,2.8,3.1,2.8c1.7,0,2.9-1.2,2.9-1.2
		l1.1,1.8c0,0-1.6,1.6-4.1,1.6c-3.4,0-5.6-2.5-5.6-5.4C40,6,42.2,3.8,45.3,3.8z M47.2,7.9c-0.1-1.2-0.9-2.1-2-2.1
		c-1.3,0-2.2,0.8-2.5,2.1H47.2z"/>
	<path class="st1" d="M53.6,6.7c0-0.3-0.1-0.4-0.4-0.4h-0.8V4.1h2.4c0.9,0,1.4,0.4,1.4,1.2v0.3C56.1,5.7,56,6,56,6h0.1
		c0.4-0.9,1.6-2.2,3.6-2.2c2.3,0,3.6,1.2,3.6,3.9v4.1c0,0.3,0.1,0.4,0.4,0.4h0.8v2.2h-2.5c-0.9,0-1.4-0.4-1.4-1.4V8.2
		c0-1.2-0.3-2.1-1.6-2.1c-1.4,0-2.4,0.9-2.8,2.1c-0.1,0.4-0.2,0.9-0.2,1.4v4.8h-2.5L53.6,6.7L53.6,6.7z"/>
	<path class="st1" d="M67.8,2.6c0-0.3-0.1-0.4-0.4-0.4h-0.8V0H69c0.9,0,1.4,0.4,1.4,1.4v10.4c0,0.3,0.1,0.4,0.4,0.4h0.8v2.2h-2.5
		c-0.9,0-1.4-0.4-1.4-1.4V2.6z"/>
	<path class="st1" d="M75.1,6.7c0-0.3-0.1-0.4-0.4-0.4h-0.8V4.1h2.5c0.9,0,1.4,0.4,1.4,1.4v6.4c0,0.3,0.1,0.4,0.4,0.4h0.8v2.2h-2.5
		c-0.9,0-1.4-0.4-1.4-1.4V6.7z M75.2,0h2.2v2.4h-2.2V0z"/>
	<path class="st1" d="M13.2,24c0-0.3-0.1-0.4-0.4-0.4H12v-2.2h2.5c0.9,0,1.4,0.4,1.4,1.4v6.4c0,0.3,0.1,0.4,0.4,0.4h0.8v2.2h-2.5
		c-0.9,0-1.4-0.4-1.4-1.4V24z M13.4,17.3h2.2v2.4h-2.2V17.3z"/>
	<path class="st1" d="M20.5,24c0-0.3-0.1-0.4-0.4-0.4h-0.8v-2.2h2.4c0.9,0,1.4,0.4,1.4,1.2v0.3c0,0.2-0.1,0.4-0.1,0.4H23
		c0.4-0.9,1.6-2.2,3.6-2.2c2.3,0,3.6,1.2,3.6,3.9v4.1c0,0.3,0.1,0.4,0.4,0.4h0.8v2.2H29c-0.9,0-1.4-0.4-1.4-1.4v-4.8
		c0-1.2-0.3-2.1-1.6-2.1c-1.4,0-2.4,0.9-2.8,2.1c-0.1,0.4-0.2,0.9-0.2,1.4v4.8h-2.5L20.5,24L20.5,24z"/>
	<path class="st1" d="M34.8,23.4h-1.3v-2h1.4v-2.8h2.5v2.8h2.3v2h-2.3v4.2c0,1.7,1.3,2,2,2c0.3,0,0.4-0.1,0.4-0.1v2.2
		c0,0-0.3,0.1-0.8,0.1c-1.5,0-4.3-0.4-4.3-3.9V23.4z"/>
	<path class="st1" d="M47.5,21.1c3,0,4.6,2.2,4.6,4.9c0,0.3-0.1,0.9-0.1,0.9h-7.2c0.2,1.8,1.5,2.8,3.1,2.8c1.7,0,2.9-1.2,2.9-1.2
		l1.1,1.8c0,0-1.6,1.6-4.1,1.6c-3.4,0-5.6-2.5-5.6-5.4C42.2,23.4,44.4,21.1,47.5,21.1z M49.5,25.3c-0.1-1.2-0.9-2.1-2-2.1
		c-1.3,0-2.2,0.8-2.5,2.1H49.5z"/>
	<path class="st1" d="M55.9,24c0-0.3-0.1-0.4-0.4-0.4h-0.8v-2.2H57c0.9,0,1.4,0.4,1.4,1.2v0.6c0,0.4-0.1,0.7-0.1,0.7h0.1
		c0.4-1.5,1.7-2.7,3.3-2.7c0.2,0,0.4,0.1,0.4,0.1v2.5c0,0-0.3-0.1-0.7-0.1c-1.1,0-2.3,0.7-2.8,2.2c-0.1,0.5-0.2,1.1-0.2,1.7v4.1
		h-2.5L55.9,24L55.9,24z"/>
	<path class="st1" d="M65.5,24c0-0.3-0.1-0.4-0.4-0.4h-0.8v-2.2h2.4c0.9,0,1.4,0.4,1.4,1.2v0.3c0,0.2-0.1,0.4-0.1,0.4h0.1
		c0.4-0.9,1.6-2.2,3.6-2.2c2.3,0,3.6,1.2,3.6,3.9v4.1c0,0.3,0.1,0.4,0.4,0.4h0.8v2.2h-2.5c-0.9,0-1.4-0.4-1.4-1.4v-4.8
		c0-1.2-0.3-2.1-1.6-2.1c-1.4,0-2.4,0.9-2.8,2.1c-0.1,0.4-0.2,0.9-0.2,1.4v4.8h-2.5L65.5,24L65.5,24z"/>
	<path class="st1" d="M84,21.1c3,0,4.6,2.2,4.6,4.9c0,0.3-0.1,0.9-0.1,0.9h-7.2c0.2,1.8,1.5,2.8,3.1,2.8c1.7,0,2.9-1.2,2.9-1.2
		l1.1,1.8c0,0-1.6,1.6-4.1,1.6c-3.4,0-5.6-2.5-5.6-5.4C78.8,23.4,81,21.1,84,21.1z M86,25.3c-0.1-1.2-0.9-2.1-2-2.1
		c-1.3,0-2.2,0.8-2.5,2.1H86z"/>
	<path class="st1" d="M92.4,23.4h-1.3v-2h1.4v-2.8h2.5v2.8h2.3v2h-2.3v4.2c0,1.7,1.3,2,2,2c0.3,0,0.4-0.1,0.4-0.1v2.2
		c0,0-0.3,0.1-0.8,0.1c-1.5,0-4.3-0.4-4.3-3.9V23.4z"/>
</g>
</svg>
