<svg version="1.1" id="katman_1" xmlns="http://www.w3.org/2000/svg" xmlns:xlink="http://www.w3.org/1999/xlink" x="0px" y="0px"
	 viewBox="0 0 88.4 72" style="enable-background:new 0 0 88.4 72;" xml:space="preserve">
<style type="text/css">
	.st0{fill:none;}
	.st1{fill:#FFFFFF;fill-opacity:0.8;}
</style>
<rect class="st0" width="88.4" height="72"/>
<g>
	<path class="st1" d="M19.9,25.7V28h-3.4v-2.3H19.9z M19.9,29v8.4h-3.4V29H19.9z"/>
	<path class="st1" d="M25,26v4.1c0.3-0.4,0.6-0.7,1.1-0.9c0.4-0.2,0.9-0.3,1.4-0.3c0,0,0,0,0.1,0c0,0,0,0,0,0c0,0,0.1,0,0.1,0
		c0,0,0.1,0,0.1,0c0.7,0,1.4,0.3,1.9,0.8c0.6,0.5,0.9,1.2,0.9,2.1v7.7h-3.4v-6.6c0-0.4-0.1-0.7-0.4-1c-0.2-0.2-0.5-0.3-0.8-0.3
		c-0.3,0-0.5,0.1-0.8,0.3c-0.2,0.2-0.4,0.5-0.4,1V36h-3.4V26H25z"/>
	<path class="st1" d="M35.7,25.9v3.8c0.2-0.3,0.6-0.5,1-0.7c0.4-0.2,0.9-0.3,1.4-0.3c0.1,0,0.2,0,0.3,0c0.1,0,0.2,0,0.2,0
		c0.8,0.1,1.5,0.5,2.1,1.2c0.6,0.7,1,1.7,1,3.2c0,1.5-0.3,2.5-1,3.2c-0.7,0.7-1.4,1.1-2.3,1.2c-0.1,0-0.1,0-0.2,0
		c-0.1,0-0.1,0-0.2,0c-0.5,0-1-0.1-1.5-0.3c-0.5-0.2-0.8-0.5-1.1-0.8v1h-3.1V25.9H35.7z M36,32c-0.3,0.4-0.4,0.8-0.4,1.3
		c0,0.5,0.1,1,0.4,1.3c0.3,0.4,0.6,0.6,1.1,0.6c0.4,0,0.8-0.2,1-0.6c0.2-0.4,0.3-0.8,0.3-1.2v0c0,0,0,0,0,0c0,0,0,0,0-0.1
		c0,0,0,0,0-0.1c0-0.4-0.1-0.8-0.4-1.2c-0.2-0.4-0.5-0.5-0.9-0.5h-0.1C36.6,31.5,36.2,31.7,36,32z"/>
	<path class="st1" d="M44.4,29.6c0.5-0.5,1.8-0.7,3.7-0.7c1.8,0,2.9,0.3,3.3,0.9c0.4,0.6,0.7,1.3,0.7,2c0,0,0,0,0,0.1c0,0,0,0,0,0.1
		v4.3c0,0.2,0,0.4,0.1,0.5c0.1,0.2,0.2,0.3,0.4,0.4v0.2h-3.6l-0.1-0.8c-0.2,0.3-0.5,0.5-1,0.7c-0.5,0.2-1,0.3-1.5,0.3
		c-0.1,0-0.2,0-0.2,0c-0.1,0-0.2,0-0.2,0c0,0,0,0-0.1,0c0,0-0.1,0-0.1,0c-0.5,0-1-0.1-1.5-0.3c-0.5-0.2-0.8-0.5-1.1-0.9
		c0,0,0-0.1-0.1-0.1c0-0.1-0.1-0.1-0.1-0.2c0-0.1-0.1-0.3-0.1-0.5c0-0.2-0.1-0.4-0.1-0.5c0-0.1,0-0.3,0-0.4c0-0.1,0.1-0.3,0.1-0.4
		c0-0.1,0.1-0.3,0.2-0.4c0.1-0.1,0.2-0.3,0.3-0.4c0.3-0.3,0.6-0.5,1.1-0.6c0.4-0.1,0.9-0.2,1.4-0.3c0.2,0,0.3-0.1,0.5-0.1
		c0.2,0,0.3,0,0.5-0.1c0.2,0,0.5-0.1,0.7-0.1c0.2,0,0.4-0.1,0.5-0.1c0.1,0,0.2-0.1,0.3-0.2c0.1-0.1,0.1-0.2,0.2-0.2c0,0,0,0,0-0.1
		c0,0,0,0,0-0.1c0,0,0,0,0-0.1c0,0,0,0,0,0c0-0.1-0.1-0.2-0.3-0.3c-0.1-0.1-0.3-0.1-0.6-0.1c-0.3,0-0.6,0-0.8,0.1
		c-0.2,0.1-0.4,0.3-0.4,0.6l-3.4,0C43.5,30.8,43.9,30.1,44.4,29.6z M48.8,33.9c-0.1,0.1-0.3,0.1-0.4,0.2c-0.1,0-0.3,0.1-0.4,0.1
		c0,0-0.1,0-0.1,0c0,0-0.1,0-0.1,0c-0.3,0.1-0.6,0.1-0.8,0.3c-0.2,0.1-0.4,0.3-0.4,0.6c0,0.2,0.1,0.4,0.3,0.5
		c0.2,0.1,0.4,0.2,0.6,0.2c0,0,0.1,0,0.1,0c0,0,0.1,0,0.1,0c0.1,0,0.2-0.1,0.3-0.1c0.1-0.1,0.2-0.1,0.3-0.2c0.1-0.1,0.2-0.2,0.3-0.3
		c0.1-0.1,0.1-0.2,0.2-0.3c0-0.1,0.1-0.2,0.1-0.3c0-0.1,0-0.2,0-0.3c0,0,0,0,0-0.1c0,0,0,0,0-0.1v0v0c0,0,0-0.1,0-0.1
		C48.8,33.9,48.8,33.9,48.8,33.9z"/>
	<path class="st1" d="M56.9,29.1v1.6c0.2-0.6,0.5-1.1,0.9-1.3c0.4-0.3,0.9-0.4,1.6-0.4l0.5,0v3.4c0,0-0.1,0-0.2,0s-0.1,0-0.2,0
		c-0.1,0-0.1,0-0.2,0c-0.1,0-0.1,0-0.2,0c-0.5,0-1,0.1-1.4,0.4c-0.3,0.2-0.5,0.7-0.5,1.5v5.2h-3.5V29.1H56.9z"/>
	<path class="st1" d="M76.6,31.6c3.8,2.4,5,7.4,2.7,11.3c0,0,0,0,0,0.1l1.1,0.6c0,0,0,0,0-0.1c2.7-4.5,1.3-10.3-3.1-13L76.6,31.6z"
		/>
	<path class="st1" d="M77.9,29.2c5.1,3.2,6.7,10,3.6,15.1c0,0,0,0-0.1,0.1l1.5,0.9c0,0,0,0,0.1-0.1c3.6-6,1.8-13.8-4.1-17.5
		L77.9,29.2z"/>
	<path class="st1" d="M75.1,33.9c2.5,1.7,3.4,5.1,1.8,7.7c0,0,0,0,0,0.1l1.2,0.7c0,0,0,0,0-0.1c2-3.3,1-7.5-2.2-9.5L75.1,33.9z"/>
	<path class="st1" d="M70.2,33.8C67.7,19.7,56,8.5,41.1,7.4c-0.8-0.1-1.7-0.1-2.5-0.1C22,7.3,7.9,20,6.7,36.8
		c-0.1,0.8-0.1,1.7-0.1,2.5c0,16.6,12.8,30.6,29.6,31.9c0.8,0.1,1.7,0.1,2.5,0.1C52,71.4,63.8,63,68.5,51l-2.7-1.1
		c-4.3,11-14.9,18.5-27.1,18.5c-0.7,0-1.5,0-2.3-0.1c-15.3-1.2-26.9-14-26.9-29c0-0.7,0-1.5,0.1-2.3c1.2-15.3,14-26.9,29-26.9
		c0.7,0,1.5,0,2.3,0.1C54.4,11.3,65,21.3,67.3,34c-2,0.7-3.5,2.6-3.7,4.9c-0.2,3.2,2.1,5.9,5.3,6.1c3.2,0.2,5.9-2.1,6.1-5.3
		C75.2,36.8,73.1,34.2,70.2,33.8z"/>
	<path class="st1" d="M76,59.3l-5.4,7V43.9v-0.7l17.8,13.3l-8.2,0.6l5.7,11.2L82.1,71L76,59.3z M82.3,69.9l2.7-1.8L79,56.5l7.4-0.6
		l-15-11.3v19.5l4.8-6.2L82.3,69.9z M70.7,44.3l0.2-0.3L70.7,44.3z"/>
	<path class="st1" d="M50.3,38.4h2.3v5c0.5-0.7,1-1.2,1.5-1.5c0.7-0.4,1.6-0.7,2.6-0.7c1.1,0,2,0.3,2.9,0.8c0.9,0.5,1.6,1.4,2.1,2.4
		c0.5,1.1,0.7,2.3,0.7,3.8c0,2.4-0.6,4.4-1.9,5.8c-1.1,1.2-2.4,1.9-4.1,1.9c-1.1,0-1.9-0.2-2.6-0.7c-0.5-0.3-1-0.8-1.4-1.5v1.8h-2.2
		V38.4z M56.3,53.9c1.1,0,2-0.4,2.7-1.3c0.7-0.9,1.1-2.2,1.1-4.1c0-1.8-0.3-3.1-1.1-3.9c-0.7-0.8-1.6-1.2-2.6-1.2
		c-1.2,0-2.1,0.4-2.9,1.3c-0.7,0.9-1.2,2.2-1.2,4c0,1.8,0.4,3.1,1.1,4C54.2,53.5,55.2,53.9,56.3,53.9z"/>
	<path class="st1" d="M48.4,46.3c-0.2-1-0.5-1.9-1.1-2.6c-0.5-0.7-1.2-1.3-2.1-1.7c-0.9-0.4-1.8-0.6-2.9-0.6c-1.8,0-3.4,0.7-4.6,2
		c-1,1.1-1.6,2.5-1.8,4.3h-4.4l-1.3,5l-2.7-10.9h-2.6l-2.7,10.9l-2.7-10.9h-2.5l4,13.9h2.4l2.7-10.8l2.8,10.8h2.4l1.8-6.1h2.8
		c0.1,1.1,0.3,2.1,0.7,3.1c0.5,1.1,1.3,2,2.2,2.6c1,0.6,2.1,0.9,3.4,0.9c1.1,0,2.1-0.2,3-0.7c0.9-0.5,1.6-1.1,2.1-1.8
		c0.4-0.6,0.7-1.3,1-2.3H46c-0.4,1-0.9,1.7-1.5,2.1c-0.6,0.4-1.4,0.6-2.3,0.6c-0.8,0-1.5-0.2-2.1-0.5c-0.6-0.4-1.1-0.9-1.3-1.6
		c-0.3-0.7-0.4-1.5-0.5-2.3h10.1C48.5,48,48.5,46.9,48.4,46.3z M38.4,47.6c0.1-1.4,0.5-2.4,1.3-3.1c0.7-0.7,1.6-1.1,2.7-1.1
		c1.1,0,2,0.3,2.6,1.1c0.7,0.7,1.1,1.8,1.1,3.2H38.4z"/>
	<path class="st1" d="M0,29.8l0.1-0.4l0.5,0.1L0.5,30L0,29.8z M0.9,30.1L1,29.9l0-0.2l3.5,1l-0.1,0.2L4.4,31L0.9,30.1z"/>
	<path class="st1" d="M5,28.9L5,29.1l-0.1,0.2l-3.5-1.3l0.1-0.3l0.1-0.3l3.4-0.7l-2.8-1l0.1-0.2l0.1-0.2l3.4,1.2l-0.1,0.3l-0.1,0.3
		l-3.4,0.7L5,28.9z"/>
	<path class="st1" d="M3.8,23.3l-0.5,1.1l-0.2-0.1l-0.2-0.1l1.3-2.7l0.2,0.1l0.2,0.1L4,22.9l2.9,1.4l-0.1,0.2l-0.1,0.2L3.8,23.3z"/>
	<path class="st1" d="M7.9,22.4l-3.1-1.9l1.4-2.3l0.2,0.1l0.2,0.1l-1.1,1.9l1,0.6l1.1-1.7l0.2,0.1l0.2,0.1l-1.1,1.7l1.1,0.7L9,19.9
		L9.1,20l0.2,0.1L7.9,22.4z"/>
	<path class="st1" d="M7.1,16.9l0.1-0.2l0.9-1.1c0.2-0.3,0.5-0.5,0.7-0.5c0.3-0.1,0.5,0,0.8,0.2c0.2,0.2,0.4,0.4,0.4,0.7
		c0,0.1,0,0.1,0,0.2l0.1,0c0.2-0.1,0.5-0.1,0.7,0.1l0.5,0.4c0.1,0.1,0.2,0.1,0.2,0.1c0.1,0,0.1,0,0.2,0l0.1,0l-0.4,0.5
		c0,0-0.1,0-0.2-0.1c-0.1-0.1-0.2-0.1-0.3-0.2l-0.2-0.2c-0.2-0.1-0.3-0.2-0.5-0.2c-0.1,0-0.3,0.1-0.4,0.3l-0.7,0.9l1.3,1L10.1,19
		L10,19.2L7.1,16.9z M8.7,17.6l0.7-1c0.1-0.2,0.2-0.3,0.2-0.5c0-0.1-0.1-0.3-0.3-0.4c-0.2-0.1-0.3-0.2-0.5-0.1
		c-0.1,0-0.3,0.1-0.4,0.3l-0.7,1L8.7,17.6z"/>
	<path class="st1" d="M12.8,15.8l-0.2,0.2l-0.2,0.2l-2.6-2.6l0.2-0.2l0.2-0.2l3.4,0.8l-2.1-2.1l0.2-0.2l0.2-0.2l2.6,2.6l-0.2,0.2
		l-0.2,0.2l-3.4-0.7L12.8,15.8z"/>
	<path class="st1" d="M15.5,13.2l-2.3-2.9l2.1-1.7l0.1,0.2l0.1,0.2l-1.7,1.4l0.7,0.9l1.6-1.3l0.1,0.2l0.1,0.2l-1.6,1.3l0.8,1
		l1.7-1.4l0.1,0.2l0.1,0.2L15.5,13.2z"/>
	<path class="st1" d="M17.4,7.7l-1,0.7l-0.1-0.2l-0.1-0.2l2.5-1.6l0.1,0.2l0.1,0.2l-1,0.7l1.8,2.7l-0.2,0.1l-0.2,0.1L17.4,7.7z"/>
	<path class="st1" d="M21.4,4.9l0.2-0.1l1.3-0.5c0.3-0.1,0.5-0.2,0.8-0.1c0.2,0.1,0.4,0.2,0.5,0.5c0.1,0.3,0.1,0.5,0,0.8
		c0,0.1-0.1,0.1-0.1,0.2c0.1,0,0.2,0,0.3,0c0.3,0.1,0.5,0.2,0.6,0.5c0.1,0.3,0.1,0.6,0,0.9c-0.1,0.3-0.4,0.5-0.8,0.6l-1.1,0.5
		l-0.2,0.1L21.4,4.9z M22.5,6.1l0.8-0.4c0.2-0.1,0.4-0.2,0.5-0.4c0.1-0.1,0.1-0.3,0-0.5c-0.1-0.2-0.2-0.3-0.3-0.3
		c-0.1,0-0.3,0-0.5,0.1L22,5.1L22.5,6.1z M23.2,7.7l0.9-0.4c0.3-0.1,0.4-0.2,0.5-0.4c0.1-0.2,0.1-0.3,0-0.5C24.5,6.1,24.4,6,24.2,6
		c-0.2,0-0.4,0-0.6,0.1l-0.9,0.4L23.2,7.7z"/>
	<path class="st1" d="M25,2.4l0.4-0.2l0.2,0.5l-0.4,0.2L25,2.4z M25.3,3.3l0.2-0.1l0.2-0.1l1.2,3.4l-0.2,0.1l-0.2,0.1L25.3,3.3z"/>
	<path class="st1" d="M28.1,6.2l-1-3.5l0.2-0.1l0.2-0.1l0.9,3.1l1.8-0.5l0.1,0.2l0.1,0.2L28.1,6.2z"/>
	<path class="st1" d="M32.8,5.2c-0.5,0.1-1,0-1.3-0.3c-0.4-0.3-0.6-0.7-0.7-1.3c-0.1-0.6,0-1.1,0.2-1.5c0.2-0.4,0.6-0.7,1.1-0.7
		c0.4-0.1,0.7,0,1.1,0.2c0.3,0.2,0.5,0.4,0.6,0.7l-0.5,0.1c-0.1-0.2-0.2-0.4-0.4-0.5c-0.2-0.1-0.5-0.1-0.7-0.1
		c-0.3,0.1-0.6,0.2-0.8,0.5c-0.2,0.3-0.2,0.7-0.1,1.1c0.1,0.5,0.2,0.8,0.5,1c0.2,0.2,0.6,0.3,1,0.2c0.4-0.1,0.6-0.2,0.8-0.5
		c0,0,0.1-0.1,0.1-0.1c0-0.1,0-0.2,0.1-0.3c0-0.1,0-0.2,0-0.3v0l-1.1,0.2l-0.1-0.4l1.6-0.3l0.3,1.9l-0.3,0.1l-0.2-0.4l0,0
		C33.6,4.9,33.2,5.1,32.8,5.2z"/>
	<path class="st1" d="M35.2,0.1l0.5,0l0,0.5l-0.5,0.1L35.2,0.1z M35.3,1.1l0.2,0l0.2,0l0.3,3.6l-0.2,0l-0.2,0L35.3,1.1z"/>
	<path class="st1" d="M39.2,1h0.2h0.2l-0.1,3.7h-0.2h-0.2L39.2,1z M39.3,0h0.5v0.5h-0.5V0z"/>
	<path class="st1" d="M41.3,1l0.2,0l0.2,0l-0.2,1.5l1.9,0.2l0.2-1.5l0.2,0l0.2,0L43.7,5l-0.2,0l-0.2,0l0.2-1.7L41.5,3l-0.2,1.7
		l-0.2,0l-0.2,0L41.3,1z"/>
	<path class="st1" d="M45.7,1.5l0.2,0.1l1.3,0.3c0.3,0.1,0.5,0.2,0.7,0.4c0.1,0.2,0.2,0.4,0.1,0.7c-0.1,0.3-0.2,0.5-0.5,0.6
		c-0.1,0-0.1,0-0.2,0.1c0.1,0.1,0.2,0.1,0.3,0.2c0.2,0.2,0.3,0.5,0.2,0.8c-0.1,0.3-0.2,0.6-0.5,0.7c-0.3,0.1-0.6,0.2-1,0.1l-1.2-0.3
		l-0.2-0.1L45.7,1.5z M45.5,4.8l1,0.2c0.3,0.1,0.5,0.1,0.6,0c0.1-0.1,0.2-0.2,0.3-0.5c0-0.2,0-0.4-0.1-0.5c-0.1-0.1-0.3-0.2-0.6-0.3
		l-1-0.2L45.5,4.8z M45.8,3.2l0.8,0.2c0.3,0.1,0.5,0.1,0.6,0c0.1-0.1,0.2-0.2,0.3-0.4c0-0.2,0-0.3-0.1-0.4c-0.1-0.1-0.3-0.2-0.5-0.2
		l-0.9-0.2L45.8,3.2z"/>
	<path class="st1" d="M50.8,2.9L51,3l0.3,0.1l0.1,3.9l-0.2-0.1l-0.2-0.1l0-1.1l-1.4-0.5l-0.7,0.9L48.6,6l-0.2-0.1L50.8,2.9z
		 M49.8,4.8l1.1,0.4l0-1.7L49.8,4.8z"/>
	<path class="st1" d="M53.8,3.9L54,4l1.3,0.6C55.7,4.8,55.9,5,56,5.3c0.1,0.2,0.1,0.5,0,0.8c-0.1,0.3-0.3,0.5-0.6,0.5
		c-0.1,0-0.1,0-0.2,0l0.1,0.1c0.1,0.2,0.2,0.4,0,0.7L55,8C55,8.2,55,8.2,55,8.3c0,0.1,0,0.1,0.1,0.2l0,0.1l-0.5-0.3
		c0,0,0-0.1,0.1-0.2c0-0.1,0.1-0.2,0.1-0.4l0.1-0.3c0.1-0.2,0.1-0.4,0.1-0.5c-0.1-0.1-0.2-0.2-0.4-0.3L53.4,6l-0.6,1.4l-0.2-0.1
		l-0.2-0.1L53.8,3.9z M53.5,5.6l1.1,0.5c0.2,0.1,0.4,0.1,0.5,0.1c0.1,0,0.2-0.2,0.3-0.4c0.1-0.2,0.1-0.3,0-0.5
		c-0.1-0.1-0.2-0.3-0.4-0.3L54,4.5L53.5,5.6z"/>
	<path class="st1" d="M57.8,10.2L57.6,10l-0.2-0.1l2.1-3l0.3,0.2L60,7.3l-0.9,3.2l2.6-2L62,8.7l0.3,0.2l-2.1,3l-0.2-0.1l-0.2-0.1
		l1.8-2.5L59,11l-0.2-0.1l-0.2-0.1l0.9-3.1L57.8,10.2z"/>
	<path class="st1" d="M61.2,12.6l2.4-2.8l2,1.8l-0.1,0.2L65.3,12l-1.6-1.4l-0.7,0.8l1.5,1.3l-0.1,0.2l-0.1,0.2l-1.5-1.3l-0.8,0.9
		l1.7,1.5l-0.1,0.2l-0.1,0.2L61.2,12.6z"/>
	<path class="st1" d="M66.7,12.7l0.2,0.2l1,1.1c0.3,0.3,0.4,0.6,0.4,0.8c0,0.3-0.1,0.5-0.3,0.7c-0.2,0.2-0.5,0.3-0.8,0.3
		c-0.1,0-0.1,0-0.2,0l0,0.1c0.1,0.2,0,0.5-0.2,0.7L66.2,17c-0.1,0.1-0.1,0.1-0.1,0.2c0,0,0,0.1,0,0.2L66,17.5L65.6,17
		c0,0,0.1-0.1,0.1-0.2c0.1-0.1,0.2-0.2,0.3-0.3l0.2-0.3c0.2-0.2,0.2-0.3,0.2-0.4c0-0.1-0.1-0.3-0.2-0.5l-0.8-0.9l-1.2,1.1l-0.2-0.2
		L64,15.2L66.7,12.7z M65.8,14.2l0.8,0.9c0.2,0.2,0.3,0.3,0.4,0.3s0.3-0.1,0.5-0.2c0.2-0.1,0.2-0.3,0.2-0.4c0-0.1-0.1-0.3-0.2-0.5
		l-0.8-0.9L65.8,14.2z"/>
	<path class="st1" d="M69.6,16.1l0.1,0.2l0.1,0.2l-1.4,1l2.5,0.4l0.2,0.3l0.2,0.3l-2.1-0.4l-0.8,2.5l-0.2-0.3L68,20.1l0.7-2.1
		l-0.7-0.1l-1,0.7l-0.1-0.2l-0.1-0.2L69.6,16.1z"/>
	<path class="st1" d="M68.8,21.4l3.2-1.8l1.3,2.3L73.1,22l-0.2,0.1l-1.1-1.9l-1,0.5l1,1.7l-0.2,0.1l-0.2,0.1l-1-1.7l-1.1,0.6
		l1.1,1.9l-0.2,0.1L70,23.7L68.8,21.4z"/>
	<path class="st1" d="M70.8,24.2l3.5,1l-0.8-1.9l0.2-0.1l0.2-0.1l1.1,2.5l-0.2,0.1l-0.2,0.1l-3.5-1l0.9,2.1L71.8,27l-0.2,0.1
		l-1.2-2.6l0.2-0.1L70.8,24.2z"/>
	<path class="st1" d="M75.3,26.8l0.1,0.2l0.1,0.2L72,28.4l-0.1-0.2L71.9,28L75.3,26.8z M76.2,26.5l0.1,0.4l-0.5,0.2l-0.1-0.4
		L76.2,26.5z"/>
</g>
</svg>
