<?xml version="1.0" encoding="utf-8"?>
<!-- Generator: Adobe Illustrator 24.1.2, SVG Export Plug-In . SVG Version: 6.00 Build 0)  -->
<svg version="1.1" id="Layer_1" xmlns="http://www.w3.org/2000/svg" xmlns:xlink="http://www.w3.org/1999/xlink" x="0px" y="0px"
	 viewBox="0 0 428 220" style="enable-background:new 0 0 428 220;" xml:space="preserve">
<style type="text/css">
	.st0{fill:#DB0032;}
	.st1{enable-background:new    ;}
</style>
<g>
    <!-- Logo Grubu: Üste ve ortaya taşındı -->
	<g transform="translate(149.5, 10)">
		<g>
			<g>
				<path class="st0" d="M108.9,108.8h-2.3c-0.4,0-0.6-0.6-0.3-0.9l0.7-0.6c0.6-0.5,1.3-0.8,2-0.8h2.3c0.4,0,0.6,0.6,0.3,0.9
					l-0.7,0.6C110.3,108.5,109.6,108.8,108.9,108.8"/>
			</g>
			<g>
				<path class="st0" d="M111.9,105.6l-2.3,0.2c-0.4,0-0.7-0.6-0.4-0.9l0.6-0.6c0.5-0.5,1.2-0.8,1.9-0.9l2.3-0.2
					c0.4,0,0.7,0.6,0.4,0.9l-0.6,0.6C113.3,105.2,112.6,105.5,111.9,105.6"/>
			</g>
			<g>
				<path class="st0" d="M114.7,102.1l-2.3,0.3c-0.4,0.1-0.7-0.5-0.4-0.8l0.6-0.7c0.5-0.6,1.1-0.9,1.9-1l2.3-0.3
					c0.4-0.1,0.7,0.5,0.4,0.8l-0.6,0.7C116,101.7,115.4,102,114.7,102.1"/>
			</g>
			<g>
				<path class="st0" d="M117.2,98.5l-2.3,0.5c-0.4,0.1-0.7-0.4-0.5-0.8l0.5-0.7c0.4-0.6,1.1-1,1.8-1.1l2.2-0.5
					c0.4-0.1,0.7,0.4,0.5,0.8l-0.5,0.7C118.5,98,117.9,98.4,117.2,98.5"/>
			</g>
			<g>
				<path class="st0" d="M119.5,94.7l-2.2,0.6c-0.4,0.1-0.8-0.4-0.5-0.8l0.5-0.7c0.4-0.6,1-1.1,1.7-1.3l2.2-0.6
					c0.4-0.1,0.8,0.4,0.5,0.8l-0.5,0.7C120.8,94.1,120.2,94.5,119.5,94.7"/>
			</g>
			<g>
				<path class="st0" d="M121.5,90.8l-2.2,0.8c-0.4,0.2-0.8-0.3-0.6-0.7l0.4-0.8c0.4-0.6,0.9-1.1,1.6-1.4l2.2-0.8
					c0.4-0.2,0.8,0.3,0.6,0.7l-0.4,0.8C122.7,90.1,122.1,90.6,121.5,90.8"/>
			</g>
			<g>
				<path class="st0" d="M123.2,86.7l-2.1,0.9c-0.4,0.2-0.8-0.3-0.6-0.7l0.4-0.8c0.3-0.7,0.8-1.2,1.5-1.5l2.1-0.9
					c0.4-0.2,0.8,0.3,0.6,0.7l-0.4,0.8C124.4,85.9,123.8,86.4,123.2,86.7"/>
			</g>
			<g>
				<path class="st0" d="M124.6,82.6l-2,1.1c-0.4,0.2-0.8-0.2-0.7-0.6l0.3-0.8c0.3-0.7,0.8-1.3,1.4-1.6l2-1.1
					c0.4-0.2,0.8,0.2,0.7,0.6L126,81C125.7,81.7,125.3,82.2,124.6,82.6"/>
			</g>
			<g>
				<path class="st0" d="M125.8,78.3l-2,1.2c-0.4,0.2-0.9-0.2-0.7-0.6l0.3-0.8c0.2-0.7,0.7-1.3,1.3-1.7l1.9-1.2
					c0.4-0.2,0.9,0.2,0.7,0.6l-0.3,0.8C126.8,77.3,126.4,77.9,125.8,78.3"/>
			</g>
			<g>
				<path class="st0" d="M126.6,74l-1.9,1.4c-0.4,0.3-0.9-0.1-0.8-0.5l0.2-0.8c0.2-0.7,0.6-1.4,1.2-1.8l1.9-1.4
					c0.4-0.3,0.9,0.1,0.8,0.5l-0.2,0.8C127.6,72.9,127.2,73.6,126.6,74"/>
			</g>
			<g>
				<path class="st0" d="M127.1,69.6l-1.8,1.5c-0.3,0.3-0.9,0-0.8-0.5l0.1-0.9c0.1-0.7,0.5-1.4,1-1.9l1.8-1.5c0.3-0.3,0.9,0,0.8,0.5
					l-0.1,0.9C128,68.5,127.7,69.1,127.1,69.6"/>
			</g>
			<g>
				<path class="st0" d="M127.3,65.2l-1.7,1.6c-0.3,0.3-0.9,0-0.8-0.4l0.1-0.9c0.1-0.7,0.4-1.4,0.9-1.9l1.7-1.6
					c0.3-0.3,0.9,0,0.8,0.4l-0.1,0.9C128.2,64,127.9,64.7,127.3,65.2"/>
			</g>
			<g>
				<path class="st0" d="M127.3,60.8l-1.5,1.7c-0.3,0.3-0.9,0.1-0.9-0.4v-0.9c0-0.7,0.3-1.4,0.8-2l1.5-1.7c0.3-0.3,0.9-0.1,0.9,0.4
					v0.9C128,59.6,127.7,60.3,127.3,60.8"/>
			</g>
			<g>
				<path class="st0" d="M126.9,56.4l-1.4,1.8c-0.3,0.4-0.9,0.1-0.9-0.3V57c0-0.7,0.2-1.5,0.6-2l1.4-1.8c0.3-0.3,0.9-0.1,0.9,0.3v0.9
					C127.5,55.1,127.3,55.8,126.9,56.4"/>
			</g>
			<g>
				<path class="st0" d="M126.2,52l-1.3,1.9c-0.2,0.4-0.8,0.2-0.9-0.3l-0.1-0.9c-0.1-0.7,0.1-1.5,0.5-2.1l1.3-1.9
					c0.2-0.4,0.8-0.2,0.9,0.3l0.1,0.9C126.8,50.7,126.6,51.4,126.2,52"/>
			</g>
			<g>
				<path class="st0" d="M125.2,47.8l-1.1,2c-0.2,0.4-0.8,0.3-0.9-0.2l-0.2-0.9c-0.1-0.7,0-1.5,0.3-2.1l1.1-2
					c0.2-0.4,0.8-0.3,0.9,0.2l0.2,0.9C125.7,46.4,125.5,47.1,125.2,47.8"/>
			</g>
			<g>
				<path class="st0" d="M123.9,43.5l-1,2.1c-0.2,0.4-0.8,0.3-0.9-0.1l-0.2-0.8c-0.2-0.7-0.1-1.5,0.2-2.1l1-2.1
					c0.2-0.4,0.8-0.3,0.9,0.1l0.2,0.8C124.3,42.1,124.2,42.9,123.9,43.5"/>
			</g>
			<g>
				<path class="st0" d="M122.3,39.4l-0.9,2.1c-0.2,0.4-0.8,0.4-0.9-0.1l-0.3-0.8c-0.2-0.7-0.2-1.5,0-2.1l0.9-2.1
					c0.2-0.4,0.8-0.4,0.9,0.1l0.3,0.8C122.6,38,122.6,38.8,122.3,39.4"/>
			</g>
			<g>
				<path class="st0" d="M120.4,35.4l-0.7,2.2c-0.1,0.4-0.8,0.4-0.9,0l-0.3-0.8c-0.3-0.7-0.3-1.4-0.1-2.1l0.7-2.2
					c0.1-0.4,0.8-0.4,0.9,0l0.3,0.8C120.6,34,120.7,34.7,120.4,35.4"/>
			</g>
			<g>
				<path class="st0" d="M118.3,31.6l-0.6,2.2c-0.1,0.4-0.7,0.5-0.9,0.1l-0.4-0.8c-0.3-0.7-0.4-1.4-0.2-2.1l0.6-2.2
					c0.1-0.4,0.7-0.5,0.9-0.1l0.4,0.8C118.4,30.1,118.5,30.9,118.3,31.6"/>
			</g>
			<g>
				<path class="st0" d="M115.9,27.9l-0.4,2.3c-0.1,0.4-0.7,0.5-0.9,0.1l-0.4-0.7c-0.4-0.6-0.5-1.4-0.4-2.1l0.4-2.3
					c0.1-0.4,0.7-0.5,0.9-0.1l0.4,0.7C115.9,26.4,116,27.2,115.9,27.9"/>
			</g>
			<g>
				<path class="st0" d="M113.2,24.4l-0.2,2.3c0,0.4-0.7,0.6-0.9,0.2l-0.5-0.7c-0.4-0.6-0.6-1.3-0.5-2.1l0.2-2.3
					c0-0.4,0.7-0.6,0.9-0.2l0.5,0.7C113.1,22.9,113.3,23.6,113.2,24.4"/>
			</g>
			<g>
				<path class="st0" d="M110.3,21l-0.1,2.3c0,0.4-0.6,0.6-0.9,0.3l-0.5-0.7c-0.5-0.6-0.7-1.3-0.7-2l0.1-2.3c0-0.4,0.6-0.6,0.9-0.3
					l0.5,0.7C110.1,19.6,110.4,20.3,110.3,21"/>
			</g>
			<g>
				<path class="st0" d="M107.2,17.9l0.1,2.3c0,0.4-0.6,0.7-0.9,0.3l-0.6-0.6c-0.5-0.5-0.8-1.2-0.8-2l-0.1-2.3c0-0.4,0.6-0.7,0.9-0.3
					l0.6,0.6C106.9,16.5,107.2,17.2,107.2,17.9"/>
			</g>
			<g>
				<path class="st0" d="M103.9,15l0.2,2.3c0,0.4-0.5,0.7-0.9,0.4l-0.6-0.6c-0.5-0.5-0.9-1.2-1-1.9l-0.2-2.3c0-0.4,0.5-0.7,0.9-0.4
					l0.6,0.6C103.5,13.6,103.8,14.3,103.9,15"/>
			</g>
			<g>
				<path class="st0" d="M100.4,12.4l0.4,2.3c0.1,0.4-0.5,0.7-0.8,0.4l-0.7-0.5c-0.6-0.5-1-1.1-1.1-1.8l-0.4-2.3
					c-0.1-0.4,0.5-0.7,0.8-0.4l0.7,0.6C99.8,11,100.2,11.7,100.4,12.4"/>
			</g>
			<g>
				<path class="st0" d="M96.7,10l0.6,2.2c0.1,0.4-0.4,0.8-0.8,0.5l-0.7-0.5c-0.6-0.4-1-1-1.2-1.7L94,8.3c-0.1-0.4,0.4-0.8,0.8-0.5
					l0.7,0.5C96.1,8.7,96.5,9.3,96.7,10"/>
			</g>
			<g>
				<path class="st0" d="M92.8,7.9l0.7,2.2c0.1,0.4-0.4,0.8-0.8,0.6L92,10.1c-0.6-0.4-1.1-1-1.3-1.7L90,6.3c-0.1-0.4,0.4-0.8,0.8-0.6
					l0.7,0.5C92.1,6.6,92.6,7.2,92.8,7.9"/>
			</g>
			<g>
				<path class="st0" d="M88.8,6l0.9,2.1c0.2,0.4-0.3,0.8-0.7,0.6l-0.8-0.4C87.5,8,87,7.4,86.7,6.8l-0.9-2.1
					c-0.2-0.4,0.3-0.8,0.7-0.6l0.8,0.4C88,4.8,88.5,5.3,88.8,6"/>
			</g>
			<g>
				<path class="st0" d="M84.7,4.4l1,2.1c0.2,0.4-0.3,0.8-0.7,0.7l-0.8-0.3C83.5,6.5,83,6,82.7,5.3l-1-2.1c-0.2-0.4,0.3-0.8,0.7-0.7
					L83.1,3C83.8,3.3,84.4,3.8,84.7,4.4"/>
			</g>
			<g>
				<path class="st0" d="M80.5,3.1l1.2,2C81.8,5.5,81.4,6,81,5.8l-0.8-0.3c-0.7-0.2-1.3-0.7-1.6-1.3l-1.1-2c-0.2-0.4,0.2-0.8,0.6-0.7
					l0.8,0.3C79.5,2,80.1,2.5,80.5,3.1"/>
			</g>
			<g>
				<path class="st0" d="M76.2,2.1L77.5,4c0.2,0.4-0.1,0.9-0.6,0.7L76,4.6c-0.7-0.2-1.3-0.6-1.7-1.2l-1.3-2c-0.2-0.4,0.1-0.9,0.6-0.7
					l0.8,0.2C75.1,1.1,75.8,1.6,76.2,2.1"/>
			</g>
			<g>
				<path class="st0" d="M71.8,1.5l1.4,1.8c0.3,0.3-0.1,0.9-0.5,0.8l-0.9-0.2c-0.7-0.1-1.4-0.5-1.8-1.1L68.6,1
					c-0.3-0.3,0.1-0.9,0.5-0.8L70,0.4C70.7,0.5,71.4,0.9,71.8,1.5"/>
			</g>
			<g>
				<path class="st0" d="M67.4,1.1l1.5,1.7c0.3,0.3,0,0.9-0.5,0.8l-0.9-0.1c-0.7-0.1-1.4-0.4-1.9-1l-1.5-1.7c-0.3-0.3,0-0.9,0.5-0.8
					l0.9,0.1C66.3,0.2,66.9,0.5,67.4,1.1"/>
			</g>
			<g>
				<path class="st0" d="M63,1l1.7,1.6c0.3,0.3,0,0.9-0.4,0.8l-0.9-0.1c-0.7,0-1.4-0.3-2-0.8L59.8,1c-0.3-0.3,0-0.9,0.4-0.8h0.9
					C61.8,0.2,62.5,0.5,63,1"/>
			</g>
			<g>
				<path class="st0" d="M58.6,1.2l1.8,1.5C60.7,3,60.5,3.6,60,3.6h-0.9c-0.7,0-1.5-0.2-2-0.7l-1.8-1.5c-0.3-0.3-0.1-0.9,0.3-0.9h0.9
					C57.3,0.5,58,0.8,58.6,1.2"/>
			</g>
			<g>
				<path class="st0" d="M54.2,1.8l1.9,1.3C56.4,3.4,56.2,4,55.8,4l-0.9,0.1c-0.7,0.1-1.5-0.1-2-0.6L51,2.2c-0.4-0.3-0.2-0.9,0.3-0.9
					l0.9-0.1C52.9,1.2,53.6,1.4,54.2,1.8"/>
			</g>
			<g>
				<path class="st0" d="M49.9,2.6l2,1.2c0.4,0.2,0.2,0.8-0.2,0.9l-0.9,0.1c-0.7,0.1-1.5,0-2.1-0.4l-1.9-1.2C46.4,3,46.6,2.4,47,2.3
					l0.9-0.1C48.5,2.1,49.3,2.3,49.9,2.6"/>
			</g>
			<g>
				<path class="st0" d="M45.6,3.8l2,1.1c0.4,0.2,0.3,0.8-0.2,0.9L46.7,6c-0.7,0.2-1.5,0.1-2.1-0.3l-2-1.1c-0.4-0.2-0.3-0.8,0.2-0.9
					l0.9-0.2C44.2,3.3,45,3.4,45.6,3.8"/>
			</g>
			<g>
				<path class="st0" d="M41.5,5.2l2.1,0.9c0.4,0.2,0.3,0.9-0.1,1l-0.8,0.3c-0.7,0.2-1.5,0.2-2.1-0.1l-2.1-0.9
					c-0.4-0.2-0.3-0.8,0.1-0.9l0.8-0.3C40.1,4.9,40.8,4.9,41.5,5.2"/>
			</g>
			<g>
				<path class="st0" d="M37.4,6.9l2.2,0.8c0.4,0.2,0.4,0.8,0,0.9L38.7,9c-0.7,0.3-1.4,0.3-2.1,0l-2.2-0.8C34,8,34,7.4,34.4,7.3
					L35.3,7C36,6.7,36.7,6.7,37.4,6.9"/>
			</g>
			<g>
				<path class="st0" d="M33.5,9l2.2,0.6c0.4,0.1,0.4,0.7,0,0.9l-0.8,0.4c-0.7,0.3-1.4,0.4-2.1,0.2l-2.2-0.6c-0.4-0.1-0.4-0.7,0-0.9
					l0.8-0.4C32,8.8,32.8,8.8,33.5,9"/>
			</g>
			<g>
				<path class="st0" d="M29.7,11.2l2.2,0.5c0.4,0.1,0.5,0.7,0.1,0.9L31.2,13c-0.7,0.4-1.4,0.5-2.1,0.3l-2.2-0.5
					c-0.4-0.1-0.5-0.7-0.1-0.9l0.8-0.4C28.3,11.2,29,11.1,29.7,11.2"/>
			</g>
			<g>
				<path class="st0" d="M26.1,13.8l2.3,0.3c0.4,0.1,0.5,0.7,0.2,0.9l-0.7,0.5c-0.6,0.4-1.4,0.6-2.1,0.5l-2.3-0.3
					c-0.4-0.1-0.5-0.7-0.2-0.9l0.7-0.5C24.6,13.8,25.4,13.7,26.1,13.8"/>
			</g>
			<g>
				<path class="st0" d="M22.7,16.5l2.3,0.2c0.4,0,0.6,0.6,0.2,0.9l-0.7,0.5c-0.6,0.4-1.3,0.7-2,0.6l-2.3-0.2c-0.4,0-0.6-0.6-0.2-0.9
					l0.7-0.5C21.2,16.7,21.9,16.5,22.7,16.5"/>
			</g>
			<g>
				<path class="st0" d="M19.4,19.5h2.3c0.4,0,0.6,0.6,0.3,0.9L21.4,21c-0.6,0.5-1.3,0.8-2,0.8h-2.3c-0.4,0-0.6-0.6-0.3-0.9l0.7-0.6
					C18,19.8,18.7,19.5,19.4,19.5"/>
			</g>
			<g>
				<path class="st0" d="M16.4,22.8l2.3-0.2c0.4,0,0.7,0.5,0.4,0.9l-0.6,0.6c-0.5,0.5-1.2,0.8-1.9,0.9l-2.3,0.2
					c-0.4,0-0.7-0.6-0.4-0.9l0.6-0.6C15,23.1,15.7,22.8,16.4,22.8"/>
			</g>
			<g>
				<path class="st0" d="M13.7,26.2l2.3-0.3c0.4-0.1,0.7,0.5,0.4,0.8l-0.6,0.7c-0.5,0.6-1.1,0.9-1.9,1l-2.3,0.3
					c-0.4,0.1-0.7-0.5-0.4-0.8l0.6-0.7C12.3,26.7,12.9,26.3,13.7,26.2"/>
			</g>
			<g>
				<path class="st0" d="M11.1,29.8l2.2-0.5c0.4-0.1,0.7,0.4,0.5,0.8l-0.5,0.7c-0.4,0.6-1.1,1-1.8,1.1l-2.2,0.5
					c-0.4,0.1-0.7-0.4-0.5-0.8L9.4,31C9.8,30.4,10.4,30,11.1,29.8"/>
			</g>
			<g>
				<path class="st0" d="M8.9,33.6l2.2-0.6c0.4-0.1,0.8,0.4,0.5,0.8l-0.5,0.7c-0.4,0.6-1,1.1-1.7,1.3l-2.2,0.6
					c-0.4,0.1-0.8-0.4-0.5-0.8l0.5-0.7C7.6,34.2,8.2,33.8,8.9,33.6"/>
			</g>
			<g>
				<path class="st0" d="M6.9,37.5L9,36.7c0.4-0.2,0.8,0.3,0.6,0.7l-0.4,0.8c-0.4,0.7-0.9,1.1-1.6,1.4l-2.2,0.8
					c-0.4,0.2-0.8-0.3-0.6-0.7l0.4-0.8C5.6,38.3,6.2,37.8,6.9,37.5"/>
			</g>
			<g>
				<path class="st0" d="M5.2,41.6l2.1-0.9c0.4-0.2,0.8,0.3,0.6,0.7l-0.4,0.8c-0.3,0.7-0.8,1.2-1.5,1.5l-2.1,0.9
					c-0.4,0.2-0.8-0.3-0.6-0.7l0.4-0.8C4,42.4,4.5,41.9,5.2,41.6"/>
			</g>
			<g>
				<path class="st0" d="M3.7,45.8l2-1.1c0.4-0.2,0.8,0.2,0.7,0.6l-0.3,0.8c-0.3,0.7-0.8,1.3-1.4,1.6l-2,1.1C2.3,49,1.8,48.6,2,48.2
					l0.3-0.8C2.6,46.7,3.1,46.1,3.7,45.8"/>
			</g>
			<g>
				<path class="st0" d="M2.6,50l1.9-1.2c0.4-0.2,0.9,0.2,0.7,0.6L5,50.2c-0.2,0.7-0.7,1.3-1.3,1.7l-2,1.2C1.4,53.4,0.9,53,1,52.5
					l0.3-0.8C1.5,51,2,50.4,2.6,50"/>
			</g>
			<g>
				<path class="st0" d="M1.7,54.3L3.6,53c0.4-0.3,0.9,0.1,0.8,0.6l-0.2,0.8C4,55.1,3.6,55.7,3,56.2l-1.9,1.3
					c-0.4,0.3-0.9-0.1-0.8-0.5l0.2-0.9C0.8,55.4,1.2,54.8,1.7,54.3"/>
			</g>
			<g>
				<path class="st0" d="M1.2,58.7L3,57.2c0.3-0.3,0.9,0.1,0.8,0.5l-0.1,0.9c-0.1,0.7-0.5,1.4-1,1.9L0.9,62c-0.3,0.3-0.9,0-0.8-0.5
					l0.1-0.9C0.3,59.8,0.7,59.2,1.2,58.7"/>
			</g>
			<g>
				<path class="st0" d="M1,63.1l1.7-1.6c0.3-0.3,0.9,0,0.8,0.4l-0.1,0.9c-0.1,0.7-0.4,1.4-0.9,1.9l-1.7,1.6c-0.3,0.3-0.9,0-0.8-0.4
					L0.1,65C0.1,64.3,0.5,63.6,1,63.1"/>
			</g>
			<g>
				<path class="st0" d="M1.1,67.5l1.5-1.7c0.3-0.3,0.9-0.1,0.9,0.4v0.9c0,0.7-0.3,1.4-0.8,2l-1.5,1.7c-0.3,0.3-0.9,0.1-0.9-0.4v-0.9
					C0.3,68.8,0.6,68.1,1.1,67.5"/>
			</g>
			<g>
				<path class="st0" d="M1.5,71.9l1.4-1.8c0.3-0.3,0.9-0.1,0.9,0.3v0.9c0,0.7-0.2,1.5-0.6,2l-1.4,1.8c-0.3,0.3-0.9,0.1-0.9-0.3v-0.9
					C0.8,73.2,1,72.5,1.5,71.9"/>
			</g>
			<g>
				<path class="st0" d="M2.2,76.3l1.3-1.9c0.2-0.4,0.9-0.2,0.9,0.3l0.1,0.9c0,0.6-0.1,1.4-0.5,2l-1.3,1.9c-0.2,0.4-0.9,0.2-0.9-0.3
					l-0.1-0.9C1.6,77.6,1.7,76.9,2.2,76.3"/>
			</g>
			<g>
				<path class="st0" d="M3.1,80.6l1.1-2c0.2-0.4,0.8-0.3,0.9,0.2l0.2,0.9c0.1,0.7,0,1.5-0.3,2.1l-1.1,2C3.7,84.1,3.1,84,3,83.5
					l-0.2-0.9C2.7,81.9,2.8,81.2,3.1,80.6"/>
			</g>
			<g>
				<path class="st0" d="M4.4,84.8l1-2.1c0.2-0.4,0.8-0.3,0.9,0.1l0.2,0.8c0.2,0.7,0.1,1.5-0.2,2.1l-1,2.1c-0.2,0.4-0.8,0.3-0.9-0.1
					l-0.2-0.8C4.1,86.2,4.1,85.4,4.4,84.8"/>
			</g>
			<g>
				<path class="st0" d="M6,88.9l0.9-2.1c0.2-0.4,0.8-0.4,0.9,0.1l0.3,0.8c0.2,0.7,0.2,1.5,0,2.1l-0.9,2.1c-0.2,0.4-0.8,0.4-0.9-0.1
					L6,91C5.7,90.3,5.8,89.6,6,88.9"/>
			</g>
			<g>
				<path class="st0" d="M7.9,92.9l0.7-2.2c0.1-0.4,0.8-0.4,0.9,0l0.3,0.8c0.3,0.7,0.3,1.4,0.1,2.1l-0.7,2.2c-0.1,0.4-0.8,0.4-0.9,0
					L8,95C7.7,94.3,7.7,93.6,7.9,92.9"/>
			</g>
			<g>
				<path class="st0" d="M10,96.8l0.6-2.2c0.1-0.4,0.7-0.5,0.9-0.1l0.4,0.8c0.3,0.7,0.4,1.4,0.2,2.1l-0.6,2.2
					c-0.1,0.4-0.7,0.5-0.9,0.1l-0.4-0.8C10,98.2,9.9,97.5,10,96.8"/>
			</g>
			<g>
				<path class="st0" d="M12.4,100.4l0.4-2.3c0.1-0.4,0.7-0.5,0.9-0.1l0.4,0.8c0.4,0.6,0.5,1.4,0.4,2.1l-0.4,2.3
					c-0.1,0.4-0.7,0.5-0.9,0.1l-0.4-0.7C12.5,101.9,12.3,101.2,12.4,100.4"/>
			</g>
			<g>
				<path class="st0" d="M15.1,104l0.2-2.3c0-0.4,0.7-0.6,0.9-0.2l0.5,0.7c0.4,0.6,0.6,1.3,0.5,2.1l-0.2,2.3c0,0.4-0.7,0.6-0.9,0.2
					l-0.5-0.7C15.2,105.4,15,104.7,15.1,104"/>
			</g>
			<g>
				<path class="st0" d="M18,107.3l0.1-2.3c0-0.4,0.6-0.6,0.9-0.3l0.5,0.7c0.5,0.6,0.7,1.3,0.7,2l-0.1,2.3c0,0.4-0.6,0.6-0.9,0.3
					l-0.5-0.7C18.2,108.7,18,108,18,107.3"/>
			</g>
			<g>
				<path class="st0" d="M21.1,110.4l-0.1-2.3c0-0.4,0.6-0.7,0.9-0.3l0.6,0.6c0.5,0.5,0.8,1.2,0.8,2l0.1,2.3c0,0.4-0.6,0.7-0.9,0.3
					l-0.6-0.6C21.4,111.8,21.1,111.1,21.1,110.4"/>
			</g>
			<g>
				<path class="st0" d="M24.5,113.3l-0.2-2.3c0-0.4,0.5-0.7,0.9-0.4l0.6,0.6c0.5,0.5,0.9,1.2,1,1.9l0.2,2.3c0,0.4-0.5,0.7-0.9,0.4
					l-0.6-0.6C24.9,114.7,24.5,114,24.5,113.3"/>
			</g>
			<g>
				<path class="st0" d="M28,115.9l-0.4-2.3c-0.1-0.4,0.5-0.7,0.8-0.4l0.7,0.5c0.6,0.5,1,1.1,1.1,1.8l0.4,2.3
					c0.1,0.4-0.5,0.7-0.8,0.4l-0.7-0.6C28.5,117.3,28.1,116.7,28,115.9"/>
			</g>
			<g>
				<path class="st0" d="M31.7,118.3l-0.6-2.2c-0.1-0.4,0.4-0.8,0.8-0.5l0.7,0.5c0.6,0.4,1,1,1.2,1.7l0.6,2.2
					c0.1,0.4-0.4,0.8-0.8,0.5l-0.7-0.5C32.3,119.7,31.9,119,31.7,118.3"/>
			</g>
			<g>
				<path class="st0" d="M35.5,120.5l-0.7-2.2c-0.1-0.4,0.4-0.8,0.8-0.6l0.7,0.5c0.6,0.4,1.1,1,1.3,1.7l0.7,2.2
					c0.1,0.4-0.4,0.8-0.8,0.6l-0.7-0.5C36.2,121.7,35.8,121.2,35.5,120.5"/>
			</g>
			<g>
				<path class="st0" d="M39.5,122.3l-0.9-2.1c-0.2-0.4,0.3-0.8,0.7-0.6l0.8,0.4c0.7,0.3,1.2,0.9,1.4,1.6l0.9,2.1
					c0.2,0.4-0.3,0.8-0.7,0.6l-0.8-0.4C40.3,123.6,39.8,123,39.5,122.3"/>
			</g>
			<g>
				<path class="st0" d="M43.7,123.9l-1-2.1c-0.2-0.4,0.3-0.8,0.7-0.7l0.8,0.3c0.7,0.3,1.2,0.8,1.5,1.5l1,2.1
					c0.2,0.4-0.3,0.8-0.7,0.7l-0.8-0.3C44.5,125.1,44,124.6,43.7,123.9"/>
			</g>
			<g>
				<path class="st0" d="M47.9,125.2l-1.1-2c-0.2-0.4,0.2-0.8,0.6-0.7l0.8,0.3c0.7,0.2,1.3,0.7,1.6,1.3l1.1,2
					c0.2,0.4-0.2,0.8-0.6,0.7l-0.8-0.3C48.8,126.3,48.2,125.8,47.9,125.2"/>
			</g>
			<g>
				<path class="st0" d="M52.2,126.2l-1.3-1.9c-0.2-0.4,0.1-0.9,0.6-0.7l0.8,0.2c0.7,0.2,1.3,0.6,1.7,1.2l1.3,1.9
					c0.2,0.4-0.1,0.9-0.6,0.7l-0.8-0.2C53.2,127.2,52.6,126.8,52.2,126.2"/>
			</g>
			<g>
				<path class="st0" d="M56.5,126.9l-1.4-1.8c-0.3-0.3,0.1-0.9,0.5-0.8l0.9,0.2c0.7,0.1,1.4,0.5,1.8,1.1l1.4,1.8
					c0.3,0.3-0.1,0.9-0.5,0.8l-0.9-0.2C57.6,127.8,57,127.4,56.5,126.9"/>
			</g>
			<g>
				<path class="st0" d="M60.9,127.2l-1.5-1.7c-0.3-0.3,0-0.9,0.5-0.8l0.9,0.1c0.7,0.1,1.4,0.4,1.9,1l1.5,1.7c0.3,0.3,0,0.9-0.5,0.8
					l-0.9-0.1C62.1,128.1,61.4,127.8,60.9,127.2"/>
			</g>
			<g>
				<path class="st0" d="M65.3,127.3l-1.7-1.6c-0.3-0.3,0-0.9,0.4-0.8l0.9,0.1c0.7,0,1.4,0.3,2,0.8l1.7,1.6c0.3,0.3,0,0.9-0.4,0.8
					h-0.9C66.5,128.1,65.9,127.8,65.3,127.3"/>
			</g>
			<g>
				<path class="st0" d="M69.7,127.1l-1.8-1.5c-0.3-0.3-0.1-0.9,0.3-0.9h0.9c0.7,0,1.5,0.2,2,0.7l1.8,1.5c0.3,0.3,0.1,0.9-0.4,0.9
					h-0.9C71,127.8,70.3,127.5,69.7,127.1"/>
			</g>
			<g>
				<path class="st0" d="M74.1,126.5l-1.9-1.4c-0.4-0.3-0.2-0.9,0.3-0.9l0.9-0.1c0.7-0.1,1.5,0.1,2,0.6l1.9,1.3
					c0.4,0.3,0.2,0.9-0.3,0.9l-0.9,0.1C75.4,127.2,74.7,127,74.1,126.5"/>
			</g>
			<g>
				<path class="st0" d="M78.4,125.7l-1.9-1.2c-0.4-0.2-0.2-0.8,0.2-0.9l0.9-0.1c0.7-0.1,1.5,0,2.1,0.4l1.9,1.2
					c0.4,0.2,0.2,0.8-0.2,0.9l-0.9,0.1C79.8,126.2,79.1,126.1,78.4,125.7"/>
			</g>
			<g>
				<path class="st0" d="M82.7,124.6l-2-1.1c-0.4-0.2-0.3-0.8,0.2-0.9l0.8-0.2c0.7-0.2,1.5-0.1,2.1,0.3l2,1.1
					c0.4,0.2,0.3,0.8-0.2,0.9l-0.9,0.2C84.1,125,83.3,124.9,82.7,124.6"/>
			</g>
			<g>
				<path class="st0" d="M86.9,123.1l-2.1-0.9c-0.4-0.2-0.3-0.8,0.1-0.9l0.8-0.3c0.7-0.2,1.5-0.2,2.1,0.1l2.1,0.9
					c0.4,0.2,0.3,0.8-0.1,0.9l-0.8,0.3C88.3,123.4,87.5,123.4,86.9,123.1"/>
			</g>
			<g>
				<path class="st0" d="M90.9,121.4l-2.2-0.8c-0.4-0.1-0.4-0.8,0-0.9l0.8-0.3c0.7-0.3,1.4-0.3,2.1,0l2.2,0.8c0.4,0.1,0.4,0.8,0,0.9
					l-0.8,0.3C92.4,121.6,91.6,121.6,90.9,121.4"/>
			</g>
			<g>
				<path class="st0" d="M94.9,119.4l-2.2-0.6c-0.4-0.1-0.4-0.7,0-0.9l0.8-0.4c0.7-0.3,1.4-0.4,2.1-0.2l2.2,0.6
					c0.4,0.1,0.4,0.7,0,0.9l-0.8,0.4C96.3,119.5,95.6,119.6,94.9,119.4"/>
			</g>
			<g>
				<path class="st0" d="M98.6,117.1l-2.2-0.5c-0.4-0.1-0.5-0.7-0.1-0.9l0.8-0.4c0.7-0.4,1.4-0.5,2.1-0.3l2.2,0.5
					c0.4,0.1,0.5,0.7,0.1,0.9l-0.8,0.4C100.1,117.1,99.3,117.3,98.6,117.1"/>
			</g>
			<g>
				<path class="st0" d="M102.3,114.6l-2.3-0.3c-0.4-0.1-0.5-0.7-0.2-0.9l0.7-0.5c0.6-0.4,1.4-0.6,2.1-0.5l2.3,0.3
					c0.4,0.1,0.5,0.7,0.2,0.9l-0.7,0.5C103.7,114.5,103,114.7,102.3,114.6"/>
			</g>
			<g>
				<path class="st0" d="M105.7,111.8l-2.3-0.2c-0.4,0-0.6-0.6-0.2-0.9l0.7-0.5c0.6-0.4,1.3-0.7,2-0.6l2.3,0.2c0.4,0,0.6,0.6,0.2,0.9
					l-0.7,0.5C107.1,111.6,106.4,111.8,105.7,111.8"/>
			</g>
			<g>
				<polygon class="st0" points="58.7,13.5 62.1,11.1 60.8,7.2 64.1,9.6 67.5,7.1 66.2,11.1 69.6,13.5 65.5,13.5 64.2,17.5 
					62.9,13.5 			"/>
			</g>
			<g>
				<polygon class="st0" points="39.8,19.5 42,15.9 39.2,12.8 43.3,13.8 45.4,10.2 45.7,14.3 49.8,15.3 46,16.9 46.3,21 43.6,17.9 
								"/>
			</g>
			<g>
				<polygon class="st0" points="24.5,32.2 25.2,28.1 21.5,26.2 25.6,25.6 26.2,21.5 28.1,25.2 32.2,24.5 29.2,27.4 31.1,31.1 
					27.5,29.2 			"/>
			</g>
			<g>
				<polygon class="st0" points="15.3,49.8 14.4,45.8 10.2,45.5 13.7,43.3 12.8,39.3 15.9,42 19.4,39.8 17.8,43.6 21,46.3 16.9,45.9 
								"/>
			</g>
			<g>
				<polygon class="st0" points="13.5,69.6 11.1,66.2 7.2,67.5 9.6,64.2 7.1,60.8 11.1,62.1 13.5,58.7 13.5,62.9 17.5,64.2 
					13.5,65.4 			"/>
			</g>
			<g>
				<polygon class="st0" points="19.5,88.6 15.9,86.4 12.8,89.1 13.8,85.1 10.2,82.9 14.3,82.6 15.3,78.5 16.9,82.4 21,82 17.9,84.7 
								"/>
			</g>
			<g>
				<polygon class="st0" points="32.2,103.8 28.1,103.1 26.2,106.9 25.6,102.8 21.5,102.1 25.2,100.3 24.5,96.2 27.4,99.1 31.1,97.2 
					29.2,100.9 			"/>
			</g>
			<g>
				<polygon class="st0" points="49.8,113 45.8,114 45.5,118.1 43.3,114.6 39.3,115.6 42,112.4 39.8,108.9 43.6,110.5 46.3,107.3 
					45.9,111.4 			"/>
			</g>
			<g>
				<polygon class="st0" points="69.6,114.8 66.2,117.2 67.5,121.2 64.2,118.7 60.8,121.2 62.1,117.3 58.7,114.8 62.9,114.8 
					64.2,110.9 65.4,114.8 			"/>
			</g>
			<g>
				<polygon class="st0" points="88.6,108.9 86.4,112.4 89.1,115.5 85.1,114.6 82.9,118.1 82.6,114 78.5,113 82.4,111.5 82,107.3 
					84.7,110.5 			"/>
			</g>
			<g>
				<polygon class="st0" points="103.8,96.1 103.1,100.2 106.9,102.1 102.8,102.7 102.1,106.8 100.3,103.2 96.2,103.8 99.1,100.9 
					97.2,97.2 100.9,99.1 			"/>
			</g>
			<g>
				<polygon class="st0" points="113,78.5 114,82.6 118.1,82.9 114.6,85 115.6,89.1 112.4,86.4 108.9,88.6 110.5,84.7 107.3,82 
					111.4,82.4 			"/>
			</g>
			<g>
				<polygon class="st0" points="114.8,58.7 117.2,62.1 121.2,60.8 118.7,64.1 121.2,67.5 117.3,66.2 114.8,69.6 114.8,65.5 
					110.9,64.2 114.8,62.9 			"/>
			</g>
			<g>
				<polygon class="st0" points="108.9,39.8 112.4,42 115.5,39.2 114.6,43.3 118.1,45.4 114,45.7 113,49.8 111.5,46 107.3,46.3 
					110.5,43.6 			"/>
			</g>
			<g>
				<polygon class="st0" points="96.1,24.5 100.2,25.2 102.1,21.5 102.7,25.6 106.8,26.2 103.2,28.1 103.8,32.2 100.9,29.2 
					97.2,31.1 99.1,27.5 			"/>
			</g>
			<g>
				<polygon class="st0" points="78.5,15.3 82.6,14.4 82.9,10.2 85,13.7 89.1,12.8 86.4,15.9 88.6,19.4 84.7,17.8 82,21 82.4,16.9 
								"/>
			</g>
			<g>
				<path class="st0" d="M64.2,32.4c-17.5,0-31.7,14.2-31.7,31.7s14.2,31.7,31.7,31.7s31.7-14.2,31.7-31.7
					C95.9,46.7,81.7,32.4,64.2,32.4 M64.2,96.9c-18,0-32.7-14.7-32.7-32.7s14.7-32.7,32.7-32.7s32.7,14.7,32.7,32.7
					C96.9,82.2,82.2,96.9,64.2,96.9"/>
			</g>
			<g>
				<path class="st0" d="M64.2,21.1c-23.7,0-43,19.3-43,43s19.3,43,43,43s43-19.3,43-43S87.9,21.1,64.2,21.1 M64.2,108.2
					c-24.3,0-44-19.7-44-44s19.7-44,44-44s44,19.7,44,44C108.2,88.4,88.4,108.2,64.2,108.2"/>
			</g>
			<g>
				<polygon class="st0" points="52,101.6 53.3,102 53,103 49.1,101.7 49.4,100.7 50.8,101.2 52.2,97.1 53.4,97.5 			"/>
			</g>
			<g>
				<path class="st0" d="M46.4,101.4c-0.1,0.3-0.5,0.4-0.7,0.2c-0.3-0.1-0.4-0.5-0.2-0.7c0.1-0.3,0.4-0.4,0.7-0.2
					C46.5,100.8,46.6,101.1,46.4,101.4 M45,100.6c-0.1,0.3-0.5,0.4-0.7,0.2c-0.3-0.1-0.4-0.5-0.2-0.7c0.1-0.3,0.4-0.4,0.7-0.2
					C45,100,45.1,100.3,45,100.6 M46.5,100.5l1.4-2.7c0.4-0.8,0.3-1.4-0.2-1.7c-0.6-0.3-1.1-0.1-1.5,0.8l-1.4,2.7L43.7,99l1.4-2.7
					c0.8-1.5,1.9-1.8,3.1-1.1c1.2,0.6,1.6,1.7,0.8,3.2l-1.4,2.7L46.5,100.5z"/>
			</g>
			<g>
				<path class="st0" d="M42.3,95.2l-0.4-0.3c-0.5-0.4-1-0.3-1.2,0.1c-0.3,0.4-0.2,0.8,0.3,1.1c0.2,0.2,0.4,0.3,0.5,0.3L42.3,95.2z
					 M41.9,97.8c-0.4-0.2-0.8-0.5-1.4-0.9c-0.6-0.5-1-0.9-1.2-1.4c-0.1-0.4,0-0.8,0.3-1.2c0.4-0.6,1.1-0.6,1.5-0.5l0,0
					c-0.2-0.3-0.2-0.8,0-1.2c0.2-0.6,0.5-1.3,0.5-1.5l1,0.7c0,0.2-0.2,0.6-0.4,1.2c-0.3,0.6-0.2,0.9,0.2,1.2l0.3,0.2l1.2-1.7l1,0.7
					L41.9,97.8z"/>
			</g>
			<g>
				<path class="st0" d="M37.3,94.3l-0.9-0.8l1.7-1.7l0,0c-0.2,0.1-0.5,0.1-0.7,0.2l-2.1,0.4l-1.1-1l2.9-0.4l0.8-3.5l1,1L38.2,91
					l0.7-0.1l1.2-1.2l0.9,0.8L37.3,94.3z"/>
			</g>
			<g>
				<path class="st0" d="M32.5,89.2l4.2-3.4l0.8,0.9l-4.2,3.4L32.5,89.2z M32.6,90.6c-0.2,0.2-0.6,0.2-0.8-0.1
					c-0.2-0.2-0.2-0.6,0.1-0.8c0.2-0.2,0.6-0.2,0.8,0.1C32.8,90.1,32.8,90.4,32.6,90.6"/>
			</g>
			<g>
				<path class="st0" d="M35.1,83.7l-1.8,1.2L31.5,88l-0.8-1.2l0.8-1.2c0.2-0.4,0.4-0.6,0.6-0.9l0,0c-0.3,0.1-0.7,0.1-1.1,0.2
					l-1.4,0.2l-0.6-1l3.6-0.2l1.9-1.2L35.1,83.7z"/>
			</g>
			<g>
				<polygon class="st0" points="29.7,78.5 30.6,80.3 31.7,79.7 30.8,77.7 31.7,77.3 33.1,80.4 28.3,82.7 26.9,79.7 27.8,79.2 
					28.7,81.1 29.7,80.7 28.8,78.9 			"/>
			</g>
			<g>
				<path class="st0" d="M29.6,70.9c0.2,0.2,0.4,0.6,0.6,1.3c0.5,1.8-0.4,3-1.9,3.4c-1.8,0.5-3.1-0.6-3.5-2.1
					c-0.2-0.6-0.1-1.1-0.1-1.3h1c0,0.3,0,0.6,0.1,1c0.2,0.9,1,1.5,2.1,1.2c1-0.3,1.5-1,1.3-2.1c-0.1-0.4-0.3-0.7-0.4-0.9L29.6,70.9z"
					/>
			</g>
			<g>
				<path class="st0" d="M24.1,69.2l3.1-0.3c0.9-0.1,1.3-0.5,1.3-1.1C28.4,67.2,28,66.9,27,67l-3.1,0.3L23.8,66l3-0.3
					c1.6-0.2,2.5,0.6,2.6,2c0.1,1.3-0.5,2.2-2.2,2.4l-3,0.3L24.1,69.2z"/>
			</g>
			<g>
				<path class="st0" d="M27.4,59.6c-0.6,0-1.4-0.1-2.2-0.1l0,0c0.7,0.2,1.4,0.5,2,0.8l2,0.8l0,0.9l-2.1,0.4
					c-0.6,0.1-1.4,0.2-2.1,0.3l0,0c0.7,0.1,1.5,0.2,2.2,0.3l2,0.3l-0.1,1.1l-5.3-0.8l0.1-1.6l1.8-0.4c0.6-0.1,1.3-0.2,1.9-0.3l0,0
					c-0.6-0.2-1.3-0.4-1.9-0.7L24,59.9l0.1-1.6l5.4,0.1l-0.1,1.2L27.4,59.6z"/>
			</g>
			<g>
				<polygon class="st0" points="24.9,54.7 26.9,55.3 27.4,53.4 25.4,52.8 25.8,51.7 30.9,53 30.6,54.2 28.5,53.6 27.9,55.6 
					30.1,56.1 29.8,57.3 24.6,55.9 			"/>
			</g>
			<g>
				<path class="st0" d="M27,48.5l2.8,1.3c0.8,0.4,1.4,0.3,1.7-0.3c0.3-0.6,0-1.1-0.9-1.5l-2.8-1.3l0.5-1.1l2.7,1.2
					c1.5,0.7,1.9,1.8,1.3,3c-0.6,1.2-1.6,1.6-3.1,0.9l-2.7-1.2L27,48.5z"/>
			</g>
			<g>
				<path class="st0" d="M32,44l0.3-0.4c0.3-0.5,0.3-1-0.1-1.2c-0.4-0.3-0.8-0.1-1.1,0.3c-0.2,0.2-0.2,0.4-0.3,0.5L32,44z M29.4,43.8
					c0.2-0.4,0.4-0.9,0.8-1.4c0.4-0.7,0.8-1.1,1.3-1.2c0.4-0.1,0.8-0.1,1.2,0.2c0.6,0.4,0.7,1,0.6,1.5l0,0c0.3-0.2,0.7-0.2,1.2-0.1
					c0.6,0.2,1.3,0.4,1.5,0.5l-0.7,1c-0.2,0-0.6-0.1-1.3-0.4c-0.6-0.2-0.9-0.2-1.2,0.3l-0.2,0.3l1.8,1.1l-0.7,1L29.4,43.8z"/>
			</g>
			<g>
				<path class="st0" d="M33.4,38.2l4.1,3.4l-0.8,0.9l-4.1-3.4L33.4,38.2z M32,38.5c-0.2-0.2-0.3-0.5-0.1-0.8
					c0.2-0.2,0.5-0.3,0.8-0.1c0.2,0.2,0.3,0.5,0.1,0.8C32.5,38.7,32.2,38.7,32,38.5"/>
			</g>
			<g>
				<path class="st0" d="M39.2,39.6L37.7,38l-3.4-1l1-1l1.3,0.5c0.4,0.2,0.7,0.3,1,0.4l0,0c-0.1-0.3-0.3-0.6-0.4-1l-0.5-1.3l1-1
					l0.9,3.5l1.6,1.6L39.2,39.6z"/>
			</g>
			<g>
				<polygon class="st0" points="43.2,33.3 41.7,34.5 42.4,35.5 44.2,34.2 44.8,35 42,37.1 38.8,32.8 41.5,30.8 42.1,31.6 40.4,32.8 
					41.1,33.7 42.7,32.5 			"/>
			</g>
			<g>
				<polygon class="st0" points="44.5,30.1 43.3,30.8 42.8,29.9 46.4,27.9 46.9,28.8 45.6,29.5 47.7,33.3 46.6,33.9 			"/>
			</g>
			<g>
				<path class="st0" d="M48.9,26.9l2.1,4.9l-1.1,0.5l-2.1-4.9L48.9,26.9z M47.5,26.5c-0.1-0.3,0-0.6,0.3-0.7s0.6,0,0.7,0.3
					c0.1,0.3,0,0.6-0.3,0.7S47.6,26.8,47.5,26.5"/>
			</g>
			<g>
				<path class="st0" d="M58.1,29.4c-0.3,0.2-1,0.5-1.7,0.7c-1,0.2-1.7,0.2-2.3-0.2c-0.6-0.3-1-1-1.2-1.7c-0.4-1.7,0.6-3,2.3-3.4
					c0.7-0.2,1.2-0.2,1.5-0.1v1c-0.3-0.1-0.7-0.1-1.3,0.1c-1,0.2-1.6,1-1.3,2.1s1.1,1.5,2,1.3c0.3-0.1,0.5-0.1,0.6-0.2l-0.3-1.1
					l-0.8,0.2l-0.2-0.9l1.9-0.5L58.1,29.4z"/>
			</g>
			<g>
				<polygon class="st0" points="62.4,27 60.5,27.1 60.6,28.4 62.8,28.2 62.9,29.2 59.5,29.5 59,24.2 62.3,23.9 62.4,24.9 60.3,25 
					60.4,26.2 62.4,26 			"/>
			</g>
			<g>
				<path class="st0" d="M64,29.2l0.3-5.4l1.4,0.1l1,2c0.3,0.6,0.6,1.3,0.8,1.9l0,0c0-0.7,0-1.4,0-2.2l0.1-1.6l1.1,0.1l-0.3,5.4
					l-1.3-0.1l-1-2.1c-0.3-0.6-0.6-1.3-0.8-1.9l0,0c0,0.7,0,1.5-0.1,2.3l-0.1,1.6L64,29.2z"/>
			</g>
			<g>
				<path class="st0" d="M73.6,30.3c-0.2,0.1-0.7,0.1-1.3,0l-0.2,0.2c0.3,0.1,0.5,0.4,0.4,0.8c-0.1,0.5-0.6,0.6-1.1,0.5
					c-0.2-0.1-0.5-0.2-0.6-0.3l0.3-0.4c0.1,0.1,0.3,0.2,0.4,0.2c0.2,0,0.3,0,0.3-0.1c0-0.2-0.1-0.3-0.5-0.4l0.4-0.6
					c-1.4-0.5-2-1.7-1.7-3.1c0.4-1.8,1.9-2.5,3.5-2.2c0.6,0.1,1.1,0.4,1.2,0.5l-0.4,0.9c-0.2-0.2-0.5-0.3-1-0.4
					c-0.9-0.2-1.8,0.2-2,1.4c-0.2,1,0.3,1.8,1.3,2.1c0.4,0.1,0.8,0.1,1,0L73.6,30.3z"/>
			</g>
			<g>
				<polygon class="st0" points="76.4,25.7 77.5,26.1 76.1,30.2 78.1,30.9 77.7,31.9 74.6,30.8 			"/>
			</g>
			<g>
				<path class="st0" d="M81.4,26.8c0.1-0.3,0.5-0.4,0.7-0.3c0.3,0.1,0.4,0.4,0.2,0.7c-0.1,0.3-0.4,0.4-0.7,0.3S81.2,27,81.4,26.8
					 M82,28l-2.3,4.8l-1.1-0.5l2.3-4.8L82,28z"/>
			</g>
			<g>
				<path class="st0" d="M83.8,28.9l1,0.6l-1.3,2l0,0c0.2-0.1,0.4-0.2,0.6-0.3l2-0.9l1.3,0.8l-2.7,1v3.6L83.5,35l0.1-2.7l-0.7,0.2
					L82,34.1l-1-0.6L83.8,28.9z"/>
			</g>
			<g>
				<path class="st0" d="M87.5,38.2l2.4-5.1l1,0.9l-1.1,2.1c-0.3,0.6-0.6,1.1-1,1.7l0,0c0.5-0.4,1.1-0.7,1.6-1l2.1-1.2l0.9,0.9
					l-5,2.7L87.5,38.2z"/>
			</g>
			<g>
				<polygon class="st0" points="94.2,42.1 93,40.6 92,41.4 93.3,43.1 92.6,43.7 90.4,41.1 94.6,37.7 96.7,40.3 95.9,40.9 94.6,39.3 
					93.7,40 95,41.5 			"/>
			</g>
			<g>
				<path class="st0" d="M95.2,45.5c0,0.4,0.1,0.9,0.3,1.3c0.3,0.5,0.6,0.6,0.9,0.5c0.3-0.2,0.3-0.5,0.2-1.2c-0.2-0.9,0-1.7,0.7-2
					c0.8-0.4,1.8-0.1,2.4,1c0.3,0.5,0.4,1,0.4,1.3l-1,0.2c0-0.2-0.1-0.6-0.3-1.1c-0.2-0.5-0.6-0.6-0.8-0.4c-0.3,0.2-0.3,0.5-0.2,1.2
					c0.1,1-0.1,1.6-0.7,2c-0.8,0.4-1.8,0.2-2.5-1.1c-0.3-0.5-0.4-1.1-0.4-1.5L95.2,45.5z"/>
			</g>
			<g>
				<path class="st0" d="M99.3,50.2c0,0.1,0.1,0.2,0.1,0.4c0.2,0.6,0.7,0.9,1.2,0.7s0.6-0.6,0.4-1.2c-0.1-0.2-0.2-0.4-0.2-0.5
					L99.3,50.2z M101.2,48.3c0.2,0.3,0.4,0.8,0.7,1.5c0.3,0.7,0.3,1.2,0.2,1.7c-0.1,0.4-0.5,0.8-1,1s-1,0.2-1.4,0
					c-0.5-0.2-0.9-0.8-1.1-1.4c-0.1-0.1-0.1-0.3-0.1-0.4l-1.8,0.7l-0.4-1.1L101.2,48.3z"/>
			</g>
			<g>
				<path class="st0" d="M100.7,55.2c-1,0.2-1.6,0.8-1.5,1.6c0.2,0.8,1,1.1,2,0.9c0.9-0.2,1.7-0.8,1.5-1.6
					C102.6,55.3,101.7,55,100.7,55.2 M101.6,58.9c-1.7,0.4-3-0.5-3.3-2c-0.3-1.6,0.7-2.7,2.2-3c1.6-0.3,3,0.4,3.3,2
					C104,57.5,103,58.6,101.6,58.9"/>
			</g>
			<g>
				<path class="st0" d="M102,61.6v0.5c0,0.6,0.4,0.9,0.8,0.9c0.5,0,0.7-0.4,0.7-0.9c0-0.3,0-0.5-0.1-0.5H102z M104.3,60.3
					c0.1,0.4,0.2,1,0.2,1.6c0,0.8-0.1,1.4-0.3,1.8c-0.2,0.3-0.6,0.5-1.1,0.5c-0.7,0-1.2-0.4-1.4-0.9l0,0c-0.1,0.4-0.5,0.6-1,0.8
					c-0.6,0.2-1.3,0.4-1.5,0.5l-0.1-1.2c0.1-0.1,0.6-0.2,1.2-0.4c0.7-0.2,0.8-0.4,0.8-0.9v-0.4L99,61.8v-1.2L104.3,60.3z"/>
			</g>
			<g>
				<path class="st0" d="M102.1,68.9l-0.1,0.4c-0.1,0.6,0.1,1,0.5,1.1s0.7-0.2,0.7-0.8c0-0.3,0-0.4,0-0.5L102.1,68.9z M99.7,68.6
					c0,0.1-0.1,0.3-0.1,0.5c-0.1,0.5,0.1,1.1,0.6,1.1c0.5,0.1,0.8-0.4,0.9-1l0.1-0.4L99.7,68.6z M104.3,68c0,0.3,0,1-0.1,1.6
					c-0.1,0.7-0.2,1.2-0.5,1.5c-0.2,0.3-0.6,0.6-1.1,0.5s-0.9-0.4-1-1l0,0c-0.3,0.6-0.8,1-1.5,0.9c-0.5-0.1-0.8-0.3-1-0.7
					c-0.3-0.4-0.3-1.1-0.2-2.2c0.1-0.6,0.2-1,0.3-1.3L104.3,68z"/>
			</g>
			<g>
				<path class="st0" d="M99.7,75.3h1.2c0.3,0,0.7,0,1.1,0l0,0c-0.3-0.2-0.6-0.4-0.9-0.5l-1-0.6L99.7,75.3z M99.2,73.8L98,73l0.4-1.2
					l4.7,3.1l-0.5,1.5L97,76.5l0.4-1.2h1.4L99.2,73.8z"/>
			</g>
			<g>
				<path class="st0" d="M101.5,79.6l-0.5,1.1l-2.1-1l0,0c0.1,0.2,0.3,0.4,0.4,0.6l1.1,1.9l-0.6,1.3l-1.3-2.6l-3.6,0.4l0.6-1.3
					l2.7-0.2l-0.3-0.7l-1.6-0.7l0.5-1.1L101.5,79.6z"/>
			</g>
			<g>
				<path class="st0" d="M94.7,85.6l1.1,0.4c0.3,0.1,0.7,0.2,1,0.4l0,0c-0.2-0.2-0.5-0.5-0.7-0.8l-0.8-0.9L94.7,85.6z M94.7,83.9
					l-0.9-1.1l0.7-1l3.5,4.4l-0.9,1.3l-5.4-1.6l0.7-1.1l1.4,0.4L94.7,83.9z"/>
			</g>
			<g>
				<path class="st0" d="M91.1,86.6l3.9,3.7l-1,1l-2.2-0.5c-0.6-0.2-1.3-0.4-1.9-0.6l0,0c0.6,0.4,1.1,0.9,1.7,1.5l1.1,1.1L92,93.5
					l-3.9-3.7l0.9-0.9l2.3,0.6c0.6,0.2,1.4,0.4,2,0.6l0,0c-0.5-0.5-1.1-1-1.7-1.6l-1.2-1.1L91.1,86.6z"/>
			</g>
			<g>
				<polygon class="st0" points="90.4,94.8 89.4,95.6 86.7,92.2 85.1,93.5 84.4,92.7 87,90.6 			"/>
			</g>
			<g>
				
					<rect x="83.9" y="93.1" transform="matrix(0.8408 -0.5414 0.5414 0.8408 -38.4251 61.0025)" class="st0" width="1.2" height="5.4"/>
			</g>
			<g>
				<path class="st0" d="M82.6,101.5c-0.1-0.1-0.3-0.3-0.6-0.1c-0.3,0.1-0.3,0.4-0.3,0.5l-0.6,0.3c-0.2-0.5-0.1-1.1,0.6-1.4
					s1.2-0.1,1.4,0.4L82.6,101.5z M77.5,96.8c0.3-0.3,0.8-0.7,1.5-1.1c0.9-0.4,1.6-0.5,2.3-0.3c0.6,0.2,1.2,0.7,1.5,1.4
					c0.8,1.6,0.1,3.1-1.5,3.9c-0.6,0.3-1.2,0.4-1.5,0.4l-0.2-1c0.3,0,0.7-0.1,1.2-0.3c0.9-0.4,1.3-1.3,0.8-2.3s-1.4-1.3-2.3-0.8
					c-0.2,0.1-0.4,0.2-0.5,0.3l0.5,1l0.7-0.4l0.4,0.9l-1.8,0.9L77.5,96.8z"/>
			</g>
			<g>
				
					<rect x="75.9" y="97.1" transform="matrix(0.9449 -0.3273 0.3273 0.9449 -28.4456 30.5406)" class="st0" width="1.2" height="5.4"/>
			</g>
			<g>
				<path class="st0" d="M64.2,100.5c-0.9,0-1.5,0.7-1.5,1.5c0,0.9,0.7,1.5,1.5,1.5c0.9,0,1.5-0.7,1.5-1.5S65,100.5,64.2,100.5"/>
			</g>
			<g>
				<path class="st0" d="M62.9,36.6c2.9,0,5.5,1.6,6.9,3.9c-1.2-1.4-2.9-2.3-4.9-2.3c-3.5,0-6.3,2.8-6.3,6.3s2.8,6.3,6.3,6.3
					c2,0,3.7-0.9,4.9-2.3c-1.4,2.4-4,3.9-6.9,3.9c-4.4,0-8-3.6-8-8C54.9,40.2,58.5,36.6,62.9,36.6"/>
			</g>
			<g>
				<polygon class="st0" points="72.3,40.9 74,43.2 76.7,42.3 75,44.6 76.8,46.9 74,46.1 72.3,48.4 72.3,45.5 69.6,44.7 72.3,43.8 
								"/>
			</g>
			<g>
				<path class="st0" d="M61.4,70.2c-2.1,2.2-3.5,5.2-2,9.1c2.7,6.8,7.4,10.8,7.8,11.2c0,0-13.8-8.7-16.8-15.8
					c-1.9-4.5,1.1-7.5,5.4-8c0.7-0.1,1.4-0.2,2.3-0.2c0.2,0.4,0.4,0.9,0.7,1.3C58.9,68.1,59.7,69.2,61.4,70.2 M69.1,53
					c1.5,3.5,2.8,6.7,1.2,10c0,0-0.9,2.3-4.2,3.9c-0.5,0.2-1,0.5-1.6,0.9c-1.1-0.4-2-0.9-2.3-1.8c3.6-0.7,6.8-2.1,6-5.4
					c-0.3-1.4-0.6-2.2-1.7-3.7L69.1,53z M45,61c-0.2-2.9,2.1-5.4,5-5.6c2.9-0.2,5.4,2.1,5.6,5c0.2,2.9-2.1,5.4-5,5.6
					C47.6,66.2,45.1,63.9,45,61"/>
			</g>
			<g>
				<path class="st0" d="M72.8,62.4c0-2.9,2.4-5.3,5.3-5.3s5.3,2.4,5.3,5.3c0,2.9-2.4,5.3-5.3,5.3C75.2,67.7,72.8,65.3,72.8,62.4"/>
			</g>
			<g>
				<path class="st0" d="M74.4,68.9c-4.3,0.2-13.6,1.2-13.2-4.2c0.2-2.5,2.5-6.5,4.9-10.2c-1,0.3-2.1,0.5-3.3,0.5
					c-1.3,0-2.5-0.2-3.6-0.6c-1.1,3.9-2.2,9.6,0.2,13c0,0,1.3,2.1,4.8,3.2c3.5,1.1,10.1,4.1,8.5,11.3c-1.6,7.1-5.6,11.8-5.9,12.3
					c0,0,12.3-10.7,14.1-18.2C82.1,71.2,78.7,68.8,74.4,68.9"/>
			</g>
		</g>
	</g>
	
	<!-- Metin Satırı 1: Logonun altına ve ortaya taşındı -->
	<g transform="translate(-51, 115)">
		<g class="st1">
			<path class="st0" d="M142.5,37h4.4v8.7h0.1c0.4-0.8,0.9-1.5,1.4-2.2l4.5-6.6h5.5l-6.5,8.4l6.9,11.4h-5.2l-4.9-8.5l-1.7,2.1v6.5
				h-4.4V37z"/>
			<path class="st0" d="M160.5,37.3c1.4-0.2,3.6-0.4,6-0.4c2.9,0,5,0.4,6.4,1.6c1.2,0.9,1.8,2.3,1.8,4.2c0,2.5-1.8,4.2-3.5,4.8v0.1
				c1.4,0.6,2.1,1.8,2.6,3.7c0.6,2.3,1.2,4.8,1.6,5.6h-4.6c-0.3-0.6-0.8-2.2-1.4-4.6c-0.6-2.5-1.4-3.1-3.3-3.2H165v7.8h-4.4V37.3z
				 M165,45.8h1.8c2.2,0,3.6-1.1,3.6-2.8c0-1.8-1.2-2.7-3.3-2.7c-1.1,0-1.7,0.1-2,0.1V45.8z"/>
			<path class="st0" d="M189.7,48.5h-7.3v4.7h8.1v3.7H178V37h12.2v3.7h-7.7v4.1h7.3V48.5z"/>
			<path class="st0" d="M193.6,37.3c1.6-0.3,3.8-0.4,6-0.4c3.8,0,6.3,0.7,8.1,2.1c2.1,1.5,3.3,4,3.3,7.5c0,3.8-1.4,6.4-3.3,8
				c-2.1,1.7-5.3,2.6-9.2,2.6c-2.3,0-4-0.1-5.1-0.3V37.3z M198.1,53.4c0.4,0.1,1,0.1,1.6,0.1c4.1,0,6.8-2.2,6.8-6.9
				c0-4.1-2.4-6.3-6.3-6.3c-1,0-1.6,0.1-2,0.2V53.4z"/>
			<path class="st0" d="M218.5,37v19.8h-4.5V37H218.5z M214.3,33.9c0-1.1,0.9-2,2.1-2c1.1,0,2,0.9,2,2c0,1.1-0.9,2-2,2
				C215.2,35.9,214.3,35,214.3,33.9z"/>
			<path class="st0" d="M231.9,56.8L225.6,37h4.9l2.4,8.4c0.7,2.4,1.3,4.6,1.8,7.1h0.1c0.5-2.4,1.1-4.7,1.8-7l2.5-8.5h4.8l-6.7,19.8
				H231.9z"/>
			<path class="st0" d="M257.7,48.5h-7.3v4.7h8.1v3.7H246V37h12.2v3.7h-7.7v4.1h7.3V48.5z"/>
			<path class="st0" d="M270.9,56.8v-8.1L264.7,37h5.1l2,4.8c0.6,1.4,1.1,2.5,1.5,3.8h0.1c0.4-1.2,0.9-2.4,1.5-3.8l2-4.8h5l-6.5,11.5
				v8.2H270.9z"/>
			<path class="st0" d="M288.5,37v11.4c0,3.4,1.3,5.2,3.6,5.2c2.3,0,3.6-1.6,3.6-5.2V37h4.5v11.1c0,6.1-3.1,9-8.2,9
				c-5,0-7.9-2.8-7.9-9.1V37H288.5z"/>
			<path class="st0" d="M304.1,37.3c1.4-0.2,3.6-0.4,6-0.4c2.9,0,5,0.4,6.4,1.6c1.2,0.9,1.8,2.3,1.8,4.2c0,2.5-1.8,4.2-3.5,4.8v0.1
				c1.4,0.6,2.1,1.8,2.6,3.7c0.6,2.3,1.2,4.8,1.6,5.6h-4.6c-0.3-0.6-0.8-2.2-1.3-4.6c-0.6-2.5-1.4-3.1-3.3-3.2h-1.3v7.8h-4.4V37.3z
				 M308.5,45.8h1.8c2.2,0,3.6-1.1,3.6-2.8c0-1.8-1.2-2.7-3.3-2.7c-1.1,0-1.7,0.1-2,0.1V45.8z"/>
			<path class="st0" d="M325.3,40.8H320V37h15.2v3.8h-5.4v16h-4.5V40.8z"/>
			<path class="st0" d="M337.6,37h4.5v16h7.9v3.8h-12.3V37z"/>
			<path class="st0" d="M357.4,51.7l-1.4,5.1h-4.6l6-19.8h5.9l6.2,19.8h-4.8l-1.5-5.1H357.4z M362.4,48.4l-1.2-4.2
				c-0.4-1.2-0.7-2.6-1-3.8h-0.1c-0.3,1.2-0.6,2.7-0.9,3.8l-1.2,4.2H362.4z"/>
			<path class="st0" d="M372,37.3c1.4-0.2,3.6-0.4,6-0.4c2.9,0,5,0.4,6.4,1.6c1.2,0.9,1.8,2.3,1.8,4.2c0,2.5-1.8,4.2-3.5,4.8v0.1
				c1.4,0.6,2.1,1.8,2.6,3.7c0.6,2.3,1.2,4.8,1.6,5.6h-4.6c-0.3-0.6-0.8-2.2-1.4-4.6c-0.6-2.5-1.4-3.1-3.3-3.2h-1.3v7.8H372V37.3z
				 M376.4,45.8h1.8c2.2,0,3.6-1.1,3.6-2.8c0-1.8-1.2-2.7-3.3-2.7c-1.1,0-1.7,0.1-2,0.1V45.8z"/>
		</g>
	</g>
	
	<!-- Metin Satırı 2: Logonun ve 1. satırın altına, ortaya taşındı -->
	<g transform="translate(-60.5, 120)">
		<g class="st1">
			<path class="st0" d="M159,91.1c-1.4,0.5-4,1.1-6.6,1.1c-3.6,0-6.2-0.9-8-2.6c-1.8-1.7-2.8-4.3-2.8-7.2c0-6.6,4.8-10.3,11.3-10.3
				c2.6,0,4.5,0.5,5.5,0.9l-0.9,3.6c-1.1-0.5-2.4-0.9-4.6-0.9c-3.7,0-6.6,2.1-6.6,6.4c0,4.1,2.6,6.5,6.3,6.5c1,0,1.8-0.1,2.2-0.3
				v-4.2h-3.1v-3.5h7.4V91.1z"/>
			<path class="st0" d="M174.3,83.7H167v4.7h8.1V92h-12.6V72.2h12.2v3.7H167V80h7.3V83.7z"/>
			<path class="st0" d="M178.2,92V72.2h5.2l4.1,7.3c1.2,2.1,2.3,4.6,3.2,6.8h0.1c-0.3-2.6-0.4-5.3-0.4-8.3v-5.8h4.1V92h-4.7l-4.2-7.6
				c-1.2-2.1-2.5-4.7-3.4-7h-0.1c0.1,2.6,0.2,5.4,0.2,8.7v6H178.2z"/>
			<path class="st0" d="M210.2,83.7h-7.3v4.7h8.1V92h-12.6V72.2h12.2v3.7h-7.7V80h7.3V83.7z"/>
			<path class="st0" d="M214.2,72.2h4.5v16h7.9V92h-12.3V72.2z"/>
			<path class="st0" d="M251.8,84.4c-0.1-2.4-0.2-5.3-0.2-8.1h-0.1c-0.6,2.5-1.5,5.3-2.2,7.7l-2.4,7.7h-3.5l-2.1-7.6
				c-0.6-2.3-1.3-5.2-1.8-7.8h-0.1c-0.1,2.7-0.2,5.7-0.3,8.2l-0.4,7.5h-4.1l1.3-19.8h6l1.9,6.6c0.6,2.3,1.2,4.8,1.7,7.1h0.1
				c0.5-2.3,1.2-4.9,1.9-7.1l2.1-6.6h5.9l1.1,19.8h-4.3L251.8,84.4z"/>
			<path class="st0" d="M264.4,72.2v11.4c0,3.4,1.3,5.2,3.6,5.2c2.3,0,3.6-1.6,3.6-5.2V72.2h4.5v11.1c0,6.1-3.1,9-8.2,9
				c-5,0-7.9-2.8-7.9-9.1v-11H264.4z M263.1,69.1c0-1.1,0.9-2,2-2c1.1,0,1.9,0.9,1.9,2c0,1.1-0.8,2-2,2
				C264,71.1,263.1,70.2,263.1,69.1z M269.2,69.1c0-1.1,0.9-2,2-2c1.1,0,2,0.9,2,2c0,1.1-0.8,2-2,2C270,71.1,269.2,70.2,269.2,69.1z"
				/>
			<path class="st0" d="M279.9,72.5c1.6-0.3,3.8-0.4,6-0.4c3.8,0,6.3,0.7,8.1,2.1c2.1,1.5,3.3,4,3.3,7.5c0,3.8-1.4,6.4-3.3,8
				c-2.1,1.7-5.3,2.6-9.2,2.6c-2.3,0-4-0.1-5.1-0.3V72.5z M284.4,88.6c0.4,0.1,1,0.1,1.6,0.1c4.1,0,6.8-2.2,6.8-6.9
				c0-4.1-2.4-6.3-6.3-6.3c-1,0-1.6,0.1-2,0.2V88.6z"/>
			<path class="st0" d="M304.8,72.2v11.4c0,3.4,1.3,5.2,3.6,5.2c2.3,0,3.6-1.6,3.6-5.2V72.2h4.5v11.1c0,6.1-3.1,9-8.2,9
				c-5,0-7.9-2.8-7.9-9.1v-11H304.8z M303.5,69.1c0-1.1,0.9-2,2-2c1.1,0,1.9,0.9,1.9,2c0,1.1-0.8,2-2,2
				C304.4,71.1,303.5,70.2,303.5,69.1z M309.7,69.1c0-1.1,0.9-2,2-2c1.1,0,2,0.9,2,2c0,1.1-0.8,2-2,2
				C310.5,71.1,309.7,70.2,309.7,69.1z"/>
			<path class="st0" d="M320.4,72.5c1.4-0.2,3.6-0.4,6-0.4c2.9,0,5,0.4,6.4,1.6c1.2,0.9,1.8,2.3,1.8,4.2c0,2.5-1.8,4.2-3.5,4.8v0.1
				c1.4,0.6,2.1,1.8,2.6,3.7c0.6,2.3,1.2,4.8,1.6,5.6h-4.6c-0.3-0.6-0.8-2.2-1.3-4.6c-0.6-2.5-1.4-3.1-3.3-3.2h-1.3V92h-4.4V72.5z
				 M324.8,81h1.8c2.2,0,3.6-1.1,3.6-2.8c0-1.8-1.2-2.7-3.3-2.7c-1.1,0-1.7,0.1-2,0.1V81z"/>
			<path class="st0" d="M337.8,72.2h4.5v16h7.9V92h-12.3V72.2z"/>
			<path class="st0" d="M356.3,72.2v11.4c0,3.4,1.3,5.2,3.6,5.2c2.3,0,3.6-1.6,3.6-5.2V72.2h4.5v11.1c0,6.1-3.1,9-8.2,9
				c-5,0-7.9-2.8-7.9-9.1v-11H356.3z M355.1,69.1c0-1.1,0.9-2,2-2c1.1,0,1.9,0.9,1.9,2c0,1.1-0.8,2-2,2
				C356,71.1,355.1,70.2,355.1,69.1z M361.2,69.1c0-1.1,0.9-2,2-2c1.1,0,2,0.9,2,2c0,1.1-0.8,2-2,2C362,71.1,361.2,70.2,361.2,69.1z"
				/>
			<path class="st0" d="M388.4,91.1c-1.4,0.5-4,1.1-6.6,1.1c-3.6,0-6.2-0.9-8-2.6c-1.8-1.7-2.8-4.3-2.8-7.2c0-6.6,4.8-10.3,11.3-10.3
				c2.6,0,4.5,0.5,5.5,0.9l-0.9,3.6c-1.1-0.5-2.4-0.9-4.6-0.9c-3.7,0-6.6,2.1-6.6,6.4c0,4.1,2.6,6.5,6.3,6.5c1,0,1.8-0.1,2.2-0.3
				v-4.2H381v-3.5h7.4V91.1z M379.3,67.3c0.1,0.6,0.5,1.4,1.7,1.4c1.2,0,1.7-0.6,1.8-1.4h2.3c-0.1,2.1-1.3,3.7-4.1,3.7
				c-2.9,0-4.1-1.6-4.1-3.7H379.3z"/>
			<path class="st0" d="M396.4,72.2v11.4c0,3.4,1.3,5.2,3.6,5.2c2.3,0,3.6-1.6,3.6-5.2V72.2h4.5v11.1c0,6.1-3.1,9-8.2,9
				c-5,0-7.9-2.8-7.9-9.1v-11H396.4z M395.1,69.1c0-1.1,0.9-2,2-2c1.1,0,1.9,0.9,1.9,2c0,1.1-0.8,2-2,2
				C396,71.1,395.1,70.2,395.1,69.1z M401.2,69.1c0-1.1,0.9-2,2-2c1.1,0,2,0.9,2,2c0,1.1-0.8,2-2,2C402,71.1,401.2,70.2,401.2,69.1z"
				/>
		</g>
	</g>
</g>
</svg>