<svg version="1.1" id="Layer_1" xmlns="http://www.w3.org/2000/svg" xmlns:xlink="http://www.w3.org/1999/xlink" x="0px" y="0px"
	 viewBox="0 0 934.2 476.3" style="enable-background:new 0 0 934.2 476.3;" xml:space="preserve">
<style type="text/css">
	.st0{fill:#FFFFFF;}
	.st1{fill:#D6A577;}
</style>
<g>
	<g>
		<g>
			<path class="st0" d="M222.4,0.4c1.1,0,2.1,0,3.2,0c2.2,44.2,4.8,88.5,7.2,132.7c0.1,3.4,0.3,6.9,1,10.3c2-3.1,1.2-6.8,1.3-10.3
				C235,88.8,234.9,44.4,234.8,0c0.8,0,2.4,0.1,3.2,0.1c0,45.8,0.4,91.5,0.3,137.3c0.6-0.2,1.6-0.8,2.2-1
				c2.2-45.3,4.5-90.7,6.9-136.1c0.8,0,2.4,0.1,3.2,0.1c-2.1,44.2-4.6,88.4-6.5,132.6c1-1.2,2.6-2.1,2.6-3.9
				c4.4-42.6,8.8-85.2,13.2-127.8c1.1,0,2.1,0.1,3.2,0.1c-3.1,31.6-6.6,63.2-9.7,94.9c-0.9,10.5-2.6,20.9-2.9,31.4
				c3.7-1.8,3.1-6.2,3.8-9.6c6.2-38.5,11.9-77.1,18.3-115.6c1,0.2,2,0.4,3,0.6c-6,40-12.7,79.9-18.6,120c1.8-1.2,3.7-2.5,3.9-4.8
				c8.1-37.9,15.9-75.8,24.2-113.6c0.8,0.3,2.3,0.8,3,1.1c-5.6,25.8-11,51.7-16.5,77.6c-2.3,11.6-5.2,23.1-7.1,34.8
				c1.2-0.7,2.4-1.4,3.7-2.1c9.7-36.1,19.3-72.2,29-108.3c0.8,0.2,2.3,0.7,3,1c-9.2,34.9-19,69.7-27.8,104.8c1.4-0.7,2.8-1.3,4.2-2
				c10.8-33.4,21.7-66.7,32.5-100c1,0.3,2.1,0.6,3.1,0.9c-10.5,32.4-21,64.7-31.5,97.1c1.6-0.6,3.3-1.2,4.9-1.9
				c11.8-30.6,23.6-61.2,35.3-91.9c1,0.3,2,0.5,3,0.8c-11,29.8-22.9,59.3-34,89c1.8-0.6,3.6-1.2,5.4-1.8
				c12.2-27.8,24.8-55.5,37.1-83.3c1,0.3,2,0.7,3,1c-11.8,27-23.9,53.9-35.9,80.8c2-0.5,4-1,6-1.5c13.1-25,25.5-50.4,38.8-75.4
				c0.5,0.6,1.5,1.6,2,2.2c-4.2,9.8-9.6,19-14.3,28.6c-7.3,14.5-14.9,28.8-22.1,43.3c2.5-0.8,6.1-0.2,7.4-2.9
				c12.7-21.7,25.1-43.5,37.9-65.1c0.5,0.5,1.5,1.6,2,2.2c-0.8,2.3-2.2,4.4-3.4,6.5c-11.2,19-22.1,38.2-33.3,57.3
				c2.4-0.3,4.9-0.6,7.3-1.1c12.4-19.4,25.2-38.6,37.7-58c0.8,0.5,1.7,1.1,2.5,1.7c-1.1,2.6-2.8,4.8-4.3,7.2
				c-8,12.3-16,24.6-24,36.9c-2.6,4-5.4,7.8-7.5,12c2.5-0.2,5.1-0.5,7.6-0.8c11.8-16.7,24.2-33.1,36.1-49.8c0.7,0.8,3,1.5,2,2.7
				c-11.1,15.8-23,31.1-34,47.1c2.6,0,5.2,0,7.9-0.1c11.1-14.1,22.7-27.8,33.8-41.8c1,0.5,2,0.9,2.9,1.4
				c-10.6,13.8-22,26.8-32.7,40.6c2.5,0.3,5.1,0.6,7.6,0.6c3.5-2.5,5.9-6.2,8.9-9.3c7.9-8.4,15.3-17.2,23.4-25.4
				c0.5,0.6,1.6,1.7,2.2,2.3c-10,10.9-20.1,21.8-29.9,33c2.8,0.4,5.5,0.8,8.3,1.3c9.4-9.3,18.9-18.6,28.2-27.9
				c0.8,0.8,1.5,1.6,2.3,2.4C398,81.3,389,90,380.3,98.8c2.9,0.7,5.9,1.4,8.8,1.9c7-6.4,14.2-12.5,21.2-19c1.3-0.8,2.7-3.1,4.2-1.3
				c1.6,0.5-0.2,2.1-0.8,2.8c-6.9,6.3-14,12.3-20.8,18.7c3,0.8,5.9,2.6,8.9,2.5c6.7-4.9,13-10.5,19.6-15.5c0.6,0.9,1.3,1.7,2,2.6
				c-6.1,4.8-12.2,9.8-18.3,14.6c3,1.1,5.7,3,8.9,3.4c5.1-3.2,9.9-7,14.8-10.6c0.7,0.9,1.4,1.8,2.1,2.7c-4.6,3.2-9.2,6.4-13.7,9.8
				c2.8,1.4,5.4,3,8.3,4.1c3.9-1.1,6.6-4.6,10.5-5.8c0.5,0.5,1.6,1.5,2.2,2c-3.1,2-6.2,4-9.2,6c2.5,1.6,5.1,3.2,7.5,5
				c-5.5-2.6-10.7-5.6-16.4-7.9c-39.6-17-86.7-15.3-124.9,4.9c-34.8,18-61.7,51.1-70.6,89.4c-8.9,36.1-1.3,75.8,19.9,106.3
				c20.5,29.9,53.1,51.1,88.7,58.2c36,7.5,74.7,0.8,106-18.5c1.3,0.9,2.7,1.7,4,2.6c-0.5,0.5-1.6,1.5-2.2,2
				c-1.7-0.6-3.2-1.5-4.8-2.4c-2.7,1.8-5.4,3.5-8.1,5.3c2.6,1.8,5.3,3.5,8,5.3c-0.5,0.9-0.9,1.9-1.4,2.8c-3.3-1.8-6.3-4.3-9.7-5.9
				c-3.2,0.5-5.9,2.7-8.8,4c4.3,3.3,8.6,6.4,13,9.6c-0.7,0.7-1.4,1.5-2,2.3c-5.1-2.8-9.1-7.2-14.2-10c-3.1,0.4-5.9,2.1-8.9,3.2
				c5.6,4.8,11.3,9.5,17,14.1c-0.4,1-0.9,2-1.3,2.9c-6.8-4.9-13-10.6-19.5-15.8c-2.8,1-5.7,1.9-8.5,2.8c6.9,6.8,14.2,13.2,21.4,19.8
				c-0.7,0.9-1.4,1.8-2,2.6c-7.7-7.2-15.5-14.1-23.1-21.4c-2.8,0.6-5.7,1.2-8.5,1.9c7.9,9.2,17,17.4,25.1,26.4
				c-0.6,0.5-1.9,1.5-2.5,2c-8.9-9.2-17.9-18.4-26.9-27.5c-2.8,0.4-5.6,0.8-8.5,1.3c9,10.3,18,20.5,27.1,30.7
				c0.6,0.8,1.8,2.4,0.5,3.1c-0.8,1.2-2.2-0.1-2.8-0.7c-9.4-10.6-18.7-21.4-28.2-32c-2.6-1.3-5.9-0.1-8.8-0.1
				c10.3,13.5,21.3,26.5,31.4,40.1c-0.9,0.5-1.9,0.9-2.8,1.4c-11-13.8-21.9-27.8-32.9-41.6c-2.6,0-5.2,0-7.8,0.1
				c11,15.9,22.3,31.5,33.4,47.4c-0.8,0.6-1.6,1.3-2.4,1.9c-12-16.3-23.5-33-35.2-49.4c-2.5-0.2-5-0.4-7.6-0.7
				c11.5,18.5,23.2,36.9,34.8,55.3c-0.7,0.4-2.1,1.3-2.8,1.8c-12.1-19.1-24.3-38.2-36.2-57.4c-2.4-0.4-4.8-0.8-7.2-1.1
				c11.7,21.3,24,42.3,35.4,63.7c-0.7,0.3-2.1,0.8-2.9,1.1c-12.3-21.9-24.5-43.7-36.8-65.6c-2.2-0.5-4.3-1-6.5-1.4
				c11.5,24,23.6,47.7,35.1,71.7c-1,0.4-2,0.7-3,1.1c-12.1-24.8-24.2-49.5-36.6-74.2c-1.9-0.4-3.8-0.9-5.6-1.3
				c11,26.8,22.7,53.2,34,79.9c-1.1,0.2-2.2,0.5-3.3,0.7c-11.6-27.5-23.5-54.8-35.1-82.2c-1.8-0.6-3.6-1.2-5.4-1.8
				c10.3,29.5,21.5,58.6,32.1,88c-1,0.3-2.1,0.6-3.1,0.9c-11.2-30.4-22.2-60.8-33.5-91.1c-1.6-0.6-3.2-1.1-4.9-1.7
				c9.9,32,19.9,64,29.6,96.1c-1.1,0.2-2.1,0.4-3.2,0.6c-10.1-33-20.4-66-30.5-99.1c-1.5-0.7-2.9-1.4-4.3-2
				c8.4,34.8,17.5,69.3,26,104.1c-1.1,0.1-2.2,0.1-3.2,0.2c-8.7-35-17.6-69.9-26.4-104.9c-0.3-2.3-2.7-3.1-4.3-4.3
				c6.9,37.3,14.6,74.5,21.7,111.8c-1.1,0.1-2.1,0.3-3.2,0.4c-7.4-37.6-14.7-75.2-22.1-112.8c0-2.2-2.3-3-3.8-4.2
				c5.4,39.6,11.2,79.1,16.8,118.6c-1.1,0.1-2.2,0.3-3.3,0.4c-5.5-40-11.3-79.9-17-119.9c0-2-1.8-3-3-4.3
				c0.7,15.4,2.6,30.8,3.8,46.2c2.3,26.4,4.8,52.8,6.9,79.2c-0.8,0-2.3,0.1-3.1,0.2c-3.8-42.9-7.6-85.7-11.4-128.6
				c-0.9-0.7-1.7-1.3-2.6-2c1.6,43.7,3.1,87.4,4.7,131.1c-0.8,0-2.4,0-3.2,0c-1.7-44.8-3.2-89.6-4.8-134.3c-0.7-0.6-1.5-1.3-2.2-1.9
				c-1,45.5-1.4,91-2.4,136.5c-0.8,0-2.3,0-3.1,0c0.7-45.7,1.6-91.5,2.2-137.2c0.2-1.7-0.5-3.2-1.4-4.6c-1.9,15.1-2.2,30.5-3.6,45.7
				c-2.1,31.9-4.5,63.7-6.5,95.6c-1.1,0-2.2,0-3.2,0c3.1-47.2,6.6-94.4,9.7-141.6c0.2-1.6,0-3.2-1.1-4.5
				c-6.4,48.4-11.8,97-18.1,145.4c-1.5-0.5-3.8-0.6-2.7-2.8c5.8-49,12.1-97.8,17.8-146.8c-0.3,0-0.9-0.1-1.3-0.1
				c-8.6,49.2-17.4,98.4-26,147.6c-1.1-0.1-2.1-0.3-3.2-0.4c8.1-46.8,16.5-93.6,24.7-140.4c0.7-4.2,1.7-8.3,1.7-12.6
				c-1.8,3.5-2.3,7.4-3.2,11.2c-10.7,46.1-21.3,92.3-32,138.4c0,2-2.2,0.8-3.4,1c11.5-51.6,23.9-103,35.6-154.6
				c-0.2,0-0.6-0.1-0.9-0.2c-14.6,50.7-29.2,101.4-43.8,152.1c-0.8-0.2-2.3-0.5-3-0.7c5.1-19.2,10.9-38.2,16.3-57.3
				c7.6-26.5,15.2-52.9,22.8-79.3c1.8-6.7,4.1-13.3,5.5-20.1c-1.5,2.9-2.6,5.9-3.6,9c-16.6,48.2-33.4,96.4-50,144.7
				c-0.8-0.2-2.3-0.7-3-0.9c14.6-43.4,29.9-86.6,44.7-129.9c3-9.1,6.5-18,9.1-27.2c-5.6,12.3-10.3,25-15.6,37.5
				c-15.6,38.6-31.4,77.1-46.9,115.8c-1.1-0.2-2.2-0.3-3.2-0.5c16.6-41.6,33.7-83.1,50.5-124.7c4.1-10.4,8.6-20.5,12.3-31
				c-8,16-15.2,32.3-23,48.4c-16,34.3-32.2,68.5-48.1,102.8c-0.8-0.1-2.2-0.4-3-0.6c1.5-4.7,3.9-9.1,6-13.6
				c18.2-39,36.6-78,54.8-117c3.7-8.3,7.9-16.3,11.3-24.8c-19.5,36.5-39,72.9-58.5,109.4c-7.5,13.9-14.7,27.9-22.5,41.7
				c-3.6-1.9-0.7-5.1,0.5-7.6c26.2-48.8,52.3-97.6,78.3-146.5c-30,49.1-59.5,98.6-89.6,147.7c-0.7-0.5-1.9-1.3-2.6-1.8
				c29.6-49.3,59.7-98.3,89.2-147.8c-32.3,47.5-64.6,95-96.9,142.6c-0.7-0.4-2.1-1.2-2.8-1.6c33.2-49.1,66.8-97.9,99.9-147.1
				c-36,46.9-71.5,94.2-107.2,141.4c-0.9-0.5-1.9-1-2.8-1.5c23.7-31.6,47.8-62.8,71.6-94.2c12.8-16.5,25.2-33.3,38-49.7
				c-2.9,2.7-5.3,5.8-7.8,8.8c-36.3,43-72.7,85.9-108.9,129c-0.8-0.7-1.7-1.3-2.5-2c39.3-46.7,79.1-93.1,118.4-139.8
				c-24.9,26-49.3,52.6-74.1,78.7c-16.9,18.3-34.2,36.3-51.1,54.7c-0.8-0.8-1.7-1.5-2.5-2.3c42.1-44.3,84-88.7,125.9-133.2
				c-5.1,4.2-9.6,9.1-14.5,13.6c-39.2,37.7-78.6,75.1-117.7,112.9c-0.9-0.7-1.8-1.4-2.6-2.2c45-42.7,90-85.3,134.8-128.2
				c-47.1,40.3-93.9,80.9-141,121.3c-0.6-0.9-1.2-1.8-1.9-2.7c47-40.1,94.1-80.2,140.9-120.6C150.4,307.1,104.3,343,58,378.7
				c-2.7,2-5.2,4.4-8.2,6c-0.6-0.8-1.3-1.6-2-2.3c29.5-22.4,58.9-45.1,88.3-67.6c20.3-15.7,40.8-31.1,60.9-46.9
				c-48.5,33.4-96.9,67-145.4,100.5c-3.2,2.3-6.4,4.6-9.8,6.5c-0.3-1-0.7-2.1-1-3.1c32.4-21.9,64.6-44.2,96.9-66.3
				c19.4-13.4,38.9-26.5,58.1-40.1C142.8,297.9,89.4,331,36,364c-0.6-0.9-1.2-1.9-1.8-2.8c54-33,108.2-65.8,162.1-99
				c-55.9,30-111.2,60.9-167,90.9c-0.4-1-0.8-2-1.2-2.9c55.7-30,111.4-60.1,167.2-90c-3.7,1.1-7.1,3-10.6,4.7
				C131,290.5,77.3,316.4,23.5,342c-0.4-1.4-1.8-3.4,0.6-3.8c57.1-27.1,114.3-53.9,171.4-81c-12.8,4.8-25.2,10.4-37.9,15.4
				c-41.2,17.1-82.3,34.2-123.5,51.4c-5.4,2.1-10.6,4.7-16.2,6.5c0.3-1.1-1-3.2,0.7-3.5c35.1-14.4,70.2-28.7,105.4-43.1
				c23.5-9.5,46.8-19.3,70.3-28.6c-3.4,0.6-6.7,1.8-9.9,3c-56.8,20.1-113.7,40.3-170.5,60.4c-0.2-1.1-0.4-2.2-0.6-3.3
				c60.7-20.9,121.3-42.3,182-63c-4.3,0.7-8.4,2.1-12.6,3.4c-57.6,16.9-115.1,34-172.7,51c-0.2-1.1-0.4-2.2-0.6-3.2
				c44.7-12.9,89.5-25.9,134.2-38.8c17.2-5.1,34.6-9.8,51.8-15.2c-62.9,14.7-125.7,30.1-188.6,45.1c-0.2-1.1-0.3-2.2-0.4-3.3
				c63-14.5,126-29.2,189-43.8c-13.5,1.9-26.8,4.8-40.3,7.1c-50.3,9.2-100.6,18.6-151,27.6c-0.1-0.8-0.3-2.4-0.4-3.2
				c47.6-8.3,95.1-16.8,142.6-25.2c16-2.7,31.9-6,48-8.2c-3.8-0.1-7.5,0.3-11.2,0.9C122.8,254.4,62.6,262.1,2.3,270
				c-0.2-0.8-0.6-2.3-0.8-3.1c58.5-7.5,117.2-14.4,175.7-21.7c5.8-0.7,11.6-1.1,17.2-2.5c-48.1,3.9-96.3,7.3-144.5,11
				c-16.5,1.1-33,2.8-49.5,3.5c0.1-1.1,0.1-2.1,0.2-3.1c64.6-4.3,129.1-8.8,193.7-13.3c-16.4-0.2-32.8,0.6-49.2,0.9
				c-48.4,1-96.9,2.2-145.3,3.2c0.1-0.8,0.2-2.4,0.3-3.2c64.5-1,129.1-2.1,193.6-3c0-0.2,0-0.5,0-0.6c-64.4-2-129-4.1-193.5-6.1
				c0-0.8,0-2.4-0.1-3.2c52.7,2,105.4,4,158.1,6c12.1,0.2,24.2,1.4,36.3,0.9c-64.6-5.3-129.1-10.8-193.7-16.2
				c0.1-0.8,0.2-2.4,0.2-3.2c61,5.4,122.1,11.2,183.1,16.6c3.8,0.4,7.5,0.7,11.3,0.9c-0.7-0.6-1.4-1.3-2.1-1.9l1.2-0.8
				C131,219,67.6,206.8,4.2,194.5c0.1-0.8,0.4-2.3,0.5-3.1c55.9,11,111.7,22.3,167.5,33.3c7.8,1.3,15.4,3.6,23.2,4.2
				c-62.9-15.6-125.7-31.2-188.6-46.6c0.2-0.8,0.5-2.4,0.7-3.2c57.9,14.5,115.7,29.5,173.5,44.2c4.8,1.2,9.6,2.7,14.5,3.6
				c-14.9-5.2-30.2-9.3-45.2-14.1c-46.7-14.2-93.3-28.5-140-42.6c0.1-0.8,0.3-2.3,0.4-3c17.4,4.8,34.5,10.7,51.8,15.9
				c38.3,12,76.6,24,114.9,35.9c6,1.7,11.8,4.1,18,5.2c-0.5-0.3-1.4-0.8-1.9-1l0.9-0.9c0.2-0.2,0.5-0.5,0.7-0.7l-0.9-0.6l0.2-0.1
				c0.6-0.3,1.7-1,2.2-1.4c-0.2-0.1-0.8-0.3-1-0.4l-1.7-0.9l1.7-1c0.2-0.1,0.6-0.4,0.8-0.5c0.2-0.8,0.4-1.5,0.6-2.2l-0.5-0.3
				c-0.6-0.5-1.8-1.6-2.4-2.2l1.2-1c0.2-0.1,0.5-0.4,0.6-0.5c0.5-0.4,1.6-1.2,2.1-1.7c-0.5-0.3-1-0.5-1.5-0.8
				c-14.6-11.1-28.7-22.7-43.1-34C119,146.6,84.6,119.3,50.1,92.1c0.7-0.9,1.3-1.8,2-2.6c48.3,38.7,96.8,77.3,145.2,115.9
				c-6.2-6.3-13.2-11.6-19.6-17.6c-39.2-34.5-78.3-69-117.5-103.4c-0.7-0.7-1.4-1.4-2-2.1c0.6-1.2,2.1-2.9,3.2-1.2
				c46,40.7,91.7,81.7,137.8,122.3c-14.6-15.1-29.9-29.4-44.8-44.3c-29.3-28.7-58.6-57.5-88-86.1c0.9-0.7,1.7-1.5,2.6-2.2
				c22.8,22.8,45.9,45.2,68.7,68c17.3,17,34.4,34.1,51.7,51.1c3,2.9,5.6,6,8.9,8.5c-40.7-45-82-89.5-123-134.3
				c0.9-0.7,1.8-1.4,2.7-2.1c33.9,37.5,68.1,74.7,102.1,112.1c7.2,7.6,13.9,15.5,21.2,23c-37.1-45.2-74.4-90.3-111.6-135.4
				c-1.5-2.1-3.9-3.9-4.5-6.5c1-1.4,2.8-1.1,3.6,0.3c37.9,46.1,75.5,92.5,113.5,138.5c-10.7-15.1-22-29.9-32.9-44.9
				c-25-33.8-50-67.7-75-101.5c1.1-0.3,2.7-2,3.6-0.5c35.1,47.6,70.2,95.2,105.1,143c-6.6-10.8-13.9-21.2-20.8-31.9
				c-18.2-27.5-36.3-55.1-54.5-82.6c-7.6-11.8-15.7-23.3-23.1-35.3c1-0.3,2.1-0.7,3.1-1c31.9,49,64.3,97.8,96.2,146.8
				c-6.8-12.6-14.4-24.8-21.5-37.2c-22.5-38.4-44.9-76.7-67.4-115.1c1.4-0.8,3.4-1.8,4.1,0.4c28.6,49,57.4,97.9,85.9,147
				c-5.7-12.1-12.2-23.9-18.2-35.8c-15.2-29.5-30.4-58.9-45.6-88.4c-5-9.8-10.3-19.5-15-29.5c1-0.4,1.9-0.8,2.9-1.2
				c26.3,51,52.6,101.9,78.9,152.9c-7.4-17.6-15.6-34.9-23.4-52.4c-15.6-34.9-31.3-69.8-47-104.7c0.7-0.4,2.1-1.1,2.8-1.5
				c23.3,51.5,46.6,103,69.7,154.6c-0.8-3.6-2.3-7.1-3.7-10.5c-16.9-43.7-33.9-87.3-50.9-130.9c-2.1-5.6-4.6-11.2-6.4-16.9
				c0.7-0.2,2.2-0.5,3-0.7c19.2,49.2,38.3,98.5,57.5,147.7c1,2.6,2,5.1,3.2,7.5c-7.9-25.4-16.6-50.6-24.8-76
				c-8.9-27.6-18.4-55.1-27.1-82.8c0.8-0.2,2.4-0.5,3.1-0.7c16.7,51.7,34,103.2,50.8,154.8c-0.1-1.5-0.2-3.1-0.5-4.6
				C200.7,110.9,186.6,60,173,8.9c1.1-0.2,2.1-0.5,3.2-0.7c12,45,24.4,89.9,36.6,134.9c1.9,6.4,3.2,13.1,5.6,19.4
				c0.1-2.8-0.7-5.6-1.3-8.3c-9.6-44.3-19.1-88.6-28.7-132.9c-1.1-5.2-2.5-10.3-3.1-15.6c0.8-0.1,2.3-0.2,3-0.2
				c10.3,48,20.7,95.9,31,143.8c0.7,2.9,1,5.9,2.5,8.5c0-3.2-0.6-6.4-1.1-9.6C213,99.9,205.1,51.7,197.4,3.4
				c0.8-0.2,2.3-0.5,3.1-0.7c8.2,50,16.1,100.1,24.3,150.2c0.3-0.3,0.8-0.9,1.1-1.1c-5.2-50-10.7-100.1-16.1-150.1
				c1.1-0.1,2.1-0.3,3.2-0.4c5.3,47.7,10.3,95.4,15.4,143c0,1.3,0.7,2.5,1.4,3.5c0.2-1.9,0.2-3.9,0.2-5.8
				C227.6,94.9,224.7,47.7,222.4,0.4z"/>
		</g>
		<path class="st0" d="M404.4,126.2c1.7,1.6,3.3,3.4,5.2,4.8c2.3-0.5,4.4-1.8,6.5-2.7c-1,2.2-2.2,4.3-2.7,6.6
			c1.4,1.9,3.2,3.5,4.9,5.2c-2.3-0.3-4.6-0.8-7-0.8c-1.5,1.7-2.3,4-3.4,6c-0.5-2.4-1-4.8-1.4-7.2c-2.3-0.4-4.5-0.8-6.8-1.3
			c1.9-1.2,3.9-2.4,6-3.5C405.2,130.9,404.8,128.5,404.4,126.2z"/>
		<path class="st0" d="M310.3,129.3c1.6,1.8,3.1,3.6,4.7,5.4c2.3-0.9,4.6-1.8,6.9-2.6c-1.3,2-2.7,3.9-3.7,6.1c1.1,2,2.7,3.8,4.1,5.6
			c-2.4-0.5-4.7-1-7-1.5c-1.2,1.9-2.5,3.8-3.8,5.7c-0.4-2.2-0.7-4.5-0.9-6.8c-2.2-0.5-4.5-1-6.7-1.6c2.2-1.1,4.4-2.1,6.7-3.1
			C310.5,134.1,310.4,131.7,310.3,129.3z"/>
		<path class="st0" d="M262.3,177.1c1-2.1,1.9-4.2,3-6.2c0.5,2.2,1,4.5,1.5,6.7c2.3,0.2,4.6,0.4,6.9,0.7c-1.9,1.4-3.9,2.7-5.9,4
			c0.5,2.4,0.9,4.8,1.3,7.2c-1.7-1.4-3.2-2.9-5.1-4.1c-2.3,0.4-4.1,1.9-6,3c0.7-2.3,1.5-4.5,2.2-6.8c-1.7-1.5-3.3-3.1-5-4.7
			C257.6,176.8,260,176.9,262.3,177.1z"/>
	</g>
	<g>
		<path class="st0" d="M42.6,102.2c0.4-0.7,1.3-2,1.7-2.7c47.1,33.5,93.9,67.3,140.9,100.8c3.8,2.6,7.2,5.7,11.4,7.7
			c0.5,0.3,1,0.5,1.5,0.8c-0.5,0.4-1.6,1.2-2.1,1.7c-14.2-9.3-27.8-19.6-41.8-29.2C117,154.8,79.8,128.5,42.6,102.2z"/>
	</g>
	<g>
		<path class="st0" d="M37.5,110c48.3,30.7,96.4,61.5,144.7,92.2c4.4,2.9,8.9,5.6,13.2,8.7l-1.2,1c-0.3-0.1-1-0.1-1.3-0.2
			c-52.4-33.1-105-66-157.3-99.2C36,111.9,37,110.6,37.5,110z"/>
	</g>
	<g>
		<path class="st0" d="M377,124.1c1.5-1.9,3.1-3.7,4.7-5.6c-0.1,2.5-0.2,5-0.2,7.6c2.1,0.9,4.2,1.8,6.3,2.8
			c-2.2,0.7-4.5,1.3-6.8,1.9c-0.1,2.2-0.2,4.5-0.3,6.7c-1.5-1.9-2.9-3.9-4.2-5.9c-2.4,0.5-4.7,1-7.1,1.5c1.5-1.9,3.1-3.8,4.6-5.7
			c-1.3-2-2.6-4-3.9-6.1C372.5,122.2,374.7,123.2,377,124.1z"/>
	</g>
	<g>
		<path class="st0" d="M344.1,119.7c1,2,1.8,4.1,2.7,6.1c2.3,0,4.6,0.1,7,0.2c-1.8,1.5-3.6,2.9-5.4,4.3c0.7,2.2,1.4,4.4,2,6.6
			c-2-1.3-3.9-2.8-6.1-3.7c-2.1,1-3.9,2.4-5.8,3.7c0.6-2.2,1.4-4.4,1.6-6.7c-1.6-1.6-3.6-2.9-5.4-4.3c2.4-0.1,4.8-0.1,7.1-0.1
			C342.6,123.8,343.3,121.7,344.1,119.7z"/>
	</g>
	<g>
		<path class="st0" d="M436.9,122.9c1.9-1.2,3.7-2.4,5.6-3.6c0.6,0.9,1.2,1.9,1.9,2.8c-1.4,0.8-2.8,1.7-4.1,2.5
			C439.1,124,438,123.4,436.9,122.9z"/>
	</g>
	<g>
		<path class="st0" d="M29.3,123.5c0.7-1,1.1-2.8,2.7-2c2.8,1.1,5.2,2.8,7.9,4.2c47.6,26.9,95.2,53.9,142.9,80.8
			c4.6,2.6,9.1,5.3,13.9,7.4l0.5,0.3c-0.2,0.7-0.4,1.5-0.6,2.2C140.6,185.7,85,154.5,29.3,123.5z"/>
	</g>
	<g>
		<path class="st0" d="M23.2,134.3c1.1-0.8,2.1-2.8,3.6-1.5c49.2,24.4,98.3,49,147.4,73.5c7.1,3.6,14.4,6.9,21.3,10.8l-1.7,1
			c-6.6-2.7-12.9-6.1-19.3-9.2c-45.9-22.5-91.7-45-137.6-67.4C32.4,139,27.6,137,23.2,134.3z"/>
		<path class="st0" d="M13.6,158c0.9-1.1,1.3-3.7,3.2-2.3c57.6,21.3,115,42.9,172.6,64.1c1.7,0.7,3.6,1,4.9,2.4l-0.9,0.9
			c-1.1-0.1-2.1-0.4-3.1-0.7C131.4,200.8,72.5,179.4,13.6,158z"/>
	</g>
	<g>
		<path class="st0" d="M433.7,144.6c0.6-2.4,1.2-4.9,1.8-7.3c0.9,2.3,1.9,4.6,2.8,6.8c2.4-0.1,4.8-0.2,7.1-0.3
			c-1.7,1.6-3.4,3.1-5.1,4.7c0.7,2.3,1.5,4.5,2.3,6.8c-2-1.1-4-2.3-6.1-3.4c-1.7,1.6-3.4,3.1-5.2,4.5c0.4-2.4,0.9-4.8,1.4-7.2
			c-2-1.3-4-2.6-5.9-4C429.1,144.9,431.4,144.7,433.7,144.6z"/>
		<path class="st0" d="M295.9,326.3c1.8,1.2,3.6,2.6,5.6,3.6c2.5-0.3,4.3-2.5,6.4-3.7c-0.8,2.2-1.7,4.5-2,6.8
			c1.7,1.5,3.7,2.8,5.5,4.2c-2.4,0.1-4.9,0.1-7.3,0.2c-0.8,2.1-1.7,4.2-2.6,6.3c-0.8-2.1-1.4-4.2-2.1-6.3c-2.5-0.1-4.9-0.1-7.4-0.2
			c1.9-1.4,3.9-2.8,5.9-4.1C297.2,330.8,296.6,328.5,295.9,326.3z"/>
	</g>
	<g>
		<path class="st0" d="M19.7,143.3c51.8,22.3,103.4,44.9,155.2,67.2c6.9,2.8,13.5,6.4,20.7,8.4c0.3,0.1,0.8,0.3,1,0.4
			c-0.6,0.3-1.7,1-2.2,1.4c-1.5,0.1-2.9-0.8-4.3-1.3C132.9,195,75.8,170.6,18.5,146.3C18.9,145.3,19.3,144.3,19.7,143.3z"/>
	</g>
	<g>
		<path class="st0" d="M284.7,151.8c1.8-1.8,3.6-3.5,5.4-5.3c-0.4,2.5-0.8,5-1.2,7.6c2,0.9,3.9,2.1,5.7,3.3
			c-2.2,0.5-4.5,0.9-6.7,1.4c-0.5,2.3-0.9,4.6-1.4,6.9c-1.1-2-2.1-4.1-3.2-6.1c-2.4,0.3-4.7,0.6-7,0.9c1.6-1.8,3.3-3.5,5-5.2
			c-0.9-2.1-1.9-4.3-2.8-6.4C280.6,149.7,282.7,150.7,284.7,151.8z"/>
	</g>
	<g>
		<path class="st0" d="M470.2,154.6c22.2,0.1,44.4,0,66.6,0c0,6.1,0,12.2,0,18.4c-7.6,0-15.2,0-22.8,0c0,19.1,0,38.2,0,57.3
			c-7,0-14,0-21,0c-0.1-19,0.1-38.1-0.1-57.1c-7.5-0.6-15.1,0-22.6-0.2C470.1,166.8,470.2,160.7,470.2,154.6z"/>
		<path class="st0" d="M540.6,154.6c7.1,0,14.2,0,21.3,0c0,5,0,10.1,0,15.1c-6.6-0.1-13.2,0.1-19.8-0.1c8.3,1,17,5.7,19.4,14.3
			c1.2,7.4-1.2,15.4,2.5,22.3c3.4,6.8,12.8,8,19.1,4.9c4.6-2.4,6.7-7.9,6.7-12.9c0.1-14.5,0-29.1,0-43.6c7.1,0,14.2,0,21.4,0
			c0.2,5,0.1,10.1,0.1,15.1c-6.7-0.1-13.4,0.2-20.1-0.2c6.8,1.1,14,3.8,17.7,10c3.4,4.9,2.3,11.1,2.4,16.7
			c-0.1,9.1-1.9,18.9-8.3,25.7c-6.7,7.3-17.1,9.8-26.7,9.8c-9.2,0-19.2-1.8-26.1-8.4c-6.6-6.1-9.3-15.3-9.5-24.1
			C540.5,184.3,540.7,169.5,540.6,154.6z"/>
		<g>
			<path class="st0" d="M619.4,154.6c12.6,0.1,25.2,0,37.9,0.1c8,0.2,16.6,2.2,22.5,8c7.1,6.7,8.2,17.6,5.6,26.6
				c-2.1,6.9-7.9,11.8-14.2,14.8c6,8.7,12.1,17.4,17.9,26.2c-8,0.1-16.1,0-24.1,0.1c-5.2-7.6-10.2-15.2-15.3-22.9
				c-3.1-0.1-6.2-0.1-9.3-0.1c0,7.6,0,15.3,0,22.9c-7-0.1-14,0-21,0C619.4,205,619.3,179.8,619.4,154.6z M640.4,172.8
				c0,6,0,12.1,0,18.1c6.7-0.5,13.9,1.2,20.3-1.3c6.5-2.7,6.3-13.4-0.4-15.7C653.9,171.8,647,173.1,640.4,172.8z"/>
		</g>
		<path class="st0" d="M692.8,154.6c7,0,14,0,21.1,0c0,10.2,0,20.4,0,30.6c8.7-10.1,17.4-20.3,25.9-30.5c8.3,0,16.5-0.1,24.8,0
			c-9.1,11.1-19,21.6-28.4,32.5c9.9,14.4,19.8,28.8,29.7,43.1c-7.9,0-15.9,0-23.8,0c-1.5,0.3-2.2-1.1-2.9-2.1
			c-5.9-8.6-11.7-17.4-17.7-26c-2.5,2.9-5.1,5.7-7.7,8.6c0.1,6.5,0,12.9,0,19.4c-7,0.1-14,0-21,0
			C692.8,205.1,692.9,179.8,692.8,154.6z"/>
		<path class="st0" d="M768,154.6c7-0.1,14.1,0,21.1,0c0.1,5,0,10.1,0,15.1c-6.6-0.1-13.3,0.2-19.9-0.1c5.9,1,12,3,15.9,7.7
			c2.3,2.8,4.1,6.3,4,10c0,14.4,0,28.7,0,43.1c-7.1,0-14.1,0-21.2,0C768,205.1,768,179.9,768,154.6z"/>
		<path class="st0" d="M791.9,154.6c8,0,15.9,0,23.9,0c5.1,9.2,10.3,18.4,15.6,27.5c5.1-9.2,10.5-18.3,15.6-27.4
			c7.8,0,15.7,0,23.5,0c-9,15.1-18.3,30.1-27.5,45.1c-1,1.3-1.2,2.9-1.1,4.5c0,8.7,0.1,17.4,0,26.1c-7-0.1-14.1,0-21.1-0.1
			c-0.1-9.4,0.3-18.8-0.1-28.2C811.3,186.1,801,170.6,791.9,154.6z"/>
		<path class="st0" d="M872.7,154.6c20.3,0.1,40.7,0,61,0c0,6,0,11.9,0,17.9c-13.4,0-26.8,0-40.2,0c0,3.8,0,7.6,0,11.4
			c12.1-0.1,24.2,0,36.3,0c0,5.5,0.1,11.1,0,16.6c-12.1,0-24.2,0-36.3,0c0,4,0,8,0,12c13.5,0.1,27.1,0,40.6,0c0,6,0,11.9,0,17.9
			c-20.5-0.1-41,0-61.5-0.1C872.7,205,872.7,179.8,872.7,154.6z"/>
		<path class="st0" d="M550.2,250.7c7.1,0,14.2,0,21.3,0c0,5,0,10,0,15c-6.4,0-12.9,0.1-19.3-0.1c6.2,1.4,12.7,3.6,16.4,9.1
			c6,7.9,0.4,18.6,4.8,27.1c4.2,9.1,19.5,9.3,24.1,0.4c1.7-3.1,1.9-6.7,2-10.2c0-13.8,0-27.6,0-41.5c7.1,0,14.2,0,21.3,0
			c0,5,0,10.1,0,15.1c-6.5,0-13.1,0.1-19.6-0.1c8.6,1.2,17.7,6.4,19.5,15.5c0.2,9.3,0.8,19-2.6,27.9c-2.5,6.6-7.5,12.1-13.9,15
			c-7.9,3.7-16.9,4.2-25.5,3.4c-8-0.9-16.2-4-21.3-10.4c-5.7-6.9-7.3-16.1-7.2-24.8C550.2,278.4,550,264.5,550.2,250.7z"/>
		<path class="st0" d="M470.3,250.9c8-0.1,16,0,24,0c5.1,9.2,10.4,18.3,15.5,27.4c5.3-9.1,10.4-18.3,15.7-27.5c7.8,0,15.7,0,23.5,0
			c-9.2,15.2-18.5,30.2-27.7,45.3c-1.2,1.8-1.1,3.9-1.1,6c0,8.1,0,16.3,0,24.4c-7,0-14.1,0-21.1,0c0-8.8,0-17.6,0-26.3
			c0.1-1.6-0.6-3.1-1.4-4.4C488.4,280.8,479.3,265.9,470.3,250.9z"/>
		<path class="st0" d="M627.8,268.6c0-5.9,0-11.9,0-17.8c29.8,0.1,59.6,0,89.4,0c5.1,9.2,10.4,18.2,15.5,27.4
			c5.3-9.1,10.5-18.2,15.7-27.4c7.9,0,15.7,0,23.6,0c-9.2,15.2-18.5,30.2-27.8,45.4c-1.2,1.7-1,3.9-1.1,6c0.1,8.1,0,16.2,0,24.3
			c-7.1,0-14.1,0-21.2,0c0-8.8,0.1-17.6,0-26.4c0.2-2.1-1.2-3.8-2.1-5.5c-8.8-14.3-17.4-28.7-26.2-42.9c-0.1,4.8,0,9.7-0.1,14.5
			c-12.5,14.2-25.4,28.1-37.7,42.5c12.5,0.1,25.1,0,37.7,0c0,5.9,0,11.9,0,17.8c-22.3,0-44.7-0.1-67,0.1c0-5.1-0.3-10.1,0.1-15.1
			c1.2-2.2,3.3-3.9,4.9-5.9c10.9-12.3,21.9-24.6,32.9-36.9C652.2,268.5,640,268.6,627.8,268.6z"/>
		<path class="st0" d="M774.6,326.5c-0.2-25.2-0.1-50.5,0-75.7c7,0,14,0.1,21.1,0c0,25.2,0,50.5,0,75.7
			C788.7,326.5,781.7,326.5,774.6,326.5z"/>
		<path class="st0" d="M805.1,250.8c7,0.1,14,0.1,21,0c0.2,19.1,0.1,38.2,0,57.2c12.2,0.1,24.5-0.1,36.7,0.1c0,6.1,0,12.3,0,18.4
			c-19.3-0.1-38.5,0-57.8,0C805.2,301.3,805.2,276,805.1,250.8z"/>
		<path class="st0" d="M867.9,250.8c7,0,14.1,0,21.1,0c0,25.2,0,50.4,0,75.7c-7,0-14.1,0-21.1,0C867.9,301.3,868,276,867.9,250.8z"
			/>
	</g>
	<g>
		<path class="st1" d="M199.4,199.4"/>
	</g>
	<g>
		<path class="st0" d="M346.5,202.4c5.5,7.1,10.7,14.5,16.1,21.7c8.6-3.1,17-6.8,25.6-10c-4.7,8.2-10.8,15.5-15,23.9
			c4.9,7.5,10.7,14.4,15.8,21.8c-8.7-2.2-17.2-4.8-25.8-7.2c-5.2,7.9-10.3,15.8-15.6,23.7c-0.2-9.4-0.5-18.8-0.5-28.2
			c-8.5-2.5-17.2-4.6-25.6-7.4c8.4-3.6,16.9-6.7,25.3-10.2C346.7,221.1,346.5,211.8,346.5,202.4z"/>
		<path class="st0" d="M241.2,241.2c2,1.3,4.1,2.6,6.1,3.9c1.8-1.4,3.7-2.8,5.6-4.1c-0.5,2.3-1,4.6-1.4,6.9c2,1.3,4.1,2.6,6.1,4
			c-2.4,0.2-4.8,0.4-7.2,0.6c-0.5,2.3-1,4.6-1.6,7c-1-2.3-2-4.6-3-6.8c-2.3,0.1-4.5,0.2-6.8,0.2c1.6-1.6,3.3-3.1,5-4.6
			C243,245.9,242,243.5,241.2,241.2z"/>
	</g>
	<g>
		<path class="st0" d="M2.2,206.9c0.1-1.1,0.3-2.2,0.5-3.2c55.3,8.1,110.5,16.1,165.8,24.1c7.9,0.9,15.7,2.8,23.7,3
			c0.1,0.6,0.4,1.7,0.5,2.3C129.2,224.5,65.7,215.6,2.2,206.9z"/>
	</g>
	<g>
		<path class="st0" d="M248.6,204.9c1.5,1.9,2.9,3.8,4.4,5.8c2.1-0.7,4.3-1.4,6.4-2.1c-1.2,2-2.5,4-3.8,5.9c1.3,2.1,2.5,4.2,3.8,6.3
			c-2.2-0.8-4.3-1.5-6.5-2.3c-1.4,2-2.9,3.9-4.4,5.9c0-2.4,0-4.9,0.1-7.3c-2.2-0.8-4.4-1.7-6.6-2.6c2.2-0.8,4.4-1.6,6.6-2.3
			C248.6,209.6,248.6,207.2,248.6,204.9z"/>
		<path class="st0" d="M428.4,325.8c1.4-2,2.9-3.9,4.3-5.9c0.1,2.4,0.1,4.9,0.1,7.3c2.2,0.8,4.4,1.6,6.6,2.4
			c-2.2,0.8-4.4,1.6-6.7,2.3c0,2.5-0.1,4.9-0.1,7.4c-1.5-1.9-2.9-3.9-4.3-5.8c-2.1,0.8-4.3,1.5-6.4,2.2c1.2-2,2.4-4,3.8-6
			c-1.3-2.1-2.5-4.1-3.8-6.1C424.1,324.4,426.2,325.1,428.4,325.8z"/>
		<path class="st0" d="M365,345.6c0.5-2.3,1-4.6,1.6-6.9c1.1,2,2.2,4,3.2,6.1c2.4-0.4,4.8-0.9,7.2-1.3c-1.7,1.8-3.7,3.4-4.9,5.6
			c0.6,2.2,1.7,4.1,2.7,6.2c-2.2-0.9-4.4-1.9-6.6-2.9c-1.7,1.7-3.4,3.4-5.1,5c0.3-2.4,0.6-4.8,0.8-7.1c-2-1-4-2.1-6-3.1
			C360.4,346.6,362.7,346.1,365,345.6z"/>
	</g>
	<g>
		<path class="st0" d="M254.8,279.8c1.1-2,2.3-4,3.6-5.9c0.4,2.2,0.8,4.5,1.2,6.8c2.1,0.7,4.9,0.2,6.6,1.8c-1.8,1-3.7,1.8-5.6,2.6
			c0.2,2.4,0.5,4.7,0.7,7.1c-1.7-1.6-3.2-3.4-5.1-4.8c-2.2,0.7-4.2,1.8-6.3,2.7c0.9-2.1,1.9-4.2,2.9-6.2c-1.7-1.8-3.3-3.5-4.9-5.4
			C250.2,278.9,252.5,279.4,254.8,279.8z"/>
	</g>
	<g>
		<path class="st0" d="M272,304c1.4,1.9,2.7,3.9,4,5.9c2.4-0.5,4.8-0.9,7.2-1.4c-1.5,1.8-3.1,3.6-4.7,5.4c1.3,2,2.5,4,3.8,6.1
			c-2.3-0.9-4.6-1.8-6.8-2.7c-1.6,1.7-3.2,3.4-4.8,5.1c0.1-2.4,0.1-4.7,0.2-7.1c-2.3-0.9-4.5-1.9-6.7-2.8c2.4-0.6,4.8-1.1,7.2-1.6
			C271.6,308.6,271.8,306.3,272,304z"/>
		<path class="st0" d="M395.7,333.1c1.8,1.5,3.6,3,5.4,4.6c2-1.3,4-2.6,6.1-3.7c-0.8,2.2-1.8,4.4-2.7,6.6c1.7,1.6,3.4,3.2,5.2,4.8
			c-2.4,0-4.8,0-7.2,0c-0.9,2.2-1.8,4.3-2.8,6.5c-0.6-2.4-1.2-4.7-1.9-7.1c-2.3-0.1-4.5-0.2-6.8-0.3c2-1.4,4-2.8,6-4.2
			C396.6,337.8,396.1,335.5,395.7,333.1z"/>
	</g>
	<g>
		<path class="st0" d="M332.3,344.6c1.3-2,2.7-3.9,4.2-5.8c0.2,2.2,0.4,4.5,0.5,6.7c2.3,0.6,4.6,1.1,6.8,1.8c-2.1,1-4.2,2-6.3,2.8
			c0.1,2.4,0.2,4.8,0.2,7.2c-1.6-1.7-3.1-3.4-4.7-5.1c-2.3,0.8-4.6,1.5-6.9,2.2c1.2-1.9,2.4-3.8,3.6-5.7c-1.5-1.9-3.1-3.7-4.6-5.6
			C327.5,343.7,329.9,344.1,332.3,344.6z"/>
	</g>
</g>
</svg>
